<svg width="48" height="45" viewBox="0 0 48 45" fill="none" xmlns="http://www.w3.org/2000/svg">
<g clip-path="url(#clip0)">
<path opacity="0.87" fill-rule="evenodd" clip-rule="evenodd" d="M24 35.2401C36.77 35.2401 47.21 33.3201 48 30.9001V39.5701C47.22 43.1701 33.59 45.0001 24 45.0001C14.41 45.0001 0.78 43.1701 0 39.5701V30.9001C0.79 33.3201 11.23 35.2401 24 35.2401Z" fill="url(#paint0_linear)" fill-opacity="0.83"/>
<path d="M47.85 30.6201C47.8373 30.7797 47.7916 30.935 47.7159 31.0762C47.6401 31.2173 47.536 31.3412 47.41 31.4401C47.0063 31.7934 46.5467 32.0772 46.05 32.2801C44.4067 32.9565 42.6926 33.4462 40.94 33.7401C35.3453 34.6971 29.6758 35.1489 24 35.0901C18.3243 35.1489 12.6548 34.6971 7.06004 33.7401C5.32444 33.4426 3.62734 32.9529 2.00004 32.2801C1.50337 32.0772 1.04379 31.7934 0.640039 31.4401C0.50801 31.3479 0.400186 31.2253 0.325733 31.0825C0.251281 30.9397 0.212402 30.7811 0.212402 30.6201C0.212402 30.4591 0.251281 30.3005 0.325733 30.1577C0.400186 30.0149 0.50801 29.8923 0.640039 29.8001C1.04666 29.461 1.50608 29.1907 2.00004 29.0001C3.62571 28.3136 5.32286 27.8105 7.06004 27.5001C12.6548 26.5431 18.3243 26.0913 24 26.1501C29.6758 26.0913 35.3453 26.5431 40.94 27.5001C42.6942 27.8069 44.4084 28.31 46.05 29.0001C46.5467 29.2029 47.0063 29.4868 47.41 29.8401C47.5314 29.9345 47.6328 30.052 47.7083 30.1859C47.7839 30.3198 47.832 30.4674 47.85 30.6201Z" fill="url(#paint1_linear)" fill-opacity="0.83" stroke="url(#paint2_linear)" stroke-width="0.3"/>
<path opacity="0.87" fill-rule="evenodd" clip-rule="evenodd" d="M24 22.2401C36.77 22.2401 47.21 20.3201 48 17.9001V26.5701C47.22 30.1701 33.59 32.0001 24 32.0001C14.41 32.0001 0.78 30.1701 0 26.5701V17.9001C0.79 20.3201 11.23 22.2401 24 22.2401Z" fill="url(#paint3_linear)"/>
<path d="M47.8499 17.6201C47.8372 17.7797 47.7915 17.935 47.7158 18.0762C47.6401 18.2173 47.5359 18.3412 47.41 18.4401C47.0062 18.7934 46.5466 19.0772 46.0499 19.2801C44.4066 19.9565 42.6926 20.4462 40.9399 20.7401C35.3452 21.6971 29.6757 22.1489 24 22.0901C18.3242 22.1489 12.6547 21.6971 7.05995 20.7401C5.32436 20.4426 3.62725 19.9529 1.99995 19.2801C1.50328 19.0772 1.0437 18.7934 0.639951 18.4401C0.513975 18.3412 0.409845 18.2173 0.334118 18.0762C0.258392 17.935 0.21271 17.7797 0.199951 17.6201C0.21271 17.4604 0.258392 17.3052 0.334118 17.164C0.409845 17.0229 0.513975 16.899 0.639951 16.8001C1.04658 16.461 1.50599 16.1907 1.99995 16.0001C3.62563 15.3136 5.32278 14.8105 7.05995 14.5001C12.6547 13.5431 18.3242 13.0913 24 13.1501C29.6757 13.0913 35.3452 13.5431 40.9399 14.5001C42.6942 14.8069 44.4083 15.31 46.0499 16.0001C46.5466 16.2029 47.0062 16.4868 47.41 16.8401C47.5313 16.9345 47.6327 17.052 47.7083 17.1859C47.7838 17.3198 47.832 17.4674 47.8499 17.6201Z" fill="url(#paint4_linear)" fill-opacity="0.83" stroke="url(#paint5_linear)" stroke-width="0.3"/>
<path opacity="0.87" fill-rule="evenodd" clip-rule="evenodd" d="M24 9.24015C36.77 9.24015 47.21 7.32015 48 4.90015V13.5701C47.22 17.1701 33.59 19.0001 24 19.0001C14.41 19.0001 0.78 17.1701 0 13.5701V4.90015C0.79 7.32015 11.23 9.24015 24 9.24015Z" fill="url(#paint6_linear)" fill-opacity="0.83"/>
<path d="M47.8499 4.6201C47.8371 4.77975 47.7915 4.93503 47.7157 5.07615C47.64 5.21728 47.5359 5.3412 47.4099 5.4401C47.0061 5.79339 46.5466 6.07725 46.0499 6.2801C44.4066 6.95649 42.6925 7.44622 40.9399 7.7401C35.3451 8.69707 29.6756 9.14889 23.9999 9.0901C18.3242 9.14889 12.6547 8.69707 7.0599 7.7401C5.32431 7.4426 3.6272 6.95292 1.9999 6.2801C1.48559 6.08223 1.00877 5.79817 0.589902 5.4401C0.463927 5.3412 0.359796 5.21728 0.28407 5.07615C0.208343 4.93503 0.162662 4.77975 0.149902 4.6201C0.162662 4.46045 0.208343 4.30517 0.28407 4.16404C0.359796 4.02291 0.463927 3.899 0.589902 3.8001C1.01169 3.45621 1.48835 3.18577 1.9999 3.0001C3.62558 2.31359 5.32273 1.81048 7.0599 1.5001C12.6547 0.543127 18.3242 0.091307 23.9999 0.150097C29.6756 0.091307 35.3451 0.543127 40.9399 1.5001C42.6941 1.80686 44.4082 2.31002 46.0499 3.0001C46.5466 3.20295 47.0061 3.4868 47.4099 3.8401C47.5313 3.93447 47.6327 4.05202 47.7082 4.18592C47.7837 4.31983 47.8319 4.46741 47.8499 4.6201V4.6201Z" fill="url(#paint7_linear)" fill-opacity="0.83" stroke="url(#paint8_linear)" stroke-width="0.3"/>
</g>
<defs>
<linearGradient id="paint0_linear" x1="44.32" y1="37.9501" x2="3.8" y2="37.9501" gradientUnits="userSpaceOnUse">
<stop stop-color="#F7F7F8"/>
<stop offset="0.41" stop-color="#DBDDDF"/>
<stop offset="0.72" stop-color="#E1E1E3"/>
<stop offset="0.85" stop-color="#DADBDF"/>
<stop offset="1" stop-color="#C1C2C5"/>
</linearGradient>
<linearGradient id="paint1_linear" x1="1.47004" y1="30.6201" x2="46.64" y2="30.6201" gradientUnits="userSpaceOnUse">
<stop stop-color="white"/>
<stop offset="0.22" stop-color="#D9D9D9" stop-opacity="0.92"/>
<stop offset="0.61" stop-color="white" stop-opacity="0.85"/>
<stop offset="0.73" stop-color="white" stop-opacity="0.82"/>
<stop offset="1" stop-color="#B8B5B5" stop-opacity="0.66"/>
</linearGradient>
<linearGradient id="paint2_linear" x1="24" y1="26.0001" x2="24" y2="35.2401" gradientUnits="userSpaceOnUse">
<stop stop-color="#E2E0E0"/>
<stop offset="1" stop-color="white"/>
</linearGradient>
<linearGradient id="paint3_linear" x1="-7664.64" y1="-1451.32" x2="-9609.6" y2="-1451.32" gradientUnits="userSpaceOnUse">
<stop stop-color="#F7F7F8"/>
<stop offset="0.41" stop-color="#DBDDDF"/>
<stop offset="0.72" stop-color="#E1E1E3"/>
<stop offset="0.85" stop-color="#DADBDF"/>
<stop offset="1" stop-color="#C1C2C5"/>
</linearGradient>
<linearGradient id="paint4_linear" x1="-9650.35" y1="-853.857" x2="-7498" y2="-853.857" gradientUnits="userSpaceOnUse">
<stop stop-color="white"/>
<stop offset="0.22" stop-color="#D9D9D9" stop-opacity="0.92"/>
<stop offset="0.61" stop-color="white" stop-opacity="0.85"/>
<stop offset="0.73" stop-color="white" stop-opacity="0.82"/>
<stop offset="1" stop-color="#B8B5B5" stop-opacity="0.66"/>
</linearGradient>
<linearGradient id="paint5_linear" x1="-8576.8" y1="-812.507" x2="-8576.8" y2="-895.206" gradientUnits="userSpaceOnUse">
<stop stop-color="#E2E0E0"/>
<stop offset="1" stop-color="white"/>
</linearGradient>
<linearGradient id="paint6_linear" x1="-7664.64" y1="-1281.02" x2="-9609.6" y2="-1281.02" gradientUnits="userSpaceOnUse">
<stop stop-color="#F7F7F8"/>
<stop offset="0.41" stop-color="#DBDDDF"/>
<stop offset="0.72" stop-color="#E1E1E3"/>
<stop offset="0.85" stop-color="#DADBDF"/>
<stop offset="1" stop-color="#C1C2C5"/>
</linearGradient>
<linearGradient id="paint7_linear" x1="-9660.53" y1="-750.504" x2="-7505.92" y2="-750.504" gradientUnits="userSpaceOnUse">
<stop stop-color="white"/>
<stop offset="0.22" stop-color="#D9D9D9" stop-opacity="0.92"/>
<stop offset="0.61" stop-color="white" stop-opacity="0.85"/>
<stop offset="0.73" stop-color="white" stop-opacity="0.82"/>
<stop offset="1" stop-color="#B8B5B5" stop-opacity="0.66"/>
</linearGradient>
<linearGradient id="paint8_linear" x1="-8585.85" y1="-709.155" x2="-8585.85" y2="-791.854" gradientUnits="userSpaceOnUse">
<stop stop-color="#E2E0E0"/>
<stop offset="1" stop-color="white"/>
</linearGradient>
<clipPath id="clip0">
<rect width="48" height="45" fill="white"/>
</clipPath>
</defs>
</svg>
