<svg width="48" height="48" viewBox="0 0 48 48" fill="none" xmlns="http://www.w3.org/2000/svg">
<g clip-path="url(#clip0)">
<path d="M24 0C30.3652 0 36.4697 2.52856 40.9706 7.02944C45.4714 11.5303 48 17.6348 48 24C48 30.3652 45.4714 36.4697 40.9706 40.9706C36.4697 45.4714 30.3652 48 24 48C17.6348 48 11.5303 45.4714 7.02944 40.9706C2.52856 36.4697 0 30.3652 0 24H0C0 17.6348 2.52856 11.5303 7.02944 7.02944C11.5303 2.52856 17.6348 0 24 0V0Z" fill="#2D2F31"/>
<path fill-rule="evenodd" clip-rule="evenodd" d="M43 24C42.9999 27.4554 42.0575 30.8453 40.2742 33.805C38.4909 36.7647 35.9343 39.182 32.8795 40.7968C29.8247 42.4117 26.3873 43.1629 22.9373 42.9696C19.4873 42.7764 16.1554 41.6459 13.3 39.7L39.7 13.3C41.8544 16.452 43.0048 20.1821 43 24V24ZM9.57001 36.36L36.36 9.57C32.7253 6.4573 28.0498 4.83078 23.268 5.01549C18.4862 5.20019 13.9501 7.1825 10.5663 10.5663C7.18251 13.9501 5.2002 18.4861 5.0155 23.268C4.83079 28.0498 6.45731 32.7253 9.57001 36.36V36.36ZM48 24C48 28.7468 46.5924 33.3869 43.9553 37.3337C41.3181 41.2805 37.5698 44.3566 33.1844 46.1731C28.799 47.9896 23.9734 48.4649 19.3178 47.5388C14.6623 46.6128 10.3859 44.327 7.02945 40.9706C3.67299 37.6141 1.38721 33.3377 0.461164 28.6822C-0.464881 24.0266 0.0103989 19.201 1.8269 14.8156C3.64341 10.4302 6.71954 6.68188 10.6663 4.04473C14.6131 1.40758 19.2533 0 24 0C30.3652 0 36.4697 2.52856 40.9706 7.02944C45.4714 11.5303 48 17.6348 48 24Z" fill="#909399" fill-opacity="0.4"/>
</g>
<defs>
<clipPath id="clip0">
<rect width="48" height="48" fill="white"/>
</clipPath>
</defs>
</svg>
