<svg width="35" height="49" viewBox="0 0 35 49" fill="none" xmlns="http://www.w3.org/2000/svg">
<g clip-path="url(#clip0)">
<path fill-rule="evenodd" clip-rule="evenodd" d="M0.169922 4.01002C0.169922 2.94915 0.591349 1.93174 1.34149 1.18159C2.09164 0.431447 3.10906 0.0100197 4.16992 0.0100197H19.6699C20.2718 0.00873919 20.8674 0.131506 21.4197 0.370659C21.972 0.609813 22.4691 0.960221 22.8799 1.40002L32.9999 12.01C33.7713 12.819 34.2042 13.8923 34.2099 15.01V44.01C34.2099 45.0709 33.7885 46.0883 33.0383 46.8384C32.2882 47.5886 31.2708 48.01 30.2099 48.01H4.20992C3.14906 48.01 2.13164 47.5886 1.38149 46.8384C0.631349 46.0883 0.209922 45.0709 0.209922 44.01V4.01002H0.169922Z" fill="#6FC386"/>
<path d="M19.6699 1.01005C20.1344 1.01011 20.5939 1.10504 21.0204 1.28904C21.4468 1.47303 21.8312 1.74221 22.1499 2.08005L32.2399 12.72C32.8377 13.3565 33.1703 14.1969 33.1699 15.0701V44.01C33.1699 44.8057 32.8539 45.5688 32.2912 46.1314C31.7286 46.694 30.9656 47.01 30.1699 47.01H4.16992C3.37427 47.01 2.61121 46.694 2.0486 46.1314C1.48599 45.5688 1.16992 44.8057 1.16992 44.01V4.01005C1.16992 3.2144 1.48599 2.45134 2.0486 1.88873C2.61121 1.32612 3.37427 1.01005 4.16992 1.01005H19.6699ZM19.6699 0.0100495H4.16992C3.10906 0.0100495 2.09164 0.431477 1.34149 1.18162C0.591349 1.93177 0.169922 2.94918 0.169922 4.01005V44.01C0.169922 45.0709 0.591349 46.0883 1.34149 46.8385C2.09164 47.5886 3.10906 48.01 4.16992 48.01H30.1699C31.2308 48.01 32.2482 47.5886 32.9984 46.8385C33.7485 46.0883 34.1699 45.0709 34.1699 44.01V15.0701C34.1904 13.9371 33.7711 12.8403 32.9999 12.01L22.8799 1.39005C22.4682 0.952065 21.9707 0.603517 21.4185 0.366102C20.8662 0.128687 20.271 0.00748833 19.6699 0.0100495V0.0100495Z" fill="url(#paint0_linear)"/>
<path fill-rule="evenodd" clip-rule="evenodd" d="M0 4.01001C0 2.94914 0.421427 1.93173 1.17157 1.18158C1.92172 0.431437 2.93913 0.0100098 4 0.0100098L19.5 0.0100098C20.1006 0.0109765 20.6947 0.133775 21.2465 0.370974C21.7982 0.608174 22.2961 0.954844 22.71 1.39001L32.79 12.01C33.5588 12.8206 33.9912 13.8928 34 15.01V44.01C34 45.0709 33.5786 46.0883 32.8284 46.8384C32.0783 47.5886 31.0609 48.01 30 48.01H4C2.93913 48.01 1.92172 47.5886 1.17157 46.8384C0.421427 46.0883 0 45.0709 0 44.01V4.01001Z" fill="url(#paint1_radial)"/>
<path d="M19.5 1.01001C19.9676 1.00852 20.4306 1.10267 20.8606 1.28667C21.2905 1.47068 21.6782 1.74065 22 2.08001L32.06 12.73C32.6659 13.362 33.0029 14.2045 33 15.08V44.01C33 44.8057 32.6839 45.5687 32.1213 46.1313C31.5587 46.6939 30.7956 47.01 30 47.01H4C3.20435 47.01 2.44129 46.6939 1.87868 46.1313C1.31607 45.5687 1 44.8057 1 44.01V4.01001C1 3.21436 1.31607 2.4513 1.87868 1.88869C2.44129 1.32608 3.20435 1.01001 4 1.01001H19.5ZM19.5 0.0100098H4C2.93913 0.0100098 1.92172 0.431437 1.17157 1.18158C0.421427 1.93173 0 2.94914 0 4.01001L0 44.01C0 45.0709 0.421427 46.0883 1.17157 46.8384C1.92172 47.5886 2.93913 48.01 4 48.01H30C31.0609 48.01 32.0783 47.5886 32.8284 46.8384C33.5786 46.0883 34 45.0709 34 44.01V15.08C33.9912 13.9628 33.5588 12.8906 32.79 12.08L22.71 1.39001C22.2961 0.954844 21.7982 0.608174 21.2465 0.370974C20.6947 0.133775 20.1006 0.0109765 19.5 0.0100098V0.0100098Z" fill="url(#paint2_linear)"/>
<path fill-rule="evenodd" clip-rule="evenodd" d="M22 1.01001L25 4.01001L27 6.01001C27 6.01001 33 12.01 33 13.01C33.5436 13.549 33.895 14.2517 34 15.01C34 15.01 33.53 13.53 32.88 13.53H22.73C22.2384 13.53 21.7668 13.3354 21.4183 12.9888C21.0698 12.6421 20.8726 12.1716 20.87 11.68V1.34001C20.8754 1.01728 20.7624 0.703732 20.5524 0.458661C20.3423 0.213589 20.0497 0.0539789 19.73 0.0100098L22 1.01001Z" fill="#EBEBEB"/>
<path d="M6.31003 41.2601V34.5501C6.29442 34.3952 6.31344 34.2388 6.36572 34.0922C6.41799 33.9455 6.50221 33.8124 6.61228 33.7023C6.72235 33.5922 6.85551 33.508 7.00213 33.4558C7.14875 33.4035 7.30516 33.3845 7.46003 33.4001C7.73779 33.3862 8.01152 33.471 8.2329 33.6393C8.45428 33.8076 8.6091 34.0487 8.67003 34.3201L10.77 39.5201L12.86 34.3201C12.9251 34.0471 13.0838 33.8056 13.3086 33.6375C13.5333 33.4694 13.8098 33.3854 14.09 33.4001C14.2441 33.386 14.3994 33.4062 14.5448 33.4592C14.6901 33.5122 14.822 33.5967 14.9309 33.7065C15.0399 33.8164 15.1231 33.949 15.1749 34.0948C15.2266 34.2407 15.2454 34.3961 15.23 34.5501V41.2601C15.2421 41.3694 15.2299 41.4801 15.1944 41.5842C15.1589 41.6883 15.1009 41.7833 15.0245 41.8625C14.9482 41.9417 14.8554 42.0032 14.7526 42.0425C14.6499 42.0818 14.5397 42.0981 14.43 42.0901C14.3215 42.0968 14.2128 42.0795 14.1117 42.0394C14.0106 41.9994 13.9196 41.9375 13.8451 41.8582C13.7706 41.779 13.7146 41.6843 13.6808 41.5809C13.6471 41.4775 13.6366 41.368 13.65 41.2601V36.2601L11.56 41.3801C11.5027 41.5355 11.3992 41.6696 11.2633 41.7644C11.1274 41.8591 10.9657 41.9099 10.8 41.9099C10.6344 41.9099 10.4727 41.8591 10.3368 41.7644C10.2009 41.6696 10.0973 41.5355 10.04 41.3801L7.94003 36.2701H7.89003V41.2701C7.90368 41.3789 7.89298 41.4894 7.85869 41.5935C7.82441 41.6977 7.76741 41.7929 7.6918 41.8724C7.6162 41.9518 7.52389 42.0134 7.42154 42.0528C7.3192 42.0922 7.20938 42.1083 7.10003 42.1001C6.99018 42.1068 6.88021 42.0892 6.77791 42.0486C6.67561 42.008 6.5835 41.9454 6.5081 41.8653C6.43271 41.7851 6.37588 41.6893 6.34165 41.5847C6.30742 41.4801 6.29662 41.3693 6.31003 41.2601V41.2601Z" fill="white"/>
<path d="M18.69 41.1702V35.0102H17C16.8962 35.0223 16.7911 35.0123 16.6915 34.9809C16.5919 34.9495 16.5001 34.8974 16.4221 34.8279C16.3441 34.7585 16.2817 34.6734 16.2389 34.5781C16.1962 34.4828 16.1741 34.3796 16.1741 34.2752C16.1741 34.1707 16.1962 34.0675 16.2389 33.9722C16.2817 33.8769 16.3441 33.7918 16.4221 33.7224C16.5001 33.6529 16.5919 33.6008 16.6915 33.5694C16.7911 33.538 16.8962 33.528 17 33.5402H22.26C22.3637 33.528 22.4688 33.538 22.5684 33.5694C22.668 33.6008 22.7598 33.6529 22.8378 33.7224C22.9158 33.7918 22.9782 33.8769 23.021 33.9722C23.0637 34.0675 23.0858 34.1707 23.0858 34.2752C23.0858 34.3796 23.0637 34.4828 23.021 34.5781C22.9782 34.6734 22.9158 34.7585 22.8378 34.8279C22.7598 34.8974 22.668 34.9495 22.5684 34.9809C22.4688 35.0123 22.3637 35.0223 22.26 35.0102H20.4599V41.1902C20.4732 41.3143 20.4601 41.4398 20.4217 41.5585C20.3832 41.6773 20.3202 41.7866 20.2367 41.8795C20.1533 41.9723 20.0512 42.0465 19.9372 42.0973C19.8232 42.1481 19.6998 42.1744 19.575 42.1744C19.4501 42.1744 19.3267 42.1481 19.2127 42.0973C19.0987 42.0465 18.9966 41.9723 18.9132 41.8795C18.8297 41.7866 18.7667 41.6773 18.7282 41.5585C18.6898 41.4398 18.6767 41.3143 18.69 41.1902V41.1702Z" fill="white"/>
<path d="M23.8899 41.0102V34.3302C23.8767 34.206 23.8897 34.0805 23.9282 33.9618C23.9666 33.843 24.0296 33.7337 24.1131 33.6409C24.1965 33.548 24.2986 33.4738 24.4126 33.423C24.5266 33.3722 24.6501 33.3459 24.7749 33.3459C24.8997 33.3459 25.0231 33.3722 25.1371 33.423C25.2512 33.4738 25.3532 33.548 25.4367 33.6409C25.5201 33.7337 25.5831 33.843 25.6216 33.9618C25.6601 34.0805 25.6731 34.206 25.6599 34.3302V40.5102H28.6599C28.7636 40.498 28.8687 40.508 28.9683 40.5394C29.0679 40.5708 29.1597 40.6229 29.2377 40.6924C29.3157 40.7618 29.3782 40.8469 29.4209 40.9422C29.4637 41.0375 29.4858 41.1407 29.4858 41.2452C29.4858 41.3496 29.4637 41.4528 29.4209 41.5481C29.3782 41.6434 29.3157 41.7285 29.2377 41.7979C29.1597 41.8674 29.0679 41.9195 28.9683 41.9509C28.8687 41.9823 28.7636 41.9923 28.6599 41.9802H24.7799C24.6531 41.9913 24.5255 41.9731 24.4069 41.927C24.2883 41.8809 24.1819 41.8082 24.0959 41.7145C24.0098 41.6207 23.9465 41.5084 23.9108 41.3863C23.8751 41.2642 23.8679 41.1355 23.8899 41.0102V41.0102Z" fill="white"/>
</g>
<defs>
<linearGradient id="paint0_linear" x1="17.1699" y1="4.95267e-05" x2="17.1699" y2="48" gradientUnits="userSpaceOnUse">
<stop stop-color="white" stop-opacity="0.8"/>
<stop offset="1" stop-color="white" stop-opacity="0.3"/>
</linearGradient>
<radialGradient id="paint1_radial" cx="0" cy="0" r="1" gradientUnits="userSpaceOnUse" gradientTransform="translate(27.52 6.41001) scale(17.55)">
<stop offset="0.08" stop-opacity="0.3"/>
<stop offset="1" stop-opacity="0"/>
</radialGradient>
<linearGradient id="paint2_linear" x1="17" y1="0.0100098" x2="17" y2="48.01" gradientUnits="userSpaceOnUse">
<stop offset="0.28" stop-color="#EBEBEB"/>
<stop offset="1" stop-color="#EBEBEB" stop-opacity="0.3"/>
</linearGradient>
<clipPath id="clip0">
<rect width="34.17" height="48.01" fill="white"/>
</clipPath>
</defs>
</svg>
