<svg width="35" height="49" viewBox="0 0 35 49" fill="none" xmlns="http://www.w3.org/2000/svg">
<g clip-path="url(#clip0)">
<path fill-rule="evenodd" clip-rule="evenodd" d="M0 4.01002C0 2.94915 0.421427 1.93174 1.17157 1.18159C1.92172 0.431447 2.93913 0.0100197 4 0.0100197H19.5C20.1018 0.00873919 20.6975 0.131506 21.2498 0.370659C21.8021 0.609813 22.2992 0.960221 22.71 1.40002L32.83 12.01C33.6014 12.819 34.0342 13.8923 34.04 15.01V44.01C34.04 45.0709 33.6186 46.0883 32.8684 46.8384C32.1183 47.5886 31.1009 48.01 30.04 48.01H4.04C2.97913 48.01 1.96172 47.5886 1.21157 46.8384C0.461427 46.0883 0.04 45.0709 0.04 44.01V4.01002H0Z" fill="#7747F6"/>
<path fill-rule="evenodd" clip-rule="evenodd" d="M0 4.01001C0 2.94914 0.421427 1.93173 1.17157 1.18158C1.92172 0.431437 2.93913 0.0100098 4 0.0100098L19.5 0.0100098C20.1006 0.0109765 20.6947 0.133775 21.2465 0.370974C21.7982 0.608174 22.2961 0.954844 22.71 1.39001L32.79 12.01C33.5588 12.8206 33.9912 13.8928 34 15.01V44.01C34 45.0709 33.5786 46.0883 32.8284 46.8384C32.0783 47.5886 31.0609 48.01 30 48.01H4C2.93913 48.01 1.92172 47.5886 1.17157 46.8384C0.421427 46.0883 0 45.0709 0 44.01V4.01001Z" fill="url(#paint0_radial)"/>
<path d="M19.5 1.01001C19.9676 1.00852 20.4306 1.10267 20.8606 1.28667C21.2905 1.47068 21.6782 1.74065 22 2.08001L32.06 12.73C32.6659 13.362 33.0029 14.2045 33 15.08V44.01C33 44.8057 32.6839 45.5687 32.1213 46.1313C31.5587 46.6939 30.7956 47.01 30 47.01H4C3.20435 47.01 2.44129 46.6939 1.87868 46.1313C1.31607 45.5687 1 44.8057 1 44.01V4.01001C1 3.21436 1.31607 2.4513 1.87868 1.88869C2.44129 1.32608 3.20435 1.01001 4 1.01001H19.5ZM19.5 0.0100098H4C2.93913 0.0100098 1.92172 0.431437 1.17157 1.18158C0.421427 1.93173 0 2.94914 0 4.01001L0 44.01C0 45.0709 0.421427 46.0883 1.17157 46.8384C1.92172 47.5886 2.93913 48.01 4 48.01H30C31.0609 48.01 32.0783 47.5886 32.8284 46.8384C33.5786 46.0883 34 45.0709 34 44.01V15.08C33.9912 13.9628 33.5588 12.8906 32.79 12.08L22.71 1.39001C22.2961 0.954844 21.7982 0.608174 21.2465 0.370974C20.6947 0.133775 20.1006 0.0109765 19.5 0.0100098V0.0100098Z" fill="url(#paint1_linear)"/>
<path fill-rule="evenodd" clip-rule="evenodd" d="M22 1.01001L25 4.01001L27 6.01001C27 6.01001 33 12.01 33 13.01C33.5437 13.549 33.895 14.2517 34 15.01C34 15.01 33.53 13.53 32.88 13.53H22.76C22.5162 13.53 22.2748 13.4818 22.0497 13.3882C21.8246 13.2946 21.6202 13.1575 21.4483 12.9846C21.2764 12.8118 21.1403 12.6067 21.048 12.381C20.9556 12.1554 20.9087 11.9138 20.91 11.67V1.34001C20.9152 1.01577 20.8008 0.700975 20.5887 0.455674C20.3766 0.210374 20.0816 0.0517326 19.76 0.0100098L22 1.01001Z" fill="#EBEBEB"/>
<path d="M5.99998 41.09V34.17C5.989 34.0508 6.00456 33.9307 6.04555 33.8182C6.08655 33.7058 6.15194 33.6038 6.23705 33.5197C6.32215 33.4355 6.42484 33.3713 6.53774 33.3316C6.65064 33.2918 6.77093 33.2776 6.88997 33.29C7.06886 33.2885 7.24488 33.335 7.39966 33.4247C7.55444 33.5144 7.68232 33.644 7.76998 33.8L11.43 38.91V34.18C11.43 33.9545 11.5195 33.7383 11.6789 33.5789C11.8383 33.4195 12.0545 33.33 12.28 33.33C12.5054 33.33 12.7216 33.4195 12.881 33.5789C13.0404 33.7383 13.13 33.9545 13.13 34.18V41.11C13.141 41.2265 13.126 41.3441 13.086 41.4541C13.0461 41.5641 12.9821 41.6639 12.8989 41.7462C12.8156 41.8285 12.7151 41.8913 12.6046 41.93C12.4941 41.9687 12.3764 41.9823 12.26 41.97C12.0794 41.9732 11.9013 41.9276 11.7446 41.8378C11.5879 41.748 11.4584 41.6174 11.37 41.46L7.77998 36.32H7.71997V41.09C7.73537 41.2057 7.72459 41.3234 7.68842 41.4344C7.65226 41.5455 7.59163 41.6469 7.51101 41.7314C7.43038 41.8159 7.33183 41.8811 7.22262 41.9224C7.1134 41.9637 6.99631 41.98 6.87998 41.97C6.76092 41.9845 6.64012 41.9718 6.52673 41.9327C6.41334 41.8936 6.31033 41.8292 6.22553 41.7444C6.14072 41.6596 6.07633 41.5566 6.03725 41.4432C5.99817 41.3298 5.98543 41.209 5.99998 41.09V41.09Z" fill="white"/>
<path d="M14.5999 41.01V34.33C14.5863 34.2085 14.5997 34.0854 14.6391 33.9697C14.6786 33.8539 14.7431 33.7483 14.8282 33.6604C14.9132 33.5725 15.0166 33.5044 15.131 33.4612C15.2454 33.4179 15.368 33.4004 15.4899 33.41H19.4899C19.6835 33.41 19.8692 33.4869 20.0061 33.6238C20.143 33.7607 20.2199 33.9464 20.2199 34.14C20.2199 34.3336 20.143 34.5193 20.0061 34.6562C19.8692 34.7931 19.6835 34.87 19.4899 34.87H16.3699V37.13H19.1499C19.2474 37.1184 19.3462 37.128 19.4397 37.1583C19.5331 37.1885 19.6188 37.2386 19.691 37.3051C19.7633 37.3716 19.8202 37.453 19.858 37.5436C19.8958 37.6342 19.9135 37.7319 19.9099 37.83C19.9152 37.9286 19.8987 38.0272 19.8615 38.1186C19.8243 38.2101 19.7674 38.2922 19.6948 38.3591C19.6222 38.4259 19.5357 38.4759 19.4415 38.5055C19.3473 38.5351 19.2477 38.5434 19.1499 38.53H16.3699V41.01C16.3831 41.1342 16.3701 41.2597 16.3316 41.3784C16.2932 41.4972 16.2302 41.6065 16.1467 41.6993C16.0632 41.7921 15.9612 41.8664 15.8472 41.9172C15.7332 41.968 15.6097 41.9942 15.4849 41.9942C15.3601 41.9942 15.2367 41.968 15.1226 41.9172C15.0086 41.8664 14.9066 41.7921 14.8231 41.6993C14.7396 41.6065 14.6766 41.4972 14.6382 41.3784C14.5997 41.2597 14.5867 41.1342 14.5999 41.01V41.01Z" fill="white"/>
<path d="M23.2 41.0099V34.8699H21.46C21.2664 34.8699 21.0807 34.793 20.9438 34.6561C20.8069 34.5192 20.73 34.3335 20.73 34.1399C20.73 33.9463 20.8069 33.7606 20.9438 33.6237C21.0807 33.4868 21.2664 33.4099 21.46 33.4099H26.72C26.9136 33.4099 27.0993 33.4868 27.2362 33.6237C27.3731 33.7606 27.45 33.9463 27.45 34.1399C27.45 34.3335 27.3731 34.5192 27.2362 34.6561C27.0993 34.793 26.9136 34.8699 26.72 34.8699H25V41.0099C25.0132 41.134 25.0001 41.2595 24.9617 41.3783C24.9232 41.4971 24.8602 41.6064 24.7768 41.6992C24.6933 41.792 24.5913 41.8662 24.4772 41.9171C24.3632 41.9679 24.2398 41.9941 24.115 41.9941C23.9902 41.9941 23.8667 41.9679 23.7527 41.9171C23.6387 41.8662 23.5366 41.792 23.4532 41.6992C23.3697 41.6064 23.3067 41.4971 23.2683 41.3783C23.2298 41.2595 23.2168 41.134 23.23 41.0099H23.2Z" fill="white"/>
</g>
<defs>
<radialGradient id="paint0_radial" cx="0" cy="0" r="1" gradientUnits="userSpaceOnUse" gradientTransform="translate(27.52 6.41001) scale(17.55)">
<stop offset="0.08" stop-opacity="0.3"/>
<stop offset="1" stop-opacity="0"/>
</radialGradient>
<linearGradient id="paint1_linear" x1="17" y1="0.0100098" x2="17" y2="48.01" gradientUnits="userSpaceOnUse">
<stop offset="0.28" stop-color="#EBEBEB"/>
<stop offset="1" stop-color="#EBEBEB" stop-opacity="0.3"/>
</linearGradient>
<clipPath id="clip0">
<rect width="34.17" height="48.01" fill="white"/>
</clipPath>
</defs>
</svg>
