<svg xmlns="http://www.w3.org/2000/svg" viewBox="0 0 48 48"><defs><style>.cls-1{fill:#2d2f31;}.cls-2{fill:#909399;fill-opacity:0.4;fill-rule:evenodd;}</style></defs><g id="Calque_2" data-name="Calque 2"><g id="Calque_1-2" data-name="Calque 1"><path class="cls-1" d="M24,0h0A24,24,0,0,1,48,24h0A24,24,0,0,1,24,48h0A24,24,0,0,1,0,24H0A24,24,0,0,1,24,0Z"/><path class="cls-2" d="M43,24A19,19,0,0,1,13.3,39.7L39.7,13.3A18.92,18.92,0,0,1,43,24ZM9.57,36.36,36.36,9.57A19,19,0,0,0,9.57,36.36ZM48,24A24,24,0,1,1,24,0,24,24,0,0,1,48,24Z"/></g></g></svg>