<svg xmlns="http://www.w3.org/2000/svg" xmlns:xlink="http://www.w3.org/1999/xlink" viewBox="0 0 48 40.18"><defs><style>.cls-1{fill:#fff;}.cls-2,.cls-3{fill-rule:evenodd;}.cls-2{fill:url(#Dégradé_sans_nom_29);}.cls-3{fill:url(#Dégradé_sans_nom_28);}.cls-4{fill:url(#Dégradé_sans_nom_3);}.cls-5{fill:url(#Dégradé_sans_nom_27);}.cls-6{mask:url(#mask);}.cls-7{opacity:0.75;}.cls-8{fill:url(#Dégradé_sans_nom_6);}.cls-9{fill:url(#Dégradé_sans_nom_6-2);}</style><linearGradient id="Dégradé_sans_nom_29" x1="-180" y1="-159.01" x2="-180" y2="-152.51" gradientTransform="matrix(1, 0, 0, -1, 204, -151.54)" gradientUnits="userSpaceOnUse"><stop offset="0" stop-color="#3779e1"/><stop offset="1" stop-color="#66a1fd"/></linearGradient><radialGradient id="Dégradé_sans_nom_28" cx="-560.56" cy="238.52" r="1" gradientTransform="matrix(-1.5, 21, 87.32, 6.24, -21644.86, 10284.3)" gradientUnits="userSpaceOnUse"><stop offset="0" stop-color="#0054c8" stop-opacity="0.69"/><stop offset="0.22" stop-color="#3779e1"/><stop offset="1" stop-color="#66a1fd"/></radialGradient><linearGradient id="Dégradé_sans_nom_3" x1="-180" y1="-158.29" x2="-180" y2="-192.58" gradientTransform="matrix(1, 0, 0, -1, 204, -151.54)" gradientUnits="userSpaceOnUse"><stop offset="0" stop-color="#88b5fd"/><stop offset="0.42" stop-color="#66a1fd"/><stop offset="1" stop-color="#3779e1"/></linearGradient><linearGradient id="Dégradé_sans_nom_27" x1="-180" y1="-158.29" x2="-180" y2="-191.72" gradientTransform="matrix(1, 0, 0, -1, 204, -151.54)" gradientUnits="userSpaceOnUse"><stop offset="0" stop-color="#fff" stop-opacity="0.3"/><stop offset="0.02" stop-color="#4a75a9" stop-opacity="0.29"/><stop offset="1" stop-color="#003c86" stop-opacity="0"/></linearGradient><mask id="mask" x="0" y="6.73" width="48" height="33.42" maskUnits="userSpaceOnUse"><g id="mask0"><rect class="cls-1" y="6.73" width="48" height="33.42" rx="3.47"/></g></mask><linearGradient id="Dégradé_sans_nom_6" x1="-180" y1="-186.67" x2="-180" y2="-187.8" gradientTransform="matrix(1, 0, 0, -1, 204, -151.54)" gradientUnits="userSpaceOnUse"><stop offset="0" stop-color="#66a1fd"/><stop offset="1" stop-color="#3779e1"/></linearGradient><linearGradient id="Dégradé_sans_nom_6-2" x1="-180" y1="-188.71" x2="-180" y2="-189.85" xlink:href="#Dégradé_sans_nom_6"/></defs><g id="Calque_2" data-name="Calque 2"><g id="Calque_1-2" data-name="Calque 1"><path class="cls-2" d="M0,3.47A3.47,3.47,0,0,1,3.47,0h9.92a4.61,4.61,0,0,1,2.77.92l2.21,1.65a6.33,6.33,0,0,0,3.78,1.25H44.53A3.47,3.47,0,0,1,48,7.29V30a3.46,3.46,0,0,1-3.47,3.46H3.47A3.46,3.46,0,0,1,0,30Z"/><path class="cls-3" d="M0,3.47A3.47,3.47,0,0,1,3.47,0h9.92a4.61,4.61,0,0,1,2.77.92l2.21,1.65a6.33,6.33,0,0,0,3.78,1.25H44.53A3.47,3.47,0,0,1,48,7.29V30a3.46,3.46,0,0,1-3.47,3.46H3.47A3.46,3.46,0,0,1,0,30Z"/><rect class="cls-4" y="6.76" width="48" height="33.42" rx="3.47"/><rect class="cls-5" y="6.76" width="48" height="33.42" rx="3.47"/><g class="cls-6"><g class="cls-7"><rect class="cls-8" y="35.11" width="48" height="1.16"/></g><g class="cls-7"><rect class="cls-9" y="37.16" width="48" height="1.16"/></g></g></g></g></svg>