<svg xmlns="http://www.w3.org/2000/svg" width="48" height="48" viewBox="0 0 48 48" fill="none">
    <g filter="url(#filter0_i_2941_12182)">
        <circle cx="24" cy="24" r="23.9" fill="#32A050" fill-opacity="0.5"/>
        <circle cx="24" cy="24" r="23.9" fill="url(#paint0_radial_2941_12182)"/>
        <circle cx="24" cy="24" r="23.9" stroke="url(#paint1_linear_2941_12182)" stroke-width="0.199998"/>
        <path fill-rule="evenodd" clip-rule="evenodd" d="M32.2679 41.3289C33.0188 40.9706 33.2636 40.0434 32.8476 39.3229C32.4316 38.6024 31.5126 38.3625 30.7565 38.7098C29.0608 39.4886 27.25 39.9651 25.4059 40.1258C25.4671 39.9622 25.5006 39.785 25.5006 39.6V37.2C25.5006 36.3716 24.829 35.7 24.0006 35.7C23.1722 35.7 22.5006 36.3716 22.5006 37.2V39.6C22.5006 39.785 22.5341 39.9622 22.5954 40.1258C22.0096 40.0747 21.4245 39.9916 20.8429 39.8759C18.2773 39.3656 15.8936 38.2456 13.8813 36.6338C14.018 36.5641 14.1462 36.4721 14.2606 36.3577L15.9576 34.6607C16.5434 34.0749 16.5434 33.1251 15.9576 32.5394C15.3718 31.9536 14.4221 31.9536 13.8363 32.5394L12.1393 34.2364C12.0081 34.3676 11.9063 34.5169 11.8339 34.6764C11.6005 34.4104 11.3753 34.1362 11.1587 33.8539C9.27162 31.3946 8.14104 28.4599 7.87482 25.4053C8.03849 25.4666 8.21574 25.5001 8.4008 25.5001L10.8008 25.5001C11.6292 25.5001 12.3008 24.8285 12.3008 24.0001C12.3008 23.1717 11.6292 22.5001 10.8008 22.5001H8.40081C8.21573 22.5001 8.03849 22.5336 7.87481 22.5949C8.16137 19.3051 9.44642 16.1908 11.5436 13.6635L13.3405 15.4604C13.9263 16.0462 14.876 16.0462 15.4618 15.4604C16.0476 14.8746 16.0476 13.9249 15.4618 13.3391L13.6649 11.5422C16.1921 9.44538 19.306 8.1605 22.5954 7.87388C22.5341 8.03752 22.5006 8.21472 22.5006 8.39974V9.95974V10.7997C22.5006 11.6282 23.1722 12.2997 24.0006 12.2997C24.829 12.2997 25.5006 11.6282 25.5006 10.7997V9.95974V8.39974C25.5006 8.21469 25.4671 8.03747 25.4058 7.87381C28.4606 8.13996 31.3954 9.27055 33.8549 11.1578C34.1081 11.352 34.3548 11.5533 34.5949 11.7611L32.6126 13.4949C31.989 14.0402 31.9256 14.9879 32.471 15.6114C33.0164 16.235 33.964 16.2984 34.5876 15.753L36.6734 13.9287C38.2645 15.9308 39.3706 18.2969 39.8768 20.8419C39.9866 21.3939 40.0671 21.9489 40.1187 22.5047C40.0797 22.5017 40.0402 22.5001 40.0003 22.5001H37.0003C36.1719 22.5001 35.5003 23.1717 35.5003 24.0001C35.5003 24.8285 36.1719 25.5001 37.0003 25.5001H40.0003C40.0401 25.5001 40.0796 25.4985 40.1186 25.4955C39.9504 27.3083 39.4768 29.0876 38.7108 30.7555C38.6358 30.9187 38.5882 31.0894 38.5669 31.261L38.2909 30.2309C38.0781 29.4367 37.2678 28.9597 36.4701 29.1591C35.6532 29.3633 35.1622 30.1974 35.3801 31.0108L36.3827 34.7525C36.3914 34.8008 36.4025 34.8491 36.4161 34.8973C36.6402 35.69 37.4595 36.1556 38.2552 35.9424L42.4938 34.8066C43.3051 34.5893 43.7818 33.7504 43.5533 32.9422C43.3292 32.1495 42.5099 31.6839 41.7142 31.8971L41.4721 31.9619C43.1353 28.3126 43.6203 24.2177 42.8319 20.2541C41.9231 15.6855 39.3845 11.6031 35.689 8.76744C31.9935 5.93178 27.3932 4.53628 22.7451 4.84094C18.097 5.14559 13.7181 7.12962 10.4244 10.4234C7.13059 13.7171 5.14657 18.096 4.84191 22.7441C4.53726 27.3922 5.93276 31.9925 8.76842 35.688C11.6041 39.3836 15.6865 41.9222 20.2551 42.8309C24.3294 43.6413 28.5426 43.1062 32.2679 41.3289ZM38.9367 32.6413L38.8912 32.4714C38.9316 32.5229 38.9754 32.5719 39.0227 32.6182L38.9367 32.6413Z" fill="url(#paint2_linear_2941_12182)"/>
        <path fill-rule="evenodd" clip-rule="evenodd" d="M22.6686 22.8532C21.8155 21.8537 21.0634 20.2412 20.8664 19.8221L22.6686 22.8532ZM20.8664 19.8221C20.842 19.7426 20.812 19.6323 20.7835 19.5026C20.7241 19.2323 20.6854 18.9402 20.6912 18.6939C20.6933 18.6063 20.7005 18.5423 20.708 18.4977C20.7207 18.497 20.7348 18.4966 20.7506 18.4966H27.0556C27.0798 18.5743 27.1023 18.6777 27.1183 18.8058C27.1515 19.0717 27.1474 19.3693 27.1206 19.6203C27.1087 19.7313 27.0942 19.8169 27.0821 19.8725C27.0006 20.0223 26.9114 20.198 26.8132 20.3916C26.4509 21.1052 25.9657 22.0611 25.2895 22.8529C24.7338 23.5036 24.7435 24.4869 25.2706 25.1282C25.6441 25.5827 26.058 26.346 26.4149 27.1142C26.7581 27.8531 26.9966 28.4816 27.0378 28.5911C27.051 28.6261 27.0655 28.6614 27.0821 28.698C27.118 28.7773 27.1867 28.9504 27.2402 29.1553C27.2755 29.2904 27.2957 29.4074 27.3043 29.5007C27.2764 29.5024 27.2443 29.5035 27.2076 29.5035H20.7781C20.7769 29.4774 20.7764 29.4472 20.7768 29.4126C20.7796 29.1928 20.8226 28.9464 20.8701 28.752C20.8777 28.7209 20.885 28.6931 20.8915 28.6692C20.8989 28.6523 20.9058 28.6361 20.9114 28.623C20.9293 28.5807 20.956 28.5162 20.9858 28.4437C21.0002 28.4088 21.0154 28.3721 21.0306 28.3351C21.1321 28.0899 21.2823 27.7318 21.4646 27.3297C21.8495 26.4809 22.3067 25.5977 22.6929 25.1224C23.213 24.4823 23.2236 23.5036 22.6686 22.8532L20.8664 19.8221ZM20.9231 28.5633C20.9231 28.5633 20.9216 28.568 20.9189 28.5757C20.9218 28.5668 20.9231 28.5633 20.9231 28.5633ZM18.5869 16.6587C19.1016 15.9401 19.8768 15.6001 20.7506 15.6001H27.2076C28.073 15.6001 28.7485 16.0382 29.1789 16.6697C29.5637 17.2343 29.7195 17.8958 29.785 18.4199C29.853 18.9651 29.8411 19.5074 29.7936 19.9513C29.7697 20.1753 29.7346 20.3944 29.6884 20.5932C29.6505 20.7563 29.5781 21.0293 29.4346 21.281C29.4116 21.3214 29.3693 21.4061 29.3096 21.5254C29.0678 22.0089 28.5418 23.0609 27.869 24.0303C28.2437 24.6274 28.5702 25.2779 28.8214 25.8187C29.1836 26.5983 29.4415 27.2659 29.518 27.4675C29.6904 27.8582 30.0511 28.8241 29.9939 29.8184C29.9619 30.3749 29.7884 31.0829 29.236 31.6402C28.6841 32.1971 27.9555 32.4001 27.2076 32.4001H20.7506C19.868 32.4001 19.0863 32.0485 18.5889 31.301C18.1503 30.6417 18.0798 29.8861 18.0864 29.3727C18.0933 28.8315 18.1897 28.3352 18.2682 28.0143C18.3085 27.8494 18.349 27.7114 18.3809 27.6139L18.3819 27.6107C18.3901 27.5854 18.4203 27.4927 18.4614 27.4025C18.4693 27.385 18.4884 27.3436 18.5163 27.2934C18.5317 27.256 18.5505 27.2105 18.5728 27.1565C18.6797 26.8981 18.8444 26.5052 19.0466 26.0592C19.3129 25.472 19.6783 24.7146 20.0929 24.0401C19.2612 22.8538 18.6509 21.5495 18.4943 21.215C18.4878 21.2009 18.482 21.1886 18.477 21.178C18.3665 20.9428 18.2498 20.5549 18.165 20.1691C18.0742 19.7553 17.9877 19.2 18.0014 18.6203C18.0146 18.0631 18.1243 17.3045 18.5869 16.6587ZM18.4526 27.4455C18.4526 27.4455 18.4559 27.4376 18.4612 27.426C18.4551 27.4403 18.4526 27.4455 18.4526 27.4455Z" fill="url(#paint3_linear_2941_12182)"/>
    </g>
    <defs>
        <filter id="filter0_i_2941_12182" x="0" y="-2.79997" width="50.8" height="50.8" filterUnits="userSpaceOnUse" color-interpolation-filters="sRGB">
            <feFlood flood-opacity="0" result="BackgroundImageFix"/>
            <feBlend mode="normal" in="SourceGraphic" in2="BackgroundImageFix" result="shape"/>
            <feColorMatrix in="SourceAlpha" type="matrix" values="0 0 0 0 0 0 0 0 0 0 0 0 0 0 0 0 0 0 127 0" result="hardAlpha"/>
            <feOffset dx="7.99992" dy="-13.9999"/>
            <feGaussianBlur stdDeviation="1.39999"/>
            <feComposite in2="hardAlpha" operator="arithmetic" k2="-1" k3="1"/>
            <feColorMatrix type="matrix" values="0 0 0 0 1 0 0 0 0 1 0 0 0 0 1 0 0 0 0.05 0"/>
            <feBlend mode="normal" in2="shape" result="effect1_innerShadow_2941_12182"/>
        </filter>
        <radialGradient id="paint0_radial_2941_12182" cx="0" cy="0" r="1" gradientUnits="userSpaceOnUse" gradientTransform="translate(42.8547 4.99954) rotate(119.968) scale(62.0076 45.241)">
            <stop stop-color="#6FC386" stop-opacity="0.69"/>
            <stop offset="0.563074" stop-color="#32A050"/>
            <stop offset="1" stop-color="#087727"/>
        </radialGradient>
        <linearGradient id="paint1_linear_2941_12182" x1="-11.5385" y1="57.599" x2="42.081" y2="0.926053" gradientUnits="userSpaceOnUse">
            <stop stop-color="#6FC386"/>
            <stop offset="1" stop-color="#32A050"/>
        </linearGradient>
        <linearGradient id="paint2_linear_2941_12182" x1="37.5006" y1="3.5" x2="-4.79422" y2="69.9485" gradientUnits="userSpaceOnUse">
            <stop stop-color="white"/>
            <stop offset="1" stop-color="#E2E2E2"/>
        </linearGradient>
        <linearGradient id="paint3_linear_2941_12182" x1="28" y1="16" x2="10.5649" y2="26.0272" gradientUnits="userSpaceOnUse">
            <stop stop-color="white"/>
            <stop offset="1" stop-color="#E2E2E2"/>
        </linearGradient>
    </defs>
</svg>