<svg width="48" height="48" viewBox="0 0 48 48" fill="none" xmlns="http://www.w3.org/2000/svg">
<g clip-path="url(#clip0)">
<path fill-rule="evenodd" clip-rule="evenodd" d="M7.16992 4.00978C7.16992 2.94891 7.59135 1.93149 8.34149 1.18135C9.09164 0.431203 10.1091 0.00977554 11.1699 0.00977554H26.6699C27.2718 0.00849505 27.8674 0.131262 28.4197 0.370415C28.972 0.609569 29.4691 0.959977 29.8799 1.39978L39.9999 12.0098C40.7713 12.8187 41.2042 13.892 41.2099 15.0098V44.0098C41.2099 45.0706 40.7885 46.0881 40.0383 46.8382C39.2882 47.5883 38.2708 48.0098 37.2099 48.0098H11.2099C10.1491 48.0098 9.13164 47.5883 8.38149 46.8382C7.63135 46.0881 7.20992 45.0706 7.20992 44.0098V4.00978H7.16992Z" fill="#6FC386"/>
<path d="M26.6699 1.00981C27.1344 1.00986 27.5939 1.1048 28.0204 1.2888C28.4468 1.47279 28.8312 1.74196 29.1499 2.07981L39.2399 12.7198C39.8377 13.3562 40.1703 14.1967 40.1699 15.0698V44.0098C40.1699 44.8055 39.8539 45.5685 39.2912 46.1311C38.7286 46.6937 37.9656 47.0098 37.1699 47.0098H11.1699C10.3743 47.0098 9.61121 46.6937 9.0486 46.1311C8.48599 45.5685 8.16992 44.8055 8.16992 44.0098V4.00981C8.16992 3.21416 8.48599 2.45109 9.0486 1.88849C9.61121 1.32588 10.3743 1.00981 11.1699 1.00981H26.6699ZM26.6699 0.00980539H11.1699C10.1091 0.00980539 9.09164 0.431233 8.34149 1.18138C7.59135 1.93152 7.16992 2.94894 7.16992 4.00981V44.0098C7.16992 45.0707 7.59135 46.0881 8.34149 46.8382C9.09164 47.5884 10.1091 48.0098 11.1699 48.0098H37.1699C38.2308 48.0098 39.2482 47.5884 39.9984 46.8382C40.7485 46.0881 41.1699 45.0707 41.1699 44.0098V15.0698C41.1904 13.9369 40.7711 12.8401 39.9999 12.0098L29.8799 1.38981C29.4682 0.951821 28.9707 0.603273 28.4185 0.365858C27.8662 0.128443 27.271 0.00724419 26.6699 0.00980539Z" fill="url(#paint0_linear)"/>
<path fill-rule="evenodd" clip-rule="evenodd" d="M7 4.00977C7 2.9489 7.42143 1.93148 8.17157 1.18134C8.92172 0.431193 9.93913 0.00976563 11 0.00976563L26.5 0.00976562C27.1006 0.0107324 27.6947 0.133531 28.2465 0.37073C28.7982 0.60793 29.2961 0.9546 29.71 1.38977L39.79 12.0098C40.5588 12.8204 40.9912 13.8926 41 15.0098V44.0098C41 45.0706 40.5786 46.088 39.8284 46.8382C39.0783 47.5883 38.0609 48.0098 37 48.0098H11C9.93913 48.0098 8.92172 47.5883 8.17157 46.8382C7.42143 46.088 7 45.0706 7 44.0098V4.00977Z" fill="url(#paint1_radial)"/>
<path d="M26.5 1.00977C26.9676 1.00827 27.4306 1.10242 27.8606 1.28643C28.2905 1.47043 28.6782 1.74041 29 2.07977L39.06 12.7298C39.6659 13.3618 40.0028 14.2043 40 15.0798V44.0098C40 44.8054 39.6839 45.5685 39.1213 46.1311C38.5587 46.6937 37.7956 47.0098 37 47.0098H11C10.2044 47.0098 9.44129 46.6937 8.87868 46.1311C8.31607 45.5685 8 44.8054 8 44.0098V4.00977C8 3.21412 8.31607 2.45105 8.87868 1.88845C9.44129 1.32584 10.2044 1.00977 11 1.00977H26.5ZM26.5 0.00976562H11C9.93913 0.00976563 8.92172 0.431193 8.17157 1.18134C7.42143 1.93148 7 2.9489 7 4.00977L7 44.0098C7 45.0706 7.42143 46.088 8.17157 46.8382C8.92172 47.5883 9.93913 48.0098 11 48.0098H37C38.0609 48.0098 39.0783 47.5883 39.8284 46.8382C40.5786 46.088 41 45.0706 41 44.0098V15.0798C40.9912 13.9626 40.5588 12.8904 39.79 12.0798L29.71 1.38977C29.2961 0.9546 28.7982 0.60793 28.2465 0.37073C27.6947 0.133531 27.1006 0.0107324 26.5 0.00976563V0.00976562Z" fill="url(#paint2_linear)"/>
<path fill-rule="evenodd" clip-rule="evenodd" d="M29 1.00977L32 4.00977L34 6.00977C34 6.00977 40 12.0098 40 13.0098C40.5436 13.5487 40.895 14.2515 41 15.0098C41 15.0098 40.53 13.5298 39.88 13.5298H29.73C29.2384 13.5298 28.7668 13.3352 28.4183 12.9885C28.0698 12.6419 27.8726 12.1713 27.87 11.6798V1.33977C27.8754 1.01703 27.7624 0.703488 27.5524 0.458417C27.3423 0.213345 27.0497 0.0537348 26.73 0.00976562L29 1.00977Z" fill="#EBEBEB"/>
<path d="M13.31 41.2598V34.5498C13.2944 34.395 13.3134 34.2385 13.3657 34.0919C13.418 33.9453 13.5022 33.8121 13.6123 33.7021C13.7223 33.592 13.8555 33.5078 14.0021 33.4555C14.1487 33.4032 14.3052 33.3842 14.46 33.3998C14.7378 33.386 15.0115 33.4707 15.2329 33.639C15.4543 33.8074 15.6091 34.0485 15.67 34.3198L17.77 39.5198L19.86 34.3198C19.9251 34.0469 20.0838 33.8053 20.3086 33.6372C20.5333 33.4692 20.8098 33.3852 21.09 33.3998C21.2441 33.3858 21.3994 33.406 21.5448 33.459C21.6901 33.512 21.822 33.5964 21.9309 33.7063C22.0399 33.8162 22.1231 33.9488 22.1749 34.0946C22.2266 34.2404 22.2454 34.3959 22.23 34.5498V41.2598C22.2421 41.3692 22.2299 41.4798 22.1944 41.5839C22.1589 41.6881 22.1009 41.7831 22.0245 41.8623C21.9482 41.9415 21.8554 42.0029 21.7526 42.0423C21.6499 42.0816 21.5397 42.0978 21.43 42.0898C21.3215 42.0965 21.2128 42.0792 21.1117 42.0392C21.0106 41.9991 20.9196 41.9372 20.8451 41.858C20.7706 41.7788 20.7146 41.6841 20.6808 41.5807C20.6471 41.4773 20.6366 41.3677 20.65 41.2598V36.2598L18.56 41.3798C18.5027 41.5353 18.3992 41.6694 18.2633 41.7641C18.1274 41.8589 17.9657 41.9096 17.8 41.9096C17.6344 41.9096 17.4727 41.8589 17.3368 41.7641C17.2009 41.6694 17.0973 41.5353 17.04 41.3798L14.94 36.2698H14.89V41.2698C14.9037 41.3786 14.893 41.4891 14.8587 41.5933C14.8244 41.6974 14.7674 41.7927 14.6918 41.8721C14.6162 41.9515 14.5239 42.0132 14.4215 42.0526C14.3192 42.0919 14.2094 42.1081 14.1 42.0998C13.9902 42.1065 13.8802 42.0889 13.7779 42.0484C13.6756 42.0078 13.5835 41.9452 13.5081 41.865C13.4327 41.7849 13.3759 41.6891 13.3416 41.5845C13.3074 41.4799 13.2966 41.3691 13.31 41.2598Z" fill="white"/>
<path d="M25.69 41.1702V35.0102H24C23.8962 35.0223 23.7911 35.0123 23.6915 34.9809C23.5919 34.9495 23.5001 34.8974 23.4221 34.8279C23.3441 34.7585 23.2817 34.6734 23.2389 34.5781C23.1962 34.4828 23.1741 34.3796 23.1741 34.2752C23.1741 34.1707 23.1962 34.0675 23.2389 33.9722C23.2817 33.8769 23.3441 33.7918 23.4221 33.7224C23.5001 33.6529 23.5919 33.6008 23.6915 33.5694C23.7911 33.538 23.8962 33.528 24 33.5402H29.26C29.3637 33.528 29.4688 33.538 29.5684 33.5694C29.668 33.6008 29.7598 33.6529 29.8378 33.7224C29.9158 33.7918 29.9782 33.8769 30.021 33.9722C30.0637 34.0675 30.0858 34.1707 30.0858 34.2752C30.0858 34.3796 30.0637 34.4828 30.021 34.5781C29.9782 34.6734 29.9158 34.7585 29.8378 34.8279C29.7598 34.8974 29.668 34.9495 29.5684 34.9809C29.4688 35.0123 29.3637 35.0223 29.26 35.0102H27.4599V41.1902C27.4732 41.3143 27.4601 41.4398 27.4217 41.5585C27.3832 41.6773 27.3202 41.7866 27.2367 41.8795C27.1533 41.9723 27.0512 42.0465 26.9372 42.0973C26.8232 42.1481 26.6998 42.1744 26.575 42.1744C26.4501 42.1744 26.3267 42.1481 26.2127 42.0973C26.0987 42.0465 25.9966 41.9723 25.9132 41.8795C25.8297 41.7866 25.7667 41.6773 25.7282 41.5585C25.6898 41.4398 25.6767 41.3143 25.69 41.1902V41.1702Z" fill="white"/>
<path d="M30.8899 41.0099V34.3299C30.8767 34.2058 30.8897 34.0803 30.9282 33.9615C30.9666 33.8428 31.0296 33.7334 31.1131 33.6406C31.1965 33.5478 31.2986 33.4736 31.4126 33.4228C31.5266 33.372 31.6501 33.3457 31.7749 33.3457C31.8997 33.3457 32.0231 33.372 32.1371 33.4228C32.2512 33.4736 32.3532 33.5478 32.4367 33.6406C32.5201 33.7334 32.5831 33.8428 32.6216 33.9615C32.6601 34.0803 32.6731 34.2058 32.6599 34.3299V40.5099H35.6599C35.7636 40.4978 35.8687 40.5078 35.9683 40.5392C36.0679 40.5706 36.1597 40.6227 36.2377 40.6921C36.3157 40.7615 36.3782 40.8467 36.4209 40.942C36.4637 41.0372 36.4858 41.1405 36.4858 41.2449C36.4858 41.3493 36.4637 41.4526 36.4209 41.5479C36.3782 41.6431 36.3157 41.7283 36.2377 41.7977C36.1597 41.8671 36.0679 41.9192 35.9683 41.9507C35.8687 41.9821 35.7636 41.992 35.6599 41.9799H31.7799C31.6531 41.991 31.5255 41.9728 31.4069 41.9268C31.2883 41.8807 31.1819 41.808 31.0959 41.7142C31.0098 41.6205 30.9465 41.5082 30.9108 41.3861C30.8751 41.2639 30.8679 41.1352 30.8899 41.0099Z" fill="white"/>
</g>
<defs>
<linearGradient id="paint0_linear" x1="24.1699" y1="-0.000194614" x2="24.1699" y2="47.9998" gradientUnits="userSpaceOnUse">
<stop stop-color="white" stop-opacity="0.8"/>
<stop offset="1" stop-color="white" stop-opacity="0.3"/>
</linearGradient>
<radialGradient id="paint1_radial" cx="0" cy="0" r="1" gradientUnits="userSpaceOnUse" gradientTransform="translate(34.52 6.40977) scale(17.55)">
<stop offset="0.08" stop-opacity="0.3"/>
<stop offset="1" stop-opacity="0"/>
</radialGradient>
<linearGradient id="paint2_linear" x1="24" y1="0.00976562" x2="24" y2="48.0098" gradientUnits="userSpaceOnUse">
<stop offset="0.28" stop-color="#EBEBEB"/>
<stop offset="1" stop-color="#EBEBEB" stop-opacity="0.3"/>
</linearGradient>
<clipPath id="clip0">
<rect width="48" height="48" fill="white"/>
</clipPath>
</defs>
</svg>
