<?xml version="1.0" encoding="UTF-8"?>
<svg xmlns="http://www.w3.org/2000/svg" xmlns:xlink="http://www.w3.org/1999/xlink" width="48pt" height="48pt" viewBox="0 0 48 48" version="1.1">
<g id="surface1">
<path style=" stroke:none;fill-rule:nonzero;fill:rgb(0%,0%,0%);fill-opacity:1;" d="M 24.777344 38.882812 L 22.460938 38.882812 C 20.828125 38.882812 19.5 40.210938 19.5 41.84375 L 19.5 45.046875 C 19.5 46.679688 20.828125 48.003906 22.460938 48.003906 L 24.777344 48.003906 C 26.410156 48.003906 27.738281 46.679688 27.738281 45.046875 L 27.738281 41.84375 C 27.738281 40.207031 26.410156 38.882812 24.777344 38.882812 Z M 24.777344 38.882812 "/>
<path style=" stroke:none;fill-rule:nonzero;fill:rgb(0%,0%,0%);fill-opacity:1;" d="M 8.429688 14.097656 L 12.707031 14.632812 C 14.0625 14.800781 15.351562 14.019531 15.839844 12.742188 C 16.457031 11.128906 17.316406 9.855469 18.414062 8.929688 C 19.972656 7.617188 21.914062 6.957031 24.230469 6.957031 C 26.632812 6.957031 28.546875 7.585938 29.96875 8.84375 C 31.390625 10.109375 32.09375 11.617188 32.09375 13.390625 C 32.09375 14.660156 31.695312 15.824219 30.894531 16.882812 C 30.378906 17.550781 28.785156 18.964844 26.125 21.117188 C 23.460938 23.273438 21.691406 25.21875 20.804688 26.945312 C 19.894531 28.710938 19.578125 30.667969 19.5 32.632812 C 19.429688 34.316406 20.773438 35.714844 22.460938 35.714844 L 24.878906 35.714844 C 26.417969 35.714844 27.691406 34.539062 27.828125 33.007812 C 27.925781 31.90625 28.109375 31.074219 28.386719 30.507812 C 28.847656 29.535156 30.046875 28.253906 31.972656 26.652344 C 35.695312 23.570312 38.125 21.132812 39.261719 19.339844 C 40.398438 17.546875 40.96875 15.648438 40.96875 13.640625 C 40.96875 10.015625 39.425781 6.832031 36.332031 4.097656 C 33.246094 1.367188 29.082031 0 23.851562 0 C 18.878906 0 14.867188 1.347656 11.808594 4.046875 C 9.203125 6.34375 7.621094 9.066406 7.0625 12.210938 C 6.890625 13.128906 7.519531 13.984375 8.429688 14.097656 Z M 8.429688 14.097656 "/>
</g>
</svg>
