<svg width="48" height="48" viewBox="0 0 48 48" fill="none" xmlns="http://www.w3.org/2000/svg">
<g clip-path="url(#clip0)">
<path fill-rule="evenodd" clip-rule="evenodd" d="M7 4.00978C7 2.94891 7.42143 1.93149 8.17157 1.18135C8.92172 0.431203 9.93913 0.00977554 11 0.00977554H26.5C27.1018 0.00849505 27.6975 0.131262 28.2498 0.370415C28.8021 0.609569 29.2992 0.959977 29.71 1.39978L39.83 12.0098C40.6014 12.8187 41.0342 13.892 41.04 15.0098V44.0098C41.04 45.0706 40.6186 46.0881 39.8684 46.8382C39.1183 47.5883 38.1009 48.0098 37.04 48.0098H11.04C9.97913 48.0098 8.96172 47.5883 8.21157 46.8382C7.46143 46.0881 7.04 45.0706 7.04 44.0098V4.00978H7Z" fill="#7747F6"/>
<path fill-rule="evenodd" clip-rule="evenodd" d="M7 4.00977C7 2.9489 7.42143 1.93148 8.17157 1.18134C8.92172 0.431193 9.93913 0.00976563 11 0.00976563L26.5 0.00976562C27.1006 0.0107324 27.6947 0.133531 28.2465 0.37073C28.7982 0.60793 29.2961 0.9546 29.71 1.38977L39.79 12.0098C40.5588 12.8204 40.9912 13.8926 41 15.0098V44.0098C41 45.0706 40.5786 46.088 39.8284 46.8382C39.0783 47.5883 38.0609 48.0098 37 48.0098H11C9.93913 48.0098 8.92172 47.5883 8.17157 46.8382C7.42143 46.088 7 45.0706 7 44.0098V4.00977Z" fill="url(#paint0_radial)"/>
<path d="M26.5 1.00977C26.9676 1.00827 27.4306 1.10242 27.8606 1.28643C28.2905 1.47043 28.6782 1.74041 29 2.07977L39.06 12.7298C39.6659 13.3618 40.0028 14.2043 40 15.0798V44.0098C40 44.8054 39.6839 45.5685 39.1213 46.1311C38.5587 46.6937 37.7956 47.0098 37 47.0098H11C10.2044 47.0098 9.44129 46.6937 8.87868 46.1311C8.31607 45.5685 8 44.8054 8 44.0098V4.00977C8 3.21412 8.31607 2.45105 8.87868 1.88845C9.44129 1.32584 10.2044 1.00977 11 1.00977H26.5ZM26.5 0.00976562H11C9.93913 0.00976563 8.92172 0.431193 8.17157 1.18134C7.42143 1.93148 7 2.9489 7 4.00977L7 44.0098C7 45.0706 7.42143 46.088 8.17157 46.8382C8.92172 47.5883 9.93913 48.0098 11 48.0098H37C38.0609 48.0098 39.0783 47.5883 39.8284 46.8382C40.5786 46.088 41 45.0706 41 44.0098V15.0798C40.9912 13.9626 40.5588 12.8904 39.79 12.0798L29.71 1.38977C29.2961 0.9546 28.7982 0.60793 28.2465 0.37073C27.6947 0.133531 27.1006 0.0107324 26.5 0.00976563V0.00976562Z" fill="url(#paint1_linear)"/>
<path fill-rule="evenodd" clip-rule="evenodd" d="M29 1.00977L32 4.00977L34 6.00977C34 6.00977 40 12.0098 40 13.0098C40.5437 13.5487 40.895 14.2515 41 15.0098C41 15.0098 40.53 13.5298 39.88 13.5298H29.76C29.5162 13.5298 29.2748 13.4816 29.0497 13.388C28.8246 13.2944 28.6202 13.1572 28.4483 12.9844C28.2764 12.8115 28.1403 12.6064 28.048 12.3808C27.9556 12.1552 27.9087 11.9136 27.91 11.6698V1.33977C27.9152 1.01552 27.8008 0.70073 27.5887 0.45543C27.3766 0.21013 27.0816 0.0514884 26.76 0.00976562L29 1.00977Z" fill="#EBEBEB"/>
</g>
<defs>
<radialGradient id="paint0_radial" cx="0" cy="0" r="1" gradientUnits="userSpaceOnUse" gradientTransform="translate(34.52 6.40977) scale(17.55)">
<stop offset="0.08" stop-opacity="0.3"/>
<stop offset="1" stop-opacity="0"/>
</radialGradient>
<linearGradient id="paint1_linear" x1="24" y1="0.00976562" x2="24" y2="48.0098" gradientUnits="userSpaceOnUse">
<stop offset="0.28" stop-color="#EBEBEB"/>
<stop offset="1" stop-color="#EBEBEB" stop-opacity="0.3"/>
</linearGradient>
<clipPath id="clip0">
<rect width="48" height="48" fill="white"/>
</clipPath>
</defs>
</svg>
