<svg xmlns="http://www.w3.org/2000/svg" width="48" height="48" viewBox="0 0 48 48" fill="none">
    <g filter="url(#filter0_i_2941_12346)">
        <circle cx="24" cy="24" r="23.9" fill="#7632A0" fill-opacity="0.5"/>
        <circle cx="24" cy="24" r="23.9" fill="url(#paint0_radial_2941_12346)"/>
        <circle cx="24" cy="24" r="23.9" stroke="url(#paint1_linear_2941_12346)" stroke-width="0.199998"/>
        <path fill-rule="evenodd" clip-rule="evenodd" d="M32.7027 6.31694C32.9139 6.10574 33.1907 6.00026 33.4675 6.00049C33.7443 6.00026 34.0212 6.10574 34.2324 6.31694L37.9302 10.0148C38.3522 10.4367 38.3522 11.1208 37.9302 11.5427C37.5083 11.9646 36.8242 11.9646 36.4023 11.5427L34.5808 9.72123V15.0743C38.7631 15.7529 41.9561 19.3811 41.9561 23.755C41.9561 28.6121 38.0186 32.5496 33.1615 32.5496C31.4469 32.5496 29.8469 32.0589 28.4943 31.2104C27.1416 32.0589 25.5416 32.5496 23.8271 32.5496C22.1758 32.5496 20.6309 32.0945 19.3108 31.303C18.1342 32.0085 16.7789 32.4467 15.3289 32.5336L15.3296 36.0391L17.0596 36.0391C17.6961 36.0391 18.212 36.5551 18.212 37.1915C18.212 37.828 17.696 38.344 17.0596 38.344L15.33 38.344L15.3304 40.2876C15.3305 40.9241 14.8146 41.4402 14.1781 41.4403C13.5417 41.4404 13.0256 40.9245 13.0255 40.2881L13.0251 38.344L11.4765 38.344C10.84 38.344 10.3241 37.8281 10.3241 37.1916C10.3241 36.5551 10.8401 36.0392 11.4765 36.0392L13.0247 36.0391L13.024 32.3713C9.01554 31.5519 6 28.0056 6 23.755C6 18.8979 9.93748 14.9604 14.7946 14.9604C16.4458 14.9604 17.9908 15.4154 19.3108 16.207C20.6309 15.4154 22.1758 14.9604 23.8271 14.9604C25.5416 14.9604 27.1416 15.451 28.4943 16.2996C29.6111 15.599 30.8966 15.1423 32.2759 15.0044L32.2759 9.79956L30.5328 11.5427C30.1109 11.9646 29.4268 11.9646 29.0048 11.5427C28.5829 11.1208 28.5829 10.4367 29.0048 10.0148L32.7027 6.31694ZM9 23.755C9 26.9552 11.5943 29.5496 14.7946 29.5496C15.533 29.5496 16.2392 29.4115 16.8886 29.1597C15.7255 27.6685 15.0325 25.7927 15.0325 23.755C15.0325 21.7173 15.7255 19.8414 16.8886 18.3503C16.2392 18.0985 15.533 17.9604 14.7946 17.9604C11.5943 17.9604 9 20.5547 9 23.755ZM26.1503 18.4449C25.4391 18.1333 24.6533 17.9604 23.8271 17.9604C23.0886 17.9604 22.3825 18.0985 21.733 18.3503C22.8962 19.8414 23.5892 21.7173 23.5892 23.755C23.5892 25.7927 22.8962 27.6685 21.733 29.1596C22.3825 29.4115 23.0886 29.5496 23.8271 29.5496C24.6533 29.5496 25.4391 29.3767 26.1503 29.0651C25.0311 27.5895 24.3669 25.7498 24.3669 23.755C24.3669 21.7601 25.0311 19.9204 26.1503 18.4449ZM28.4943 27.1899C27.7857 26.2287 27.3669 25.0408 27.3669 23.755C27.3669 22.4692 27.7857 21.2812 28.4943 20.32C29.2029 21.2812 29.6217 22.4692 29.6217 23.755C29.6217 25.0408 29.2029 26.2287 28.4943 27.1899ZM30.8382 29.0651C31.9575 27.5895 32.6217 25.7498 32.6217 23.755C32.6217 21.7601 31.9575 19.9204 30.8382 18.4449C31.5495 18.1333 32.3353 17.9604 33.1615 17.9604C36.3618 17.9604 38.9561 20.5547 38.9561 23.755C38.9561 26.9552 36.3618 29.5496 33.1615 29.5496C32.3353 29.5496 31.5495 29.3767 30.8382 29.0651ZM20.5892 23.755C20.5892 22.3804 20.1106 21.1175 19.3108 20.1241C18.5111 21.1175 18.0325 22.3804 18.0325 23.755C18.0325 25.1296 18.5111 26.3924 19.3108 27.3859C20.1106 26.3924 20.5892 25.1296 20.5892 23.755Z" fill="url(#paint2_linear_2941_12346)"/>
    </g>
    <defs>
        <filter id="filter0_i_2941_12346" x="0" y="-2.8" width="50.8" height="50.8" filterUnits="userSpaceOnUse" color-interpolation-filters="sRGB">
            <feFlood flood-opacity="0" result="BackgroundImageFix"/>
            <feBlend mode="normal" in="SourceGraphic" in2="BackgroundImageFix" result="shape"/>
            <feColorMatrix in="SourceAlpha" type="matrix" values="0 0 0 0 0 0 0 0 0 0 0 0 0 0 0 0 0 0 127 0" result="hardAlpha"/>
            <feOffset dx="8" dy="-14"/>
            <feGaussianBlur stdDeviation="1.4"/>
            <feComposite in2="hardAlpha" operator="arithmetic" k2="-1" k3="1"/>
            <feColorMatrix type="matrix" values="0 0 0 0 1 0 0 0 0 1 0 0 0 0 1 0 0 0 0.05 0"/>
            <feBlend mode="normal" in2="shape" result="effect1_innerShadow_2941_12346"/>
        </filter>
        <radialGradient id="paint0_radial_2941_12346" cx="0" cy="0" r="1" gradientUnits="userSpaceOnUse" gradientTransform="translate(42.8547 4.99954) rotate(119.968) scale(62.0076 45.241)">
            <stop stop-color="#4D0877"/>
            <stop offset="0.496695" stop-color="#7632A0"/>
            <stop offset="1" stop-color="#A36FC3" stop-opacity="0.69"/>
        </radialGradient>
        <linearGradient id="paint1_linear_2941_12346" x1="-11.5385" y1="57.599" x2="42.081" y2="0.926053" gradientUnits="userSpaceOnUse">
            <stop stop-color="#A36FC3"/>
            <stop offset="1" stop-color="#4D0877"/>
        </linearGradient>
        <linearGradient id="paint2_linear_2941_12346" x1="35.9634" y1="6.84409" x2="14.7099" y2="35.1578" gradientUnits="userSpaceOnUse">
            <stop stop-color="white"/>
            <stop offset="1" stop-color="#E2E2E2"/>
        </linearGradient>
    </defs>
</svg>