<svg width="48" height="48" viewBox="0 0 48 48" fill="none" xmlns="http://www.w3.org/2000/svg">
    <rect x="0.0999991" y="0.0999991" width="47.8" height="47.8" rx="23.9" fill="#A06032" fill-opacity="0.5"/>
    <rect x="0.0999991" y="0.0999991" width="47.8" height="47.8" rx="23.9" fill="url(#paint0_radial_2945_12023)"/>
    <rect x="0.0999991" y="0.0999991" width="47.8" height="47.8" rx="23.9" stroke="url(#paint1_linear_2945_12023)" stroke-width="0.199998"/>
    <path fill-rule="evenodd" clip-rule="evenodd" d="M14.5358 5.69336C14.0927 5.69336 13.6834 5.9297 13.4619 6.31336L9.90695 12.4707C9.68544 12.8543 9.68544 13.327 9.90695 13.7107L13.4619 19.868C13.6834 20.2517 14.0927 20.488 14.5358 20.488L20.7654 20.488L22.494 23.5995L20.1318 25.7607L18.7189 23.3135C18.4974 22.9298 18.088 22.6935 17.645 22.6935H10.5352C10.0922 22.6935 9.6828 22.9298 9.4613 23.3135L5.90636 29.4708C5.68486 29.8545 5.68486 30.3272 5.90636 30.7108L9.4613 36.8681C9.6828 37.2518 10.0922 37.4881 10.5352 37.4881L17.645 37.4881C18.088 37.4881 18.4974 37.2518 18.7189 36.8681L22.2738 30.7108C22.4953 30.3272 22.4953 29.8545 22.2738 29.4708L21.6326 28.3602C21.768 28.2972 21.8961 28.2127 22.0121 28.1066L23.9993 26.2884L31.6258 39.8467C32.032 40.5687 32.9465 40.8248 33.6686 40.4186C34.3906 40.0125 34.6467 39.0979 34.2405 38.3759L26.5721 24.7432L28.9844 23.9194C29.0833 23.8856 29.1764 23.8425 29.263 23.7914L30.462 25.8681C30.6835 26.2518 31.0929 26.4881 31.5359 26.4881L38.6457 26.4881C39.0887 26.4881 39.4981 26.2518 39.7196 25.8681L43.2745 19.7108C43.496 19.3272 43.496 18.8545 43.2745 18.4708L39.7196 12.3135C39.4981 11.9298 39.0887 11.6935 38.6457 11.6935H31.5359C31.0929 11.6935 30.6835 11.9298 30.462 12.3135L26.9071 18.4708C26.6856 18.8545 26.6856 19.3272 26.9071 19.7108L27.75 21.1708L25.0827 22.0817L23.316 18.9018C23.3097 18.8904 23.3033 18.8792 23.2968 18.8681L26.2744 13.7107C26.4959 13.327 26.4959 12.8543 26.2744 12.4707L22.7195 6.31336C22.498 5.9297 22.0886 5.69336 21.6456 5.69336H14.5358ZM21.317 18.2972L24.323 13.0907L21.2068 7.69336L14.9745 7.69336L11.8584 13.0907L14.9745 18.488H21.0321C21.1063 18.4249 21.1879 18.3681 21.2763 18.319C21.2898 18.3115 21.3034 18.3042 21.317 18.2972ZM38.207 13.6935H31.9747L28.8585 19.0908L31.9747 24.4881H38.207L41.3231 19.0908L38.207 13.6935ZM17.2062 24.6935H10.974L7.85781 30.0908L10.974 35.4881H17.2062L20.3224 30.0908L17.2062 24.6935Z" fill="url(#paint2_linear_2945_12023)"/>
    <path d="M37.8857 16.5008C36.5694 16.062 35.7745 16.8401 35.165 17.3626C35.0721 17.4422 34.9358 17.4343 34.8487 17.3483C34.375 16.8809 33.3685 16.0003 32.1162 16.5008C30.7615 17.0422 30.9016 18.2956 32.6023 19.7401C32.7113 19.8327 32.7223 20.0006 32.6391 20.1169C32.2616 20.6448 31.839 21.7144 32.8098 22.185C33.8845 22.706 34.4175 22.0206 34.7832 21.339C34.8767 21.1648 35.1284 21.1624 35.2309 21.3316C35.6451 22.0155 36.2926 22.7079 37.1281 22.185C38.1977 21.5156 37.6787 20.6552 37.2804 20.1138C37.1987 20.0029 37.225 19.847 37.3369 19.7666C39.3772 18.2999 38.9867 16.8678 37.8857 16.5008Z" stroke="url(#paint3_linear_2945_12023)" stroke-width="1.5" stroke-linecap="round"/>
    <path d="M12.4858 27.3186C12.485 28.0215 12.962 28.5258 12.9614 29.0765C12.9603 29.9552 12.0037 31.0433 12.0024 32.1506C12.0008 33.4686 12.8013 33.8956 13.2789 33.8961C13.7566 33.8967 14.8662 33.8981 14.8678 32.5934C14.8694 31.2887 14.3237 31.3996 14.8704 30.3967C15.2156 29.7635 15.8268 29.5193 15.8279 28.6406C15.8294 27.3795 14.8757 26.0034 13.9204 26.0023C12.9651 26.0012 12.4869 26.4399 12.4858 27.3186Z" stroke="url(#paint4_linear_2945_12023)" stroke-width="1.5" stroke-linecap="round"/>
    <path d="M16.1372 10.516C16.1373 11.5266 16.1372 11.0427 16.1372 11.653C16.1372 11.9653 15.8797 14.0795 17.274 14.8135M16.1372 10.516C16.1372 9.75799 16.516 9 17.274 9C18.0203 9 19.1347 9 18.8072 11.532C18.7975 11.607 18.8221 11.6844 18.8756 11.7378L21.274 14.1362C21.3677 14.23 21.3687 14.3836 21.2621 14.4622C20.9342 14.704 20.2643 15.0127 18.7907 15.0582M16.1372 10.516H15M17.274 14.8135C17.5715 14.9701 17.9443 15.0639 18.4109 15.0639C18.5431 15.0639 18.6696 15.062 18.7907 15.0582M17.274 14.8135V16.9589M18.7907 15.0582L18.79 16.9589" stroke="url(#paint5_linear_2945_12023)" stroke-width="1.5" stroke-linecap="round"/>
    <defs>
        <radialGradient id="paint0_radial_2945_12023" cx="0" cy="0" r="1" gradientUnits="userSpaceOnUse" gradientTransform="translate(42.8547 4.99954) rotate(119.968) scale(62.0076 45.241)">
            <stop stop-color="#A06032"/>
            <stop offset="0.496695" stop-color="#A06032"/>
            <stop offset="1" stop-color="#C3926F" stop-opacity="0.69"/>
        </radialGradient>
        <linearGradient id="paint1_linear_2945_12023" x1="-11.5385" y1="57.599" x2="42.081" y2="0.926053" gradientUnits="userSpaceOnUse">
            <stop stop-color="#C3926F"/>
            <stop offset="1" stop-color="#A06032"/>
        </linearGradient>
        <linearGradient id="paint2_linear_2945_12023" x1="25.0905" y1="5.69336" x2="13.5" y2="37.5" gradientUnits="userSpaceOnUse">
            <stop stop-color="white"/>
            <stop offset="1" stop-color="#E2E2E2"/>
        </linearGradient>
        <linearGradient id="paint3_linear_2945_12023" x1="34.403" y1="15.0596" x2="35.7876" y2="21.7367" gradientUnits="userSpaceOnUse">
            <stop stop-color="#E3E3E3" stop-opacity="0.933333"/>
            <stop offset="1" stop-color="white"/>
        </linearGradient>
        <linearGradient id="paint4_linear_2945_12023" x1="14.6997" y1="25.8983" x2="10.8697" y2="32.9663" gradientUnits="userSpaceOnUse">
            <stop stop-color="#E3E3E3" stop-opacity="0.933333"/>
            <stop offset="1" stop-color="white"/>
        </linearGradient>
        <linearGradient id="paint5_linear_2945_12023" x1="18.2218" y1="9" x2="15.5272" y2="17.3414" gradientUnits="userSpaceOnUse">
            <stop stop-color="#E3E3E3" stop-opacity="0.933333"/>
            <stop offset="1" stop-color="white"/>
        </linearGradient>
    </defs>
</svg>
