<svg width="48" height="48" viewBox="0 0 48 48" fill="none" xmlns="http://www.w3.org/2000/svg">
    <g filter="url(#filter0_i_2941_12359)">
        <circle cx="24" cy="24" r="23.9" fill="#A08832" fill-opacity="0.5"/>
        <circle cx="24" cy="24" r="23.9" fill="url(#paint0_radial_2941_12359)"/>
        <circle cx="24" cy="24" r="23.9" stroke="url(#paint1_linear_2941_12359)" stroke-width="0.199998"/>
        <path fill-rule="evenodd" clip-rule="evenodd" d="M23.6222 13.6362C24.2247 13.6362 24.7131 14.1246 24.7131 14.7271V17.8715C24.7131 17.8818 24.7129 17.8922 24.7126 17.9025C25.5397 18.2537 26.3186 18.7855 27.007 19.483L29.0079 17.6882C29.4564 17.2858 30.1461 17.3233 30.5485 17.7718C30.9508 18.2203 30.9133 18.91 30.4648 19.3123L28.3294 21.2278C28.6006 21.6955 28.8411 22.2027 29.0455 22.7476C29.0755 22.8278 29.1043 22.9082 29.1316 22.9889L31.4857 22.4663C32.0739 22.3358 32.6565 22.7068 32.7871 23.2949C32.9177 23.8831 32.5467 24.4658 31.9585 24.5963L29.5567 25.1294C29.6011 25.8005 29.5652 26.4629 29.4592 27.0965L31.9294 27.485C32.5245 27.5786 32.9311 28.137 32.8375 28.7322C32.7439 29.3273 32.1855 29.7339 31.5904 29.6403L28.7994 29.2014C28.5459 29.7265 28.2293 30.2182 27.853 30.6457L29.1776 32.9401C29.4789 33.4619 29.3001 34.1291 28.7783 34.4303C28.2566 34.7316 27.5894 34.5528 27.2881 34.031L26.0736 31.9274C25.9533 31.9746 25.8302 32.0164 25.7042 32.0524C25.0508 32.2391 24.4362 32.246 23.8742 32.1287L23.3508 34.0819C23.1949 34.6638 22.5967 35.0092 22.0147 34.8533C21.4328 34.6973 21.0874 34.0992 21.2433 33.5172L21.8942 31.0882C21.7971 31.0006 21.7044 30.91 21.6163 30.8173C21.5238 30.72 21.4345 30.6186 21.3488 30.5138C21.3033 30.5511 21.2542 30.5852 21.2016 30.6156L18.4785 32.1878C17.9568 32.489 17.2896 32.3102 16.9883 31.7885C16.6871 31.2667 16.8658 30.5995 17.3876 30.2983L20.1107 28.7261C20.1804 28.6859 20.2526 28.6542 20.3263 28.6308C20.1973 28.2176 20.1271 27.8044 20.1271 27.415C20.1271 27.0706 20.1269 26.7997 20.1179 26.5642C20.1156 26.5031 20.1094 26.4412 20.0992 26.3782L17.1254 27.175C16.5434 27.3309 15.9452 26.9856 15.7893 26.4036C15.6333 25.8217 15.9787 25.2235 16.5607 25.0675L18.9923 24.416C18.9345 24.3393 18.8751 24.2605 18.8142 24.1789C18.4196 23.6509 17.8997 22.9489 17.6568 22.1062H14.8175C14.215 22.1062 13.7266 21.6178 13.7266 21.0153C13.7266 20.4128 14.215 19.9243 14.8175 19.9243L17.7719 19.9243C17.9496 19.4875 18.2131 19.092 18.5594 18.7538L16.5611 16.7555C16.1351 16.3295 16.1351 15.6388 16.5611 15.2127C16.9871 14.7867 17.6779 14.7867 18.1039 15.2127L20.3273 17.4361C20.3999 17.5087 20.4601 17.5891 20.508 17.6744C21.1769 17.4674 21.8577 17.3805 22.5313 17.4072V14.7271C22.5313 14.1246 23.0197 13.6362 23.6222 13.6362ZM27.0026 23.5137C25.6414 19.884 22.6699 18.938 20.5109 20.0177C20.0608 20.2428 19.8402 20.5498 19.7437 20.89C19.6016 21.3908 19.8235 21.8846 20.5619 22.8729C20.6131 22.9413 20.6668 23.0124 20.7223 23.086L20.7225 23.0862L20.7227 23.0865C21.0155 23.4742 21.3586 23.9284 21.6342 24.3996C21.9718 24.977 22.2674 25.672 22.2982 26.4812C22.3089 26.7626 22.3089 27.0736 22.3089 27.4006V27.415C22.3089 27.8823 22.6075 28.6933 23.1976 29.314C23.7563 29.9017 24.4046 30.1546 25.1048 29.9545C25.8506 29.7415 26.6187 28.9717 27.0602 27.7068C27.4916 26.4711 27.5368 24.9383 27.0026 23.5137ZM23.6211 25.8803C23.6211 25.2778 24.1096 24.7894 24.7121 24.7894C25.3145 24.7894 25.803 25.2778 25.803 25.8803C25.803 26.4828 25.3145 26.9712 24.7121 26.9712C24.1096 26.9712 23.6211 26.4828 23.6211 25.8803ZM24.1666 22.2743C23.8654 22.2743 23.6211 22.5185 23.6211 22.8198C23.6211 23.121 23.8654 23.3652 24.1666 23.3652C24.4678 23.3652 24.7121 23.121 24.7121 22.8198C24.7121 22.5185 24.4678 22.2743 24.1666 22.2743Z" fill="url(#paint2_linear_2941_12359)"/>
        <path d="M23.4255 6.06928C23.4997 6.02641 23.5912 6.02641 23.6655 6.06928L39.4863 15.2034C39.5605 15.2463 39.6063 15.3255 39.6063 15.4113V33.6796C39.6063 33.7654 39.5605 33.8446 39.4863 33.8875L23.6655 43.0216C23.5912 43.0645 23.4997 43.0645 23.4255 43.0216L7.60462 33.8875C7.53036 33.8446 7.48462 33.7654 7.48462 33.6796V15.4113C7.48462 15.3255 7.53036 15.2463 7.60462 15.2034L23.4255 6.06928Z" stroke="url(#paint3_linear_2941_12359)" stroke-width="3" stroke-linecap="round"/>
    </g>
    <defs>
        <filter id="filter0_i_2941_12359" x="0" y="-2.8" width="50.8" height="50.8" filterUnits="userSpaceOnUse" color-interpolation-filters="sRGB">
            <feFlood flood-opacity="0" result="BackgroundImageFix"/>
            <feBlend mode="normal" in="SourceGraphic" in2="BackgroundImageFix" result="shape"/>
            <feColorMatrix in="SourceAlpha" type="matrix" values="0 0 0 0 0 0 0 0 0 0 0 0 0 0 0 0 0 0 127 0" result="hardAlpha"/>
            <feOffset dx="8" dy="-14"/>
            <feGaussianBlur stdDeviation="1.4"/>
            <feComposite in2="hardAlpha" operator="arithmetic" k2="-1" k3="1"/>
            <feColorMatrix type="matrix" values="0 0 0 0 1 0 0 0 0 1 0 0 0 0 1 0 0 0 0.05 0"/>
            <feBlend mode="normal" in2="shape" result="effect1_innerShadow_2941_12359"/>
        </filter>
        <radialGradient id="paint0_radial_2941_12359" cx="0" cy="0" r="1" gradientUnits="userSpaceOnUse" gradientTransform="translate(42.8547 4.99954) rotate(119.968) scale(62.0076 45.241)">
            <stop stop-color="#775F08"/>
            <stop offset="0.496695" stop-color="#A08932"/>
            <stop offset="1" stop-color="#C3B16F" stop-opacity="0.69"/>
        </radialGradient>
        <linearGradient id="paint1_linear_2941_12359" x1="-11.5385" y1="57.599" x2="42.081" y2="0.926053" gradientUnits="userSpaceOnUse">
            <stop stop-color="#C3B16F"/>
            <stop offset="1" stop-color="#775F08"/>
        </linearGradient>
        <linearGradient id="paint2_linear_2941_12359" x1="29.6635" y1="14.1422" x2="5.41421" y2="31.7101" gradientUnits="userSpaceOnUse">
            <stop stop-color="white"/>
            <stop offset="1" stop-color="#E2E2E2"/>
        </linearGradient>
        <linearGradient id="paint3_linear_2941_12359" x1="23.5455" y1="6" x2="13.0364" y2="46.1818" gradientUnits="userSpaceOnUse">
            <stop stop-color="#E3E3E3" stop-opacity="0.933333"/>
            <stop offset="1" stop-color="white"/>
        </linearGradient>
    </defs>
</svg>
