<svg width="48" height="48" viewBox="0 0 48 48" fill="none" xmlns="http://www.w3.org/2000/svg">
<g clip-path="url(#clip0)">
<path fill-rule="evenodd" clip-rule="evenodd" d="M7.17 4.01002C7.17 2.94915 7.59143 1.93174 8.34157 1.18159C9.09172 0.431447 10.1091 0.0100197 11.17 0.0100197H26.67C27.2718 0.00873919 27.8675 0.131506 28.4198 0.370659C28.9721 0.609813 29.4691 0.960221 29.88 1.40002L40 12.01C40.7714 12.819 41.2042 13.8923 41.21 15.01V44.01C41.21 45.0709 40.7886 46.0883 40.0384 46.8384C39.2883 47.5886 38.2709 48.01 37.21 48.01H11.21C10.1491 48.01 9.13172 47.5886 8.38157 46.8384C7.63143 46.0883 7.21 45.0709 7.21 44.01V4.01002H7.17Z" fill="#4E5261"/>
<path d="M26.67 1.01005C27.1345 1.01011 27.594 1.10504 28.0205 1.28904C28.4469 1.47303 28.8313 1.74221 29.15 2.08005L39.24 12.72C39.8378 13.3565 40.1704 14.1969 40.17 15.0701V44.01C40.17 44.8057 39.8539 45.5688 39.2913 46.1314C38.7287 46.694 37.9656 47.01 37.17 47.01H11.17C10.3743 47.01 9.61129 46.694 9.04868 46.1314C8.48607 45.5688 8.17 44.8057 8.17 44.01V4.01005C8.17 3.2144 8.48607 2.45134 9.04868 1.88873C9.61129 1.32612 10.3743 1.01005 11.17 1.01005H26.67ZM26.67 0.0100495H11.17C10.1091 0.0100495 9.09172 0.431477 8.34157 1.18162C7.59143 1.93177 7.17 2.94918 7.17 4.01005V44.01C7.17 45.0709 7.59143 46.0883 8.34157 46.8385C9.09172 47.5886 10.1091 48.01 11.17 48.01H37.17C38.2309 48.01 39.2483 47.5886 39.9984 46.8385C40.7486 46.0883 41.17 45.0709 41.17 44.01V15.0701C41.1905 13.9371 40.7711 12.8403 40 12.01L29.88 1.39005C29.4683 0.952065 28.9708 0.603517 28.4186 0.366102C27.8663 0.128687 27.2711 0.00748833 26.67 0.0100495Z" fill="url(#paint0_linear)"/>
<path fill-rule="evenodd" clip-rule="evenodd" d="M7 4.01001C7 2.94914 7.42143 1.93173 8.17157 1.18158C8.92172 0.431437 9.93913 0.0100098 11 0.0100098L26.5 0.0100098C27.1006 0.0109765 27.6947 0.133775 28.2465 0.370974C28.7982 0.608174 29.2961 0.954844 29.71 1.39001L39.79 12.01C40.5588 12.8206 40.9912 13.8928 41 15.01V44.01C41 45.0709 40.5786 46.0883 39.8284 46.8384C39.0783 47.5886 38.0609 48.01 37 48.01H11C9.93913 48.01 8.92172 47.5886 8.17157 46.8384C7.42143 46.0883 7 45.0709 7 44.01V4.01001Z" fill="url(#paint1_radial)"/>
<path d="M11.4556 42H14.0767C15.731 42 16.7568 41.146 16.7568 39.7817C16.7568 38.7559 15.9834 37.9878 14.9307 37.9072V37.8643C15.7524 37.7407 16.3862 37.0317 16.3862 36.1831C16.3862 34.9961 15.4731 34.2495 14.0176 34.2495H11.4556C10.9453 34.2495 10.6445 34.561 10.6445 35.0928V41.1514C10.6445 41.6885 10.9453 42 11.4556 42ZM12.2666 37.4722V35.458H13.5986C14.356 35.458 14.791 35.8125 14.791 36.4355C14.791 37.0908 14.2969 37.4722 13.4321 37.4722H12.2666ZM12.2666 40.7915V38.541H13.6255C14.5815 38.541 15.1025 38.9277 15.1025 39.6528C15.1025 40.394 14.5977 40.7915 13.6631 40.7915H12.2666ZM20.2966 42.1289C22.2302 42.1289 23.4172 41.1729 23.4172 39.6582C23.4172 38.4819 22.7082 37.8213 21.0647 37.4937L20.2483 37.3271C19.3298 37.1445 18.9592 36.8491 18.9592 36.3711C18.9592 35.8018 19.4909 35.4258 20.2912 35.4258C20.9572 35.4258 21.4568 35.6675 21.7146 36.2529C21.8972 36.5859 22.1228 36.731 22.488 36.731C22.9016 36.731 23.1809 36.4678 23.1809 36.0811C23.1809 35.9414 23.1594 35.8286 23.1218 35.7212C22.778 34.7114 21.7092 34.1152 20.2912 34.1152C18.5671 34.1152 17.3318 35.0552 17.3318 36.4731C17.3318 37.6279 18.0891 38.3691 19.636 38.6753L20.4577 38.8364C21.4299 39.0352 21.7951 39.3252 21.7951 39.8354C21.7951 40.4048 21.2043 40.8237 20.3342 40.8237C19.593 40.8237 18.9861 40.5552 18.7336 39.9644C18.5403 39.6206 18.32 39.4917 17.987 39.4917C17.5681 39.4917 17.2727 39.7764 17.2727 40.2061C17.2727 40.3511 17.3049 40.5015 17.3586 40.6411C17.6701 41.4897 18.696 42.1289 20.2966 42.1289ZM25.0019 42.1021C25.5121 42.1021 25.8129 41.7905 25.8129 41.2588V38.7344H29.3041V41.2588C29.3041 41.7905 29.6049 42.1021 30.1152 42.1021C30.6254 42.1021 30.9262 41.7905 30.9262 41.2588V34.9907C30.9262 34.4536 30.6254 34.1421 30.1152 34.1421C29.6049 34.1421 29.3041 34.4536 29.3041 34.9907V37.397H25.8129V34.9907C25.8129 34.4536 25.5121 34.1421 25.0019 34.1421C24.4916 34.1421 24.1909 34.4536 24.1909 34.9907V41.2588C24.1909 41.7905 24.4916 42.1021 25.0019 42.1021Z" fill="white"/>
<path d="M26.5 1.01001C26.9676 1.00852 27.4306 1.10267 27.8606 1.28667C28.2905 1.47068 28.6782 1.74065 29 2.08001L39.06 12.73C39.6659 13.362 40.0028 14.2045 40 15.08V44.01C40 44.8057 39.6839 45.5687 39.1213 46.1313C38.5587 46.6939 37.7956 47.01 37 47.01H11C10.2044 47.01 9.44129 46.6939 8.87868 46.1313C8.31607 45.5687 8 44.8057 8 44.01V4.01001C8 3.21436 8.31607 2.4513 8.87868 1.88869C9.44129 1.32608 10.2044 1.01001 11 1.01001H26.5ZM26.5 0.0100098H11C9.93913 0.0100098 8.92172 0.431437 8.17157 1.18158C7.42143 1.93173 7 2.94914 7 4.01001L7 44.01C7 45.0709 7.42143 46.0883 8.17157 46.8384C8.92172 47.5886 9.93913 48.01 11 48.01H37C38.0609 48.01 39.0783 47.5886 39.8284 46.8384C40.5786 46.0883 41 45.0709 41 44.01V15.08C40.9912 13.9628 40.5588 12.8906 39.79 12.08L29.71 1.39001C29.2961 0.954844 28.7982 0.608174 28.2465 0.370974C27.6947 0.133775 27.1006 0.0109765 26.5 0.0100098V0.0100098Z" fill="url(#paint2_linear)"/>
<path fill-rule="evenodd" clip-rule="evenodd" d="M29 1.01001L32 4.01001L34 6.01001C34 6.01001 40 12.01 40 13.01C40.5437 13.549 40.895 14.2517 41 15.01C41 15.01 40.53 13.53 39.88 13.53H29.73C29.2384 13.53 28.7668 13.3354 28.4183 12.9888C28.0698 12.6421 27.8726 12.1716 27.87 11.68V1.34001C27.8755 1.01728 27.7625 0.703732 27.5524 0.458661C27.3423 0.213589 27.0498 0.0539789 26.73 0.0100098L29 1.01001Z" fill="#EBEBEB"/>
</g>
<defs>
<linearGradient id="paint0_linear" x1="24.17" y1="4.95267e-05" x2="24.17" y2="48" gradientUnits="userSpaceOnUse">
<stop stop-color="white" stop-opacity="0.8"/>
<stop offset="1" stop-color="white" stop-opacity="0.3"/>
</linearGradient>
<radialGradient id="paint1_radial" cx="0" cy="0" r="1" gradientUnits="userSpaceOnUse" gradientTransform="translate(34.52 6.41001) scale(17.55)">
<stop offset="0.08" stop-opacity="0.3"/>
<stop offset="1" stop-opacity="0"/>
</radialGradient>
<linearGradient id="paint2_linear" x1="24" y1="0.0100098" x2="24" y2="48.01" gradientUnits="userSpaceOnUse">
<stop offset="0.28" stop-color="#EBEBEB"/>
<stop offset="1" stop-color="#EBEBEB" stop-opacity="0.3"/>
</linearGradient>
<clipPath id="clip0">
<rect width="48" height="48" fill="white"/>
</clipPath>
</defs>
</svg>
