<svg width="48" height="48" viewBox="0 0 48 48" fill="none" xmlns="http://www.w3.org/2000/svg">
<g clip-path="url(#clip0)">
<path fill-rule="evenodd" clip-rule="evenodd" d="M7.17001 4.01C7.17001 2.94913 7.59144 1.93172 8.34159 1.18157C9.09173 0.431426 10.1091 0.0099987 11.17 0.0099987H26.67C27.2719 0.00871821 27.8675 0.131485 28.4198 0.370638C28.9721 0.609792 29.4692 0.9602 29.88 1.4L40 12.01C40.7714 12.819 41.2043 13.8922 41.21 15.01V44.01C41.21 45.0709 40.7886 46.0883 40.0384 46.8384C39.2883 47.5886 38.2709 48.01 37.21 48.01H11.21C10.1491 48.01 9.13173 47.5886 8.38159 46.8384C7.63144 46.0883 7.21001 45.0709 7.21001 44.01V4.01H7.17001Z" fill="#4E5261"/>
<path d="M26.67 1.01C27.1345 1.01006 27.594 1.10499 28.0205 1.28899C28.4469 1.47298 28.8313 1.74216 29.15 2.08L39.24 12.72C39.8378 13.3564 40.1704 14.1968 40.17 15.07V44.01C40.17 44.8056 39.8539 45.5687 39.2913 46.1313C38.7287 46.6939 37.9657 47.01 37.17 47.01H11.17C10.3744 47.01 9.6113 46.6939 9.04869 46.1313C8.48608 45.5687 8.17001 44.8056 8.17001 44.01V4.01C8.17001 3.21435 8.48608 2.45129 9.04869 1.88868C9.6113 1.32607 10.3744 1.01 11.17 1.01H26.67ZM26.67 0.00999803H11.17C10.1091 0.00999803 9.09173 0.431426 8.34159 1.18157C7.59144 1.93172 7.17001 2.94913 7.17001 4.01V44.01C7.17001 45.0709 7.59144 46.0883 8.34159 46.8384C9.09173 47.5886 10.1091 48.01 11.17 48.01H37.17C38.2309 48.01 39.2483 47.5886 39.9984 46.8384C40.7486 46.0883 41.17 45.0709 41.17 44.01V15.07C41.1905 13.9371 40.7712 12.8403 40 12.01L29.88 1.39C29.4683 0.952014 28.9708 0.603466 28.4186 0.366051C27.8663 0.128636 27.2711 0.00743683 26.67 0.00999803Z" fill="url(#paint0_linear)"/>
<path fill-rule="evenodd" clip-rule="evenodd" d="M7 4.01C7 2.94913 7.42143 1.93172 8.17157 1.18157C8.92172 0.431426 9.93913 0.00999832 11 0.00999832L26.5 0.00999832C27.1006 0.0109651 27.6947 0.133763 28.2465 0.370963C28.7982 0.608163 29.2961 0.954833 29.71 1.39L39.79 12.01C40.5588 12.8206 40.9912 13.8928 41 15.01V44.01C41 45.0709 40.5786 46.0883 39.8284 46.8384C39.0783 47.5886 38.0609 48.01 37 48.01H11C9.93913 48.01 8.92172 47.5886 8.17157 46.8384C7.42143 46.0883 7 45.0709 7 44.01V4.01Z" fill="url(#paint1_radial)"/>
<path d="M14.0981 42.1289C15.5645 42.1289 16.7192 41.4683 17.2026 40.394C17.2832 40.2061 17.3262 40.0342 17.3262 39.8516C17.3262 39.4219 17.0254 39.1318 16.5688 39.1318C16.2251 39.1318 16.021 39.2769 15.8545 39.6421C15.5054 40.4209 14.8931 40.7915 14.0767 40.7915C12.8359 40.7915 12.0571 39.771 12.0571 38.1167C12.0571 36.4839 12.8467 35.458 14.0713 35.458C14.8447 35.458 15.4785 35.8555 15.833 36.645C16.0103 37.021 16.2412 37.1821 16.6064 37.1821C17.0361 37.1821 17.3208 36.9082 17.3208 36.4839C17.3208 36.2905 17.2671 36.0811 17.1597 35.877C16.6279 34.7598 15.5054 34.1152 14.0552 34.1152C11.8262 34.1152 10.4028 35.6245 10.4028 38.1221C10.4028 40.625 11.7993 42.1289 14.0981 42.1289ZM18.9216 42H23.4441C23.8845 42 24.1799 41.7476 24.1799 41.3286C24.1799 40.9097 23.8899 40.6572 23.4441 40.6572H20.0549V40.6143L23.7287 35.6353C23.8738 35.4365 23.9758 35.27 23.9758 35.0229C23.9758 34.5503 23.6535 34.2495 23.1487 34.2495H18.8303C18.3899 34.2495 18.0998 34.502 18.0998 34.9209C18.0998 35.3398 18.3952 35.5923 18.8303 35.5923H22.0368V35.6299L18.3362 40.625C18.1696 40.8506 18.0998 41.0278 18.0998 41.2534C18.0998 41.7046 18.4275 42 18.9216 42ZM25.7968 42.1021C26.3071 42.1021 26.6079 41.7905 26.6079 41.2588V34.9907C26.6079 34.4536 26.3071 34.1421 25.7968 34.1421C25.2866 34.1421 24.9858 34.4536 24.9858 34.9907V41.2588C24.9858 41.7905 25.2866 42.1021 25.7968 42.1021Z" fill="white"/>
<path d="M26.5 1.01C26.9676 1.00851 27.4306 1.10266 27.8606 1.28666C28.2905 1.47067 28.6782 1.74064 29 2.08L39.06 12.73C39.6659 13.362 40.0028 14.2045 40 15.08V44.01C40 44.8056 39.6839 45.5687 39.1213 46.1313C38.5587 46.6939 37.7956 47.01 37 47.01H11C10.2044 47.01 9.44129 46.6939 8.87868 46.1313C8.31607 45.5687 8 44.8056 8 44.01V4.01C8 3.21435 8.31607 2.45129 8.87868 1.88868C9.44129 1.32607 10.2044 1.01 11 1.01H26.5ZM26.5 0.00999832H11C9.93913 0.00999832 8.92172 0.431426 8.17157 1.18157C7.42143 1.93172 7 2.94913 7 4.01L7 44.01C7 45.0709 7.42143 46.0883 8.17157 46.8384C8.92172 47.5886 9.93913 48.01 11 48.01H37C38.0609 48.01 39.0783 47.5886 39.8284 46.8384C40.5786 46.0883 41 45.0709 41 44.01V15.08C40.9912 13.9628 40.5588 12.8906 39.79 12.08L29.71 1.39C29.2961 0.954833 28.7982 0.608163 28.2465 0.370963C27.6947 0.133763 27.1006 0.0109651 26.5 0.00999832V0.00999832Z" fill="url(#paint2_linear)"/>
<path fill-rule="evenodd" clip-rule="evenodd" d="M29 1.01L32 4.01L34 6.01C34 6.01 40 12.01 40 13.01C40.5437 13.5489 40.895 14.2517 41 15.01C41 15.01 40.53 13.53 39.88 13.53H29.73C29.2384 13.53 28.7668 13.3354 28.4183 12.9888C28.0698 12.6421 27.8727 12.1716 27.87 11.68V1.34C27.8755 1.01727 27.7625 0.703721 27.5524 0.458649C27.3424 0.213578 27.0498 0.0539674 26.73 0.00999832L29 1.01Z" fill="#EBEBEB"/>
</g>
<defs>
<linearGradient id="paint0_linear" x1="24.17" y1="-1.97168e-06" x2="24.17" y2="48" gradientUnits="userSpaceOnUse">
<stop stop-color="white" stop-opacity="0.8"/>
<stop offset="1" stop-color="white" stop-opacity="0.3"/>
</linearGradient>
<radialGradient id="paint1_radial" cx="0" cy="0" r="1" gradientUnits="userSpaceOnUse" gradientTransform="translate(34.52 6.41) scale(17.55)">
<stop offset="0.08" stop-opacity="0.3"/>
<stop offset="1" stop-opacity="0"/>
</radialGradient>
<linearGradient id="paint2_linear" x1="24" y1="0.00999832" x2="24" y2="48.01" gradientUnits="userSpaceOnUse">
<stop offset="0.28" stop-color="#EBEBEB"/>
<stop offset="1" stop-color="#EBEBEB" stop-opacity="0.3"/>
</linearGradient>
<clipPath id="clip0">
<rect width="48" height="48" fill="white"/>
</clipPath>
</defs>
</svg>
