<svg width="48" height="48" viewBox="0 0 48 48" fill="none" xmlns="http://www.w3.org/2000/svg">
<g clip-path="url(#clip0)">
<path fill-rule="evenodd" clip-rule="evenodd" d="M7.17 4.01002C7.17 2.94915 7.59143 1.93174 8.34157 1.18159C9.09172 0.431447 10.1091 0.0100197 11.17 0.0100197H26.67C27.2718 0.00873919 27.8675 0.131506 28.4198 0.370659C28.9721 0.609813 29.4691 0.960221 29.88 1.40002L40 12.01C40.7714 12.819 41.2042 13.8923 41.21 15.01V44.01C41.21 45.0709 40.7886 46.0883 40.0384 46.8384C39.2883 47.5886 38.2709 48.01 37.21 48.01H11.21C10.1491 48.01 9.13172 47.5886 8.38157 46.8384C7.63143 46.0883 7.21 45.0709 7.21 44.01V4.01002H7.17Z" fill="#4E5261"/>
<path d="M26.67 1.01005C27.1345 1.01011 27.594 1.10504 28.0205 1.28904C28.4469 1.47303 28.8313 1.74221 29.15 2.08005L39.24 12.72C39.8378 13.3565 40.1704 14.1969 40.17 15.0701V44.01C40.17 44.8057 39.8539 45.5688 39.2913 46.1314C38.7287 46.694 37.9656 47.01 37.17 47.01H11.17C10.3743 47.01 9.61129 46.694 9.04868 46.1314C8.48607 45.5688 8.17 44.8057 8.17 44.01V4.01005C8.17 3.2144 8.48607 2.45134 9.04868 1.88873C9.61129 1.32612 10.3743 1.01005 11.17 1.01005H26.67ZM26.67 0.0100495H11.17C10.1091 0.0100495 9.09172 0.431477 8.34157 1.18162C7.59143 1.93177 7.17 2.94918 7.17 4.01005V44.01C7.17 45.0709 7.59143 46.0883 8.34157 46.8385C9.09172 47.5886 10.1091 48.01 11.17 48.01H37.17C38.2309 48.01 39.2483 47.5886 39.9984 46.8385C40.7486 46.0883 41.17 45.0709 41.17 44.01V15.0701C41.1905 13.9371 40.7711 12.8403 40 12.01L29.88 1.39005C29.4683 0.952065 28.9708 0.603517 28.4186 0.366102C27.8663 0.128687 27.2711 0.00748833 26.67 0.0100495Z" fill="url(#paint0_linear)"/>
<path fill-rule="evenodd" clip-rule="evenodd" d="M7 4.01001C7 2.94914 7.42143 1.93173 8.17157 1.18158C8.92172 0.431437 9.93913 0.0100098 11 0.0100098L26.5 0.0100098C27.1006 0.0109765 27.6947 0.133775 28.2465 0.370974C28.7982 0.608174 29.2961 0.954844 29.71 1.39001L39.79 12.01C40.5588 12.8206 40.9912 13.8928 41 15.01V44.01C41 45.0709 40.5786 46.0883 39.8284 46.8384C39.0783 47.5886 38.0609 48.01 37 48.01H11C9.93913 48.01 8.92172 47.5886 8.17157 46.8384C7.42143 46.0883 7 45.0709 7 44.01V4.01001Z" fill="url(#paint1_radial)"/>
<path d="M11.4556 42.1021C11.9658 42.1021 12.2666 41.7905 12.2666 41.2588V34.9907C12.2666 34.4536 11.9658 34.1421 11.4556 34.1421C10.9453 34.1421 10.6445 34.4536 10.6445 34.9907V41.2588C10.6445 41.7905 10.9453 42.1021 11.4556 42.1021ZM14.1145 42.1021C14.5979 42.1021 14.8879 41.8066 14.8879 41.291V36.9243H14.9362L18.2986 41.6348C18.5456 41.9785 18.7605 42.1021 19.1096 42.1021C19.6198 42.1021 19.9045 41.8174 19.9045 41.3125V34.9585C19.9045 34.4375 19.6198 34.1421 19.1311 34.1421C18.6423 34.1421 18.3523 34.4375 18.3523 34.9585V39.2983H18.3093L14.9577 34.6147C14.7107 34.2764 14.4851 34.1421 14.1521 34.1421C13.6364 34.1421 13.3357 34.4375 13.3357 34.9531V41.291C13.3357 41.8066 13.6257 42.1021 14.1145 42.1021ZM21.79 42.1021C22.3002 42.1021 22.601 41.7905 22.601 41.2588V34.9907C22.601 34.4536 22.3002 34.1421 21.79 34.1421C21.2797 34.1421 20.9789 34.4536 20.9789 34.9907V41.2588C20.9789 41.7905 21.2797 42.1021 21.79 42.1021Z" fill="white"/>
<path d="M26.5 1.01001C26.9676 1.00852 27.4306 1.10267 27.8606 1.28667C28.2905 1.47068 28.6782 1.74065 29 2.08001L39.06 12.73C39.6659 13.362 40.0028 14.2045 40 15.08V44.01C40 44.8057 39.6839 45.5687 39.1213 46.1313C38.5587 46.6939 37.7956 47.01 37 47.01H11C10.2044 47.01 9.44129 46.6939 8.87868 46.1313C8.31607 45.5687 8 44.8057 8 44.01V4.01001C8 3.21436 8.31607 2.4513 8.87868 1.88869C9.44129 1.32608 10.2044 1.01001 11 1.01001H26.5ZM26.5 0.0100098H11C9.93913 0.0100098 8.92172 0.431437 8.17157 1.18158C7.42143 1.93173 7 2.94914 7 4.01001L7 44.01C7 45.0709 7.42143 46.0883 8.17157 46.8384C8.92172 47.5886 9.93913 48.01 11 48.01H37C38.0609 48.01 39.0783 47.5886 39.8284 46.8384C40.5786 46.0883 41 45.0709 41 44.01V15.08C40.9912 13.9628 40.5588 12.8906 39.79 12.08L29.71 1.39001C29.2961 0.954844 28.7982 0.608174 28.2465 0.370974C27.6947 0.133775 27.1006 0.0109765 26.5 0.0100098V0.0100098Z" fill="url(#paint2_linear)"/>
<path fill-rule="evenodd" clip-rule="evenodd" d="M29 1.01001L32 4.01001L34 6.01001C34 6.01001 40 12.01 40 13.01C40.5437 13.549 40.895 14.2517 41 15.01C41 15.01 40.53 13.53 39.88 13.53H29.73C29.2384 13.53 28.7668 13.3354 28.4183 12.9888C28.0698 12.6421 27.8726 12.1716 27.87 11.68V1.34001C27.8755 1.01728 27.7625 0.703732 27.5524 0.458661C27.3423 0.213589 27.0498 0.0539789 26.73 0.0100098L29 1.01001Z" fill="#EBEBEB"/>
</g>
<defs>
<linearGradient id="paint0_linear" x1="24.17" y1="4.95267e-05" x2="24.17" y2="48" gradientUnits="userSpaceOnUse">
<stop stop-color="white" stop-opacity="0.8"/>
<stop offset="1" stop-color="white" stop-opacity="0.3"/>
</linearGradient>
<radialGradient id="paint1_radial" cx="0" cy="0" r="1" gradientUnits="userSpaceOnUse" gradientTransform="translate(34.52 6.41001) scale(17.55)">
<stop offset="0.08" stop-opacity="0.3"/>
<stop offset="1" stop-opacity="0"/>
</radialGradient>
<linearGradient id="paint2_linear" x1="24" y1="0.0100098" x2="24" y2="48.01" gradientUnits="userSpaceOnUse">
<stop offset="0.28" stop-color="#EBEBEB"/>
<stop offset="1" stop-color="#EBEBEB" stop-opacity="0.3"/>
</linearGradient>
<clipPath id="clip0">
<rect width="48" height="48" fill="white"/>
</clipPath>
</defs>
</svg>
