<svg width="48" height="48" viewBox="0 0 48 48" fill="none" xmlns="http://www.w3.org/2000/svg">
<g clip-path="url(#clip0)">
<path fill-rule="evenodd" clip-rule="evenodd" d="M7.17001 4.01002C7.17001 2.94915 7.59144 1.93174 8.34159 1.18159C9.09173 0.431447 10.1091 0.0100197 11.17 0.0100197H26.67C27.2719 0.00873919 27.8675 0.131506 28.4198 0.370659C28.9721 0.609813 29.4692 0.960221 29.88 1.40002L40 12.01C40.7714 12.819 41.2043 13.8923 41.21 15.01V44.01C41.21 45.0709 40.7886 46.0883 40.0384 46.8384C39.2883 47.5886 38.2709 48.01 37.21 48.01H11.21C10.1491 48.01 9.13173 47.5886 8.38159 46.8384C7.63144 46.0883 7.21001 45.0709 7.21001 44.01V4.01002H7.17001Z" fill="#433A00"/>
<path d="M26.67 1.01005C27.1345 1.01011 27.594 1.10504 28.0205 1.28904C28.4469 1.47303 28.8313 1.74221 29.15 2.08005L39.24 12.72C39.8378 13.3565 40.1704 14.1969 40.17 15.0701V44.01C40.17 44.8057 39.8539 45.5688 39.2913 46.1314C38.7287 46.694 37.9657 47.01 37.17 47.01H11.17C10.3744 47.01 9.6113 46.694 9.04869 46.1314C8.48608 45.5688 8.17001 44.8057 8.17001 44.01V4.01005C8.17001 3.2144 8.48608 2.45134 9.04869 1.88873C9.6113 1.32612 10.3744 1.01005 11.17 1.01005H26.67ZM26.67 0.0100495H11.17C10.1091 0.0100495 9.09173 0.431477 8.34159 1.18162C7.59144 1.93177 7.17001 2.94918 7.17001 4.01005V44.01C7.17001 45.0709 7.59144 46.0883 8.34159 46.8385C9.09173 47.5886 10.1091 48.01 11.17 48.01H37.17C38.2309 48.01 39.2483 47.5886 39.9984 46.8385C40.7486 46.0883 41.17 45.0709 41.17 44.01V15.0701C41.1905 13.9371 40.7712 12.8403 40 12.01L29.88 1.39005C29.4683 0.952065 28.9708 0.603517 28.4186 0.366102C27.8663 0.128687 27.2711 0.00748833 26.67 0.0100495Z" fill="url(#paint0_linear)"/>
<path fill-rule="evenodd" clip-rule="evenodd" d="M7 4.01001C7 2.94914 7.42143 1.93173 8.17157 1.18158C8.92172 0.431437 9.93913 0.0100098 11 0.0100098L26.5 0.0100098C27.1006 0.0109765 27.6947 0.133775 28.2465 0.370974C28.7982 0.608174 29.2961 0.954844 29.71 1.39001L39.79 12.01C40.5588 12.8206 40.9912 13.8928 41 15.01V44.01C41 45.0709 40.5786 46.0883 39.8284 46.8384C39.0783 47.5886 38.0609 48.01 37 48.01H11C9.93913 48.01 8.92172 47.5886 8.17157 46.8384C7.42143 46.0883 7 45.0709 7 44.01V4.01001Z" fill="url(#paint1_radial)"/>
<path d="M12.7876 42.1289C14.4473 42.1289 15.4355 41.1943 15.4355 39.5454V34.9907C15.4355 34.4536 15.1348 34.1421 14.6245 34.1421C14.1143 34.1421 13.8135 34.4536 13.8135 34.9907V39.5347C13.8135 40.3135 13.4482 40.7324 12.7715 40.7324C12.2559 40.7324 11.896 40.4424 11.751 39.9214C11.6221 39.481 11.3857 39.2876 10.9775 39.2876C10.521 39.2876 10.2256 39.583 10.2256 40.0503C10.2256 40.2866 10.2686 40.48 10.3599 40.7056C10.7251 41.5972 11.6221 42.1289 12.7876 42.1289ZM19.405 42.1289C21.3386 42.1289 22.5256 41.1729 22.5256 39.6582C22.5256 38.4819 21.8166 37.8213 20.1731 37.4937L19.3567 37.3271C18.4382 37.1445 18.0676 36.8491 18.0676 36.3711C18.0676 35.8018 18.5993 35.4258 19.3996 35.4258C20.0656 35.4258 20.5652 35.6675 20.823 36.2529C21.0056 36.5859 21.2312 36.731 21.5964 36.731C22.01 36.731 22.2893 36.4678 22.2893 36.0811C22.2893 35.9414 22.2678 35.8286 22.2302 35.7212C21.8864 34.7114 20.8176 34.1152 19.3996 34.1152C17.6755 34.1152 16.4402 35.0552 16.4402 36.4731C16.4402 37.6279 17.1975 38.3691 18.7444 38.6753L19.5661 38.8364C20.5383 39.0352 20.9035 39.3252 20.9035 39.8354C20.9035 40.4048 20.3127 40.8237 19.4426 40.8237C18.7014 40.8237 18.0945 40.5552 17.842 39.9644C17.6487 39.6206 17.4284 39.4917 17.0954 39.4917C16.6765 39.4917 16.3811 39.7764 16.3811 40.2061C16.3811 40.3511 16.4133 40.5015 16.467 40.6411C16.7785 41.4897 17.8044 42.1289 19.405 42.1289Z" fill="#F4DE50"/>
<path d="M26.5 1.01001C26.9676 1.00852 27.4306 1.10267 27.8606 1.28667C28.2905 1.47068 28.6782 1.74065 29 2.08001L39.06 12.73C39.6659 13.362 40.0028 14.2045 40 15.08V44.01C40 44.8057 39.6839 45.5687 39.1213 46.1313C38.5587 46.6939 37.7956 47.01 37 47.01H11C10.2044 47.01 9.44129 46.6939 8.87868 46.1313C8.31607 45.5687 8 44.8057 8 44.01V4.01001C8 3.21436 8.31607 2.4513 8.87868 1.88869C9.44129 1.32608 10.2044 1.01001 11 1.01001H26.5ZM26.5 0.0100098H11C9.93913 0.0100098 8.92172 0.431437 8.17157 1.18158C7.42143 1.93173 7 2.94914 7 4.01001L7 44.01C7 45.0709 7.42143 46.0883 8.17157 46.8384C8.92172 47.5886 9.93913 48.01 11 48.01H37C38.0609 48.01 39.0783 47.5886 39.8284 46.8384C40.5786 46.0883 41 45.0709 41 44.01V15.08C40.9912 13.9628 40.5588 12.8906 39.79 12.08L29.71 1.39001C29.2961 0.954844 28.7982 0.608174 28.2465 0.370974C27.6947 0.133775 27.1006 0.0109765 26.5 0.0100098V0.0100098Z" fill="url(#paint2_linear)"/>
<path fill-rule="evenodd" clip-rule="evenodd" d="M29 1.01001L32 4.01001L34 6.01001C34 6.01001 40 12.01 40 13.01C40.5437 13.549 40.895 14.2517 41 15.01C41 15.01 40.53 13.53 39.88 13.53H29.73C29.2384 13.53 28.7668 13.3354 28.4183 12.9888C28.0698 12.6421 27.8727 12.1716 27.87 11.68V1.34001C27.8755 1.01728 27.7625 0.703732 27.5524 0.458661C27.3424 0.213589 27.0498 0.0539789 26.73 0.0100098L29 1.01001Z" fill="#EBEBEB"/>
</g>
<defs>
<linearGradient id="paint0_linear" x1="24.17" y1="4.95267e-05" x2="24.17" y2="48" gradientUnits="userSpaceOnUse">
<stop stop-color="white" stop-opacity="0.8"/>
<stop offset="1" stop-color="white" stop-opacity="0.3"/>
</linearGradient>
<radialGradient id="paint1_radial" cx="0" cy="0" r="1" gradientUnits="userSpaceOnUse" gradientTransform="translate(34.52 6.41001) scale(17.55)">
<stop offset="0.08" stop-opacity="0.3"/>
<stop offset="1" stop-opacity="0"/>
</radialGradient>
<linearGradient id="paint2_linear" x1="24" y1="0.0100098" x2="24" y2="48.01" gradientUnits="userSpaceOnUse">
<stop offset="0.28" stop-color="#EBEBEB"/>
<stop offset="1" stop-color="#EBEBEB" stop-opacity="0.3"/>
</linearGradient>
<clipPath id="clip0">
<rect width="48" height="48" fill="white"/>
</clipPath>
</defs>
</svg>
