<svg width="48" height="48" viewBox="0 0 48 48" fill="none" xmlns="http://www.w3.org/2000/svg">
<g clip-path="url(#clip0)">
<path fill-rule="evenodd" clip-rule="evenodd" d="M7.17001 4.01002C7.17001 2.94915 7.59144 1.93174 8.34159 1.18159C9.09173 0.431447 10.1091 0.0100197 11.17 0.0100197H26.67C27.2719 0.00873919 27.8675 0.131506 28.4198 0.370659C28.9721 0.609813 29.4692 0.960221 29.88 1.40002L40 12.01C40.7714 12.819 41.2043 13.8923 41.21 15.01V44.01C41.21 45.0709 40.7886 46.0883 40.0384 46.8384C39.2883 47.5886 38.2709 48.01 37.21 48.01H11.21C10.1491 48.01 9.13173 47.5886 8.38159 46.8384C7.63144 46.0883 7.21001 45.0709 7.21001 44.01V4.01002H7.17001Z" fill="#4E5261"/>
<path d="M26.67 1.00999C27.1345 1.01005 27.594 1.10498 28.0205 1.28898C28.4469 1.47297 28.8313 1.74215 29.15 2.07999L39.24 12.72C39.8378 13.3564 40.1704 14.1968 40.17 15.07V44.01C40.17 44.8056 39.8539 45.5687 39.2913 46.1313C38.7287 46.6939 37.9657 47.01 37.17 47.01H11.17C10.3744 47.01 9.6113 46.6939 9.04869 46.1313C8.48608 45.5687 8.17001 44.8056 8.17001 44.01V4.00999C8.17001 3.21434 8.48608 2.45128 9.04869 1.88867C9.6113 1.32606 10.3744 1.00999 11.17 1.00999H26.67ZM26.67 0.00998849H11.17C10.1091 0.00998849 9.09173 0.431416 8.34159 1.18156C7.59144 1.93171 7.17001 2.94912 7.17001 4.00999V44.01C7.17001 45.0709 7.59144 46.0883 8.34159 46.8384C9.09173 47.5886 10.1091 48.01 11.17 48.01H37.17C38.2309 48.01 39.2483 47.5886 39.9984 46.8384C40.7486 46.0883 41.17 45.0709 41.17 44.01V15.07C41.1905 13.937 40.7712 12.8402 40 12.01L29.88 1.38999C29.4683 0.952004 28.9708 0.603456 28.4186 0.366041C27.8663 0.128626 27.2711 0.0074273 26.67 0.00998849Z" fill="url(#paint0_linear)"/>
<path fill-rule="evenodd" clip-rule="evenodd" d="M7 4.01001C7 2.94914 7.42143 1.93173 8.17157 1.18158C8.92172 0.431437 9.93913 0.0100098 11 0.0100098L26.5 0.0100098C27.1006 0.0109765 27.6947 0.133775 28.2465 0.370974C28.7982 0.608174 29.2961 0.954844 29.71 1.39001L39.79 12.01C40.5588 12.8206 40.9912 13.8928 41 15.01V44.01C41 45.0709 40.5786 46.0883 39.8284 46.8384C39.0783 47.5886 38.0609 48.01 37 48.01H11C9.93913 48.01 8.92172 47.5886 8.17157 46.8384C7.42143 46.0883 7 45.0709 7 44.01V4.01001Z" fill="url(#paint1_radial)"/>
<path d="M12.5342 43.1172C14.043 43.1172 14.9414 42.2676 14.9414 40.7686V36.6279C14.9414 36.1396 14.668 35.8564 14.2041 35.8564C13.7402 35.8564 13.4668 36.1396 13.4668 36.6279V40.7588C13.4668 41.4668 13.1348 41.8477 12.5195 41.8477C12.0508 41.8477 11.7236 41.584 11.5918 41.1104C11.4746 40.71 11.2598 40.5342 10.8887 40.5342C10.4736 40.5342 10.2051 40.8027 10.2051 41.2275C10.2051 41.4424 10.2441 41.6182 10.3271 41.8232C10.6592 42.6338 11.4746 43.1172 12.5342 43.1172ZM18.55 43.1172C20.3078 43.1172 21.3869 42.248 21.3869 40.8711C21.3869 39.8018 20.7424 39.2012 19.2482 38.9033L18.5061 38.752C17.6711 38.5859 17.3342 38.3174 17.3342 37.8828C17.3342 37.3652 17.8176 37.0234 18.5451 37.0234C19.1506 37.0234 19.6047 37.2432 19.8391 37.7754C20.0051 38.0781 20.2102 38.21 20.5422 38.21C20.9182 38.21 21.1721 37.9707 21.1721 37.6191C21.1721 37.4922 21.1525 37.3896 21.1184 37.292C20.8059 36.374 19.8342 35.832 18.5451 35.832C16.9777 35.832 15.8547 36.6865 15.8547 37.9756C15.8547 39.0254 16.5432 39.6992 17.9494 39.9775L18.6965 40.124C19.5803 40.3047 19.9123 40.5684 19.9123 41.0322C19.9123 41.5498 19.3752 41.9307 18.5842 41.9307C17.9104 41.9307 17.3586 41.6865 17.1291 41.1494C16.9533 40.8369 16.7531 40.7197 16.4504 40.7197C16.0695 40.7197 15.801 40.9785 15.801 41.3691C15.801 41.501 15.8303 41.6377 15.8791 41.7646C16.1623 42.5361 17.0949 43.1172 18.55 43.1172ZM25.2689 43.1172C27.3539 43.1172 28.6674 41.7207 28.6674 39.4795C28.6674 37.2334 27.3539 35.832 25.2689 35.832C23.1791 35.832 21.8705 37.2334 21.8705 39.4795C21.8705 41.7207 23.1791 43.1172 25.2689 43.1172ZM25.2689 41.8867C24.1117 41.8867 23.3744 40.9541 23.3744 39.4795C23.3744 38 24.1166 37.0625 25.2689 37.0625C26.4213 37.0625 27.1586 38 27.1586 39.4795C27.1586 40.9541 26.4213 41.8867 25.2689 41.8867ZM30.1275 43.0928C30.567 43.0928 30.8307 42.8242 30.8307 42.3555V38.3857H30.8746L33.9312 42.668C34.1559 42.9805 34.3512 43.0928 34.6686 43.0928C35.1324 43.0928 35.3912 42.834 35.3912 42.375V36.5986C35.3912 36.125 35.1324 35.8564 34.6881 35.8564C34.2437 35.8564 33.9801 36.125 33.9801 36.5986V40.5439H33.941L30.8941 36.2861C30.6695 35.9785 30.4645 35.8564 30.1617 35.8564C29.693 35.8564 29.4195 36.125 29.4195 36.5938V42.3555C29.4195 42.8242 29.6832 43.0928 30.1275 43.0928Z" fill="white"/>
<path d="M26.5 1.01001C26.9676 1.00852 27.4306 1.10267 27.8606 1.28667C28.2905 1.47068 28.6782 1.74065 29 2.08001L39.06 12.73C39.6659 13.362 40.0028 14.2045 40 15.08V44.01C40 44.8057 39.6839 45.5687 39.1213 46.1313C38.5587 46.6939 37.7956 47.01 37 47.01H11C10.2044 47.01 9.44129 46.6939 8.87868 46.1313C8.31607 45.5687 8 44.8057 8 44.01V4.01001C8 3.21436 8.31607 2.4513 8.87868 1.88869C9.44129 1.32608 10.2044 1.01001 11 1.01001H26.5ZM26.5 0.0100098H11C9.93913 0.0100098 8.92172 0.431437 8.17157 1.18158C7.42143 1.93173 7 2.94914 7 4.01001L7 44.01C7 45.0709 7.42143 46.0883 8.17157 46.8384C8.92172 47.5886 9.93913 48.01 11 48.01H37C38.0609 48.01 39.0783 47.5886 39.8284 46.8384C40.5786 46.0883 41 45.0709 41 44.01V15.08C40.9912 13.9628 40.5588 12.8906 39.79 12.08L29.71 1.39001C29.2961 0.954844 28.7982 0.608174 28.2465 0.370974C27.6947 0.133775 27.1006 0.0109765 26.5 0.0100098V0.0100098Z" fill="url(#paint2_linear)"/>
<path fill-rule="evenodd" clip-rule="evenodd" d="M29 1.01001L32 4.01001L34 6.01001C34 6.01001 40 12.01 40 13.01C40.5437 13.549 40.895 14.2517 41 15.01C41 15.01 40.53 13.53 39.88 13.53H29.73C29.2384 13.53 28.7668 13.3354 28.4183 12.9888C28.0698 12.6421 27.8727 12.1716 27.87 11.68V1.34001C27.8755 1.01728 27.7625 0.703732 27.5524 0.458661C27.3424 0.213589 27.0498 0.0539789 26.73 0.0100098L29 1.01001Z" fill="#EBEBEB"/>
</g>
<defs>
<linearGradient id="paint0_linear" x1="24.17" y1="-1.15084e-05" x2="24.17" y2="48" gradientUnits="userSpaceOnUse">
<stop stop-color="white" stop-opacity="0.8"/>
<stop offset="1" stop-color="white" stop-opacity="0.3"/>
</linearGradient>
<radialGradient id="paint1_radial" cx="0" cy="0" r="1" gradientUnits="userSpaceOnUse" gradientTransform="translate(34.52 6.41001) scale(17.55)">
<stop offset="0.08" stop-opacity="0.3"/>
<stop offset="1" stop-opacity="0"/>
</radialGradient>
<linearGradient id="paint2_linear" x1="24" y1="0.0100098" x2="24" y2="48.01" gradientUnits="userSpaceOnUse">
<stop offset="0.28" stop-color="#EBEBEB"/>
<stop offset="1" stop-color="#EBEBEB" stop-opacity="0.3"/>
</linearGradient>
<clipPath id="clip0">
<rect width="48" height="48" fill="white"/>
</clipPath>
</defs>
</svg>
