<svg width="48" height="48" viewBox="0 0 48 48" fill="none" xmlns="http://www.w3.org/2000/svg">
<g clip-path="url(#clip0)">
<path fill-rule="evenodd" clip-rule="evenodd" d="M7.17001 4.01002C7.17001 2.94915 7.59144 1.93174 8.34159 1.18159C9.09173 0.431447 10.1091 0.0100197 11.17 0.0100197H26.67C27.2719 0.00873919 27.8675 0.131506 28.4198 0.370659C28.9721 0.609813 29.4692 0.960221 29.88 1.40002L40 12.01C40.7714 12.819 41.2043 13.8923 41.21 15.01V44.01C41.21 45.0709 40.7886 46.0883 40.0384 46.8384C39.2883 47.5886 38.2709 48.01 37.21 48.01H11.21C10.1491 48.01 9.13173 47.5886 8.38159 46.8384C7.63144 46.0883 7.21001 45.0709 7.21001 44.01V4.01002H7.17001Z" fill="#4E5261"/>
<path d="M26.67 1.00999C27.1345 1.01005 27.594 1.10498 28.0205 1.28898C28.4469 1.47297 28.8313 1.74215 29.15 2.07999L39.24 12.72C39.8378 13.3564 40.1704 14.1968 40.17 15.07V44.01C40.17 44.8056 39.8539 45.5687 39.2913 46.1313C38.7287 46.6939 37.9657 47.01 37.17 47.01H11.17C10.3744 47.01 9.6113 46.6939 9.04869 46.1313C8.48608 45.5687 8.17001 44.8056 8.17001 44.01V4.00999C8.17001 3.21434 8.48608 2.45128 9.04869 1.88867C9.6113 1.32606 10.3744 1.00999 11.17 1.00999H26.67ZM26.67 0.00998849H11.17C10.1091 0.00998849 9.09173 0.431416 8.34159 1.18156C7.59144 1.93171 7.17001 2.94912 7.17001 4.00999V44.01C7.17001 45.0709 7.59144 46.0883 8.34159 46.8384C9.09173 47.5886 10.1091 48.01 11.17 48.01H37.17C38.2309 48.01 39.2483 47.5886 39.9984 46.8384C40.7486 46.0883 41.17 45.0709 41.17 44.01V15.07C41.1905 13.937 40.7712 12.8402 40 12.01L29.88 1.38999C29.4683 0.952004 28.9708 0.603456 28.4186 0.366041C27.8663 0.128626 27.2711 0.0074273 26.67 0.00998849Z" fill="url(#paint0_linear)"/>
<path fill-rule="evenodd" clip-rule="evenodd" d="M7 4.01001C7 2.94914 7.42143 1.93173 8.17157 1.18158C8.92172 0.431437 9.93913 0.0100098 11 0.0100098L26.5 0.0100098C27.1006 0.0109765 27.6947 0.133775 28.2465 0.370974C28.7982 0.608174 29.2961 0.954844 29.71 1.39001L39.79 12.01C40.5588 12.8206 40.9912 13.8928 41 15.01V44.01C41 45.0709 40.5786 46.0883 39.8284 46.8384C39.0783 47.5886 38.0609 48.01 37 48.01H11C9.93913 48.01 8.92172 47.5886 8.17157 46.8384C7.42143 46.0883 7 45.0709 7 44.01V4.01001Z" fill="url(#paint1_radial)"/>
<path d="M11.4233 42.1021C11.9067 42.1021 12.1968 41.8066 12.1968 41.291V36.9243H12.2451L15.6074 41.6348C15.8545 41.9785 16.0693 42.1021 16.4185 42.1021C16.9287 42.1021 17.2134 41.8174 17.2134 41.3125V34.9585C17.2134 34.4375 16.9287 34.1421 16.4399 34.1421C15.9512 34.1421 15.6611 34.4375 15.6611 34.9585V39.2983H15.6182L12.2666 34.6147C12.0195 34.2764 11.7939 34.1421 11.4609 34.1421C10.9453 34.1421 10.6445 34.4375 10.6445 34.9531V41.291C10.6445 41.8066 10.9346 42.1021 11.4233 42.1021ZM21.1238 42.1289C23.0573 42.1289 24.2444 41.1729 24.2444 39.6582C24.2444 38.4819 23.5354 37.8213 21.8918 37.4937L21.0754 37.3271C20.157 37.1445 19.7863 36.8491 19.7863 36.3711C19.7863 35.8018 20.3181 35.4258 21.1184 35.4258C21.7844 35.4258 22.2839 35.6675 22.5417 36.2529C22.7243 36.5859 22.9499 36.731 23.3152 36.731C23.7287 36.731 24.008 36.4678 24.008 36.0811C24.008 35.9414 23.9865 35.8286 23.9489 35.7212C23.6052 34.7114 22.5363 34.1152 21.1184 34.1152C19.3943 34.1152 18.1589 35.0552 18.1589 36.4731C18.1589 37.6279 18.9162 38.3691 20.4631 38.6753L21.2849 38.8364C22.2571 39.0352 22.6223 39.3252 22.6223 39.8354C22.6223 40.4048 22.0315 40.8237 21.1613 40.8237C20.4201 40.8237 19.8132 40.5552 19.5608 39.9644C19.3674 39.6206 19.1472 39.4917 18.8142 39.4917C18.3952 39.4917 18.0998 39.7764 18.0998 40.2061C18.0998 40.3511 18.1321 40.5015 18.1858 40.6411C18.4973 41.4897 19.5232 42.1289 21.1238 42.1289ZM27.8969 42.1719C29.664 42.1719 30.894 41.0547 30.894 39.4004C30.894 37.9233 29.8413 36.8813 28.3588 36.8813C27.5693 36.8813 26.9355 37.1929 26.6186 37.6924H26.5864L26.769 35.5386H29.8305C30.2387 35.5386 30.4965 35.2861 30.4965 34.894C30.4965 34.502 30.2333 34.2495 29.8305 34.2495H26.4306C25.8022 34.2495 25.4638 34.5127 25.4101 35.168L25.1845 38.0093C25.1791 38.0361 25.1791 38.0522 25.1791 38.0737C25.1577 38.5088 25.4101 38.8794 25.9418 38.8794C26.3017 38.8794 26.4628 38.7988 26.7797 38.5034C27.0537 38.2402 27.4404 38.0415 27.9023 38.0415C28.7455 38.0415 29.3471 38.6216 29.3471 39.438C29.3471 40.2759 28.7402 40.8828 27.8969 40.8828C27.1987 40.8828 26.7421 40.5444 26.4628 39.9858C26.2802 39.6958 26.0761 39.583 25.7538 39.583C25.3349 39.583 25.0771 39.8301 25.0771 40.2437C25.0771 40.437 25.1254 40.6035 25.206 40.7754C25.5927 41.5972 26.6669 42.1719 27.8969 42.1719Z" fill="white"/>
<path d="M26.5 1.01001C26.9676 1.00852 27.4306 1.10267 27.8606 1.28667C28.2905 1.47068 28.6782 1.74065 29 2.08001L39.06 12.73C39.6659 13.362 40.0028 14.2045 40 15.08V44.01C40 44.8057 39.6839 45.5687 39.1213 46.1313C38.5587 46.6939 37.7956 47.01 37 47.01H11C10.2044 47.01 9.44129 46.6939 8.87868 46.1313C8.31607 45.5687 8 44.8057 8 44.01V4.01001C8 3.21436 8.31607 2.4513 8.87868 1.88869C9.44129 1.32608 10.2044 1.01001 11 1.01001H26.5ZM26.5 0.0100098H11C9.93913 0.0100098 8.92172 0.431437 8.17157 1.18158C7.42143 1.93173 7 2.94914 7 4.01001L7 44.01C7 45.0709 7.42143 46.0883 8.17157 46.8384C8.92172 47.5886 9.93913 48.01 11 48.01H37C38.0609 48.01 39.0783 47.5886 39.8284 46.8384C40.5786 46.0883 41 45.0709 41 44.01V15.08C40.9912 13.9628 40.5588 12.8906 39.79 12.08L29.71 1.39001C29.2961 0.954844 28.7982 0.608174 28.2465 0.370974C27.6947 0.133775 27.1006 0.0109765 26.5 0.0100098V0.0100098Z" fill="url(#paint2_linear)"/>
<path fill-rule="evenodd" clip-rule="evenodd" d="M29 1.01001L32 4.01001L34 6.01001C34 6.01001 40 12.01 40 13.01C40.5437 13.549 40.895 14.2517 41 15.01C41 15.01 40.53 13.53 39.88 13.53H29.73C29.2384 13.53 28.7668 13.3354 28.4183 12.9888C28.0698 12.6421 27.8727 12.1716 27.87 11.68V1.34001C27.8755 1.01728 27.7625 0.703732 27.5524 0.458661C27.3424 0.213589 27.0498 0.0539789 26.73 0.0100098L29 1.01001Z" fill="#EBEBEB"/>
</g>
<defs>
<linearGradient id="paint0_linear" x1="24.17" y1="-1.15084e-05" x2="24.17" y2="48" gradientUnits="userSpaceOnUse">
<stop stop-color="white" stop-opacity="0.8"/>
<stop offset="1" stop-color="white" stop-opacity="0.3"/>
</linearGradient>
<radialGradient id="paint1_radial" cx="0" cy="0" r="1" gradientUnits="userSpaceOnUse" gradientTransform="translate(34.52 6.41001) scale(17.55)">
<stop offset="0.08" stop-opacity="0.3"/>
<stop offset="1" stop-opacity="0"/>
</radialGradient>
<linearGradient id="paint2_linear" x1="24" y1="0.0100098" x2="24" y2="48.01" gradientUnits="userSpaceOnUse">
<stop offset="0.28" stop-color="#EBEBEB"/>
<stop offset="1" stop-color="#EBEBEB" stop-opacity="0.3"/>
</linearGradient>
<clipPath id="clip0">
<rect width="48" height="48" fill="white"/>
</clipPath>
</defs>
</svg>
