<svg width="48" height="48" viewBox="0 0 48 48" fill="none" xmlns="http://www.w3.org/2000/svg">
<g clip-path="url(#clip0)">
<path fill-rule="evenodd" clip-rule="evenodd" d="M7.17 4.01002C7.17 2.94915 7.59143 1.93174 8.34157 1.18159C9.09172 0.431447 10.1091 0.0100197 11.17 0.0100197H26.67C27.2718 0.00873919 27.8675 0.131506 28.4198 0.370659C28.9721 0.609813 29.4691 0.960221 29.88 1.40002L40 12.01C40.7714 12.819 41.2042 13.8923 41.21 15.01V44.01C41.21 45.0709 40.7886 46.0883 40.0384 46.8384C39.2883 47.5886 38.2709 48.01 37.21 48.01H11.21C10.1491 48.01 9.13172 47.5886 8.38157 46.8384C7.63143 46.0883 7.21 45.0709 7.21 44.01V4.01002H7.17Z" fill="#4E5261"/>
<path d="M26.67 1.00999C27.1345 1.01005 27.594 1.10498 28.0205 1.28898C28.4469 1.47297 28.8313 1.74215 29.15 2.07999L39.24 12.72C39.8378 13.3564 40.1704 14.1968 40.17 15.07V44.01C40.17 44.8056 39.8539 45.5687 39.2913 46.1313C38.7287 46.6939 37.9656 47.01 37.17 47.01H11.17C10.3743 47.01 9.61129 46.6939 9.04868 46.1313C8.48607 45.5687 8.17 44.8056 8.17 44.01V4.00999C8.17 3.21434 8.48607 2.45128 9.04868 1.88867C9.61129 1.32606 10.3743 1.00999 11.17 1.00999H26.67ZM26.67 0.00998849H11.17C10.1091 0.00998849 9.09172 0.431416 8.34157 1.18156C7.59143 1.93171 7.17 2.94912 7.17 4.00999V44.01C7.17 45.0709 7.59143 46.0883 8.34157 46.8384C9.09172 47.5886 10.1091 48.01 11.17 48.01H37.17C38.2309 48.01 39.2483 47.5886 39.9984 46.8384C40.7486 46.0883 41.17 45.0709 41.17 44.01V15.07C41.1905 13.937 40.7711 12.8402 40 12.01L29.88 1.38999C29.4683 0.952004 28.9708 0.603456 28.4186 0.366041C27.8663 0.128626 27.2711 0.0074273 26.67 0.00998849Z" fill="url(#paint0_linear)"/>
<path fill-rule="evenodd" clip-rule="evenodd" d="M7 4.01001C7 2.94914 7.42143 1.93173 8.17157 1.18158C8.92172 0.431437 9.93913 0.0100098 11 0.0100098L26.5 0.0100098C27.1006 0.0109765 27.6947 0.133775 28.2465 0.370974C28.7982 0.608174 29.2961 0.954844 29.71 1.39001L39.79 12.01C40.5588 12.8206 40.9912 13.8928 41 15.01V44.01C41 45.0709 40.5786 46.0883 39.8284 46.8384C39.0783 47.5886 38.0609 48.01 37 48.01H11C9.93913 48.01 8.92172 47.5886 8.17157 46.8384C7.42143 46.0883 7 45.0709 7 44.01V4.01001Z" fill="url(#paint1_radial)"/>
<path d="M14.1411 42.1289C16.4346 42.1289 17.8794 40.5928 17.8794 38.1274C17.8794 35.6567 16.4346 34.1152 14.1411 34.1152C11.8423 34.1152 10.4028 35.6567 10.4028 38.1274C10.4028 40.5928 11.8423 42.1289 14.1411 42.1289ZM14.1411 40.7754C12.8682 40.7754 12.0571 39.7495 12.0571 38.1274C12.0571 36.5 12.8735 35.4688 14.1411 35.4688C15.4087 35.4688 16.2197 36.5 16.2197 38.1274C16.2197 39.7495 15.4087 40.7754 14.1411 40.7754ZM19.5178 42.1128C20.028 42.1128 20.3288 41.8013 20.3288 41.2695V39.1641H21.7092L22.9983 41.5005C23.2614 41.9731 23.4387 42.1128 23.8254 42.1128C24.2981 42.1128 24.6418 41.8013 24.6418 41.3716C24.6418 41.1836 24.6042 41.0439 24.4699 40.813L23.3528 38.8794C24.2068 38.5142 24.6848 37.687 24.6848 36.7202C24.6848 35.1895 23.6643 34.2495 21.8811 34.2495H19.5178C19.0075 34.2495 18.7068 34.561 18.7068 35.0928V41.2695C18.7068 41.8013 19.0129 42.1128 19.5178 42.1128ZM20.3288 37.9878V35.5171H21.7092C22.5149 35.5171 23.0197 36.0005 23.0197 36.7524C23.0197 37.5205 22.5417 37.9878 21.7253 37.9878H20.3288ZM26.3447 42.1021C26.8549 42.1021 27.1557 41.7905 27.1557 41.2588V34.9907C27.1557 34.4536 26.8549 34.1421 26.3447 34.1421C25.8344 34.1421 25.5336 34.4536 25.5336 34.9907V41.2588C25.5336 41.7905 25.8344 42.1021 26.3447 42.1021ZM31.716 42.1289C33.902 42.1289 35.1535 40.8022 35.1535 38.8311V38.7129C35.1535 38.1812 34.8527 37.8696 34.3424 37.8696H32.4464C32.0544 37.8696 31.7965 38.0898 31.7965 38.4604C31.7965 38.8311 32.0597 39.0513 32.4464 39.0513H33.5744L33.569 39.1748C33.5368 40.1362 32.8009 40.7861 31.7428 40.7861C30.4538 40.7861 29.6374 39.7603 29.6374 38.0791C29.6374 36.4302 30.4054 35.458 31.6838 35.458C32.4464 35.458 33.0104 35.7964 33.3918 36.4893C33.5905 36.8169 33.8322 36.9619 34.1759 36.9619C34.6003 36.9619 34.8849 36.6772 34.8849 36.2637C34.8849 36.1079 34.8581 35.9521 34.7668 35.7642C34.3317 34.8135 33.1662 34.1152 31.6784 34.1152C29.401 34.1152 27.9831 35.6191 27.9831 38.1006C27.9831 40.6196 29.401 42.1289 31.716 42.1289Z" fill="white"/>
<path d="M26.5 1.01001C26.9676 1.00852 27.4306 1.10267 27.8606 1.28667C28.2905 1.47068 28.6782 1.74065 29 2.08001L39.06 12.73C39.6659 13.362 40.0028 14.2045 40 15.08V44.01C40 44.8057 39.6839 45.5687 39.1213 46.1313C38.5587 46.6939 37.7956 47.01 37 47.01H11C10.2044 47.01 9.44129 46.6939 8.87868 46.1313C8.31607 45.5687 8 44.8057 8 44.01V4.01001C8 3.21436 8.31607 2.4513 8.87868 1.88869C9.44129 1.32608 10.2044 1.01001 11 1.01001H26.5ZM26.5 0.0100098H11C9.93913 0.0100098 8.92172 0.431437 8.17157 1.18158C7.42143 1.93173 7 2.94914 7 4.01001L7 44.01C7 45.0709 7.42143 46.0883 8.17157 46.8384C8.92172 47.5886 9.93913 48.01 11 48.01H37C38.0609 48.01 39.0783 47.5886 39.8284 46.8384C40.5786 46.0883 41 45.0709 41 44.01V15.08C40.9912 13.9628 40.5588 12.8906 39.79 12.08L29.71 1.39001C29.2961 0.954844 28.7982 0.608174 28.2465 0.370974C27.6947 0.133775 27.1006 0.0109765 26.5 0.0100098V0.0100098Z" fill="url(#paint2_linear)"/>
<path fill-rule="evenodd" clip-rule="evenodd" d="M29 1.01001L32 4.01001L34 6.01001C34 6.01001 40 12.01 40 13.01C40.5437 13.549 40.895 14.2517 41 15.01C41 15.01 40.53 13.53 39.88 13.53H29.73C29.2384 13.53 28.7668 13.3354 28.4183 12.9888C28.0698 12.6421 27.8726 12.1716 27.87 11.68V1.34001C27.8755 1.01728 27.7625 0.703732 27.5524 0.458661C27.3423 0.213589 27.0498 0.0539789 26.73 0.0100098L29 1.01001Z" fill="#EBEBEB"/>
</g>
<defs>
<linearGradient id="paint0_linear" x1="24.17" y1="-1.15084e-05" x2="24.17" y2="48" gradientUnits="userSpaceOnUse">
<stop stop-color="white" stop-opacity="0.8"/>
<stop offset="1" stop-color="white" stop-opacity="0.3"/>
</linearGradient>
<radialGradient id="paint1_radial" cx="0" cy="0" r="1" gradientUnits="userSpaceOnUse" gradientTransform="translate(34.52 6.41001) scale(17.55)">
<stop offset="0.08" stop-opacity="0.3"/>
<stop offset="1" stop-opacity="0"/>
</radialGradient>
<linearGradient id="paint2_linear" x1="24" y1="0.0100098" x2="24" y2="48.01" gradientUnits="userSpaceOnUse">
<stop offset="0.28" stop-color="#EBEBEB"/>
<stop offset="1" stop-color="#EBEBEB" stop-opacity="0.3"/>
</linearGradient>
<clipPath id="clip0">
<rect width="48" height="48" fill="white"/>
</clipPath>
</defs>
</svg>
