<svg width="48" height="48" viewBox="0 0 48 48" fill="none" xmlns="http://www.w3.org/2000/svg">
<g clip-path="url(#clip0)">
<path fill-rule="evenodd" clip-rule="evenodd" d="M7.17 4.01002C7.17 2.94915 7.59143 1.93174 8.34157 1.18159C9.09172 0.431447 10.1091 0.0100197 11.17 0.0100197H26.67C27.2718 0.00873919 27.8675 0.131506 28.4198 0.370659C28.9721 0.609813 29.4691 0.960221 29.88 1.40002L40 12.01C40.7714 12.819 41.2042 13.8923 41.21 15.01V44.01C41.21 45.0709 40.7886 46.0883 40.0384 46.8384C39.2883 47.5886 38.2709 48.01 37.21 48.01H11.21C10.1491 48.01 9.13172 47.5886 8.38157 46.8384C7.63143 46.0883 7.21 45.0709 7.21 44.01V4.01002H7.17Z" fill="#4E5261"/>
<path d="M26.67 1.01005C27.1345 1.01011 27.594 1.10504 28.0205 1.28904C28.4469 1.47303 28.8313 1.74221 29.15 2.08005L39.24 12.72C39.8378 13.3565 40.1704 14.1969 40.17 15.0701V44.01C40.17 44.8057 39.8539 45.5688 39.2913 46.1314C38.7287 46.694 37.9656 47.01 37.17 47.01H11.17C10.3743 47.01 9.61129 46.694 9.04868 46.1314C8.48607 45.5688 8.17 44.8057 8.17 44.01V4.01005C8.17 3.2144 8.48607 2.45134 9.04868 1.88873C9.61129 1.32612 10.3743 1.01005 11.17 1.01005H26.67ZM26.67 0.0100495H11.17C10.1091 0.0100495 9.09172 0.431477 8.34157 1.18162C7.59143 1.93177 7.17 2.94918 7.17 4.01005V44.01C7.17 45.0709 7.59143 46.0883 8.34157 46.8385C9.09172 47.5886 10.1091 48.01 11.17 48.01H37.17C38.2309 48.01 39.2483 47.5886 39.9984 46.8385C40.7486 46.0883 41.17 45.0709 41.17 44.01V15.0701C41.1905 13.9371 40.7711 12.8403 40 12.01L29.88 1.39005C29.4683 0.952065 28.9708 0.603517 28.4186 0.366102C27.8663 0.128687 27.2711 0.00748833 26.67 0.0100495Z" fill="url(#paint0_linear)"/>
<path fill-rule="evenodd" clip-rule="evenodd" d="M7 4.01001C7 2.94914 7.42143 1.93173 8.17157 1.18158C8.92172 0.431437 9.93913 0.0100098 11 0.0100098L26.5 0.0100098C27.1006 0.0109765 27.6947 0.133775 28.2465 0.370974C28.7982 0.608174 29.2961 0.954844 29.71 1.39001L39.79 12.01C40.5588 12.8206 40.9912 13.8928 41 15.01V44.01C41 45.0709 40.5786 46.0883 39.8284 46.8384C39.0783 47.5886 38.0609 48.01 37 48.01H11C9.93913 48.01 8.92172 47.5886 8.17157 46.8384C7.42143 46.0883 7 45.0709 7 44.01V4.01001Z" fill="url(#paint1_radial)"/>
<path d="M11.1909 43.0923C11.6084 43.0923 11.8545 42.8374 11.8545 42.4023V40.6797H12.9839L14.0386 42.5913C14.2539 42.978 14.3989 43.0923 14.7153 43.0923C15.1021 43.0923 15.3833 42.8374 15.3833 42.4858C15.3833 42.332 15.3525 42.2178 15.2427 42.0288L14.3286 40.4468C15.0273 40.1479 15.4185 39.4712 15.4185 38.6802C15.4185 37.4277 14.5835 36.6587 13.1245 36.6587H11.1909C10.7734 36.6587 10.5273 36.9136 10.5273 37.3486V42.4023C10.5273 42.8374 10.7778 43.0923 11.1909 43.0923ZM11.8545 39.7173V37.6958H12.9839C13.6431 37.6958 14.0562 38.0913 14.0562 38.7065C14.0562 39.335 13.665 39.7173 12.9971 39.7173H11.8545ZM16.6865 43.0835C17.104 43.0835 17.3501 42.8286 17.3501 42.3936V41.0005H18.5366C19.8726 41.0005 20.7998 40.1304 20.7998 38.8296C20.7998 37.5244 19.9033 36.6587 18.6026 36.6587H16.6865C16.2691 36.6587 16.023 36.9136 16.023 37.3486V42.3936C16.023 42.8286 16.2691 43.0835 16.6865 43.0835ZM17.3501 39.9634V37.709H18.251C19.0113 37.709 19.4507 38.1133 19.4507 38.834C19.4507 39.5591 19.0069 39.9634 18.2466 39.9634H17.3501ZM21.98 43.0923C22.3975 43.0923 22.6436 42.8374 22.6436 42.4023V40.6797H23.773L24.8277 42.5913C25.043 42.978 25.188 43.0923 25.5044 43.0923C25.8912 43.0923 26.1724 42.8374 26.1724 42.4858C26.1724 42.332 26.1416 42.2178 26.0318 42.0288L25.1177 40.4468C25.8164 40.1479 26.2076 39.4712 26.2076 38.6802C26.2076 37.4277 25.3726 36.6587 23.9136 36.6587H21.98C21.5625 36.6587 21.3164 36.9136 21.3164 37.3486V42.4023C21.3164 42.8374 21.5669 43.0923 21.98 43.0923ZM22.6436 39.7173V37.6958H23.773C24.4322 37.6958 24.8453 38.0913 24.8453 38.7065C24.8453 39.335 24.4541 39.7173 23.7862 39.7173H22.6436ZM29.6729 43.1055C31.5494 43.1055 32.7315 41.8486 32.7315 39.8315C32.7315 37.8101 31.5494 36.5488 29.6729 36.5488C27.7921 36.5488 26.6143 37.8101 26.6143 39.8315C26.6143 41.8486 27.7921 43.1055 29.6729 43.1055ZM29.6729 41.998C28.6314 41.998 27.9678 41.1587 27.9678 39.8315C27.9678 38.5 28.6358 37.6562 29.6729 37.6562C30.71 37.6562 31.3736 38.5 31.3736 39.8315C31.3736 41.1587 30.71 41.998 29.6729 41.998ZM35.0719 43.1055C36.4298 43.1055 37.2384 42.3408 37.2384 40.9917V37.2651C37.2384 36.8257 36.9923 36.5708 36.5748 36.5708C36.1573 36.5708 35.9112 36.8257 35.9112 37.2651V40.9829C35.9112 41.6201 35.6124 41.9629 35.0587 41.9629C34.6368 41.9629 34.3424 41.7256 34.2237 41.2993C34.1182 40.939 33.9249 40.7808 33.5909 40.7808C33.2174 40.7808 32.9757 41.0225 32.9757 41.4048C32.9757 41.5981 33.0108 41.7563 33.0855 41.9409C33.3844 42.6704 34.1182 43.1055 35.0719 43.1055Z" fill="white"/>
<path d="M26.5 1.01001C26.9676 1.00852 27.4306 1.10267 27.8606 1.28667C28.2905 1.47068 28.6782 1.74065 29 2.08001L39.06 12.73C39.6659 13.362 40.0028 14.2045 40 15.08V44.01C40 44.8057 39.6839 45.5687 39.1213 46.1313C38.5587 46.6939 37.7956 47.01 37 47.01H11C10.2044 47.01 9.44129 46.6939 8.87868 46.1313C8.31607 45.5687 8 44.8057 8 44.01V4.01001C8 3.21436 8.31607 2.4513 8.87868 1.88869C9.44129 1.32608 10.2044 1.01001 11 1.01001H26.5ZM26.5 0.0100098H11C9.93913 0.0100098 8.92172 0.431437 8.17157 1.18158C7.42143 1.93173 7 2.94914 7 4.01001L7 44.01C7 45.0709 7.42143 46.0883 8.17157 46.8384C8.92172 47.5886 9.93913 48.01 11 48.01H37C38.0609 48.01 39.0783 47.5886 39.8284 46.8384C40.5786 46.0883 41 45.0709 41 44.01V15.08C40.9912 13.9628 40.5588 12.8906 39.79 12.08L29.71 1.39001C29.2961 0.954844 28.7982 0.608174 28.2465 0.370974C27.6947 0.133775 27.1006 0.0109765 26.5 0.0100098V0.0100098Z" fill="url(#paint2_linear)"/>
<path fill-rule="evenodd" clip-rule="evenodd" d="M29 1.01001L32 4.01001L34 6.01001C34 6.01001 40 12.01 40 13.01C40.5437 13.549 40.895 14.2517 41 15.01C41 15.01 40.53 13.53 39.88 13.53H29.73C29.2384 13.53 28.7668 13.3354 28.4183 12.9888C28.0698 12.6421 27.8726 12.1716 27.87 11.68V1.34001C27.8755 1.01728 27.7625 0.703732 27.5524 0.458661C27.3423 0.213589 27.0498 0.0539789 26.73 0.0100098L29 1.01001Z" fill="#EBEBEB"/>
</g>
<defs>
<linearGradient id="paint0_linear" x1="24.17" y1="4.95267e-05" x2="24.17" y2="48" gradientUnits="userSpaceOnUse">
<stop stop-color="white" stop-opacity="0.8"/>
<stop offset="1" stop-color="white" stop-opacity="0.3"/>
</linearGradient>
<radialGradient id="paint1_radial" cx="0" cy="0" r="1" gradientUnits="userSpaceOnUse" gradientTransform="translate(34.52 6.41001) scale(17.55)">
<stop offset="0.08" stop-opacity="0.3"/>
<stop offset="1" stop-opacity="0"/>
</radialGradient>
<linearGradient id="paint2_linear" x1="24" y1="0.0100098" x2="24" y2="48.01" gradientUnits="userSpaceOnUse">
<stop offset="0.28" stop-color="#EBEBEB"/>
<stop offset="1" stop-color="#EBEBEB" stop-opacity="0.3"/>
</linearGradient>
<clipPath id="clip0">
<rect width="48" height="48" fill="white"/>
</clipPath>
</defs>
</svg>
