<svg width="48" height="48" viewBox="0 0 48 48" fill="none" xmlns="http://www.w3.org/2000/svg">
<g clip-path="url(#clip0)">
<path fill-rule="evenodd" clip-rule="evenodd" d="M7.17 4.01002C7.17 2.94915 7.59143 1.93174 8.34157 1.18159C9.09172 0.431447 10.1091 0.0100197 11.17 0.0100197H26.67C27.2718 0.00873919 27.8675 0.131506 28.4198 0.370659C28.9721 0.609813 29.4691 0.960221 29.88 1.40002L40 12.01C40.7714 12.819 41.2042 13.8923 41.21 15.01V44.01C41.21 45.0709 40.7886 46.0883 40.0384 46.8384C39.2883 47.5886 38.2709 48.01 37.21 48.01H11.21C10.1491 48.01 9.13172 47.5886 8.38157 46.8384C7.63143 46.0883 7.21 45.0709 7.21 44.01V4.01002H7.17Z" fill="#4E5261"/>
<path d="M26.67 1.00999C27.1345 1.01005 27.594 1.10498 28.0205 1.28898C28.4469 1.47297 28.8313 1.74215 29.15 2.07999L39.24 12.72C39.8378 13.3564 40.1704 14.1968 40.17 15.07V44.01C40.17 44.8056 39.8539 45.5687 39.2913 46.1313C38.7287 46.6939 37.9656 47.01 37.17 47.01H11.17C10.3743 47.01 9.61129 46.6939 9.04868 46.1313C8.48607 45.5687 8.17 44.8056 8.17 44.01V4.00999C8.17 3.21434 8.48607 2.45128 9.04868 1.88867C9.61129 1.32606 10.3743 1.00999 11.17 1.00999H26.67ZM26.67 0.00998849H11.17C10.1091 0.00998849 9.09172 0.431416 8.34157 1.18156C7.59143 1.93171 7.17 2.94912 7.17 4.00999V44.01C7.17 45.0709 7.59143 46.0883 8.34157 46.8384C9.09172 47.5886 10.1091 48.01 11.17 48.01H37.17C38.2309 48.01 39.2483 47.5886 39.9984 46.8384C40.7486 46.0883 41.17 45.0709 41.17 44.01V15.07C41.1905 13.937 40.7711 12.8402 40 12.01L29.88 1.38999C29.4683 0.952004 28.9708 0.603456 28.4186 0.366041C27.8663 0.128626 27.2711 0.0074273 26.67 0.00998849Z" fill="url(#paint0_linear)"/>
<path fill-rule="evenodd" clip-rule="evenodd" d="M7 4.01001C7 2.94914 7.42143 1.93173 8.17157 1.18158C8.92172 0.431437 9.93913 0.0100098 11 0.0100098L26.5 0.0100098C27.1006 0.0109765 27.6947 0.133775 28.2465 0.370974C28.7982 0.608174 29.2961 0.954844 29.71 1.39001L39.79 12.01C40.5588 12.8206 40.9912 13.8928 41 15.01V44.01C41 45.0709 40.5786 46.0883 39.8284 46.8384C39.0783 47.5886 38.0609 48.01 37 48.01H11C9.93913 48.01 8.92172 47.5886 8.17157 46.8384C7.42143 46.0883 7 45.0709 7 44.01V4.01001Z" fill="url(#paint1_radial)"/>
<path d="M13.4805 42.1289C15.4141 42.1289 16.6011 41.1729 16.6011 39.6582C16.6011 38.4819 15.8921 37.8213 14.2485 37.4937L13.4321 37.3271C12.5137 37.1445 12.1431 36.8491 12.1431 36.3711C12.1431 35.8018 12.6748 35.4258 13.4751 35.4258C14.1411 35.4258 14.6406 35.6675 14.8984 36.2529C15.0811 36.5859 15.3066 36.731 15.6719 36.731C16.0854 36.731 16.3647 36.4678 16.3647 36.0811C16.3647 35.9414 16.3433 35.8286 16.3057 35.7212C15.9619 34.7114 14.8931 34.1152 13.4751 34.1152C11.751 34.1152 10.5156 35.0552 10.5156 36.4731C10.5156 37.6279 11.2729 38.3691 12.8198 38.6753L13.6416 38.8364C14.6138 39.0352 14.979 39.3252 14.979 39.8354C14.979 40.4048 14.3882 40.8237 13.5181 40.8237C12.7769 40.8237 12.1699 40.5552 11.9175 39.9644C11.7241 39.6206 11.5039 39.4917 11.1709 39.4917C10.752 39.4917 10.4565 39.7764 10.4565 40.2061C10.4565 40.3511 10.4888 40.5015 10.5425 40.6411C10.854 41.4897 11.8799 42.1289 13.4805 42.1289ZM18.03 42H22.3215C22.7404 42 22.9929 41.7368 22.9929 41.3555C22.9929 40.9634 22.7404 40.7109 22.3215 40.7109H19.3996V40.6787L21.0754 39.0674C22.343 37.8696 22.8049 37.2788 22.8049 36.3335C22.8049 35.0015 21.6985 34.0776 20.0549 34.0776C18.5886 34.0776 17.6164 34.8779 17.3532 35.7373C17.3156 35.8501 17.2942 35.9629 17.2942 36.0864C17.2942 36.4893 17.552 36.7471 17.987 36.7471C18.3362 36.7471 18.5241 36.5967 18.7068 36.2744C18.9861 35.6514 19.4157 35.3398 20.0388 35.3398C20.7317 35.3398 21.2258 35.7964 21.2258 36.4355C21.2258 36.9941 20.9787 37.3701 20.0227 38.2886L17.7131 40.4961C17.3855 40.7969 17.2673 41.001 17.2673 41.3071C17.2673 41.7153 17.5197 42 18.03 42ZM27.1611 42.1289C28.6274 42.1289 29.7822 41.4683 30.2656 40.394C30.3461 40.2061 30.3891 40.0342 30.3891 39.8516C30.3891 39.4219 30.0883 39.1318 29.6318 39.1318C29.288 39.1318 29.0839 39.2769 28.9174 39.6421C28.5683 40.4209 27.956 40.7915 27.1396 40.7915C25.8989 40.7915 25.1201 39.771 25.1201 38.1167C25.1201 36.4839 25.9096 35.458 27.1342 35.458C27.9077 35.458 28.5414 35.8555 28.8959 36.645C29.0732 37.021 29.3041 37.1821 29.6694 37.1821C30.0991 37.1821 30.3837 36.9082 30.3837 36.4839C30.3837 36.2905 30.33 36.0811 30.2226 35.877C29.6909 34.7598 28.5683 34.1152 27.1181 34.1152C24.8891 34.1152 23.4658 35.6245 23.4658 38.1221C23.4658 40.625 24.8622 42.1289 27.1611 42.1289ZM31.6676 42.1021C31.9738 42.1021 32.1457 42 32.3498 41.7046L34.0524 39.2876H34.0954L35.8249 41.6992C36.0343 41.9839 36.2331 42.1021 36.5285 42.1021C36.9796 42.1021 37.3073 41.7959 37.3073 41.3716C37.3073 41.1567 37.2428 40.9741 37.0924 40.7808L35.1374 38.1436V38.106L37.1515 35.415C37.3073 35.2163 37.3664 35.0444 37.3664 34.835C37.3664 34.4482 37.0011 34.1421 36.5768 34.1421C36.2653 34.1421 36.1042 34.2603 35.9162 34.5396L34.2028 37.0425H34.1598L32.5002 34.5933C32.2907 34.2764 32.0758 34.1421 31.7697 34.1421C31.297 34.1421 30.9479 34.4644 30.9479 34.9048C30.9479 35.1143 31.007 35.2915 31.1842 35.5278L33.0534 38.0737V38.1167L31.1198 40.813C30.964 41.0278 30.8996 41.1997 30.8996 41.3984C30.8996 41.7905 31.2379 42.1021 31.6676 42.1021Z" fill="white"/>
<path d="M26.5 1.01001C26.9676 1.00852 27.4306 1.10267 27.8606 1.28667C28.2905 1.47068 28.6782 1.74065 29 2.08001L39.06 12.73C39.6659 13.362 40.0028 14.2045 40 15.08V44.01C40 44.8057 39.6839 45.5687 39.1213 46.1313C38.5587 46.6939 37.7956 47.01 37 47.01H11C10.2044 47.01 9.44129 46.6939 8.87868 46.1313C8.31607 45.5687 8 44.8057 8 44.01V4.01001C8 3.21436 8.31607 2.4513 8.87868 1.88869C9.44129 1.32608 10.2044 1.01001 11 1.01001H26.5ZM26.5 0.0100098H11C9.93913 0.0100098 8.92172 0.431437 8.17157 1.18158C7.42143 1.93173 7 2.94914 7 4.01001L7 44.01C7 45.0709 7.42143 46.0883 8.17157 46.8384C8.92172 47.5886 9.93913 48.01 11 48.01H37C38.0609 48.01 39.0783 47.5886 39.8284 46.8384C40.5786 46.0883 41 45.0709 41 44.01V15.08C40.9912 13.9628 40.5588 12.8906 39.79 12.08L29.71 1.39001C29.2961 0.954844 28.7982 0.608174 28.2465 0.370974C27.6947 0.133775 27.1006 0.0109765 26.5 0.0100098V0.0100098Z" fill="url(#paint2_linear)"/>
<path fill-rule="evenodd" clip-rule="evenodd" d="M29 1.01001L32 4.01001L34 6.01001C34 6.01001 40 12.01 40 13.01C40.5437 13.549 40.895 14.2517 41 15.01C41 15.01 40.53 13.53 39.88 13.53H29.73C29.2384 13.53 28.7668 13.3354 28.4183 12.9888C28.0698 12.6421 27.8726 12.1716 27.87 11.68V1.34001C27.8755 1.01728 27.7625 0.703732 27.5524 0.458661C27.3423 0.213589 27.0498 0.0539789 26.73 0.0100098L29 1.01001Z" fill="#EBEBEB"/>
</g>
<defs>
<linearGradient id="paint0_linear" x1="24.17" y1="-1.15084e-05" x2="24.17" y2="48" gradientUnits="userSpaceOnUse">
<stop stop-color="white" stop-opacity="0.8"/>
<stop offset="1" stop-color="white" stop-opacity="0.3"/>
</linearGradient>
<radialGradient id="paint1_radial" cx="0" cy="0" r="1" gradientUnits="userSpaceOnUse" gradientTransform="translate(34.52 6.41001) scale(17.55)">
<stop offset="0.08" stop-opacity="0.3"/>
<stop offset="1" stop-opacity="0"/>
</radialGradient>
<linearGradient id="paint2_linear" x1="24" y1="0.0100098" x2="24" y2="48.01" gradientUnits="userSpaceOnUse">
<stop offset="0.28" stop-color="#EBEBEB"/>
<stop offset="1" stop-color="#EBEBEB" stop-opacity="0.3"/>
</linearGradient>
<clipPath id="clip0">
<rect width="48" height="48" fill="white"/>
</clipPath>
</defs>
</svg>
