<svg width="48" height="48" viewBox="0 0 48 48" fill="none" xmlns="http://www.w3.org/2000/svg">
<g clip-path="url(#clip0)">
<path fill-rule="evenodd" clip-rule="evenodd" d="M7.17 4.01002C7.17 2.94915 7.59143 1.93174 8.34157 1.18159C9.09172 0.431447 10.1091 0.0100197 11.17 0.0100197H26.67C27.2718 0.00873919 27.8675 0.131506 28.4198 0.370659C28.9721 0.609813 29.4691 0.960221 29.88 1.40002L40 12.01C40.7714 12.819 41.2042 13.8923 41.21 15.01V44.01C41.21 45.0709 40.7886 46.0883 40.0384 46.8384C39.2883 47.5886 38.2709 48.01 37.21 48.01H11.21C10.1491 48.01 9.13172 47.5886 8.38157 46.8384C7.63143 46.0883 7.21 45.0709 7.21 44.01V4.01002H7.17Z" fill="#4E5261"/>
<path d="M26.67 1.00999C27.1345 1.01005 27.594 1.10498 28.0205 1.28898C28.4469 1.47297 28.8313 1.74215 29.15 2.07999L39.24 12.72C39.8378 13.3564 40.1704 14.1968 40.17 15.07V44.01C40.17 44.8056 39.8539 45.5687 39.2913 46.1313C38.7287 46.6939 37.9656 47.01 37.17 47.01H11.17C10.3743 47.01 9.61129 46.6939 9.04868 46.1313C8.48607 45.5687 8.17 44.8056 8.17 44.01V4.00999C8.17 3.21434 8.48607 2.45128 9.04868 1.88867C9.61129 1.32606 10.3743 1.00999 11.17 1.00999H26.67ZM26.67 0.00998849H11.17C10.1091 0.00998849 9.09172 0.431416 8.34157 1.18156C7.59143 1.93171 7.17 2.94912 7.17 4.00999V44.01C7.17 45.0709 7.59143 46.0883 8.34157 46.8384C9.09172 47.5886 10.1091 48.01 11.17 48.01H37.17C38.2309 48.01 39.2483 47.5886 39.9984 46.8384C40.7486 46.0883 41.17 45.0709 41.17 44.01V15.07C41.1905 13.937 40.7711 12.8402 40 12.01L29.88 1.38999C29.4683 0.952004 28.9708 0.603456 28.4186 0.366041C27.8663 0.128626 27.2711 0.0074273 26.67 0.00998849Z" fill="url(#paint0_linear)"/>
<path fill-rule="evenodd" clip-rule="evenodd" d="M7 4.01001C7 2.94914 7.42143 1.93173 8.17157 1.18158C8.92172 0.431437 9.93913 0.0100098 11 0.0100098L26.5 0.0100098C27.1006 0.0109765 27.6947 0.133775 28.2465 0.370974C28.7982 0.608174 29.2961 0.954844 29.71 1.39001L39.79 12.01C40.5588 12.8206 40.9912 13.8928 41 15.01V44.01C41 45.0709 40.5786 46.0883 39.8284 46.8384C39.0783 47.5886 38.0609 48.01 37 48.01H11C9.93913 48.01 8.92172 47.5886 8.17157 46.8384C7.42143 46.0883 7 45.0709 7 44.01V4.01001Z" fill="url(#paint1_radial)"/>
<path d="M13.4805 42.1289C15.4141 42.1289 16.6011 41.1729 16.6011 39.6582C16.6011 38.4819 15.8921 37.8213 14.2485 37.4937L13.4321 37.3271C12.5137 37.1445 12.1431 36.8491 12.1431 36.3711C12.1431 35.8018 12.6748 35.4258 13.4751 35.4258C14.1411 35.4258 14.6406 35.6675 14.8984 36.2529C15.0811 36.5859 15.3066 36.731 15.6719 36.731C16.0854 36.731 16.3647 36.4678 16.3647 36.0811C16.3647 35.9414 16.3433 35.8286 16.3057 35.7212C15.9619 34.7114 14.8931 34.1152 13.4751 34.1152C11.751 34.1152 10.5156 35.0552 10.5156 36.4731C10.5156 37.6279 11.2729 38.3691 12.8198 38.6753L13.6416 38.8364C14.6138 39.0352 14.979 39.3252 14.979 39.8354C14.979 40.4048 14.3882 40.8237 13.5181 40.8237C12.7769 40.8237 12.1699 40.5552 11.9175 39.9644C11.7241 39.6206 11.5039 39.4917 11.1709 39.4917C10.752 39.4917 10.4565 39.7764 10.4565 40.2061C10.4565 40.3511 10.4888 40.5015 10.5425 40.6411C10.854 41.4897 11.8799 42.1289 13.4805 42.1289ZM19.6897 42.1021C20.1999 42.1021 20.49 41.8496 20.6457 41.2803L21.9294 36.7041H21.9778L23.2668 41.2803C23.4226 41.8604 23.7072 42.1021 24.2282 42.1021C24.7278 42.1021 25.0071 41.855 25.1682 41.2856L26.7903 35.4097C26.844 35.2056 26.8762 35.0122 26.8762 34.8726C26.8762 34.4214 26.57 34.1421 26.0759 34.1421C25.6516 34.1421 25.3938 34.373 25.2917 34.8403L24.1316 39.8623H24.0886L22.7834 34.8564C22.6653 34.3784 22.3967 34.1421 21.9563 34.1421C21.5051 34.1421 21.2473 34.3623 21.1238 34.8672L19.8186 39.8623H19.7756L18.6154 34.8403C18.5188 34.3784 18.261 34.1421 17.8366 34.1421C17.3425 34.1421 17.0363 34.4214 17.0363 34.8726C17.0363 35.0176 17.0686 35.2109 17.1223 35.4097L18.739 41.2749C18.9001 41.855 19.1794 42.1021 19.6897 42.1021ZM30.8779 42.1289C32.3442 42.1289 33.499 41.4683 33.9824 40.394C34.0629 40.2061 34.1059 40.0342 34.1059 39.8516C34.1059 39.4219 33.8051 39.1318 33.3486 39.1318C33.0048 39.1318 32.8007 39.2769 32.6342 39.6421C32.2851 40.4209 31.6728 40.7915 30.8564 40.7915C29.6157 40.7915 28.8369 39.771 28.8369 38.1167C28.8369 36.4839 29.6264 35.458 30.851 35.458C31.6245 35.458 32.2582 35.8555 32.6127 36.645C32.79 37.021 33.0209 37.1821 33.3862 37.1821C33.8159 37.1821 34.1005 36.9082 34.1005 36.4839C34.1005 36.2905 34.0468 36.0811 33.9394 35.877C33.4077 34.7598 32.2851 34.1152 30.8349 34.1152C28.6059 34.1152 27.1826 35.6245 27.1826 38.1221C27.1826 40.625 28.579 42.1289 30.8779 42.1289Z" fill="white"/>
<path d="M26.5 1.01001C26.9676 1.00852 27.4306 1.10267 27.8606 1.28667C28.2905 1.47068 28.6782 1.74065 29 2.08001L39.06 12.73C39.6659 13.362 40.0028 14.2045 40 15.08V44.01C40 44.8057 39.6839 45.5687 39.1213 46.1313C38.5587 46.6939 37.7956 47.01 37 47.01H11C10.2044 47.01 9.44129 46.6939 8.87868 46.1313C8.31607 45.5687 8 44.8057 8 44.01V4.01001C8 3.21436 8.31607 2.4513 8.87868 1.88869C9.44129 1.32608 10.2044 1.01001 11 1.01001H26.5ZM26.5 0.0100098H11C9.93913 0.0100098 8.92172 0.431437 8.17157 1.18158C7.42143 1.93173 7 2.94914 7 4.01001L7 44.01C7 45.0709 7.42143 46.0883 8.17157 46.8384C8.92172 47.5886 9.93913 48.01 11 48.01H37C38.0609 48.01 39.0783 47.5886 39.8284 46.8384C40.5786 46.0883 41 45.0709 41 44.01V15.08C40.9912 13.9628 40.5588 12.8906 39.79 12.08L29.71 1.39001C29.2961 0.954844 28.7982 0.608174 28.2465 0.370974C27.6947 0.133775 27.1006 0.0109765 26.5 0.0100098V0.0100098Z" fill="url(#paint2_linear)"/>
<path fill-rule="evenodd" clip-rule="evenodd" d="M29 1.01001L32 4.01001L34 6.01001C34 6.01001 40 12.01 40 13.01C40.5437 13.549 40.895 14.2517 41 15.01C41 15.01 40.53 13.53 39.88 13.53H29.73C29.2384 13.53 28.7668 13.3354 28.4183 12.9888C28.0698 12.6421 27.8726 12.1716 27.87 11.68V1.34001C27.8755 1.01728 27.7625 0.703732 27.5524 0.458661C27.3423 0.213589 27.0498 0.0539789 26.73 0.0100098L29 1.01001Z" fill="#EBEBEB"/>
</g>
<defs>
<linearGradient id="paint0_linear" x1="24.17" y1="-1.15084e-05" x2="24.17" y2="48" gradientUnits="userSpaceOnUse">
<stop stop-color="white" stop-opacity="0.8"/>
<stop offset="1" stop-color="white" stop-opacity="0.3"/>
</linearGradient>
<radialGradient id="paint1_radial" cx="0" cy="0" r="1" gradientUnits="userSpaceOnUse" gradientTransform="translate(34.52 6.41001) scale(17.55)">
<stop offset="0.08" stop-opacity="0.3"/>
<stop offset="1" stop-opacity="0"/>
</radialGradient>
<linearGradient id="paint2_linear" x1="24" y1="0.0100098" x2="24" y2="48.01" gradientUnits="userSpaceOnUse">
<stop offset="0.28" stop-color="#EBEBEB"/>
<stop offset="1" stop-color="#EBEBEB" stop-opacity="0.3"/>
</linearGradient>
<clipPath id="clip0">
<rect width="48" height="48" fill="white"/>
</clipPath>
</defs>
</svg>
