<svg width="48" height="48" viewBox="0 0 48 48" fill="none" xmlns="http://www.w3.org/2000/svg">
<g clip-path="url(#clip0)">
<path fill-rule="evenodd" clip-rule="evenodd" d="M7.17001 4.00999C7.17001 2.94912 7.59144 1.93171 8.34159 1.18156C9.09173 0.431417 10.1091 0.00998916 11.17 0.00998916H26.67C27.2719 0.00870867 27.8675 0.131475 28.4198 0.370629C28.9721 0.609783 29.4692 0.960191 29.88 1.39999L40 12.01C40.7714 12.819 41.2043 13.8922 41.21 15.01V44.01C41.21 45.0709 40.7886 46.0883 40.0384 46.8384C39.2883 47.5886 38.2709 48.01 37.21 48.01H11.21C10.1491 48.01 9.13173 47.5886 8.38159 46.8384C7.63144 46.0883 7.21001 45.0709 7.21001 44.01V4.00999H7.17001Z" fill="#4E5261"/>
<path d="M26.67 1.00999C27.1345 1.01005 27.594 1.10498 28.0205 1.28898C28.4469 1.47297 28.8313 1.74215 29.15 2.07999L39.24 12.72C39.8378 13.3564 40.1704 14.1968 40.17 15.07V44.01C40.17 44.8056 39.8539 45.5687 39.2913 46.1313C38.7287 46.6939 37.9657 47.01 37.17 47.01H11.17C10.3744 47.01 9.6113 46.6939 9.04869 46.1313C8.48608 45.5687 8.17001 44.8056 8.17001 44.01V4.00999C8.17001 3.21434 8.48608 2.45128 9.04869 1.88867C9.6113 1.32606 10.3744 1.00999 11.17 1.00999H26.67ZM26.67 0.00998849H11.17C10.1091 0.00998849 9.09173 0.431416 8.34159 1.18156C7.59144 1.93171 7.17001 2.94912 7.17001 4.00999V44.01C7.17001 45.0709 7.59144 46.0883 8.34159 46.8384C9.09173 47.5886 10.1091 48.01 11.17 48.01H37.17C38.2309 48.01 39.2483 47.5886 39.9984 46.8384C40.7486 46.0883 41.17 45.0709 41.17 44.01V15.07C41.1905 13.937 40.7712 12.8402 40 12.01L29.88 1.38999C29.4683 0.952004 28.9708 0.603456 28.4186 0.366041C27.8663 0.128626 27.2711 0.0074273 26.67 0.00998849Z" fill="url(#paint0_linear)"/>
<path fill-rule="evenodd" clip-rule="evenodd" d="M7 4.00998C7 2.94911 7.42143 1.9317 8.17157 1.18155C8.92172 0.431407 9.93913 0.00997925 11 0.00997925L26.5 0.00997925C27.1006 0.010946 27.6947 0.133744 28.2465 0.370944C28.7982 0.608144 29.2961 0.954814 29.71 1.38998L39.79 12.01C40.5588 12.8206 40.9912 13.8928 41 15.01V44.01C41 45.0708 40.5786 46.0883 39.8284 46.8384C39.0783 47.5886 38.0609 48.01 37 48.01H11C9.93913 48.01 8.92172 47.5886 8.17157 46.8384C7.42143 46.0883 7 45.0708 7 44.01V4.00998Z" fill="url(#paint1_radial)"/>
<path d="M13.3887 43.0928C13.96 43.0928 14.3018 42.8389 14.5166 42.2432L16.4893 36.9307C16.5381 36.7988 16.5625 36.667 16.5625 36.5352C16.5625 36.1348 16.2549 35.8564 15.8057 35.8564C15.4199 35.8564 15.2002 36.0273 15.0781 36.4229L13.4326 41.4814H13.3984L11.748 36.4375C11.626 36.0371 11.3916 35.8564 10.9961 35.8564C10.5322 35.8564 10.2197 36.1396 10.2197 36.5547C10.2197 36.6963 10.2441 36.833 10.293 36.9697L12.2559 42.2383C12.4707 42.8389 12.8125 43.0928 13.3887 43.0928ZM17.8322 43.0928C18.2473 43.0928 18.4865 42.8389 18.4865 42.4043V38.2441H18.5256L20.2688 42.5117C20.3908 42.8145 20.5959 42.9561 20.9084 42.9561C21.216 42.9561 21.4113 42.8193 21.5383 42.5068L23.2814 38.2441H23.3205V42.4043C23.3205 42.8389 23.5598 43.0928 23.9748 43.0928C24.3898 43.0928 24.634 42.8389 24.634 42.4043V36.8086C24.634 36.208 24.2824 35.8564 23.6867 35.8564C23.1691 35.8564 22.8811 36.0762 22.6662 36.6182L20.923 40.9492H20.884L19.1359 36.6182C18.9211 36.0713 18.6379 35.8564 18.1252 35.8564C17.5246 35.8564 17.173 36.2129 17.173 36.8086V42.4043C17.173 42.8389 17.4172 43.0928 17.8322 43.0928ZM26.3432 43.1025C26.807 43.1025 27.0805 42.8193 27.0805 42.3359V40.4219H28.3354L29.5072 42.5459C29.7465 42.9756 29.9076 43.1025 30.2592 43.1025C30.6889 43.1025 31.0014 42.8193 31.0014 42.4287C31.0014 42.2578 30.9672 42.1309 30.8451 41.9209L29.8295 40.1631C30.6059 39.8311 31.0404 39.0791 31.0404 38.2002C31.0404 36.8086 30.1127 35.9541 28.4916 35.9541H26.3432C25.8793 35.9541 25.6059 36.2373 25.6059 36.7207V42.3359C25.6059 42.8193 25.8842 43.1025 26.3432 43.1025ZM27.0805 39.3525V37.1064H28.3354C29.0678 37.1064 29.5268 37.5459 29.5268 38.2295C29.5268 38.9277 29.0922 39.3525 28.35 39.3525H27.0805ZM32.5494 43.0928C33.0133 43.0928 33.2867 42.8096 33.2867 42.3262V40.8467L33.9898 40.1094L36.0895 42.6924C36.3189 42.9854 36.524 43.0977 36.8268 43.0977C37.232 43.0977 37.5396 42.7852 37.5396 42.3848C37.5396 42.1846 37.442 41.9746 37.2223 41.7012L35.108 39.1328L37.0514 37.0967C37.2369 36.9014 37.3102 36.7402 37.3102 36.5352C37.3102 36.1543 37.0074 35.8564 36.6168 35.8564C36.3727 35.8564 36.1871 35.9492 35.982 36.1738L33.3307 39.0693H33.2867V36.6279C33.2867 36.1396 33.0133 35.8564 32.5494 35.8564C32.0855 35.8564 31.8121 36.1396 31.8121 36.6279V42.3262C31.8121 42.8096 32.0855 43.0928 32.5494 43.0928Z" fill="white"/>
<path d="M26.5 1.00998C26.9676 1.00849 27.4306 1.10264 27.8606 1.28664C28.2905 1.47065 28.6782 1.74062 29 2.07998L39.06 12.73C39.6659 13.362 40.0028 14.2045 40 15.08V44.01C40 44.8056 39.6839 45.5687 39.1213 46.1313C38.5587 46.6939 37.7956 47.01 37 47.01H11C10.2044 47.01 9.44129 46.6939 8.87868 46.1313C8.31607 45.5687 8 44.8056 8 44.01V4.00998C8 3.21433 8.31607 2.45127 8.87868 1.88866C9.44129 1.32605 10.2044 1.00998 11 1.00998H26.5ZM26.5 0.00997925H11C9.93913 0.00997925 8.92172 0.431407 8.17157 1.18155C7.42143 1.9317 7 2.94911 7 4.00998L7 44.01C7 45.0708 7.42143 46.0883 8.17157 46.8384C8.92172 47.5886 9.93913 48.01 11 48.01H37C38.0609 48.01 39.0783 47.5886 39.8284 46.8384C40.5786 46.0883 41 45.0708 41 44.01V15.08C40.9912 13.9628 40.5588 12.8906 39.79 12.08L29.71 1.38998C29.2961 0.954814 28.7982 0.608144 28.2465 0.370944C27.6947 0.133744 27.1006 0.010946 26.5 0.00997925V0.00997925Z" fill="url(#paint2_linear)"/>
<path fill-rule="evenodd" clip-rule="evenodd" d="M29 1.00998L32 4.00998L34 6.00998C34 6.00998 40 12.01 40 13.01C40.5437 13.5489 40.895 14.2517 41 15.01C41 15.01 40.53 13.53 39.88 13.53H29.73C29.2384 13.53 28.7668 13.3354 28.4183 12.9887C28.0698 12.6421 27.8727 12.1715 27.87 11.68V1.33998C27.8755 1.01725 27.7625 0.703702 27.5524 0.45863C27.3424 0.213559 27.0498 0.0539484 26.73 0.00997925L29 1.00998Z" fill="#EBEBEB"/>
</g>
<defs>
<linearGradient id="paint0_linear" x1="24.17" y1="-1.15084e-05" x2="24.17" y2="48" gradientUnits="userSpaceOnUse">
<stop stop-color="white" stop-opacity="0.8"/>
<stop offset="1" stop-color="white" stop-opacity="0.3"/>
</linearGradient>
<radialGradient id="paint1_radial" cx="0" cy="0" r="1" gradientUnits="userSpaceOnUse" gradientTransform="translate(34.52 6.40998) scale(17.55)">
<stop offset="0.08" stop-opacity="0.3"/>
<stop offset="1" stop-opacity="0"/>
</radialGradient>
<linearGradient id="paint2_linear" x1="24" y1="0.00997925" x2="24" y2="48.01" gradientUnits="userSpaceOnUse">
<stop offset="0.28" stop-color="#EBEBEB"/>
<stop offset="1" stop-color="#EBEBEB" stop-opacity="0.3"/>
</linearGradient>
<clipPath id="clip0">
<rect width="48" height="48" fill="white"/>
</clipPath>
</defs>
</svg>
