<svg width="48" height="48" viewBox="0 0 48 48" fill="none" xmlns="http://www.w3.org/2000/svg">
<g clip-path="url(#clip0)">
<path fill-rule="evenodd" clip-rule="evenodd" d="M7.17001 4.01C7.17001 2.94913 7.59144 1.93172 8.34159 1.18157C9.09173 0.431426 10.1091 0.0099987 11.17 0.0099987H26.67C27.2719 0.00871821 27.8675 0.131485 28.4198 0.370638C28.9721 0.609792 29.4692 0.9602 29.88 1.4L40 12.01C40.7714 12.819 41.2043 13.8922 41.21 15.01V44.01C41.21 45.0709 40.7886 46.0883 40.0384 46.8384C39.2883 47.5886 38.2709 48.01 37.21 48.01H11.21C10.1491 48.01 9.13173 47.5886 8.38159 46.8384C7.63144 46.0883 7.21001 45.0709 7.21001 44.01V4.01H7.17001Z" fill="#4E5261"/>
<path d="M26.67 1.01C27.1345 1.01006 27.594 1.10499 28.0205 1.28899C28.4469 1.47298 28.8313 1.74216 29.15 2.08L39.24 12.72C39.8378 13.3564 40.1704 14.1968 40.17 15.07V44.01C40.17 44.8056 39.8539 45.5687 39.2913 46.1313C38.7287 46.6939 37.9657 47.01 37.17 47.01H11.17C10.3744 47.01 9.6113 46.6939 9.04869 46.1313C8.48608 45.5687 8.17001 44.8056 8.17001 44.01V4.01C8.17001 3.21435 8.48608 2.45129 9.04869 1.88868C9.6113 1.32607 10.3744 1.01 11.17 1.01H26.67ZM26.67 0.00999803H11.17C10.1091 0.00999803 9.09173 0.431426 8.34159 1.18157C7.59144 1.93172 7.17001 2.94913 7.17001 4.01V44.01C7.17001 45.0709 7.59144 46.0883 8.34159 46.8384C9.09173 47.5886 10.1091 48.01 11.17 48.01H37.17C38.2309 48.01 39.2483 47.5886 39.9984 46.8384C40.7486 46.0883 41.17 45.0709 41.17 44.01V15.07C41.1905 13.9371 40.7712 12.8403 40 12.01L29.88 1.39C29.4683 0.952014 28.9708 0.603466 28.4186 0.366051C27.8663 0.128636 27.2711 0.00743683 26.67 0.00999803Z" fill="url(#paint0_linear)"/>
<path fill-rule="evenodd" clip-rule="evenodd" d="M7 4.01C7 2.94913 7.42143 1.93172 8.17157 1.18157C8.92172 0.431426 9.93913 0.00999832 11 0.00999832L26.5 0.00999832C27.1006 0.0109651 27.6947 0.133763 28.2465 0.370963C28.7982 0.608163 29.2961 0.954833 29.71 1.39L39.79 12.01C40.5588 12.8206 40.9912 13.8928 41 15.01V44.01C41 45.0709 40.5786 46.0883 39.8284 46.8384C39.0783 47.5886 38.0609 48.01 37 48.01H11C9.93913 48.01 8.92172 47.5886 8.17157 46.8384C7.42143 46.0883 7 45.0709 7 44.01V4.01Z" fill="url(#paint1_radial)"/>
<path d="M11.3052 42.1021C11.6113 42.1021 11.7832 42 11.9873 41.7046L13.6899 39.2876H13.7329L15.4624 41.6992C15.6719 41.9839 15.8706 42.1021 16.166 42.1021C16.6172 42.1021 16.9448 41.7959 16.9448 41.3716C16.9448 41.1567 16.8804 40.9741 16.73 40.7808L14.7749 38.1436V38.106L16.7891 35.415C16.9448 35.2163 17.0039 35.0444 17.0039 34.835C17.0039 34.4482 16.6387 34.1421 16.2144 34.1421C15.9028 34.1421 15.7417 34.2603 15.5537 34.5396L13.8403 37.0425H13.7974L12.1377 34.5933C11.9282 34.2764 11.7134 34.1421 11.4072 34.1421C10.9346 34.1421 10.5854 34.4644 10.5854 34.9048C10.5854 35.1143 10.6445 35.2915 10.8218 35.5278L12.6909 38.0737V38.1167L10.7573 40.813C10.6016 41.0278 10.5371 41.1997 10.5371 41.3984C10.5371 41.7905 10.8755 42.1021 11.3052 42.1021ZM18.6906 42.1021C19.1472 42.1021 19.4104 41.8228 19.4104 41.3447V36.7686H19.4533L21.3708 41.4629C21.5051 41.7959 21.7307 41.9517 22.0744 41.9517C22.4128 41.9517 22.6277 41.8013 22.7673 41.4575L24.6848 36.7686H24.7278V41.3447C24.7278 41.8228 24.9909 42.1021 25.4475 42.1021C25.904 42.1021 26.1726 41.8228 26.1726 41.3447V35.1895C26.1726 34.5288 25.7859 34.1421 25.1306 34.1421C24.5613 34.1421 24.2444 34.3838 24.008 34.98L22.0905 39.7441H22.0476L20.1247 34.98C19.8884 34.3784 19.5769 34.1421 19.0129 34.1421C18.3523 34.1421 17.9655 34.5342 17.9655 35.1895V41.3447C17.9655 41.8228 18.2341 42.1021 18.6906 42.1021ZM28.0527 42H31.6137C32.0595 42 32.3496 41.7476 32.3496 41.3286C32.3496 40.9097 32.0541 40.6572 31.6137 40.6572H28.8637V34.9907C28.8637 34.4536 28.5629 34.1421 28.0527 34.1421C27.5424 34.1421 27.2416 34.4536 27.2416 34.9907V41.1514C27.2416 41.6885 27.5424 42 28.0527 42Z" fill="white"/>
<path d="M26.5 1.01C26.9676 1.00851 27.4306 1.10266 27.8606 1.28666C28.2905 1.47067 28.6782 1.74064 29 2.08L39.06 12.73C39.6659 13.362 40.0028 14.2045 40 15.08V44.01C40 44.8056 39.6839 45.5687 39.1213 46.1313C38.5587 46.6939 37.7956 47.01 37 47.01H11C10.2044 47.01 9.44129 46.6939 8.87868 46.1313C8.31607 45.5687 8 44.8056 8 44.01V4.01C8 3.21435 8.31607 2.45129 8.87868 1.88868C9.44129 1.32607 10.2044 1.01 11 1.01H26.5ZM26.5 0.00999832H11C9.93913 0.00999832 8.92172 0.431426 8.17157 1.18157C7.42143 1.93172 7 2.94913 7 4.01L7 44.01C7 45.0709 7.42143 46.0883 8.17157 46.8384C8.92172 47.5886 9.93913 48.01 11 48.01H37C38.0609 48.01 39.0783 47.5886 39.8284 46.8384C40.5786 46.0883 41 45.0709 41 44.01V15.08C40.9912 13.9628 40.5588 12.8906 39.79 12.08L29.71 1.39C29.2961 0.954833 28.7982 0.608163 28.2465 0.370963C27.6947 0.133763 27.1006 0.0109651 26.5 0.00999832V0.00999832Z" fill="url(#paint2_linear)"/>
<path fill-rule="evenodd" clip-rule="evenodd" d="M29 1.01L32 4.01L34 6.01C34 6.01 40 12.01 40 13.01C40.5437 13.5489 40.895 14.2517 41 15.01C41 15.01 40.53 13.53 39.88 13.53H29.73C29.2384 13.53 28.7668 13.3354 28.4183 12.9888C28.0698 12.6421 27.8727 12.1716 27.87 11.68V1.34C27.8755 1.01727 27.7625 0.703721 27.5524 0.458649C27.3424 0.213578 27.0498 0.0539674 26.73 0.00999832L29 1.01Z" fill="#EBEBEB"/>
</g>
<defs>
<linearGradient id="paint0_linear" x1="24.17" y1="-1.97168e-06" x2="24.17" y2="48" gradientUnits="userSpaceOnUse">
<stop stop-color="white" stop-opacity="0.8"/>
<stop offset="1" stop-color="white" stop-opacity="0.3"/>
</linearGradient>
<radialGradient id="paint1_radial" cx="0" cy="0" r="1" gradientUnits="userSpaceOnUse" gradientTransform="translate(34.52 6.41) scale(17.55)">
<stop offset="0.08" stop-opacity="0.3"/>
<stop offset="1" stop-opacity="0"/>
</radialGradient>
<linearGradient id="paint2_linear" x1="24" y1="0.00999832" x2="24" y2="48.01" gradientUnits="userSpaceOnUse">
<stop offset="0.28" stop-color="#EBEBEB"/>
<stop offset="1" stop-color="#EBEBEB" stop-opacity="0.3"/>
</linearGradient>
<clipPath id="clip0">
<rect width="48" height="48" fill="white"/>
</clipPath>
</defs>
</svg>
