<svg width="6" height="10" viewBox="0 0 6 10" fill="none" xmlns="http://www.w3.org/2000/svg">
<path d="M5.36914 5.47461C5.36426 5.21582 5.27637 5.01074 5.06641 4.80566L1.38965 1.21191C1.2334 1.06055 1.05273 0.982422 0.828125 0.982422C0.378906 0.982422 0.0078125 1.34863 0.0078125 1.79297C0.0078125 2.01758 0.100586 2.22266 0.271484 2.39355L3.45508 5.46973L0.271484 8.55566C0.100586 8.72168 0.0078125 8.92676 0.0078125 9.15625C0.0078125 9.60059 0.378906 9.9668 0.828125 9.9668C1.04785 9.9668 1.2334 9.89355 1.38965 9.7373L5.06641 6.14355C5.27637 5.93848 5.36914 5.72852 5.36914 5.47461Z" fill="#2E3A59" fill-opacity="0.3"/>
</svg>
