<svg width="32" height="32" viewBox="0 0 32 32" fill="none" xmlns="http://www.w3.org/2000/svg">
<rect width="32" height="32" rx="16" fill="#2E3A59" fill-opacity="0.1"/>
<path d="M18.543 13.5488C19.2812 13.5488 19.917 13.084 20.1836 12.4414H22.4326C22.7744 12.4414 23.0615 12.1406 23.0615 11.7783C23.0615 11.416 22.7744 11.1221 22.4326 11.1221H20.1836C19.9238 10.4727 19.2881 10.0078 18.543 10.0078C17.7979 10.0078 17.1621 10.4727 16.9023 11.1221H9.58105C9.21875 11.1221 8.93164 11.416 8.93164 11.7783C8.93164 12.1406 9.21875 12.4414 9.58105 12.4414H16.9023C17.1689 13.084 17.8047 13.5488 18.543 13.5488ZM18.543 12.6191C18.0713 12.6191 17.7021 12.2432 17.7021 11.7783C17.7021 11.2998 18.0713 10.9307 18.543 10.9307C19.0215 10.9307 19.3838 11.2998 19.3838 11.7783C19.3838 12.2432 19.0215 12.6191 18.543 12.6191ZM9.56055 15.3877C9.21875 15.3877 8.93164 15.6816 8.93164 16.0439C8.93164 16.3994 9.21875 16.7002 9.56055 16.7002H11.8848C12.1514 17.3564 12.7871 17.8145 13.5322 17.8145C14.2705 17.8145 14.9062 17.3564 15.1729 16.7002H22.4121C22.7744 16.7002 23.0615 16.4062 23.0615 16.0439C23.0615 15.6816 22.7744 15.3877 22.4121 15.3877H15.1729C14.9062 14.7383 14.2705 14.2803 13.5322 14.2803C12.7871 14.2803 12.1514 14.7383 11.8848 15.3877H9.56055ZM13.5322 16.8916C13.0605 16.8916 12.6846 16.5156 12.6846 16.0439C12.6846 15.5654 13.0605 15.2031 13.5322 15.2031C14.0039 15.2031 14.373 15.5654 14.373 16.0439C14.373 16.5156 14.0039 16.8916 13.5322 16.8916ZM18.543 22.0801C19.2881 22.0801 19.9238 21.6152 20.1836 20.9658H22.4326C22.7744 20.9658 23.0615 20.6719 23.0615 20.3096C23.0615 19.9404 22.7744 19.6533 22.4326 19.6533H20.1836C19.9238 19.0039 19.2881 18.5391 18.543 18.5391C17.8047 18.5391 17.1621 19.0039 16.9023 19.6533H9.58105C9.21875 19.6533 8.93164 19.9473 8.93164 20.3096C8.93164 20.665 9.21875 20.9658 9.58105 20.9658H16.9023C17.1621 21.6152 17.7979 22.0801 18.543 22.0801ZM18.543 21.1504C18.0713 21.1504 17.7021 20.7744 17.7021 20.3096C17.7021 19.8311 18.0713 19.4688 18.543 19.4688C19.0215 19.4688 19.3838 19.8311 19.3838 20.3096C19.3838 20.7744 19.0215 21.1504 18.543 21.1504Z" fill="#2E3A59" fill-opacity="0.6"/>
</svg>
