<?xml version="1.0" ?><svg baseProfile="tiny" height="24px" id="Layer_1" version="1.2" viewBox="0 0 24 24" width="24px" xml:space="preserve" xmlns="http://www.w3.org/2000/svg" xmlns:xlink="http://www.w3.org/1999/xlink"><path d="M15,4c-0.553,0-1,0.448-1,1s0.447,1,1,1h1.586l-3.293,3.293c-0.391,0.391-0.391,1.023,0,1.414  C13.488,10.902,13.744,11,14,11s0.512-0.098,0.707-0.293L18,7.414V9c0,0.552,0.447,1,1,1s1-0.448,1-1V4H15z"/><path d="M9.293,13.293L6,16.586V15c0-0.552-0.447-1-1-1s-1,0.448-1,1v4.999h0.996C5.004,19.999,9,20,9,20c0.552,0,1-0.448,1-1  s-0.447-1-1-1l-1.586,0l3.293-3.292c0.391-0.391,0.391-1.023,0-1.414S9.684,12.902,9.293,13.293z"/><path d="M7,12c0.552,0,1-0.448,1-1V8h3c0.553,0,1-0.448,1-1s-0.447-1-1-1H6.001L6,11C6,11.552,6.447,12,7,12z"/><path d="M17,12c-0.553,0-1,0.448-1,1v3h-3c-0.553,0-1,0.448-1,1s0.447,1,1,1h5v-5C18,12.448,17.553,12,17,12z"/></svg>