<svg width="16" height="16" viewBox="0 0 16 16" fill="none" xmlns="http://www.w3.org/2000/svg">
<rect width="16" height="16" rx="8" fill="#2E3A59" fill-opacity="0.1"/>
<path d="M3.64334 7.43416C4.0139 7.43416 4.28667 7.17181 4.28667 6.80144V6.48251L4.17344 5.04218L5.23366 6.15844L6.62326 7.55761C6.74164 7.68107 6.90633 7.7428 7.07617 7.7428C7.47247 7.7428 7.75039 7.47016 7.75039 7.07407C7.75039 6.89918 7.67833 6.74486 7.55481 6.6214L6.16006 5.22737L5.03809 4.17284L6.49974 4.28086H6.87545C7.24086 4.28086 7.50849 4.01337 7.50849 3.643C7.50849 3.27263 7.24086 3 6.87545 3H4.01904C3.37571 3 3 3.37037 3 4.01852V6.80144C3 7.16667 3.27792 7.43416 3.64334 7.43416ZM9.12455 13H11.981C12.6243 13 13 12.6296 13 11.9815V9.19856C13 8.83333 12.7221 8.56584 12.3567 8.56584C11.9861 8.56584 11.7133 8.82819 11.7133 9.19856V9.51749L11.8266 10.9578L10.7663 9.84156L9.37674 8.44239C9.25322 8.31893 9.09367 8.2572 8.92383 8.2572C8.52753 8.2572 8.24961 8.52984 8.24961 8.92593C8.24961 9.10082 8.32167 9.25514 8.44519 9.3786L9.83994 10.7726L10.9568 11.8272L9.50026 11.7191H9.12455C8.75914 11.7191 8.49151 11.9866 8.49151 12.357C8.49151 12.7274 8.75914 13 9.12455 13Z" fill="#2E3A59" fill-opacity="0.6"/>
</svg>
