<?xml version="1.0" ?><svg baseProfile="tiny" height="24px" id="Layer_1" version="1.2" viewBox="0 0 24 24" width="24px" xml:space="preserve" xmlns="http://www.w3.org/2000/svg" xmlns:xlink="http://www.w3.org/1999/xlink"><path d="M6.121,13c-0.553,0-1,0.448-1,1s0.447,1,1,1h1.465l-3.293,3.293c-0.391,0.391-0.391,1.023,0,1.414  C4.488,19.902,4.744,20,5,20s0.512-0.098,0.707-0.293l3.414-3.414V18c0,0.552,0.447,1,1,1S11,18.552,11,18v-5H6.121z"/><path d="M7,11c0.552,0,1-0.448,1-1V8h2c0.553,0,1-0.448,1-1s-0.447-1-1-1H6.001L6,10C6,10.552,6.447,11,7,11z"/><path d="M17,13c-0.553,0-1,0.448-1,1v2h-2c-0.553,0-1,0.448-1,1s0.447,1,1,1h4v-4C18,13.448,17.553,13,17,13z"/><path d="M18.293,4.293L15,7.586V6c0-0.552-0.447-1-1-1s-1,0.448-1,1v5h5c0.552,0,1-0.448,1-1s-0.447-1-1-1l-1.586,0l3.293-3.292  c0.391-0.391,0.391-1.023,0-1.414S18.684,3.902,18.293,4.293z"/></svg>