<svg width="24" height="24" viewBox="0 0 24 24" fill="none" xmlns="http://www.w3.org/2000/svg">
<rect width="24" height="24" rx="12" fill="#6FC386" fill-opacity="0.1"/>
<path d="M11.0088 16.9131C11.3506 16.9131 11.6191 16.7812 11.8047 16.5078L16.3506 9.5791C16.4824 9.37891 16.5361 9.18848 16.5361 9.0127C16.5361 8.53906 16.1748 8.1875 15.6865 8.1875C15.3545 8.1875 15.1445 8.30957 14.9395 8.62695L10.9893 14.8574L8.9873 12.4014C8.80176 12.1768 8.59668 12.0791 8.31348 12.0791C7.82031 12.0791 7.46387 12.4307 7.46387 12.9092C7.46387 13.124 7.52734 13.3096 7.71289 13.5195L10.2324 16.5469C10.4424 16.7959 10.6865 16.9131 11.0088 16.9131Z" fill="#6FC386"/>
</svg>
