<svg width="11" height="9" viewBox="0 0 11 9" fill="none" xmlns="http://www.w3.org/2000/svg">
<path d="M10.0645 8.17578C9.75684 8.17578 9.52734 7.95605 9.52734 7.65332V4.43555C9.51758 4.57227 9.4541 4.69922 9.35645 4.79199L6.13379 8.00977C6.0166 8.12207 5.88477 8.17578 5.74316 8.17578C5.44043 8.17578 5.21582 7.95605 5.21582 7.6582C5.21582 7.50195 5.27441 7.37012 5.37695 7.27246L6.47559 6.15918L7.8916 4.89453L6.83691 4.93359H0.801758C0.474609 4.93359 0.25 4.70898 0.25 4.3916C0.25 4.06934 0.474609 3.84473 0.801758 3.84473H6.83691L7.88672 3.88867L6.47559 2.61914L5.37695 1.50586C5.27441 1.4082 5.21582 1.27637 5.21582 1.12012C5.21582 0.822266 5.44043 0.602539 5.74316 0.602539C5.88477 0.602539 6.0166 0.65625 6.13379 0.768555L9.35645 3.98633C9.4541 4.08398 9.51758 4.21094 9.52734 4.34277V1.12988C9.52734 0.827148 9.75684 0.602539 10.0645 0.602539C10.3672 0.602539 10.5967 0.827148 10.5967 1.12988V7.65332C10.5967 7.95605 10.3672 8.17578 10.0645 8.17578Z" fill="white" fill-opacity="0.8"/>
</svg>
