<svg width="13" height="13" viewBox="0 0 13 13" fill="none" xmlns="http://www.w3.org/2000/svg">
<path d="M6.48828 9.13672L7.26758 8.3457C6.49414 8.28711 5.99023 8.05273 5.60938 7.67188C4.58398 6.64648 4.58984 5.19336 5.60352 4.17969L7.51367 2.26953C8.53906 1.25 9.98047 1.24414 11.0059 2.26953C12.0312 3.29492 12.0195 4.74219 11.0059 5.75586L9.85742 6.9043C10.0215 7.2793 10.0566 7.71289 9.99805 8.09375L11.7207 6.37695C13.1211 4.9707 13.1328 2.98438 11.7148 1.56055C10.291 0.136719 8.29883 0.148438 6.89258 1.55469L4.89453 3.55859C3.48828 4.96484 3.47656 6.95703 4.90039 8.375C5.26953 8.74414 5.73828 9.00781 6.48828 9.13672ZM6.63477 4.30859L5.85547 5.09961C6.62891 5.16406 7.13281 5.39258 7.51367 5.77344C8.53906 6.79883 8.5332 8.25195 7.51953 9.26562L5.60352 11.1758C4.58398 12.1953 3.14258 12.2012 2.11719 11.1816C1.0918 10.1504 1.09766 8.70898 2.11719 7.68945L3.26562 6.54102C3.10156 6.17188 3.06055 5.73242 3.125 5.35156L1.40234 7.06836C0.00195312 8.47461 -0.00976562 10.4668 1.4082 11.8848C2.83203 13.3086 4.82422 13.2969 6.22461 11.8965L8.22852 9.88672C9.63477 8.48047 9.64648 6.48828 8.22266 5.07031C7.85352 4.70117 7.38477 4.4375 6.63477 4.30859Z" fill="#2E3A59" fill-opacity="0.6"/>
</svg>
