<svg width="48" height="48" viewBox="0 0 48 48" fill="none" xmlns="http://www.w3.org/2000/svg">
<g filter="url(#filter0_i_2856_12312)">
<circle cx="24" cy="24" r="23.9" fill="#397BE3" fill-opacity="0.5"/>
<circle cx="24" cy="24" r="23.9" fill="url(#paint0_radial_2856_12312)"/>
<circle cx="24" cy="24" r="23.9" stroke="url(#paint1_linear_2856_12312)" stroke-width="0.2"/>
<path fill-rule="evenodd" clip-rule="evenodd" d="M32.2669 41.3289C33.0178 40.9706 33.2626 40.0434 32.8466 39.3229C32.4306 38.6024 31.5116 38.3625 30.7555 38.7098C29.0601 39.4885 27.2496 39.965 25.4057 40.1257C25.4669 39.9622 25.5003 39.7851 25.5003 39.6002V37.2002C25.5003 36.3717 24.8288 35.7002 24.0003 35.7002C23.1719 35.7002 22.5003 36.3717 22.5003 37.2002V39.6002C22.5003 39.7851 22.5338 39.9623 22.5951 40.1259C22.009 40.0748 21.4238 39.9916 20.8419 39.8759C18.2764 39.3656 15.8928 38.2457 13.8805 36.634C14.0172 36.5643 14.1454 36.4722 14.2598 36.3579L15.9568 34.6608C16.5426 34.075 16.5426 33.1253 15.9568 32.5395C15.3711 31.9537 14.4213 31.9537 13.8355 32.5395L12.1385 34.2366C12.0073 34.3677 11.9055 34.5171 11.8331 34.6766C11.5997 34.4106 11.3744 34.1362 11.1578 33.8539C9.2706 31.3945 8.14002 28.4598 7.87383 25.4051C8.03751 25.4664 8.21475 25.4999 8.39983 25.4999H10.7998C11.6283 25.4999 12.2998 24.8283 12.2998 23.9999C12.2998 23.1715 11.6283 22.4999 10.7998 22.4999H8.39983C8.21476 22.4999 8.03752 22.5334 7.87385 22.5947C8.16044 19.305 9.44548 16.1908 11.5426 13.6635L13.3399 15.4607C13.9256 16.0465 14.8754 16.0465 15.4612 15.4607C16.047 14.875 16.047 13.9252 15.4612 13.3394L13.664 11.5422C16.1913 9.4452 19.3056 8.16028 22.5953 7.8738C22.5339 8.03756 22.5003 8.21491 22.5003 8.40009V9.96009V10.8001C22.5003 11.6285 23.1719 12.3001 24.0003 12.3001C24.8288 12.3001 25.5003 11.6285 25.5003 10.8001V9.96009V8.40009C25.5003 8.21493 25.4668 8.0376 25.4054 7.87386C28.46 8.14011 31.3946 9.27068 33.8539 11.1578C34.1071 11.352 34.3538 11.5533 34.5939 11.7611L32.6118 13.4947C31.9882 14.04 31.9248 14.9877 32.4702 15.6113C33.0156 16.2348 33.9632 16.2982 34.5868 15.7528L36.6724 13.9287C38.2635 15.9308 39.3696 18.2969 39.8759 20.8419C39.9857 21.3938 40.0662 21.9488 40.1177 22.5046C40.0789 22.5015 40.0396 22.5 40 22.5H37C36.1716 22.5 35.5 23.1716 35.5 24C35.5 24.8284 36.1716 25.5 37 25.5H40C40.0396 25.5 40.0788 25.4985 40.1177 25.4954C39.9494 27.3083 39.4758 29.0876 38.7098 30.7555C38.635 30.9184 38.5874 31.0888 38.566 31.2601L38.2903 30.231C38.0775 29.4368 37.2672 28.9599 36.4695 29.1593C35.6526 29.3635 35.1616 30.1976 35.3795 31.011L36.3822 34.7531C36.3909 34.8013 36.402 34.8495 36.4156 34.8976C36.6397 35.6903 37.459 36.1559 38.2547 35.9427L42.4933 34.807C43.3046 34.5896 43.7813 33.7507 43.5528 32.9425C43.3287 32.1498 42.5094 31.6842 41.7137 31.8974L41.4709 31.9625C43.1343 28.313 43.6194 24.2179 42.8309 20.2541C41.9222 15.6855 39.3835 11.6031 35.688 8.76744C31.9925 5.93178 27.3922 4.53628 22.7441 4.84094C18.096 5.14559 13.7171 7.12962 10.4234 10.4234C7.12962 13.7171 5.14559 18.096 4.84094 22.7441C4.53628 27.3922 5.93179 31.9925 8.76745 35.688C11.6031 39.3836 15.6855 41.9222 20.2541 42.8309C24.3285 43.6413 28.5417 43.1062 32.2669 41.3289ZM38.9362 32.6416L38.8908 32.4721C38.9311 32.5234 38.9749 32.5724 39.0221 32.6186L38.9362 32.6416Z" fill="url(#paint2_linear_2856_12312)"/>
<path fill-rule="evenodd" clip-rule="evenodd" d="M22.6686 22.8532C21.8155 21.8537 21.0634 20.2412 20.8664 19.8221L22.6686 22.8532ZM20.8664 19.8221C20.842 19.7426 20.812 19.6323 20.7835 19.5026C20.7241 19.2323 20.6854 18.9402 20.6912 18.6939C20.6933 18.6063 20.7005 18.5423 20.708 18.4977C20.7207 18.497 20.7348 18.4966 20.7506 18.4966H27.0556C27.0798 18.5743 27.1023 18.6777 27.1183 18.8058C27.1515 19.0717 27.1474 19.3693 27.1206 19.6203C27.1087 19.7313 27.0942 19.8169 27.0821 19.8725C27.0006 20.0223 26.9114 20.198 26.8132 20.3916C26.4509 21.1052 25.9657 22.0611 25.2895 22.8529C24.7338 23.5036 24.7435 24.4869 25.2706 25.1282C25.6441 25.5827 26.058 26.346 26.4149 27.1142C26.7581 27.8531 26.9966 28.4816 27.0378 28.5911C27.051 28.6261 27.0655 28.6614 27.0821 28.698C27.118 28.7773 27.1867 28.9504 27.2402 29.1553C27.2755 29.2904 27.2957 29.4074 27.3043 29.5007C27.2764 29.5024 27.2443 29.5035 27.2076 29.5035H20.7781C20.7769 29.4774 20.7764 29.4472 20.7768 29.4126C20.7796 29.1928 20.8226 28.9464 20.8701 28.752C20.8777 28.7209 20.885 28.6931 20.8915 28.6692C20.8989 28.6523 20.9058 28.6361 20.9114 28.623C20.9293 28.5807 20.956 28.5162 20.9858 28.4437C21.0002 28.4088 21.0154 28.3721 21.0306 28.3351C21.1321 28.0899 21.2823 27.7318 21.4646 27.3297C21.8495 26.4809 22.3067 25.5977 22.6929 25.1224C23.213 24.4823 23.2236 23.5036 22.6686 22.8532L20.8664 19.8221ZM20.9231 28.5633C20.9231 28.5633 20.9216 28.568 20.9189 28.5757C20.9218 28.5668 20.9231 28.5633 20.9231 28.5633ZM18.5869 16.6587C19.1016 15.9401 19.8768 15.6001 20.7506 15.6001H27.2076C28.073 15.6001 28.7485 16.0382 29.1789 16.6697C29.5637 17.2343 29.7195 17.8958 29.785 18.4199C29.853 18.9651 29.8411 19.5074 29.7936 19.9513C29.7697 20.1753 29.7346 20.3944 29.6884 20.5932C29.6505 20.7563 29.5781 21.0293 29.4346 21.281C29.4116 21.3214 29.3693 21.4061 29.3096 21.5254C29.0678 22.0089 28.5418 23.0609 27.869 24.0303C28.2437 24.6274 28.5702 25.2779 28.8214 25.8187C29.1836 26.5983 29.4415 27.2659 29.518 27.4675C29.6904 27.8582 30.0511 28.8241 29.9939 29.8184C29.9619 30.3749 29.7884 31.0829 29.236 31.6402C28.6841 32.1971 27.9555 32.4001 27.2076 32.4001H20.7506C19.868 32.4001 19.0863 32.0485 18.5889 31.301C18.1503 30.6417 18.0798 29.8861 18.0864 29.3727C18.0933 28.8315 18.1897 28.3352 18.2682 28.0143C18.3085 27.8494 18.349 27.7114 18.3809 27.6139L18.3819 27.6107C18.3901 27.5854 18.4203 27.4927 18.4614 27.4025C18.4693 27.385 18.4884 27.3436 18.5163 27.2934C18.5317 27.256 18.5505 27.2105 18.5728 27.1565C18.6797 26.8981 18.8444 26.5052 19.0466 26.0592C19.3129 25.472 19.6783 24.7146 20.0929 24.0401C19.2612 22.8538 18.6509 21.5495 18.4943 21.215C18.4878 21.2009 18.482 21.1886 18.477 21.178C18.3665 20.9428 18.2498 20.5549 18.165 20.1691C18.0742 19.7553 17.9877 19.2 18.0014 18.6203C18.0146 18.0631 18.1243 17.3045 18.5869 16.6587ZM18.4526 27.4455C18.4526 27.4455 18.4559 27.4376 18.4612 27.426C18.4551 27.4403 18.4526 27.4455 18.4526 27.4455Z" fill="url(#paint3_linear_2856_12312)"/>
</g>
<defs>
<filter id="filter0_i_2856_12312" x="0" y="-2.8" width="50.8" height="50.8" filterUnits="userSpaceOnUse" color-interpolation-filters="sRGB">
<feFlood flood-opacity="0" result="BackgroundImageFix"/>
<feBlend mode="normal" in="SourceGraphic" in2="BackgroundImageFix" result="shape"/>
<feColorMatrix in="SourceAlpha" type="matrix" values="0 0 0 0 0 0 0 0 0 0 0 0 0 0 0 0 0 0 127 0" result="hardAlpha"/>
<feOffset dx="8" dy="-14"/>
<feGaussianBlur stdDeviation="1.4"/>
<feComposite in2="hardAlpha" operator="arithmetic" k2="-1" k3="1"/>
<feColorMatrix type="matrix" values="0 0 0 0 1 0 0 0 0 1 0 0 0 0 1 0 0 0 0.05 0"/>
<feBlend mode="normal" in2="shape" result="effect1_innerShadow_2856_12312"/>
</filter>
<radialGradient id="paint0_radial_2856_12312" cx="0" cy="0" r="1" gradientUnits="userSpaceOnUse" gradientTransform="translate(42.8547 4.99954) rotate(119.968) scale(62.0076 45.241)">
<stop stop-color="#0054C8" stop-opacity="0.69"/>
<stop offset="0.563074" stop-color="#3779E1"/>
<stop offset="1" stop-color="#66A1FD"/>
</radialGradient>
<linearGradient id="paint1_linear_2856_12312" x1="-11.5385" y1="57.599" x2="42.081" y2="0.926053" gradientUnits="userSpaceOnUse">
<stop stop-color="#94B9F3"/>
<stop offset="1" stop-color="#3B7DE3"/>
</linearGradient>
<linearGradient id="paint2_linear_2856_12312" x1="37.5" y1="3.5" x2="-4.79455" y2="69.949" gradientUnits="userSpaceOnUse">
<stop stop-color="white"/>
<stop offset="1" stop-color="#E2E2E2"/>
</linearGradient>
<linearGradient id="paint3_linear_2856_12312" x1="28" y1="16" x2="10.5649" y2="26.0272" gradientUnits="userSpaceOnUse">
<stop stop-color="white"/>
<stop offset="1" stop-color="#E2E2E2"/>
</linearGradient>
</defs>
</svg>
