<svg width="21" height="25" viewBox="0 0 21 25" fill="none" xmlns="http://www.w3.org/2000/svg">
<path d="M2.30859 5.17969C2.30859 7.06641 5.61328 8.39062 10.5 8.39062C15.3867 8.39062 18.6914 7.06641 18.6914 5.17969C18.6914 3.21094 15.4102 1.83984 10.5 1.83984C5.58984 1.83984 2.30859 3.21094 2.30859 5.17969ZM10.5 15.6445C6.15234 15.6445 2.89453 14.6602 0.421875 12.5625V5.17969C0.421875 2.22656 4.45312 0.1875 10.5 0.1875C16.5469 0.1875 20.5781 2.22656 20.5781 5.17969V12.5625C18.1055 14.6602 14.8477 15.6445 10.5 15.6445ZM0.421875 19.3594V14.6016C3.03516 16.5234 6.28125 17.4141 10.5 17.4141C14.7188 17.4141 17.9648 16.5234 20.5781 14.6016V19.3594C20.5781 22.5938 16.5117 24.8789 10.5 24.8789C4.48828 24.8789 0.421875 22.5938 0.421875 19.3594Z" fill="#3779E1"/>
</svg>
