<svg width="48" height="48" viewBox="0 0 48 48" fill="none" xmlns="http://www.w3.org/2000/svg">
<g clip-path="url(#clip0)">
<path fill-rule="evenodd" clip-rule="evenodd" d="M7 4.00978C7 2.94891 7.42143 1.93149 8.17157 1.18135C8.92172 0.431203 9.93913 0.00977554 11 0.00977554H26.5C27.1018 0.00849505 27.6975 0.131262 28.2498 0.370415C28.8021 0.609569 29.2992 0.959977 29.71 1.39978L39.83 12.0098C40.6014 12.8187 41.0342 13.892 41.04 15.0098V44.0098C41.04 45.0706 40.6186 46.0881 39.8684 46.8382C39.1183 47.5883 38.1009 48.0098 37.04 48.0098H11.04C9.97913 48.0098 8.96172 47.5883 8.21157 46.8382C7.46143 46.0881 7.04 45.0706 7.04 44.0098V4.00978H7Z" fill="#7747F6"/>
<path fill-rule="evenodd" clip-rule="evenodd" d="M7 4.00977C7 2.9489 7.42143 1.93148 8.17157 1.18134C8.92172 0.431193 9.93913 0.00976563 11 0.00976563L26.5 0.00976562C27.1006 0.0107324 27.6947 0.133531 28.2465 0.37073C28.7982 0.60793 29.2961 0.9546 29.71 1.38977L39.79 12.0098C40.5588 12.8204 40.9912 13.8926 41 15.0098V44.0098C41 45.0706 40.5786 46.088 39.8284 46.8382C39.0783 47.5883 38.0609 48.0098 37 48.0098H11C9.93913 48.0098 8.92172 47.5883 8.17157 46.8382C7.42143 46.088 7 45.0706 7 44.0098V4.00977Z" fill="url(#paint0_radial)"/>
<path d="M26.5 1.00977C26.9676 1.00827 27.4306 1.10242 27.8606 1.28643C28.2905 1.47043 28.6782 1.74041 29 2.07977L39.06 12.7298C39.6659 13.3618 40.0029 14.2043 40 15.0798V44.0098C40 44.8054 39.6839 45.5685 39.1213 46.1311C38.5587 46.6937 37.7956 47.0098 37 47.0098H11C10.2044 47.0098 9.44129 46.6937 8.87868 46.1311C8.31607 45.5685 8 44.8054 8 44.0098V4.00977C8 3.21412 8.31607 2.45105 8.87868 1.88845C9.44129 1.32584 10.2044 1.00977 11 1.00977H26.5ZM26.5 0.00976562H11C9.93913 0.00976563 8.92172 0.431193 8.17157 1.18134C7.42143 1.93148 7 2.9489 7 4.00977L7 44.0098C7 45.0706 7.42143 46.088 8.17157 46.8382C8.92172 47.5883 9.93913 48.0098 11 48.0098H37C38.0609 48.0098 39.0783 47.5883 39.8284 46.8382C40.5786 46.088 41 45.0706 41 44.0098V15.0798C40.9912 13.9626 40.5588 12.8904 39.79 12.0798L29.71 1.38977C29.2961 0.9546 28.7982 0.60793 28.2465 0.37073C27.6947 0.133531 27.1006 0.0107324 26.5 0.00976563V0.00976562Z" fill="url(#paint1_linear)"/>
<path fill-rule="evenodd" clip-rule="evenodd" d="M29 1.00977L32 4.00977L34 6.00977C34 6.00977 40 12.0098 40 13.0098C40.5437 13.5487 40.895 14.2515 41 15.0098C41 15.0098 40.53 13.5298 39.88 13.5298H29.76C29.5162 13.5298 29.2748 13.4816 29.0497 13.388C28.8246 13.2944 28.6202 13.1572 28.4483 12.9844C28.2764 12.8115 28.1403 12.6064 28.048 12.3808C27.9556 12.1552 27.9087 11.9136 27.91 11.6698V1.33977C27.9152 1.01552 27.8008 0.70073 27.5887 0.45543C27.3766 0.21013 27.0816 0.0514884 26.76 0.00976562L29 1.00977Z" fill="#EBEBEB"/>
<path d="M13 41.0895V34.1695C12.989 34.0503 13.0046 33.9302 13.0456 33.8177C13.0865 33.7053 13.1519 33.6033 13.237 33.5192C13.3222 33.435 13.4248 33.3708 13.5377 33.3311C13.6506 33.2913 13.7709 33.2771 13.89 33.2895C14.0689 33.288 14.2449 33.3345 14.3997 33.4242C14.5544 33.5139 14.6823 33.6435 14.77 33.7995L18.43 38.9095V34.1795C18.43 33.954 18.5195 33.7378 18.6789 33.5784C18.8383 33.419 19.0545 33.3295 19.28 33.3295C19.5054 33.3295 19.7216 33.419 19.881 33.5784C20.0404 33.7378 20.13 33.954 20.13 34.1795V41.1095C20.141 41.226 20.126 41.3436 20.086 41.4536C20.0461 41.5636 19.9821 41.6634 19.8989 41.7457C19.8156 41.828 19.7151 41.8908 19.6046 41.9295C19.4941 41.9682 19.3764 41.9818 19.26 41.9695C19.0794 41.9727 18.9013 41.9271 18.7446 41.8373C18.5879 41.7475 18.4584 41.6169 18.37 41.4595L14.78 36.3195H14.72V41.0895C14.7354 41.2052 14.7246 41.3229 14.6884 41.4339C14.6523 41.545 14.5916 41.6464 14.511 41.7309C14.4304 41.8154 14.3318 41.8806 14.2226 41.9219C14.1134 41.9632 13.9963 41.9795 13.88 41.9695C13.7609 41.984 13.6401 41.9713 13.5267 41.9322C13.4133 41.8931 13.3103 41.8287 13.2255 41.7439C13.1407 41.6591 13.0763 41.5561 13.0373 41.4427C12.9982 41.3293 12.9854 41.2085 13 41.0895V41.0895Z" fill="white"/>
<path d="M21.5999 41.0098V34.3298C21.5863 34.2082 21.5997 34.0852 21.6391 33.9694C21.6786 33.8537 21.7431 33.748 21.8282 33.6601C21.9132 33.5722 22.0166 33.5042 22.131 33.4609C22.2454 33.4176 22.368 33.4002 22.4899 33.4098H26.4899C26.6835 33.4098 26.8692 33.4867 27.0061 33.6236C27.143 33.7605 27.2199 33.9462 27.2199 34.1398C27.2199 34.3334 27.143 34.5191 27.0061 34.656C26.8692 34.7929 26.6835 34.8698 26.4899 34.8698H23.3699V37.1298H26.1499C26.2474 37.1182 26.3462 37.1278 26.4397 37.158C26.5331 37.1882 26.6188 37.2383 26.691 37.3048C26.7633 37.3714 26.8202 37.4527 26.858 37.5433C26.8958 37.634 26.9135 37.7317 26.9099 37.8298C26.9152 37.9284 26.8987 38.0269 26.8615 38.1184C26.8243 38.2098 26.7674 38.2919 26.6948 38.3588C26.6222 38.4257 26.5357 38.4757 26.4415 38.5053C26.3473 38.5348 26.2477 38.5432 26.1499 38.5298H23.3699V41.0098C23.3831 41.1339 23.3701 41.2594 23.3316 41.3782C23.2932 41.4969 23.2302 41.6063 23.1467 41.6991C23.0632 41.7919 22.9612 41.8661 22.8472 41.9169C22.7332 41.9677 22.6097 41.994 22.4849 41.994C22.3601 41.994 22.2367 41.9677 22.1226 41.9169C22.0086 41.8661 21.9066 41.7919 21.8231 41.6991C21.7396 41.6063 21.6766 41.4969 21.6382 41.3782C21.5997 41.2594 21.5867 41.1339 21.5999 41.0098V41.0098Z" fill="white"/>
<path d="M30.2 41.0102V34.8702H28.46C28.2664 34.8702 28.0807 34.7932 27.9438 34.6563C27.8069 34.5194 27.73 34.3338 27.73 34.1402C27.73 33.9465 27.8069 33.7609 27.9438 33.624C28.0807 33.4871 28.2664 33.4102 28.46 33.4102H33.72C33.9136 33.4102 34.0993 33.4871 34.2362 33.624C34.3731 33.7609 34.45 33.9465 34.45 34.1402C34.45 34.3338 34.3731 34.5194 34.2362 34.6563C34.0993 34.7932 33.9136 34.8702 33.72 34.8702H32V41.0102C32.0132 41.1343 32.0001 41.2598 31.9617 41.3785C31.9232 41.4973 31.8602 41.6066 31.7768 41.6994C31.6933 41.7923 31.5913 41.8665 31.4772 41.9173C31.3632 41.9681 31.2398 41.9944 31.115 41.9944C30.9902 41.9944 30.8667 41.9681 30.7527 41.9173C30.6387 41.8665 30.5366 41.7923 30.4532 41.6994C30.3697 41.6066 30.3067 41.4973 30.2683 41.3785C30.2298 41.2598 30.2168 41.1343 30.23 41.0102H30.2Z" fill="white"/>
</g>
<defs>
<radialGradient id="paint0_radial" cx="0" cy="0" r="1" gradientUnits="userSpaceOnUse" gradientTransform="translate(34.52 6.40977) scale(17.55)">
<stop offset="0.08" stop-opacity="0.3"/>
<stop offset="1" stop-opacity="0"/>
</radialGradient>
<linearGradient id="paint1_linear" x1="24" y1="0.00976562" x2="24" y2="48.0098" gradientUnits="userSpaceOnUse">
<stop offset="0.28" stop-color="#EBEBEB"/>
<stop offset="1" stop-color="#EBEBEB" stop-opacity="0.3"/>
</linearGradient>
<clipPath id="clip0">
<rect width="48" height="48" fill="white"/>
</clipPath>
</defs>
</svg>
