<svg width="48" height="48" viewBox="0 0 48 48" fill="none" xmlns="http://www.w3.org/2000/svg">
<g filter="url(#filter0_i_2856_12713)">
<circle cx="24" cy="24" r="23.9" fill="#397BE3" fill-opacity="0.5"/>
<circle cx="24" cy="24" r="23.9" fill="url(#paint0_radial_2856_12713)"/>
<circle cx="24" cy="24" r="23.9" stroke="url(#paint1_linear_2856_12713)" stroke-width="0.2"/>
<path fill-rule="evenodd" clip-rule="evenodd" d="M32.7031 6.31645C32.9142 6.10525 33.1911 5.99977 33.4679 6C33.7447 5.99977 34.0216 6.10525 34.2328 6.31645L37.9306 10.0143C38.3525 10.4362 38.3525 11.1203 37.9306 11.5422C37.5087 11.9641 36.8246 11.9641 36.4027 11.5422L34.5808 9.72029V15.0737C38.7631 15.7522 41.9563 19.3804 41.9563 23.7544C41.9563 28.6115 38.0188 32.549 33.1617 32.549C31.447 32.549 29.847 32.0583 28.4943 31.2097C27.1416 32.0583 25.5416 32.549 23.8269 32.549C22.1757 32.549 20.6308 32.094 19.3108 31.3025C18.1343 32.0079 16.7793 32.446 15.3296 32.533L15.3303 36.0388L17.06 36.0388C17.6965 36.0388 18.2124 36.5547 18.2124 37.1912C18.2124 37.8277 17.6965 38.3437 17.06 38.3437L15.3307 38.3437L15.3311 40.2876C15.3312 40.9241 14.8153 41.4401 14.1789 41.4403C13.5424 41.4404 13.0263 40.9245 13.0262 40.288L13.0258 38.3437L11.4769 38.3437C10.8404 38.3437 10.3245 37.8278 10.3245 37.1913C10.3245 36.5548 10.8405 36.0388 11.4769 36.0388L13.0254 36.0388L13.0247 32.3709C9.01591 31.5518 6 28.0053 6 23.7544C6 18.8973 9.93748 14.9598 14.7946 14.9598C16.4458 14.9598 17.9907 15.4149 19.3108 16.2064C20.6308 15.4149 22.1757 14.9598 23.8269 14.9598C25.5416 14.9598 27.1416 15.4505 28.4943 16.2992C29.6111 15.5985 30.8965 15.1418 32.2759 15.0039L32.2759 9.79952L30.5332 11.5422C30.1112 11.9641 29.4272 11.9641 29.0052 11.5422C28.5833 11.1203 28.5833 10.4362 29.0052 10.0143L32.7031 6.31645ZM9 23.7544C9 26.9547 11.5943 29.549 14.7946 29.549C15.533 29.549 16.2391 29.4109 16.8885 29.1591C15.7253 27.668 15.0323 25.7921 15.0323 23.7544C15.0323 21.7167 15.7253 19.8409 16.8885 18.3497C16.2391 18.0979 15.533 17.9598 14.7946 17.9598C11.5943 17.9598 9 20.5541 9 23.7544ZM26.1504 18.4445C25.4391 18.1328 24.6532 17.9598 23.8269 17.9598C23.0885 17.9598 22.3824 18.0979 21.733 18.3497C22.8962 19.8409 23.5892 21.7167 23.5892 23.7544C23.5892 25.7921 22.8962 27.668 21.733 29.1591C22.3824 29.4109 23.0885 29.549 23.8269 29.549C24.6532 29.549 25.4391 29.3761 26.1504 29.0644C25.0312 27.5889 24.3671 25.7492 24.3671 23.7544C24.3671 21.7596 25.0312 19.92 26.1504 18.4445ZM28.4943 27.1891C27.7858 26.228 27.3671 25.0401 27.3671 23.7544C27.3671 22.4688 27.7858 21.2809 28.4943 20.3197C29.2028 21.2809 29.6215 22.4688 29.6215 23.7544C29.6215 25.0401 29.2028 26.228 28.4943 27.1891ZM30.8382 29.0644C31.9574 27.5889 32.6215 25.7492 32.6215 23.7544C32.6215 21.7596 31.9574 19.92 30.8382 18.4445C31.5495 18.1328 32.3354 17.9598 33.1617 17.9598C36.362 17.9598 38.9563 20.5541 38.9563 23.7544C38.9563 26.9547 36.362 29.549 33.1617 29.549C32.3354 29.549 31.5495 29.3761 30.8382 29.0644ZM20.5892 23.7544C20.5892 22.3798 20.1105 21.1169 19.3108 20.1234C18.511 21.1169 18.0323 22.3798 18.0323 23.7544C18.0323 25.1291 18.511 26.392 19.3108 27.3854C20.1105 26.392 20.5892 25.1291 20.5892 23.7544Z" fill="url(#paint2_linear_2856_12713)"/>
</g>
<defs>
<filter id="filter0_i_2856_12713" x="0" y="-2.8" width="50.8" height="50.8" filterUnits="userSpaceOnUse" color-interpolation-filters="sRGB">
<feFlood flood-opacity="0" result="BackgroundImageFix"/>
<feBlend mode="normal" in="SourceGraphic" in2="BackgroundImageFix" result="shape"/>
<feColorMatrix in="SourceAlpha" type="matrix" values="0 0 0 0 0 0 0 0 0 0 0 0 0 0 0 0 0 0 127 0" result="hardAlpha"/>
<feOffset dx="8" dy="-14"/>
<feGaussianBlur stdDeviation="1.4"/>
<feComposite in2="hardAlpha" operator="arithmetic" k2="-1" k3="1"/>
<feColorMatrix type="matrix" values="0 0 0 0 1 0 0 0 0 1 0 0 0 0 1 0 0 0 0.05 0"/>
<feBlend mode="normal" in2="shape" result="effect1_innerShadow_2856_12713"/>
</filter>
<radialGradient id="paint0_radial_2856_12713" cx="0" cy="0" r="1" gradientUnits="userSpaceOnUse" gradientTransform="translate(42.8547 4.99954) rotate(119.968) scale(62.0076 45.241)">
<stop stop-color="#0054C8" stop-opacity="0.69"/>
<stop offset="0.563074" stop-color="#3779E1"/>
<stop offset="1" stop-color="#66A1FD"/>
</radialGradient>
<linearGradient id="paint1_linear_2856_12713" x1="-11.5385" y1="57.599" x2="42.081" y2="0.926053" gradientUnits="userSpaceOnUse">
<stop stop-color="#94B9F3"/>
<stop offset="1" stop-color="#3B7DE3"/>
</linearGradient>
<linearGradient id="paint2_linear_2856_12713" x1="35.9636" y1="6.84361" x2="14.7098" y2="35.1575" gradientUnits="userSpaceOnUse">
<stop stop-color="white"/>
<stop offset="1" stop-color="#E2E2E2"/>
</linearGradient>
</defs>
</svg>
