<svg width="48" height="48" viewBox="0 0 48 48" fill="none" xmlns="http://www.w3.org/2000/svg">
<rect x="0.1" y="0.1" width="47.8" height="47.8" rx="23.9" fill="#397BE3" fill-opacity="0.5"/>
<rect x="0.1" y="0.1" width="47.8" height="47.8" rx="23.9" fill="url(#paint0_radial_2857_12964)"/>
<rect x="0.1" y="0.1" width="47.8" height="47.8" rx="23.9" stroke="url(#paint1_linear_2857_12964)" stroke-width="0.2"/>
<path d="M15.1372 10.516C15.1373 11.5266 15.1372 11.0427 15.1372 11.653C15.1372 11.9653 14.8797 14.0795 16.274 14.8135M15.1372 10.516C15.1372 9.75799 15.516 9 16.274 9C17.0203 9 18.1347 9 17.8072 11.532C17.7975 11.607 17.8221 11.6844 17.8756 11.7378L20.274 14.1362C20.3677 14.23 20.3687 14.3836 20.2621 14.4622C19.9342 14.704 19.2643 15.0127 17.7907 15.0582M15.1372 10.516H14M16.274 14.8135C16.5715 14.9701 16.9443 15.0639 17.4109 15.0639C17.5431 15.0639 17.6696 15.062 17.7907 15.0582M16.274 14.8135V16.9589M17.7907 15.0582L17.79 16.9589" stroke="url(#paint2_linear_2857_12964)" stroke-width="1.5" stroke-linecap="round"/>
<path d="M38.0759 21.0897C36.7596 20.651 35.9648 21.4291 35.3552 21.9515C35.2623 22.0311 35.126 22.0232 35.039 21.9373C34.5653 21.4698 33.5587 20.5892 32.3064 21.0897C30.9517 21.6312 31.0918 22.8846 32.7926 24.3291C32.9016 24.4217 32.9126 24.5895 32.8294 24.7059C32.4518 25.2337 32.0292 26.3034 33 26.774C34.0748 27.295 34.6077 26.6095 34.9734 25.928C35.0669 25.7537 35.3186 25.7514 35.4211 25.9205C35.8353 26.6045 36.4829 27.2969 37.3184 26.774C38.3879 26.1046 37.869 25.2441 37.4706 24.7028C37.3889 24.5918 37.4152 24.436 37.5271 24.3556C39.5675 22.8889 39.1769 21.4567 38.0759 21.0897Z" stroke="url(#paint3_linear_2857_12964)" stroke-width="1.5" stroke-linecap="round"/>
<path d="M15.7065 31.4226C15.7057 32.1255 16.1828 32.6298 16.1821 33.1805C16.181 34.0592 15.2244 35.1473 15.2231 36.2546C15.2215 37.5726 16.022 37.9996 16.4996 38.0001C16.9773 38.0007 18.0869 38.0021 18.0885 36.6974C18.0901 35.3927 17.5444 35.5036 18.0911 34.5007C18.4363 33.8675 19.0475 33.6233 19.0486 32.7446C19.0501 31.4835 18.0964 30.1074 17.1411 30.1063C16.1858 30.1052 15.7076 30.5439 15.7065 31.4226Z" stroke="url(#paint4_linear_2857_12964)" stroke-width="1.5" stroke-linecap="round"/>
<path fill-rule="evenodd" clip-rule="evenodd" d="M13.5361 5.69336C13.0931 5.69336 12.6838 5.9297 12.4623 6.31336L8.90734 12.4707C8.68583 12.8543 8.68584 13.327 8.90734 13.7107L12.4623 19.868C12.6838 20.2517 13.0931 20.488 13.5361 20.488L19.7658 20.488L21.5908 23.773L19.8113 26.0849C19.6893 26.2434 19.6039 26.4185 19.5538 26.6001H13.5361C13.0931 26.6001 12.6838 26.8364 12.4623 27.2201L8.90734 33.3774C8.68583 33.7611 8.68584 34.2338 8.90734 34.6174L12.4623 40.7747C12.6838 41.1584 13.0931 41.3947 13.5361 41.3947H20.646C21.089 41.3947 21.4984 41.1584 21.7199 40.7747L25.2748 34.6174C25.4963 34.2338 25.4963 33.7611 25.2748 33.3774L22.1493 27.9638C22.1627 27.9478 22.1758 27.9315 22.1886 27.9148L23.1858 26.6193L30.6262 39.8467C31.0324 40.5687 31.9469 40.8248 32.669 40.4186C33.391 40.0125 33.6471 39.0979 33.2409 38.3759L25.9457 25.4066H27.6573C27.6649 25.4066 27.6725 25.4065 27.6801 25.4064L30.5179 30.3216C30.7394 30.7053 31.1488 30.9416 31.5918 30.9416L38.7017 30.9416C39.1447 30.9416 39.554 30.7053 39.7755 30.3216L43.3305 24.1643C43.552 23.7806 43.552 23.308 43.3305 22.9243L39.7755 16.767C39.554 16.3833 39.1447 16.147 38.7017 16.147L31.5918 16.147C31.1488 16.147 30.7394 16.3833 30.5179 16.767L27.2619 22.4066H24.2635L22.3164 18.9018C22.3101 18.8904 22.3037 18.8792 22.2972 18.8681L25.2748 13.7107C25.4963 13.327 25.4963 12.8543 25.2748 12.4707L21.7199 6.31336C21.4984 5.9297 21.089 5.69336 20.646 5.69336H13.5361ZM20.3174 18.2972L23.3234 13.0907L20.2072 7.69336H13.9749L10.8588 13.0907L13.9749 18.488H20.0325C20.1067 18.4249 20.1883 18.3681 20.2767 18.319C20.2902 18.3115 20.3038 18.3042 20.3174 18.2972ZM29.1562 23.963C29.1569 23.9443 29.1573 23.9255 29.1573 23.9066C29.1573 23.7006 29.1157 23.5044 29.0406 23.3257L32.0306 18.147H38.2629L41.379 23.5443L38.2629 28.9416H32.0306L29.1562 23.963ZM20.2072 28.6001H13.9749L10.8588 33.9974L13.9749 39.3947H20.2072L23.3234 33.9974L20.2072 28.6001Z" fill="url(#paint5_linear_2857_12964)"/>
<defs>
<radialGradient id="paint0_radial_2857_12964" cx="0" cy="0" r="1" gradientUnits="userSpaceOnUse" gradientTransform="translate(42.8547 4.99954) rotate(119.968) scale(62.0076 45.241)">
<stop stop-color="#0054C8" stop-opacity="0.69"/>
<stop offset="0.563074" stop-color="#3779E1"/>
<stop offset="1" stop-color="#66A1FD"/>
</radialGradient>
<linearGradient id="paint1_linear_2857_12964" x1="-11.5385" y1="57.599" x2="42.081" y2="0.926053" gradientUnits="userSpaceOnUse">
<stop stop-color="#94B9F3"/>
<stop offset="1" stop-color="#3B7DE3"/>
</linearGradient>
<linearGradient id="paint2_linear_2857_12964" x1="17.2218" y1="9" x2="14.5272" y2="17.3414" gradientUnits="userSpaceOnUse">
<stop stop-color="#E3E3E3" stop-opacity="0.933333"/>
<stop offset="1" stop-color="white"/>
</linearGradient>
<linearGradient id="paint3_linear_2857_12964" x1="34.7946" y1="20" x2="36.1792" y2="26.6771" gradientUnits="userSpaceOnUse">
<stop stop-color="#E3E3E3" stop-opacity="0.933333"/>
<stop offset="1" stop-color="white"/>
</linearGradient>
<linearGradient id="paint4_linear_2857_12964" x1="17.9204" y1="30.0023" x2="14.0904" y2="37.0703" gradientUnits="userSpaceOnUse">
<stop stop-color="#E3E3E3" stop-opacity="0.933333"/>
<stop offset="1" stop-color="white"/>
</linearGradient>
<linearGradient id="paint5_linear_2857_12964" x1="26.1189" y1="5.19336" x2="15.4816" y2="44.8172" gradientUnits="userSpaceOnUse">
<stop stop-color="#E3E3E3" stop-opacity="0.933333"/>
<stop offset="1" stop-color="white"/>
</linearGradient>
</defs>
</svg>
