<svg width="48" height="48" viewBox="0 0 48 48" fill="none" xmlns="http://www.w3.org/2000/svg">
<g clip-path="url(#clip0)">
<path fill-rule="evenodd" clip-rule="evenodd" d="M7.17 4.01C7.17 2.94913 7.59143 1.93172 8.34157 1.18157C9.09172 0.431424 10.1091 0.00999679 11.17 0.00999679H26.67C27.2718 0.0087163 27.8675 0.131483 28.4198 0.370637C28.9721 0.60979 29.4691 0.960198 29.88 1.4L40 12.01C40.7714 12.819 41.2042 13.8922 41.21 15.01V44.01C41.21 45.0709 40.7886 46.0883 40.0384 46.8384C39.2883 47.5886 38.2709 48.01 37.21 48.01H11.21C10.1491 48.01 9.13172 47.5886 8.38157 46.8384C7.63143 46.0883 7.21 45.0709 7.21 44.01V4.01H7.17Z" fill="#4E5261"/>
<path d="M26.67 1.01C27.1345 1.01005 27.594 1.10499 28.0205 1.28899C28.4469 1.47298 28.8313 1.74215 29.15 2.08L39.24 12.72C39.8378 13.3564 40.1704 14.1968 40.17 15.07V44.01C40.17 44.8056 39.8539 45.5687 39.2913 46.1313C38.7287 46.6939 37.9656 47.01 37.17 47.01H11.17C10.3743 47.01 9.61129 46.6939 9.04868 46.1313C8.48607 45.5687 8.17 44.8056 8.17 44.01V4.01C8.17 3.21435 8.48607 2.45128 9.04868 1.88868C9.61129 1.32607 10.3743 1.01 11.17 1.01H26.67ZM26.67 0.00999612H11.17C10.1091 0.00999612 9.09172 0.431424 8.34157 1.18157C7.59143 1.93171 7.17 2.94913 7.17 4.01V44.01C7.17 45.0709 7.59143 46.0883 8.34157 46.8384C9.09172 47.5886 10.1091 48.01 11.17 48.01H37.17C38.2309 48.01 39.2483 47.5886 39.9984 46.8384C40.7486 46.0883 41.17 45.0709 41.17 44.01V15.07C41.1905 13.9371 40.7711 12.8403 40 12.01L29.88 1.39C29.4683 0.952012 28.9708 0.603464 28.4186 0.366049C27.8663 0.128634 27.2711 0.00743492 26.67 0.00999612Z" fill="url(#paint0_linear)"/>
<path fill-rule="evenodd" clip-rule="evenodd" d="M7 4.00999C7 2.94913 7.42143 1.93171 8.17157 1.18157C8.92172 0.431422 9.93913 0.00999451 11 0.00999451L26.5 0.00999451C27.1006 0.0109612 27.6947 0.133759 28.2465 0.370959C28.7982 0.608159 29.2961 0.954829 29.71 1.38999L39.79 12.01C40.5588 12.8206 40.9912 13.8928 41 15.01V44.01C41 45.0709 40.5786 46.0883 39.8284 46.8384C39.0783 47.5886 38.0609 48.01 37 48.01H11C9.93913 48.01 8.92172 47.5886 8.17157 46.8384C7.42143 46.0883 7 45.0709 7 44.01V4.00999Z" fill="url(#paint1_radial)"/>
<path d="M11.1602 42.1021C11.5898 42.1021 11.8315 41.8872 11.9819 41.3716L12.3901 40.1631H15.1885L15.5967 41.3877C15.7417 41.8926 15.9834 42.1021 16.4399 42.1021C16.9126 42.1021 17.251 41.7852 17.251 41.3394C17.251 41.1782 17.2241 41.0332 17.1489 40.8237L15.022 35.0552C14.791 34.4214 14.415 34.1421 13.7812 34.1421C13.1689 34.1421 12.7876 34.4321 12.562 35.0605L10.4458 40.8237C10.376 41.0225 10.3384 41.2051 10.3384 41.3394C10.3384 41.8066 10.6553 42.1021 11.1602 42.1021ZM12.7446 38.9062L13.749 35.7319H13.7866L14.8125 38.9062H12.7446ZM18.8303 42H21.4514C23.1057 42 24.1316 41.146 24.1316 39.7817C24.1316 38.7559 23.3581 37.9878 22.3054 37.9072V37.8643C23.1272 37.7407 23.761 37.0317 23.761 36.1831C23.761 34.9961 22.8479 34.2495 21.3923 34.2495H18.8303C18.32 34.2495 18.0193 34.561 18.0193 35.0928V41.1514C18.0193 41.6885 18.32 42 18.8303 42ZM19.6413 37.4722V35.458H20.9734C21.7307 35.458 22.1657 35.8125 22.1657 36.4355C22.1657 37.0908 21.6716 37.4722 20.8069 37.4722H19.6413ZM19.6413 40.7915V38.541H21.0002C21.9563 38.541 22.4773 38.9277 22.4773 39.6528C22.4773 40.394 21.9724 40.7915 21.0378 40.7915H19.6413ZM25.6464 42.1021C26.1567 42.1021 26.4575 41.7905 26.4575 41.2588V38.9492H29.0087C29.433 38.9492 29.7016 38.7075 29.7016 38.3047C29.7016 37.9072 29.4277 37.6655 29.0087 37.6655H26.4575V35.5923H29.2719C29.7123 35.5923 30.0078 35.3398 30.0078 34.9209C30.0078 34.502 29.7177 34.2495 29.2719 34.2495H25.6464C25.1362 34.2495 24.8354 34.561 24.8354 35.0928V41.2588C24.8354 41.7905 25.1362 42.1021 25.6464 42.1021Z" fill="white"/>
<path d="M26.5 1.00999C26.9676 1.0085 27.4306 1.10265 27.8606 1.28666C28.2905 1.47066 28.6782 1.74064 29 2.07999L39.06 12.73C39.6659 13.362 40.0028 14.2045 40 15.08V44.01C40 44.8056 39.6839 45.5687 39.1213 46.1313C38.5587 46.6939 37.7956 47.01 37 47.01H11C10.2044 47.01 9.44129 46.6939 8.87868 46.1313C8.31607 45.5687 8 44.8056 8 44.01V4.00999C8 3.21434 8.31607 2.45128 8.87868 1.88867C9.44129 1.32607 10.2044 1.00999 11 1.00999H26.5ZM26.5 0.00999451H11C9.93913 0.00999451 8.92172 0.431422 8.17157 1.18157C7.42143 1.93171 7 2.94913 7 4.00999L7 44.01C7 45.0709 7.42143 46.0883 8.17157 46.8384C8.92172 47.5886 9.93913 48.01 11 48.01H37C38.0609 48.01 39.0783 47.5886 39.8284 46.8384C40.5786 46.0883 41 45.0709 41 44.01V15.08C40.9912 13.9628 40.5588 12.8906 39.79 12.08L29.71 1.38999C29.2961 0.954829 28.7982 0.608159 28.2465 0.370959C27.6947 0.133759 27.1006 0.0109612 26.5 0.00999451V0.00999451Z" fill="url(#paint2_linear)"/>
<path fill-rule="evenodd" clip-rule="evenodd" d="M29 1.00999L32 4.00999L34 6.00999C34 6.00999 40 12.01 40 13.01C40.5437 13.5489 40.895 14.2517 41 15.01C41 15.01 40.53 13.53 39.88 13.53H29.73C29.2384 13.53 28.7668 13.3354 28.4183 12.9888C28.0698 12.6421 27.8726 12.1716 27.87 11.68V1.33999C27.8755 1.01726 27.7625 0.703717 27.5524 0.458645C27.3423 0.213574 27.0498 0.0539636 26.73 0.00999451L29 1.00999Z" fill="#EBEBEB"/>
</g>
<defs>
<linearGradient id="paint0_linear" x1="24.17" y1="-3.87903e-06" x2="24.17" y2="48" gradientUnits="userSpaceOnUse">
<stop stop-color="white" stop-opacity="0.8"/>
<stop offset="1" stop-color="white" stop-opacity="0.3"/>
</linearGradient>
<radialGradient id="paint1_radial" cx="0" cy="0" r="1" gradientUnits="userSpaceOnUse" gradientTransform="translate(34.52 6.40999) scale(17.55)">
<stop offset="0.08" stop-opacity="0.3"/>
<stop offset="1" stop-opacity="0"/>
</radialGradient>
<linearGradient id="paint2_linear" x1="24" y1="0.00999451" x2="24" y2="48.01" gradientUnits="userSpaceOnUse">
<stop offset="0.28" stop-color="#EBEBEB"/>
<stop offset="1" stop-color="#EBEBEB" stop-opacity="0.3"/>
</linearGradient>
<clipPath id="clip0">
<rect width="48" height="48" fill="white"/>
</clipPath>
</defs>
</svg>
