<svg width="48" height="48" viewBox="0 0 48 48" fill="none" xmlns="http://www.w3.org/2000/svg">
<g clip-path="url(#clip0)">
<path fill-rule="evenodd" clip-rule="evenodd" d="M7.17001 4.01C7.17001 2.94913 7.59144 1.93172 8.34159 1.18157C9.09173 0.431424 10.1091 0.00999679 11.17 0.00999679H26.67C27.2719 0.0087163 27.8675 0.131483 28.4198 0.370637C28.9721 0.60979 29.4692 0.960198 29.88 1.4L40 12.01C40.7714 12.819 41.2043 13.8922 41.21 15.01V44.01C41.21 45.0709 40.7886 46.0883 40.0384 46.8384C39.2883 47.5886 38.2709 48.01 37.21 48.01H11.21C10.1491 48.01 9.13173 47.5886 8.38159 46.8384C7.63144 46.0883 7.21001 45.0709 7.21001 44.01V4.01H7.17001Z" fill="#4E5261"/>
<path d="M26.67 1.01C27.1345 1.01005 27.594 1.10499 28.0205 1.28899C28.4469 1.47298 28.8313 1.74215 29.15 2.08L39.24 12.72C39.8378 13.3564 40.1704 14.1968 40.17 15.07V44.01C40.17 44.8056 39.8539 45.5687 39.2913 46.1313C38.7287 46.6939 37.9657 47.01 37.17 47.01H11.17C10.3744 47.01 9.6113 46.6939 9.04869 46.1313C8.48608 45.5687 8.17001 44.8056 8.17001 44.01V4.01C8.17001 3.21435 8.48608 2.45128 9.04869 1.88868C9.6113 1.32607 10.3744 1.01 11.17 1.01H26.67ZM26.67 0.00999612H11.17C10.1091 0.00999612 9.09173 0.431424 8.34159 1.18157C7.59144 1.93171 7.17001 2.94913 7.17001 4.01V44.01C7.17001 45.0709 7.59144 46.0883 8.34159 46.8384C9.09173 47.5886 10.1091 48.01 11.17 48.01H37.17C38.2309 48.01 39.2483 47.5886 39.9984 46.8384C40.7486 46.0883 41.17 45.0709 41.17 44.01V15.07C41.1905 13.9371 40.7712 12.8403 40 12.01L29.88 1.39C29.4683 0.952012 28.9708 0.603464 28.4186 0.366049C27.8663 0.128634 27.2711 0.00743492 26.67 0.00999612Z" fill="url(#paint0_linear)"/>
<path fill-rule="evenodd" clip-rule="evenodd" d="M7 4.00999C7 2.94913 7.42143 1.93171 8.17157 1.18157C8.92172 0.431422 9.93913 0.00999451 11 0.00999451L26.5 0.00999451C27.1006 0.0109612 27.6947 0.133759 28.2465 0.370959C28.7982 0.608159 29.2961 0.954829 29.71 1.38999L39.79 12.01C40.5588 12.8206 40.9912 13.8928 41 15.01V44.01C41 45.0709 40.5786 46.0883 39.8284 46.8384C39.0783 47.5886 38.0609 48.01 37 48.01H11C9.93913 48.01 8.92172 47.5886 8.17157 46.8384C7.42143 46.0883 7 45.0709 7 44.01V4.00999Z" fill="url(#paint1_radial)"/>
<path d="M12.0117 43.083C12.666 43.083 13.3203 42.7559 13.6133 42.1992H13.6426V42.4678C13.6719 42.8877 13.9404 43.1025 14.3262 43.1025C14.7314 43.1025 15.0195 42.8584 15.0195 42.3848V39.4014C15.0195 38.3467 14.1455 37.6533 12.8027 37.6533C11.7188 37.6533 10.8789 38.0391 10.6348 38.6641C10.5859 38.7715 10.5615 38.874 10.5615 38.9863C10.5615 39.3086 10.8105 39.5332 11.1572 39.5332C11.3867 39.5332 11.5674 39.4453 11.7236 39.2695C12.041 38.8594 12.3047 38.7178 12.7393 38.7178C13.2764 38.7178 13.6182 39.001 13.6182 39.4893V39.8359L12.2998 39.9141C10.9912 39.9922 10.2588 40.5439 10.2588 41.4961C10.2588 42.4385 11.0156 43.083 12.0117 43.083ZM12.4805 42.0527C12.002 42.0527 11.6797 41.8086 11.6797 41.418C11.6797 41.0469 11.9824 40.8076 12.5146 40.7686L13.6182 40.7002V41.0811C13.6182 41.6475 13.1055 42.0527 12.4805 42.0527ZM17.6857 43.083C18.4914 43.083 19.0676 42.6631 19.2971 42.0771H19.3215V42.3799C19.3215 42.8584 19.6291 43.1025 20.0393 43.1025C20.4543 43.1025 20.7473 42.8535 20.7473 42.3799V36.5938C20.7473 36.1055 20.4543 35.8467 20.0344 35.8467C19.6193 35.8467 19.3215 36.1055 19.3215 36.5938V38.6641H19.2922C19.0383 38.083 18.4523 37.6826 17.6955 37.6826C16.382 37.6826 15.552 38.7129 15.552 40.373C15.552 42.0479 16.3771 43.083 17.6857 43.083ZM18.1691 41.9355C17.4514 41.9355 17.0119 41.3447 17.0119 40.3828C17.0119 39.4258 17.4514 38.8252 18.1691 38.8252C18.8771 38.8252 19.3313 39.4307 19.3313 40.3828C19.3313 41.3398 18.8771 41.9355 18.1691 41.9355ZM22.2367 37.1162C22.6664 37.1162 22.9984 36.7891 22.9984 36.3789C22.9984 35.9639 22.6664 35.6416 22.2367 35.6416C21.807 35.6416 21.475 35.9639 21.475 36.3789C21.475 36.7891 21.807 37.1162 22.2367 37.1162ZM22.2367 43.1025C22.6762 43.1025 22.9496 42.8242 22.9496 42.3604V38.4053C22.9496 37.9414 22.6762 37.6582 22.2367 37.6582C21.7924 37.6582 21.5238 37.9414 21.5238 38.4053V42.3604C21.5238 42.8242 21.7924 43.1025 22.2367 43.1025ZM26.0895 43.1123C27.0904 43.1123 27.984 42.6143 28.2965 41.9014C28.36 41.7598 28.3893 41.6426 28.3893 41.5303C28.3893 41.1787 28.1207 40.959 27.7887 40.959C27.4859 40.959 27.3297 41.0811 27.1393 41.3789C26.9195 41.75 26.6119 41.9941 26.1139 41.9941C25.401 41.9941 24.9566 41.4082 24.9566 40.3779C24.9566 39.3672 25.401 38.7715 26.1236 38.7715C26.5777 38.7715 26.8951 38.9814 27.1539 39.4404C27.3004 39.6992 27.4713 39.8115 27.7545 39.8115C28.0914 39.8115 28.3648 39.6064 28.3648 39.2549C28.3648 39.1523 28.3355 39.0254 28.2867 38.9033C28.0035 38.1611 27.1295 37.6533 26.0797 37.6533C24.5074 37.6533 23.5113 38.708 23.5113 40.3828C23.5113 42.0771 24.5123 43.1123 26.0895 43.1123ZM29.698 43.1025C30.118 43.1025 30.4109 42.8486 30.4109 42.3604V40.0117C30.4109 39.3232 30.8064 38.8496 31.4803 38.8496C32.1297 38.8496 32.4617 39.2598 32.4617 39.9336V42.3604C32.4617 42.8486 32.7596 43.1025 33.1746 43.1025C33.5945 43.1025 33.8875 42.8486 33.8875 42.3604V39.6309C33.8875 38.4199 33.2234 37.668 32.0613 37.668C31.2654 37.668 30.6941 38.0391 30.4158 38.6982H30.3865V36.5791C30.3865 36.1201 30.1277 35.8467 29.6883 35.8467C29.2488 35.8467 28.9852 36.1201 28.9852 36.5791V42.3604C28.9852 42.8486 29.283 43.1025 29.698 43.1025ZM34.9814 41.6621C34.9814 42.585 35.4648 43.0586 36.417 43.0586H36.4658C37.0664 43.0586 37.4766 42.8438 37.4766 42.4238C37.4766 42.0918 37.2861 41.9453 36.9346 41.9062L36.8418 41.8965C36.5342 41.8721 36.4072 41.7158 36.4072 41.3447V38.8398H36.9102C37.2471 38.8398 37.457 38.6299 37.457 38.3027C37.457 37.9756 37.2471 37.7656 36.9102 37.7656H36.4072V37.1846C36.4072 36.7256 36.1387 36.4424 35.6943 36.4424C35.25 36.4424 34.9814 36.7256 34.9814 37.1846V37.7656H34.708C34.3711 37.7656 34.1562 37.9707 34.1562 38.3027C34.1562 38.6348 34.3711 38.8398 34.708 38.8398H34.9814V41.6621Z" fill="white"/>
<path d="M26.5 1.00999C26.9676 1.0085 27.4306 1.10265 27.8606 1.28666C28.2905 1.47066 28.6782 1.74064 29 2.07999L39.06 12.73C39.6659 13.362 40.0028 14.2045 40 15.08V44.01C40 44.8056 39.6839 45.5687 39.1213 46.1313C38.5587 46.6939 37.7956 47.01 37 47.01H11C10.2044 47.01 9.44129 46.6939 8.87868 46.1313C8.31607 45.5687 8 44.8056 8 44.01V4.00999C8 3.21434 8.31607 2.45128 8.87868 1.88867C9.44129 1.32607 10.2044 1.00999 11 1.00999H26.5ZM26.5 0.00999451H11C9.93913 0.00999451 8.92172 0.431422 8.17157 1.18157C7.42143 1.93171 7 2.94913 7 4.00999L7 44.01C7 45.0709 7.42143 46.0883 8.17157 46.8384C8.92172 47.5886 9.93913 48.01 11 48.01H37C38.0609 48.01 39.0783 47.5886 39.8284 46.8384C40.5786 46.0883 41 45.0709 41 44.01V15.08C40.9912 13.9628 40.5588 12.8906 39.79 12.08L29.71 1.38999C29.2961 0.954829 28.7982 0.608159 28.2465 0.370959C27.6947 0.133759 27.1006 0.0109612 26.5 0.00999451V0.00999451Z" fill="url(#paint2_linear)"/>
<path fill-rule="evenodd" clip-rule="evenodd" d="M29 1.00999L32 4.00999L34 6.00999C34 6.00999 40 12.01 40 13.01C40.5437 13.5489 40.895 14.2517 41 15.01C41 15.01 40.53 13.53 39.88 13.53H29.73C29.2384 13.53 28.7668 13.3354 28.4183 12.9888C28.0698 12.6421 27.8727 12.1716 27.87 11.68V1.33999C27.8755 1.01726 27.7625 0.703717 27.5524 0.458645C27.3424 0.213574 27.0498 0.0539636 26.73 0.00999451L29 1.00999Z" fill="#EBEBEB"/>
</g>
<defs>
<linearGradient id="paint0_linear" x1="24.17" y1="-3.87903e-06" x2="24.17" y2="48" gradientUnits="userSpaceOnUse">
<stop stop-color="white" stop-opacity="0.8"/>
<stop offset="1" stop-color="white" stop-opacity="0.3"/>
</linearGradient>
<radialGradient id="paint1_radial" cx="0" cy="0" r="1" gradientUnits="userSpaceOnUse" gradientTransform="translate(34.52 6.40999) scale(17.55)">
<stop offset="0.08" stop-opacity="0.3"/>
<stop offset="1" stop-opacity="0"/>
</radialGradient>
<linearGradient id="paint2_linear" x1="24" y1="0.00999451" x2="24" y2="48.01" gradientUnits="userSpaceOnUse">
<stop offset="0.28" stop-color="#EBEBEB"/>
<stop offset="1" stop-color="#EBEBEB" stop-opacity="0.3"/>
</linearGradient>
<clipPath id="clip0">
<rect width="48" height="48" fill="white"/>
</clipPath>
</defs>
</svg>
