<svg width="48" height="48" viewBox="0 0 48 48" fill="none" xmlns="http://www.w3.org/2000/svg">
<g clip-path="url(#clip0)">
<path fill-rule="evenodd" clip-rule="evenodd" d="M7.17 4.00999C7.17 2.94912 7.59143 1.93171 8.34157 1.18156C9.09172 0.431417 10.1091 0.00998916 11.17 0.00998916H26.67C27.2718 0.00870867 27.8675 0.131475 28.4198 0.370629C28.9721 0.609783 29.4691 0.960191 29.88 1.39999L40 12.01C40.7714 12.819 41.2042 13.8922 41.21 15.01V44.01C41.21 45.0709 40.7886 46.0883 40.0384 46.8384C39.2883 47.5886 38.2709 48.01 37.21 48.01H11.21C10.1491 48.01 9.13172 47.5886 8.38157 46.8384C7.63143 46.0883 7.21 45.0709 7.21 44.01V4.00999H7.17Z" fill="#4E5261"/>
<path d="M26.67 1.00999C27.1345 1.01005 27.594 1.10498 28.0205 1.28898C28.4469 1.47297 28.8313 1.74215 29.15 2.07999L39.24 12.72C39.8378 13.3564 40.1704 14.1968 40.17 15.07V44.01C40.17 44.8056 39.8539 45.5687 39.2913 46.1313C38.7287 46.6939 37.9656 47.01 37.17 47.01H11.17C10.3743 47.01 9.61129 46.6939 9.04868 46.1313C8.48607 45.5687 8.17 44.8056 8.17 44.01V4.00999C8.17 3.21434 8.48607 2.45128 9.04868 1.88867C9.61129 1.32606 10.3743 1.00999 11.17 1.00999H26.67ZM26.67 0.00998849H11.17C10.1091 0.00998849 9.09172 0.431416 8.34157 1.18156C7.59143 1.93171 7.17 2.94912 7.17 4.00999V44.01C7.17 45.0709 7.59143 46.0883 8.34157 46.8384C9.09172 47.5886 10.1091 48.01 11.17 48.01H37.17C38.2309 48.01 39.2483 47.5886 39.9984 46.8384C40.7486 46.0883 41.17 45.0709 41.17 44.01V15.07C41.1905 13.937 40.7711 12.8402 40 12.01L29.88 1.38999C29.4683 0.952004 28.9708 0.603456 28.4186 0.366041C27.8663 0.128626 27.2711 0.0074273 26.67 0.00998849Z" fill="url(#paint0_linear)"/>
<path fill-rule="evenodd" clip-rule="evenodd" d="M7 4.00998C7 2.94911 7.42143 1.9317 8.17157 1.18155C8.92172 0.431407 9.93913 0.00997925 11 0.00997925L26.5 0.00997925C27.1006 0.010946 27.6947 0.133744 28.2465 0.370944C28.7982 0.608144 29.2961 0.954814 29.71 1.38998L39.79 12.01C40.5588 12.8206 40.9912 13.8928 41 15.01V44.01C41 45.0708 40.5786 46.0883 39.8284 46.8384C39.0783 47.5886 38.0609 48.01 37 48.01H11C9.93913 48.01 8.92172 47.5886 8.17157 46.8384C7.42143 46.0883 7 45.0708 7 44.01V4.00998Z" fill="url(#paint1_radial)"/>
<path d="M11.4556 42H13.604C15.9297 42 17.2993 40.5552 17.2993 38.0952C17.2993 35.6353 15.9297 34.2495 13.604 34.2495H11.4556C10.9453 34.2495 10.6445 34.561 10.6445 35.0928V41.1514C10.6445 41.6885 10.9453 42 11.4556 42ZM12.2666 40.6572V35.5869H13.4106C14.8394 35.5869 15.645 36.4785 15.645 38.1006C15.645 39.7764 14.8608 40.6572 13.4106 40.6572H12.2666ZM18.32 42.1021C18.7497 42.1021 18.9914 41.8872 19.1418 41.3716L19.55 40.1631H22.3484L22.7566 41.3877C22.9016 41.8926 23.1433 42.1021 23.5998 42.1021C24.0725 42.1021 24.4109 41.7852 24.4109 41.3394C24.4109 41.1782 24.384 41.0332 24.3088 40.8237L22.1819 35.0552C21.9509 34.4214 21.5749 34.1421 20.9411 34.1421C20.3288 34.1421 19.9475 34.4321 19.7219 35.0605L17.6057 40.8237C17.5359 41.0225 17.4983 41.2051 17.4983 41.3394C17.4983 41.8066 17.8152 42.1021 18.32 42.1021ZM19.9045 38.9062L20.9089 35.7319H20.9465L21.9724 38.9062H19.9045ZM28.2997 42.1289C28.7885 42.1289 29.2397 42.0591 29.6533 41.9194L30.1259 42.6016C30.2871 42.8486 30.4589 42.9453 30.7221 42.9453C31.1088 42.9453 31.3828 42.6929 31.3828 42.3384C31.3828 42.1719 31.3398 42.0483 31.2324 41.8818L30.7973 41.248C31.5976 40.5874 32.0327 39.4917 32.0327 38.1274C32.0327 35.6621 30.5932 34.1152 28.2997 34.1152C26.0009 34.1152 24.5615 35.6621 24.5615 38.1274C24.5615 40.6143 26.0009 42.1289 28.2997 42.1289ZM28.2997 40.7915C27.0268 40.7915 26.2158 39.7495 26.2158 38.1274C26.2158 36.5 27.0268 35.4526 28.2997 35.4526C29.5673 35.4526 30.3784 36.5 30.3784 38.1274C30.3784 38.874 30.1743 39.4863 29.8144 39.9053L29.4545 39.4165C29.3203 39.2285 29.1645 39.1479 28.9389 39.1479C28.5898 39.1479 28.332 39.395 28.332 39.7441C28.332 39.8784 28.3749 40.0181 28.4824 40.1792L28.853 40.7163C28.6811 40.7646 28.4985 40.7915 28.2997 40.7915Z" fill="white"/>
<path d="M26.5 1.00998C26.9676 1.00849 27.4306 1.10264 27.8606 1.28664C28.2905 1.47065 28.6782 1.74062 29 2.07998L39.06 12.73C39.6659 13.362 40.0028 14.2045 40 15.08V44.01C40 44.8056 39.6839 45.5687 39.1213 46.1313C38.5587 46.6939 37.7956 47.01 37 47.01H11C10.2044 47.01 9.44129 46.6939 8.87868 46.1313C8.31607 45.5687 8 44.8056 8 44.01V4.00998C8 3.21433 8.31607 2.45127 8.87868 1.88866C9.44129 1.32605 10.2044 1.00998 11 1.00998H26.5ZM26.5 0.00997925H11C9.93913 0.00997925 8.92172 0.431407 8.17157 1.18155C7.42143 1.9317 7 2.94911 7 4.00998L7 44.01C7 45.0708 7.42143 46.0883 8.17157 46.8384C8.92172 47.5886 9.93913 48.01 11 48.01H37C38.0609 48.01 39.0783 47.5886 39.8284 46.8384C40.5786 46.0883 41 45.0708 41 44.01V15.08C40.9912 13.9628 40.5588 12.8906 39.79 12.08L29.71 1.38998C29.2961 0.954814 28.7982 0.608144 28.2465 0.370944C27.6947 0.133744 27.1006 0.010946 26.5 0.00997925V0.00997925Z" fill="url(#paint2_linear)"/>
<path fill-rule="evenodd" clip-rule="evenodd" d="M29 1.00998L32 4.00998L34 6.00998C34 6.00998 40 12.01 40 13.01C40.5437 13.5489 40.895 14.2517 41 15.01C41 15.01 40.53 13.53 39.88 13.53H29.73C29.2384 13.53 28.7668 13.3354 28.4183 12.9887C28.0698 12.6421 27.8726 12.1715 27.87 11.68V1.33998C27.8755 1.01725 27.7625 0.703702 27.5524 0.45863C27.3423 0.213559 27.0498 0.0539484 26.73 0.00997925L29 1.00998Z" fill="#EBEBEB"/>
</g>
<defs>
<linearGradient id="paint0_linear" x1="24.17" y1="-1.15084e-05" x2="24.17" y2="48" gradientUnits="userSpaceOnUse">
<stop stop-color="white" stop-opacity="0.8"/>
<stop offset="1" stop-color="white" stop-opacity="0.3"/>
</linearGradient>
<radialGradient id="paint1_radial" cx="0" cy="0" r="1" gradientUnits="userSpaceOnUse" gradientTransform="translate(34.52 6.40998) scale(17.55)">
<stop offset="0.08" stop-opacity="0.3"/>
<stop offset="1" stop-opacity="0"/>
</radialGradient>
<linearGradient id="paint2_linear" x1="24" y1="0.00997925" x2="24" y2="48.01" gradientUnits="userSpaceOnUse">
<stop offset="0.28" stop-color="#EBEBEB"/>
<stop offset="1" stop-color="#EBEBEB" stop-opacity="0.3"/>
</linearGradient>
<clipPath id="clip0">
<rect width="48" height="48" fill="white"/>
</clipPath>
</defs>
</svg>
