<svg width="48" height="48" viewBox="0 0 48 48" fill="none" xmlns="http://www.w3.org/2000/svg">
<g clip-path="url(#clip0)">
<path fill-rule="evenodd" clip-rule="evenodd" d="M7.17001 4.01C7.17001 2.94913 7.59144 1.93172 8.34159 1.18157C9.09173 0.431424 10.1091 0.00999679 11.17 0.00999679H26.67C27.2719 0.0087163 27.8675 0.131483 28.4198 0.370637C28.9721 0.60979 29.4692 0.960198 29.88 1.4L40 12.01C40.7714 12.819 41.2043 13.8922 41.21 15.01V44.01C41.21 45.0709 40.7886 46.0883 40.0384 46.8384C39.2883 47.5886 38.2709 48.01 37.21 48.01H11.21C10.1491 48.01 9.13173 47.5886 8.38159 46.8384C7.63144 46.0883 7.21001 45.0709 7.21001 44.01V4.01H7.17001Z" fill="#4E5261"/>
<path d="M26.67 1.01C27.1345 1.01005 27.594 1.10499 28.0205 1.28899C28.4469 1.47298 28.8313 1.74215 29.15 2.08L39.24 12.72C39.8378 13.3564 40.1704 14.1968 40.17 15.07V44.01C40.17 44.8056 39.8539 45.5687 39.2913 46.1313C38.7287 46.6939 37.9657 47.01 37.17 47.01H11.17C10.3744 47.01 9.6113 46.6939 9.04869 46.1313C8.48608 45.5687 8.17001 44.8056 8.17001 44.01V4.01C8.17001 3.21435 8.48608 2.45128 9.04869 1.88868C9.6113 1.32607 10.3744 1.01 11.17 1.01H26.67ZM26.67 0.00999612H11.17C10.1091 0.00999612 9.09173 0.431424 8.34159 1.18157C7.59144 1.93171 7.17001 2.94913 7.17001 4.01V44.01C7.17001 45.0709 7.59144 46.0883 8.34159 46.8384C9.09173 47.5886 10.1091 48.01 11.17 48.01H37.17C38.2309 48.01 39.2483 47.5886 39.9984 46.8384C40.7486 46.0883 41.17 45.0709 41.17 44.01V15.07C41.1905 13.9371 40.7712 12.8403 40 12.01L29.88 1.39C29.4683 0.952012 28.9708 0.603464 28.4186 0.366049C27.8663 0.128634 27.2711 0.00743492 26.67 0.00999612Z" fill="url(#paint0_linear)"/>
<path fill-rule="evenodd" clip-rule="evenodd" d="M7 4.00999C7 2.94913 7.42143 1.93171 8.17157 1.18157C8.92172 0.431422 9.93913 0.00999451 11 0.00999451L26.5 0.00999451C27.1006 0.0109612 27.6947 0.133759 28.2465 0.370959C28.7982 0.608159 29.2961 0.954829 29.71 1.38999L39.79 12.01C40.5588 12.8206 40.9912 13.8928 41 15.01V44.01C41 45.0709 40.5786 46.0883 39.8284 46.8384C39.0783 47.5886 38.0609 48.01 37 48.01H11C9.93913 48.01 8.92172 47.5886 8.17157 46.8384C7.42143 46.0883 7 45.0709 7 44.01V4.00999Z" fill="url(#paint1_radial)"/>
<path d="M11.4556 42.1021C11.9658 42.1021 12.2666 41.7905 12.2666 41.2588V34.9907C12.2666 34.4536 11.9658 34.1421 11.4556 34.1421C10.9453 34.1421 10.6445 34.4536 10.6445 34.9907V41.2588C10.6445 41.7905 10.9453 42.1021 11.4556 42.1021ZM14.0608 42.1021C14.5173 42.1021 14.7805 41.8228 14.7805 41.3447V36.7686H14.8235L16.7409 41.4629C16.8752 41.7959 17.1008 41.9517 17.4446 41.9517C17.7829 41.9517 17.9978 41.8013 18.1374 41.4575L20.0549 36.7686H20.0979V41.3447C20.0979 41.8228 20.3611 42.1021 20.8176 42.1021C21.2741 42.1021 21.5427 41.8228 21.5427 41.3447V35.1895C21.5427 34.5288 21.156 34.1421 20.5007 34.1421C19.9314 34.1421 19.6145 34.3838 19.3781 34.98L17.4607 39.7441H17.4177L15.4948 34.98C15.2585 34.3784 14.947 34.1421 14.383 34.1421C13.7224 34.1421 13.3357 34.5342 13.3357 35.1895V41.3447C13.3357 41.8228 13.6042 42.1021 14.0608 42.1021ZM25.4477 42.1289C27.3813 42.1289 28.5683 41.1729 28.5683 39.6582C28.5683 38.4819 27.8593 37.8213 26.2158 37.4937L25.3994 37.3271C24.4809 37.1445 24.1103 36.8491 24.1103 36.3711C24.1103 35.8018 24.642 35.4258 25.4423 35.4258C26.1083 35.4258 26.6079 35.6675 26.8657 36.2529C27.0483 36.5859 27.2739 36.731 27.6391 36.731C28.0527 36.731 28.332 36.4678 28.332 36.0811C28.332 35.9414 28.3105 35.8286 28.2729 35.7212C27.9291 34.7114 26.8603 34.1152 25.4423 34.1152C23.7182 34.1152 22.4829 35.0552 22.4829 36.4731C22.4829 37.6279 23.2402 38.3691 24.7871 38.6753L25.6088 38.8364C26.581 39.0352 26.9462 39.3252 26.9462 39.8354C26.9462 40.4048 26.3554 40.8237 25.4853 40.8237C24.7441 40.8237 24.1371 40.5552 23.8847 39.9644C23.6913 39.6206 23.4711 39.4917 23.1381 39.4917C22.7192 39.4917 22.4238 39.7764 22.4238 40.2061C22.4238 40.3511 22.456 40.5015 22.5097 40.6411C22.8212 41.4897 23.8471 42.1289 25.4477 42.1289Z" fill="white"/>
<path d="M26.5 1.00999C26.9676 1.0085 27.4306 1.10265 27.8606 1.28666C28.2905 1.47066 28.6782 1.74064 29 2.07999L39.06 12.73C39.6659 13.362 40.0028 14.2045 40 15.08V44.01C40 44.8056 39.6839 45.5687 39.1213 46.1313C38.5587 46.6939 37.7956 47.01 37 47.01H11C10.2044 47.01 9.44129 46.6939 8.87868 46.1313C8.31607 45.5687 8 44.8056 8 44.01V4.00999C8 3.21434 8.31607 2.45128 8.87868 1.88867C9.44129 1.32607 10.2044 1.00999 11 1.00999H26.5ZM26.5 0.00999451H11C9.93913 0.00999451 8.92172 0.431422 8.17157 1.18157C7.42143 1.93171 7 2.94913 7 4.00999L7 44.01C7 45.0709 7.42143 46.0883 8.17157 46.8384C8.92172 47.5886 9.93913 48.01 11 48.01H37C38.0609 48.01 39.0783 47.5886 39.8284 46.8384C40.5786 46.0883 41 45.0709 41 44.01V15.08C40.9912 13.9628 40.5588 12.8906 39.79 12.08L29.71 1.38999C29.2961 0.954829 28.7982 0.608159 28.2465 0.370959C27.6947 0.133759 27.1006 0.0109612 26.5 0.00999451V0.00999451Z" fill="url(#paint2_linear)"/>
<path fill-rule="evenodd" clip-rule="evenodd" d="M29 1.00999L32 4.00999L34 6.00999C34 6.00999 40 12.01 40 13.01C40.5437 13.5489 40.895 14.2517 41 15.01C41 15.01 40.53 13.53 39.88 13.53H29.73C29.2384 13.53 28.7668 13.3354 28.4183 12.9888C28.0698 12.6421 27.8727 12.1716 27.87 11.68V1.33999C27.8755 1.01726 27.7625 0.703717 27.5524 0.458645C27.3424 0.213574 27.0498 0.0539636 26.73 0.00999451L29 1.00999Z" fill="#EBEBEB"/>
</g>
<defs>
<linearGradient id="paint0_linear" x1="24.17" y1="-3.87903e-06" x2="24.17" y2="48" gradientUnits="userSpaceOnUse">
<stop stop-color="white" stop-opacity="0.8"/>
<stop offset="1" stop-color="white" stop-opacity="0.3"/>
</linearGradient>
<radialGradient id="paint1_radial" cx="0" cy="0" r="1" gradientUnits="userSpaceOnUse" gradientTransform="translate(34.52 6.40999) scale(17.55)">
<stop offset="0.08" stop-opacity="0.3"/>
<stop offset="1" stop-opacity="0"/>
</radialGradient>
<linearGradient id="paint2_linear" x1="24" y1="0.00999451" x2="24" y2="48.01" gradientUnits="userSpaceOnUse">
<stop offset="0.28" stop-color="#EBEBEB"/>
<stop offset="1" stop-color="#EBEBEB" stop-opacity="0.3"/>
</linearGradient>
<clipPath id="clip0">
<rect width="48" height="48" fill="white"/>
</clipPath>
</defs>
</svg>
