<svg width="48" height="48" viewBox="0 0 48 48" fill="none" xmlns="http://www.w3.org/2000/svg">
<g clip-path="url(#clip0)">
<path fill-rule="evenodd" clip-rule="evenodd" d="M7.17 4.01002C7.17 2.94915 7.59143 1.93174 8.34157 1.18159C9.09172 0.431447 10.1091 0.0100197 11.17 0.0100197H26.67C27.2718 0.00873919 27.8675 0.131506 28.4198 0.370659C28.9721 0.609813 29.4691 0.960221 29.88 1.40002L40 12.01C40.7714 12.819 41.2042 13.8923 41.21 15.01V44.01C41.21 45.0709 40.7886 46.0883 40.0384 46.8384C39.2883 47.5886 38.2709 48.01 37.21 48.01H11.21C10.1491 48.01 9.13172 47.5886 8.38157 46.8384C7.63143 46.0883 7.21 45.0709 7.21 44.01V4.01002H7.17Z" fill="#4E5261"/>
<path d="M26.67 1.00999C27.1345 1.01005 27.594 1.10498 28.0205 1.28898C28.4469 1.47297 28.8313 1.74215 29.15 2.07999L39.24 12.72C39.8378 13.3564 40.1704 14.1968 40.17 15.07V44.01C40.17 44.8056 39.8539 45.5687 39.2913 46.1313C38.7287 46.6939 37.9656 47.01 37.17 47.01H11.17C10.3743 47.01 9.61129 46.6939 9.04868 46.1313C8.48607 45.5687 8.17 44.8056 8.17 44.01V4.00999C8.17 3.21434 8.48607 2.45128 9.04868 1.88867C9.61129 1.32606 10.3743 1.00999 11.17 1.00999H26.67ZM26.67 0.00998849H11.17C10.1091 0.00998849 9.09172 0.431416 8.34157 1.18156C7.59143 1.93171 7.17 2.94912 7.17 4.00999V44.01C7.17 45.0709 7.59143 46.0883 8.34157 46.8384C9.09172 47.5886 10.1091 48.01 11.17 48.01H37.17C38.2309 48.01 39.2483 47.5886 39.9984 46.8384C40.7486 46.0883 41.17 45.0709 41.17 44.01V15.07C41.1905 13.937 40.7711 12.8402 40 12.01L29.88 1.38999C29.4683 0.952004 28.9708 0.603456 28.4186 0.366041C27.8663 0.128626 27.2711 0.0074273 26.67 0.00998849Z" fill="url(#paint0_linear)"/>
<path fill-rule="evenodd" clip-rule="evenodd" d="M7 4.01001C7 2.94914 7.42143 1.93173 8.17157 1.18158C8.92172 0.431437 9.93913 0.0100098 11 0.0100098L26.5 0.0100098C27.1006 0.0109765 27.6947 0.133775 28.2465 0.370974C28.7982 0.608174 29.2961 0.954844 29.71 1.39001L39.79 12.01C40.5588 12.8206 40.9912 13.8928 41 15.01V44.01C41 45.0709 40.5786 46.0883 39.8284 46.8384C39.0783 47.5886 38.0609 48.01 37 48.01H11C9.93913 48.01 8.92172 47.5886 8.17157 46.8384C7.42143 46.0883 7 45.0709 7 44.01V4.01001Z" fill="url(#paint1_radial)"/>
<path d="M11.3232 43.0928C11.7871 43.0928 12.0605 42.8096 12.0605 42.3262V36.6279C12.0605 36.1396 11.7871 35.8564 11.3232 35.8564C10.8594 35.8564 10.5859 36.1396 10.5859 36.6279V42.3262C10.5859 42.8096 10.8594 43.0928 11.3232 43.0928ZM13.7697 43.0928C14.2336 43.0928 14.507 42.8096 14.507 42.3262V40.7783H15.8254C17.3098 40.7783 18.34 39.8115 18.34 38.3662C18.34 36.916 17.3439 35.9541 15.8986 35.9541H13.7697C13.3059 35.9541 13.0324 36.2373 13.0324 36.7207V42.3262C13.0324 42.8096 13.3059 43.0928 13.7697 43.0928ZM14.507 39.626V37.1211H15.508C16.3527 37.1211 16.841 37.5703 16.841 38.3711C16.841 39.1768 16.3479 39.626 15.5031 39.626H14.507ZM21.5092 43.0928C21.973 43.0928 22.2465 42.8096 22.2465 42.3262V40.3682L24.3949 37.043C24.5023 36.8721 24.5512 36.7109 24.5512 36.54C24.5512 36.1494 24.2387 35.8564 23.8236 35.8564C23.5307 35.8564 23.3402 35.9883 23.1547 36.3105L21.5385 38.9619H21.5043L19.893 36.3105C19.6977 35.9736 19.5268 35.8564 19.2094 35.8564C18.7846 35.8564 18.4721 36.1494 18.4721 36.5498C18.4721 36.7158 18.516 36.8818 18.6234 37.0479L20.7719 40.3682V42.3262C20.7719 42.8096 21.0453 43.0928 21.5092 43.0928ZM25.9283 43.0928C26.3678 43.0928 26.6314 42.8242 26.6314 42.3555V38.3857H26.6754L29.732 42.668C29.9566 42.9805 30.152 43.0928 30.4693 43.0928C30.9332 43.0928 31.192 42.834 31.192 42.375V36.5986C31.192 36.125 30.9332 35.8564 30.4889 35.8564C30.0445 35.8564 29.7809 36.125 29.7809 36.5986V40.5439H29.7418L26.6949 36.2861C26.4703 35.9785 26.2652 35.8564 25.9625 35.8564C25.4937 35.8564 25.2203 36.125 25.2203 36.5938V42.3555C25.2203 42.8242 25.484 43.0928 25.9283 43.0928ZM32.9061 43H35.2889C36.7928 43 37.7254 42.2236 37.7254 40.9834C37.7254 40.0508 37.0223 39.3525 36.0652 39.2793V39.2402C36.8123 39.1279 37.3885 38.4834 37.3885 37.7119C37.3885 36.6328 36.5584 35.9541 35.2352 35.9541H32.9061C32.4422 35.9541 32.1688 36.2373 32.1688 36.7207V42.2285C32.1688 42.7168 32.4422 43 32.9061 43ZM33.6434 38.8838V37.0527H34.8543C35.5428 37.0527 35.9383 37.375 35.9383 37.9414C35.9383 38.5371 35.4891 38.8838 34.7029 38.8838H33.6434ZM33.6434 41.9014V39.8555H34.8787C35.7479 39.8555 36.2215 40.207 36.2215 40.8662C36.2215 41.54 35.7625 41.9014 34.9129 41.9014H33.6434Z" fill="white"/>
<path d="M26.5 1.01001C26.9676 1.00852 27.4306 1.10267 27.8606 1.28667C28.2905 1.47068 28.6782 1.74065 29 2.08001L39.06 12.73C39.6659 13.362 40.0028 14.2045 40 15.08V44.01C40 44.8057 39.6839 45.5687 39.1213 46.1313C38.5587 46.6939 37.7956 47.01 37 47.01H11C10.2044 47.01 9.44129 46.6939 8.87868 46.1313C8.31607 45.5687 8 44.8057 8 44.01V4.01001C8 3.21436 8.31607 2.4513 8.87868 1.88869C9.44129 1.32608 10.2044 1.01001 11 1.01001H26.5ZM26.5 0.0100098H11C9.93913 0.0100098 8.92172 0.431437 8.17157 1.18158C7.42143 1.93173 7 2.94914 7 4.01001L7 44.01C7 45.0709 7.42143 46.0883 8.17157 46.8384C8.92172 47.5886 9.93913 48.01 11 48.01H37C38.0609 48.01 39.0783 47.5886 39.8284 46.8384C40.5786 46.0883 41 45.0709 41 44.01V15.08C40.9912 13.9628 40.5588 12.8906 39.79 12.08L29.71 1.39001C29.2961 0.954844 28.7982 0.608174 28.2465 0.370974C27.6947 0.133775 27.1006 0.0109765 26.5 0.0100098V0.0100098Z" fill="url(#paint2_linear)"/>
<path fill-rule="evenodd" clip-rule="evenodd" d="M29 1.01001L32 4.01001L34 6.01001C34 6.01001 40 12.01 40 13.01C40.5437 13.549 40.895 14.2517 41 15.01C41 15.01 40.53 13.53 39.88 13.53H29.73C29.2384 13.53 28.7668 13.3354 28.4183 12.9888C28.0698 12.6421 27.8726 12.1716 27.87 11.68V1.34001C27.8755 1.01728 27.7625 0.703732 27.5524 0.458661C27.3423 0.213589 27.0498 0.0539789 26.73 0.0100098L29 1.01001Z" fill="#EBEBEB"/>
</g>
<defs>
<linearGradient id="paint0_linear" x1="24.17" y1="-1.15084e-05" x2="24.17" y2="48" gradientUnits="userSpaceOnUse">
<stop stop-color="white" stop-opacity="0.8"/>
<stop offset="1" stop-color="white" stop-opacity="0.3"/>
</linearGradient>
<radialGradient id="paint1_radial" cx="0" cy="0" r="1" gradientUnits="userSpaceOnUse" gradientTransform="translate(34.52 6.41001) scale(17.55)">
<stop offset="0.08" stop-opacity="0.3"/>
<stop offset="1" stop-opacity="0"/>
</radialGradient>
<linearGradient id="paint2_linear" x1="24" y1="0.0100098" x2="24" y2="48.01" gradientUnits="userSpaceOnUse">
<stop offset="0.28" stop-color="#EBEBEB"/>
<stop offset="1" stop-color="#EBEBEB" stop-opacity="0.3"/>
</linearGradient>
<clipPath id="clip0">
<rect width="48" height="48" fill="white"/>
</clipPath>
</defs>
</svg>
