<svg width="48" height="48" viewBox="0 0 48 48" fill="none" xmlns="http://www.w3.org/2000/svg">
<g clip-path="url(#clip0)">
<path fill-rule="evenodd" clip-rule="evenodd" d="M7.17 4.01C7.17 2.94914 7.59143 1.93172 8.34157 1.18158C9.09172 0.431432 10.1091 0.0100044 11.17 0.0100044H26.67C27.2718 0.00872393 27.8675 0.131491 28.4198 0.370644C28.9721 0.609798 29.4691 0.960206 29.88 1.4L40 12.01C40.7714 12.819 41.2042 13.8922 41.21 15.01V44.01C41.21 45.0709 40.7886 46.0883 40.0384 46.8384C39.2883 47.5886 38.2709 48.01 37.21 48.01H11.21C10.1491 48.01 9.13172 47.5886 8.38157 46.8384C7.63143 46.0883 7.21 45.0709 7.21 44.01V4.01H7.17Z" fill="#4E5261"/>
<path d="M26.67 1.01C27.1345 1.01006 27.594 1.105 28.0205 1.28899C28.4469 1.47299 28.8313 1.74216 29.15 2.08L39.24 12.72C39.8378 13.3564 40.1704 14.1969 40.17 15.07V44.01C40.17 44.8057 39.8539 45.5687 39.2913 46.1313C38.7287 46.6939 37.9656 47.01 37.17 47.01H11.17C10.3743 47.01 9.61129 46.6939 9.04868 46.1313C8.48607 45.5687 8.17 44.8057 8.17 44.01V4.01C8.17 3.21435 8.48607 2.45129 9.04868 1.88868C9.61129 1.32607 10.3743 1.01 11.17 1.01H26.67ZM26.67 0.0100038H11.17C10.1091 0.0100038 9.09172 0.431431 8.34157 1.18158C7.59143 1.93172 7.17 2.94914 7.17 4.01V44.01C7.17 45.0709 7.59143 46.0883 8.34157 46.8384C9.09172 47.5886 10.1091 48.01 11.17 48.01H37.17C38.2309 48.01 39.2483 47.5886 39.9984 46.8384C40.7486 46.0883 41.17 45.0709 41.17 44.01V15.07C41.1905 13.9371 40.7711 12.8403 40 12.01L29.88 1.39C29.4683 0.952019 28.9708 0.603471 28.4186 0.366056C27.8663 0.128642 27.2711 0.00744255 26.67 0.0100038Z" fill="url(#paint0_linear)"/>
<path fill-rule="evenodd" clip-rule="evenodd" d="M7 4.01001C7 2.94914 7.42143 1.93173 8.17157 1.18158C8.92172 0.431437 9.93913 0.0100098 11 0.0100098L26.5 0.0100098C27.1006 0.0109765 27.6947 0.133775 28.2465 0.370974C28.7982 0.608174 29.2961 0.954844 29.71 1.39001L39.79 12.01C40.5588 12.8206 40.9912 13.8928 41 15.01V44.01C41 45.0709 40.5786 46.0883 39.8284 46.8384C39.0783 47.5886 38.0609 48.01 37 48.01H11C9.93913 48.01 8.92172 47.5886 8.17157 46.8384C7.42143 46.0883 7 45.0709 7 44.01V4.01001Z" fill="url(#paint1_radial)"/>
<path d="M11.4556 42H15.0166C15.4624 42 15.7524 41.7476 15.7524 41.3286C15.7524 40.9097 15.457 40.6572 15.0166 40.6572H12.2666V34.9907C12.2666 34.4536 11.9658 34.1421 11.4556 34.1421C10.9453 34.1421 10.6445 34.4536 10.6445 34.9907V41.1514C10.6445 41.6885 10.9453 42 11.4556 42ZM19.2331 42.1289C21.1667 42.1289 22.3537 41.1729 22.3537 39.6582C22.3537 38.4819 21.6447 37.8213 20.0012 37.4937L19.1848 37.3271C18.2663 37.1445 17.8957 36.8491 17.8957 36.3711C17.8957 35.8018 18.4275 35.4258 19.2278 35.4258C19.8938 35.4258 20.3933 35.6675 20.6511 36.2529C20.8337 36.5859 21.0593 36.731 21.4245 36.731C21.8381 36.731 22.1174 36.4678 22.1174 36.0811C22.1174 35.9414 22.0959 35.8286 22.0583 35.7212C21.7146 34.7114 20.6457 34.1152 19.2278 34.1152C17.5036 34.1152 16.2683 35.0552 16.2683 36.4731C16.2683 37.6279 17.0256 38.3691 18.5725 38.6753L19.3943 38.8364C20.3664 39.0352 20.7317 39.3252 20.7317 39.8354C20.7317 40.4048 20.1408 40.8237 19.2707 40.8237C18.5295 40.8237 17.9226 40.5552 17.6701 39.9644C17.4768 39.6206 17.2566 39.4917 16.9236 39.4917C16.5046 39.4917 16.2092 39.7764 16.2092 40.2061C16.2092 40.3511 16.2414 40.5015 16.2951 40.6411C16.6067 41.4897 17.6325 42.1289 19.2331 42.1289ZM23.8525 42.1021C24.309 42.1021 24.5722 41.8228 24.5722 41.3447V36.7686H24.6152L26.5327 41.4629C26.6669 41.7959 26.8925 41.9517 27.2363 41.9517C27.5746 41.9517 27.7895 41.8013 27.9291 41.4575L29.8466 36.7686H29.8896V41.3447C29.8896 41.8228 30.1528 42.1021 30.6093 42.1021C31.0659 42.1021 31.3344 41.8228 31.3344 41.3447V35.1895C31.3344 34.5288 30.9477 34.1421 30.2924 34.1421C29.7231 34.1421 29.4062 34.3838 29.1699 34.98L27.2524 39.7441H27.2094L25.2866 34.98C25.0502 34.3784 24.7387 34.1421 24.1747 34.1421C23.5141 34.1421 23.1274 34.5342 23.1274 35.1895V41.3447C23.1274 41.8228 23.3959 42.1021 23.8525 42.1021Z" fill="white"/>
<path d="M26.5 1.01001C26.9676 1.00852 27.4306 1.10267 27.8606 1.28667C28.2905 1.47068 28.6782 1.74065 29 2.08001L39.06 12.73C39.6659 13.362 40.0028 14.2045 40 15.08V44.01C40 44.8057 39.6839 45.5687 39.1213 46.1313C38.5587 46.6939 37.7956 47.01 37 47.01H11C10.2044 47.01 9.44129 46.6939 8.87868 46.1313C8.31607 45.5687 8 44.8057 8 44.01V4.01001C8 3.21436 8.31607 2.4513 8.87868 1.88869C9.44129 1.32608 10.2044 1.01001 11 1.01001H26.5ZM26.5 0.0100098H11C9.93913 0.0100098 8.92172 0.431437 8.17157 1.18158C7.42143 1.93173 7 2.94914 7 4.01001L7 44.01C7 45.0709 7.42143 46.0883 8.17157 46.8384C8.92172 47.5886 9.93913 48.01 11 48.01H37C38.0609 48.01 39.0783 47.5886 39.8284 46.8384C40.5786 46.0883 41 45.0709 41 44.01V15.08C40.9912 13.9628 40.5588 12.8906 39.79 12.08L29.71 1.39001C29.2961 0.954844 28.7982 0.608174 28.2465 0.370974C27.6947 0.133775 27.1006 0.0109765 26.5 0.0100098V0.0100098Z" fill="url(#paint2_linear)"/>
<path fill-rule="evenodd" clip-rule="evenodd" d="M29 1.01001L32 4.01001L34 6.01001C34 6.01001 40 12.01 40 13.01C40.5437 13.549 40.895 14.2517 41 15.01C41 15.01 40.53 13.53 39.88 13.53H29.73C29.2384 13.53 28.7668 13.3354 28.4183 12.9888C28.0698 12.6421 27.8726 12.1716 27.87 11.68V1.34001C27.8755 1.01728 27.7625 0.703732 27.5524 0.458661C27.3423 0.213589 27.0498 0.0539789 26.73 0.0100098L29 1.01001Z" fill="#EBEBEB"/>
</g>
<defs>
<linearGradient id="paint0_linear" x1="24.17" y1="3.75037e-06" x2="24.17" y2="48" gradientUnits="userSpaceOnUse">
<stop stop-color="white" stop-opacity="0.8"/>
<stop offset="1" stop-color="white" stop-opacity="0.3"/>
</linearGradient>
<radialGradient id="paint1_radial" cx="0" cy="0" r="1" gradientUnits="userSpaceOnUse" gradientTransform="translate(34.52 6.41001) scale(17.55)">
<stop offset="0.08" stop-opacity="0.3"/>
<stop offset="1" stop-opacity="0"/>
</radialGradient>
<linearGradient id="paint2_linear" x1="24" y1="0.0100098" x2="24" y2="48.01" gradientUnits="userSpaceOnUse">
<stop offset="0.28" stop-color="#EBEBEB"/>
<stop offset="1" stop-color="#EBEBEB" stop-opacity="0.3"/>
</linearGradient>
<clipPath id="clip0">
<rect width="48" height="48" fill="white"/>
</clipPath>
</defs>
</svg>
