<svg width="48" height="48" viewBox="0 0 48 48" fill="none" xmlns="http://www.w3.org/2000/svg">
<g clip-path="url(#clip0)">
<path fill-rule="evenodd" clip-rule="evenodd" d="M7.17 4.01C7.17 2.94914 7.59143 1.93172 8.34157 1.18158C9.09172 0.431432 10.1091 0.0100044 11.17 0.0100044H26.67C27.2718 0.00872393 27.8675 0.131491 28.4198 0.370644C28.9721 0.609798 29.4691 0.960206 29.88 1.4L40 12.01C40.7714 12.819 41.2042 13.8922 41.21 15.01V44.01C41.21 45.0709 40.7886 46.0883 40.0384 46.8384C39.2883 47.5886 38.2709 48.01 37.21 48.01H11.21C10.1491 48.01 9.13172 47.5886 8.38157 46.8384C7.63143 46.0883 7.21 45.0709 7.21 44.01V4.01H7.17Z" fill="#4E5261"/>
<path d="M26.67 1.01C27.1345 1.01006 27.594 1.105 28.0205 1.28899C28.4469 1.47299 28.8313 1.74216 29.15 2.08L39.24 12.72C39.8378 13.3564 40.1704 14.1969 40.17 15.07V44.01C40.17 44.8057 39.8539 45.5687 39.2913 46.1313C38.7287 46.6939 37.9656 47.01 37.17 47.01H11.17C10.3743 47.01 9.61129 46.6939 9.04868 46.1313C8.48607 45.5687 8.17 44.8057 8.17 44.01V4.01C8.17 3.21435 8.48607 2.45129 9.04868 1.88868C9.61129 1.32607 10.3743 1.01 11.17 1.01H26.67ZM26.67 0.0100038H11.17C10.1091 0.0100038 9.09172 0.431431 8.34157 1.18158C7.59143 1.93172 7.17 2.94914 7.17 4.01V44.01C7.17 45.0709 7.59143 46.0883 8.34157 46.8384C9.09172 47.5886 10.1091 48.01 11.17 48.01H37.17C38.2309 48.01 39.2483 47.5886 39.9984 46.8384C40.7486 46.0883 41.17 45.0709 41.17 44.01V15.07C41.1905 13.9371 40.7711 12.8403 40 12.01L29.88 1.39C29.4683 0.952019 28.9708 0.603471 28.4186 0.366056C27.8663 0.128642 27.2711 0.00744255 26.67 0.0100038Z" fill="url(#paint0_linear)"/>
<path fill-rule="evenodd" clip-rule="evenodd" d="M7 4.01001C7 2.94914 7.42143 1.93173 8.17157 1.18158C8.92172 0.431437 9.93913 0.0100098 11 0.0100098L26.5 0.0100098C27.1006 0.0109765 27.6947 0.133775 28.2465 0.370974C28.7982 0.608174 29.2961 0.954844 29.71 1.39001L39.79 12.01C40.5588 12.8206 40.9912 13.8928 41 15.01V44.01C41 45.0709 40.5786 46.0883 39.8284 46.8384C39.0783 47.5886 38.0609 48.01 37 48.01H11C9.93913 48.01 8.92172 47.5886 8.17157 46.8384C7.42143 46.0883 7 45.0709 7 44.01V4.01001Z" fill="url(#paint1_radial)"/>
<path d="M11.3696 42.1021C11.8262 42.1021 12.0894 41.8228 12.0894 41.3447V36.7686H12.1323L14.0498 41.4629C14.1841 41.7959 14.4097 41.9517 14.7534 41.9517C15.0918 41.9517 15.3066 41.8013 15.4463 41.4575L17.3638 36.7686H17.4067V41.3447C17.4067 41.8228 17.6699 42.1021 18.1265 42.1021C18.583 42.1021 18.8516 41.8228 18.8516 41.3447V35.1895C18.8516 34.5288 18.4648 34.1421 17.8096 34.1421C17.2402 34.1421 16.9233 34.3838 16.687 34.98L14.7695 39.7441H14.7266L12.8037 34.98C12.5674 34.3784 12.2559 34.1421 11.6919 34.1421C11.0312 34.1421 10.6445 34.5342 10.6445 35.1895V41.3447C10.6445 41.8228 10.9131 42.1021 11.3696 42.1021ZM20.4362 42.1021C20.8659 42.1021 21.1076 41.8872 21.258 41.3716L21.6662 40.1631H24.4646L24.8728 41.3877C25.0178 41.8926 25.2595 42.1021 25.716 42.1021C26.1887 42.1021 26.5271 41.7852 26.5271 41.3394C26.5271 41.1782 26.5002 41.0332 26.425 40.8237L24.2981 35.0552C24.0671 34.4214 23.6911 34.1421 23.0573 34.1421C22.445 34.1421 22.0637 34.4321 21.8381 35.0605L19.7219 40.8237C19.6521 41.0225 19.6145 41.2051 19.6145 41.3394C19.6145 41.8066 19.9314 42.1021 20.4362 42.1021ZM22.0207 38.9062L23.0251 35.7319H23.0627L24.0886 38.9062H22.0207ZM28.9067 42.1021C29.4169 42.1021 29.7177 41.7905 29.7177 41.2588V35.5923H31.3237C31.7587 35.5923 32.0541 35.3398 32.0541 34.9209C32.0541 34.502 31.7641 34.2495 31.3237 34.2495H26.4951C26.0493 34.2495 25.7592 34.502 25.7592 34.9209C25.7592 35.3398 26.0546 35.5923 26.4951 35.5923H28.0956V41.2588C28.0956 41.7905 28.3964 42.1021 28.9067 42.1021Z" fill="white"/>
<path d="M26.5 1.01001C26.9676 1.00852 27.4306 1.10267 27.8606 1.28667C28.2905 1.47068 28.6782 1.74065 29 2.08001L39.06 12.73C39.6659 13.362 40.0028 14.2045 40 15.08V44.01C40 44.8057 39.6839 45.5687 39.1213 46.1313C38.5587 46.6939 37.7956 47.01 37 47.01H11C10.2044 47.01 9.44129 46.6939 8.87868 46.1313C8.31607 45.5687 8 44.8057 8 44.01V4.01001C8 3.21436 8.31607 2.4513 8.87868 1.88869C9.44129 1.32608 10.2044 1.01001 11 1.01001H26.5ZM26.5 0.0100098H11C9.93913 0.0100098 8.92172 0.431437 8.17157 1.18158C7.42143 1.93173 7 2.94914 7 4.01001L7 44.01C7 45.0709 7.42143 46.0883 8.17157 46.8384C8.92172 47.5886 9.93913 48.01 11 48.01H37C38.0609 48.01 39.0783 47.5886 39.8284 46.8384C40.5786 46.0883 41 45.0709 41 44.01V15.08C40.9912 13.9628 40.5588 12.8906 39.79 12.08L29.71 1.39001C29.2961 0.954844 28.7982 0.608174 28.2465 0.370974C27.6947 0.133775 27.1006 0.0109765 26.5 0.0100098V0.0100098Z" fill="url(#paint2_linear)"/>
<path fill-rule="evenodd" clip-rule="evenodd" d="M29 1.01001L32 4.01001L34 6.01001C34 6.01001 40 12.01 40 13.01C40.5437 13.549 40.895 14.2517 41 15.01C41 15.01 40.53 13.53 39.88 13.53H29.73C29.2384 13.53 28.7668 13.3354 28.4183 12.9888C28.0698 12.6421 27.8726 12.1716 27.87 11.68V1.34001C27.8755 1.01728 27.7625 0.703732 27.5524 0.458661C27.3423 0.213589 27.0498 0.0539789 26.73 0.0100098L29 1.01001Z" fill="#EBEBEB"/>
</g>
<defs>
<linearGradient id="paint0_linear" x1="24.17" y1="3.75037e-06" x2="24.17" y2="48" gradientUnits="userSpaceOnUse">
<stop stop-color="white" stop-opacity="0.8"/>
<stop offset="1" stop-color="white" stop-opacity="0.3"/>
</linearGradient>
<radialGradient id="paint1_radial" cx="0" cy="0" r="1" gradientUnits="userSpaceOnUse" gradientTransform="translate(34.52 6.41001) scale(17.55)">
<stop offset="0.08" stop-opacity="0.3"/>
<stop offset="1" stop-opacity="0"/>
</radialGradient>
<linearGradient id="paint2_linear" x1="24" y1="0.0100098" x2="24" y2="48.01" gradientUnits="userSpaceOnUse">
<stop offset="0.28" stop-color="#EBEBEB"/>
<stop offset="1" stop-color="#EBEBEB" stop-opacity="0.3"/>
</linearGradient>
<clipPath id="clip0">
<rect width="48" height="48" fill="white"/>
</clipPath>
</defs>
</svg>
