<svg width="48" height="48" viewBox="0 0 48 48" fill="none" xmlns="http://www.w3.org/2000/svg">
<g clip-path="url(#clip0)">
<path fill-rule="evenodd" clip-rule="evenodd" d="M7.17001 4.01C7.17001 2.94913 7.59144 1.93172 8.34159 1.18157C9.09173 0.431424 10.1091 0.00999679 11.17 0.00999679H26.67C27.2719 0.0087163 27.8675 0.131483 28.4198 0.370637C28.9721 0.60979 29.4692 0.960198 29.88 1.4L40 12.01C40.7714 12.819 41.2043 13.8922 41.21 15.01V44.01C41.21 45.0709 40.7886 46.0883 40.0384 46.8384C39.2883 47.5886 38.2709 48.01 37.21 48.01H11.21C10.1491 48.01 9.13173 47.5886 8.38159 46.8384C7.63144 46.0883 7.21001 45.0709 7.21001 44.01V4.01H7.17001Z" fill="#4E5261"/>
<path d="M26.67 1.01C27.1345 1.01005 27.594 1.10499 28.0205 1.28899C28.4469 1.47298 28.8313 1.74215 29.15 2.08L39.24 12.72C39.8378 13.3564 40.1704 14.1968 40.17 15.07V44.01C40.17 44.8056 39.8539 45.5687 39.2913 46.1313C38.7287 46.6939 37.9657 47.01 37.17 47.01H11.17C10.3744 47.01 9.6113 46.6939 9.04869 46.1313C8.48608 45.5687 8.17001 44.8056 8.17001 44.01V4.01C8.17001 3.21435 8.48608 2.45128 9.04869 1.88868C9.6113 1.32607 10.3744 1.01 11.17 1.01H26.67ZM26.67 0.00999612H11.17C10.1091 0.00999612 9.09173 0.431424 8.34159 1.18157C7.59144 1.93171 7.17001 2.94913 7.17001 4.01V44.01C7.17001 45.0709 7.59144 46.0883 8.34159 46.8384C9.09173 47.5886 10.1091 48.01 11.17 48.01H37.17C38.2309 48.01 39.2483 47.5886 39.9984 46.8384C40.7486 46.0883 41.17 45.0709 41.17 44.01V15.07C41.1905 13.9371 40.7712 12.8403 40 12.01L29.88 1.39C29.4683 0.952012 28.9708 0.603464 28.4186 0.366049C27.8663 0.128634 27.2711 0.00743492 26.67 0.00999612Z" fill="url(#paint0_linear)"/>
<path fill-rule="evenodd" clip-rule="evenodd" d="M7 4.00999C7 2.94913 7.42143 1.93171 8.17157 1.18157C8.92172 0.431422 9.93913 0.00999451 11 0.00999451L26.5 0.00999451C27.1006 0.0109612 27.6947 0.133759 28.2465 0.370959C28.7982 0.608159 29.2961 0.954829 29.71 1.38999L39.79 12.01C40.5588 12.8206 40.9912 13.8928 41 15.01V44.01C41 45.0709 40.5786 46.0883 39.8284 46.8384C39.0783 47.5886 38.0609 48.01 37 48.01H11C9.93913 48.01 8.92172 47.5886 8.17157 46.8384C7.42143 46.0883 7 45.0709 7 44.01V4.00999Z" fill="url(#paint1_radial)"/>
<path d="M11.4233 42.1021C11.9067 42.1021 12.1968 41.8066 12.1968 41.291V36.9243H12.2451L15.6074 41.6348C15.8545 41.9785 16.0693 42.1021 16.4185 42.1021C16.9287 42.1021 17.2134 41.8174 17.2134 41.3125V34.9585C17.2134 34.4375 16.9287 34.1421 16.4399 34.1421C15.9512 34.1421 15.6611 34.4375 15.6611 34.9585V39.2983H15.6182L12.2666 34.6147C12.0195 34.2764 11.7939 34.1421 11.4609 34.1421C10.9453 34.1421 10.6445 34.4375 10.6445 34.9531V41.291C10.6445 41.8066 10.9346 42.1021 11.4233 42.1021ZM19.0988 42H21.2473C23.573 42 24.9426 40.5552 24.9426 38.0952C24.9426 35.6353 23.573 34.2495 21.2473 34.2495H19.0988C18.5886 34.2495 18.2878 34.561 18.2878 35.0928V41.1514C18.2878 41.6885 18.5886 42 19.0988 42ZM19.9099 40.6572V35.5869H21.0539C22.4826 35.5869 23.2883 36.4785 23.2883 38.1006C23.2883 39.7764 22.5041 40.6572 21.0539 40.6572H19.9099ZM26.4252 42H30.7167C31.1357 42 31.3881 41.7368 31.3881 41.3555C31.3881 40.9634 31.1357 40.7109 30.7167 40.7109H27.7949V40.6787L29.4706 39.0674C30.7382 37.8696 31.2001 37.2788 31.2001 36.3335C31.2001 35.0015 30.0937 34.0776 28.4501 34.0776C26.9838 34.0776 26.0117 34.8779 25.7485 35.7373C25.7109 35.8501 25.6894 35.9629 25.6894 36.0864C25.6894 36.4893 25.9472 36.7471 26.3823 36.7471C26.7314 36.7471 26.9194 36.5967 27.102 36.2744C27.3813 35.6514 27.811 35.3398 28.434 35.3398C29.1269 35.3398 29.621 35.7964 29.621 36.4355C29.621 36.9941 29.374 37.3701 28.4179 38.2886L26.1083 40.4961C25.7807 40.7969 25.6625 41.001 25.6625 41.3071C25.6625 41.7153 25.915 42 26.4252 42Z" fill="white"/>
<path d="M26.5 1.00999C26.9676 1.0085 27.4306 1.10265 27.8606 1.28666C28.2905 1.47066 28.6782 1.74064 29 2.07999L39.06 12.73C39.6659 13.362 40.0028 14.2045 40 15.08V44.01C40 44.8056 39.6839 45.5687 39.1213 46.1313C38.5587 46.6939 37.7956 47.01 37 47.01H11C10.2044 47.01 9.44129 46.6939 8.87868 46.1313C8.31607 45.5687 8 44.8056 8 44.01V4.00999C8 3.21434 8.31607 2.45128 8.87868 1.88867C9.44129 1.32607 10.2044 1.00999 11 1.00999H26.5ZM26.5 0.00999451H11C9.93913 0.00999451 8.92172 0.431422 8.17157 1.18157C7.42143 1.93171 7 2.94913 7 4.00999L7 44.01C7 45.0709 7.42143 46.0883 8.17157 46.8384C8.92172 47.5886 9.93913 48.01 11 48.01H37C38.0609 48.01 39.0783 47.5886 39.8284 46.8384C40.5786 46.0883 41 45.0709 41 44.01V15.08C40.9912 13.9628 40.5588 12.8906 39.79 12.08L29.71 1.38999C29.2961 0.954829 28.7982 0.608159 28.2465 0.370959C27.6947 0.133759 27.1006 0.0109612 26.5 0.00999451V0.00999451Z" fill="url(#paint2_linear)"/>
<path fill-rule="evenodd" clip-rule="evenodd" d="M29 1.00999L32 4.00999L34 6.00999C34 6.00999 40 12.01 40 13.01C40.5437 13.5489 40.895 14.2517 41 15.01C41 15.01 40.53 13.53 39.88 13.53H29.73C29.2384 13.53 28.7668 13.3354 28.4183 12.9888C28.0698 12.6421 27.8727 12.1716 27.87 11.68V1.33999C27.8755 1.01726 27.7625 0.703717 27.5524 0.458645C27.3424 0.213574 27.0498 0.0539636 26.73 0.00999451L29 1.00999Z" fill="#EBEBEB"/>
</g>
<defs>
<linearGradient id="paint0_linear" x1="24.17" y1="-3.87903e-06" x2="24.17" y2="48" gradientUnits="userSpaceOnUse">
<stop stop-color="white" stop-opacity="0.8"/>
<stop offset="1" stop-color="white" stop-opacity="0.3"/>
</linearGradient>
<radialGradient id="paint1_radial" cx="0" cy="0" r="1" gradientUnits="userSpaceOnUse" gradientTransform="translate(34.52 6.40999) scale(17.55)">
<stop offset="0.08" stop-opacity="0.3"/>
<stop offset="1" stop-opacity="0"/>
</radialGradient>
<linearGradient id="paint2_linear" x1="24" y1="0.00999451" x2="24" y2="48.01" gradientUnits="userSpaceOnUse">
<stop offset="0.28" stop-color="#EBEBEB"/>
<stop offset="1" stop-color="#EBEBEB" stop-opacity="0.3"/>
</linearGradient>
<clipPath id="clip0">
<rect width="48" height="48" fill="white"/>
</clipPath>
</defs>
</svg>
