<svg width="48" height="48" viewBox="0 0 48 48" fill="none" xmlns="http://www.w3.org/2000/svg">
<g clip-path="url(#clip0)">
<path fill-rule="evenodd" clip-rule="evenodd" d="M7.17 4.01002C7.17 2.94915 7.59143 1.93174 8.34157 1.18159C9.09172 0.431447 10.1091 0.0100197 11.17 0.0100197H26.67C27.2718 0.00873919 27.8675 0.131506 28.4198 0.370659C28.9721 0.609813 29.4691 0.960221 29.88 1.40002L40 12.01C40.7714 12.819 41.2042 13.8923 41.21 15.01V44.01C41.21 45.0709 40.7886 46.0883 40.0384 46.8384C39.2883 47.5886 38.2709 48.01 37.21 48.01H11.21C10.1491 48.01 9.13172 47.5886 8.38157 46.8384C7.63143 46.0883 7.21 45.0709 7.21 44.01V4.01002H7.17Z" fill="#4E5261"/>
<path d="M26.67 1.00999C27.1345 1.01005 27.594 1.10498 28.0205 1.28898C28.4469 1.47297 28.8313 1.74215 29.15 2.07999L39.24 12.72C39.8378 13.3564 40.1704 14.1968 40.17 15.07V44.01C40.17 44.8056 39.8539 45.5687 39.2913 46.1313C38.7287 46.6939 37.9656 47.01 37.17 47.01H11.17C10.3743 47.01 9.61129 46.6939 9.04868 46.1313C8.48607 45.5687 8.17 44.8056 8.17 44.01V4.00999C8.17 3.21434 8.48607 2.45128 9.04868 1.88867C9.61129 1.32606 10.3743 1.00999 11.17 1.00999H26.67ZM26.67 0.00998849H11.17C10.1091 0.00998849 9.09172 0.431416 8.34157 1.18156C7.59143 1.93171 7.17 2.94912 7.17 4.00999V44.01C7.17 45.0709 7.59143 46.0883 8.34157 46.8384C9.09172 47.5886 10.1091 48.01 11.17 48.01H37.17C38.2309 48.01 39.2483 47.5886 39.9984 46.8384C40.7486 46.0883 41.17 45.0709 41.17 44.01V15.07C41.1905 13.937 40.7711 12.8402 40 12.01L29.88 1.38999C29.4683 0.952004 28.9708 0.603456 28.4186 0.366041C27.8663 0.128626 27.2711 0.0074273 26.67 0.00998849Z" fill="url(#paint0_linear)"/>
<path fill-rule="evenodd" clip-rule="evenodd" d="M7 4.01001C7 2.94914 7.42143 1.93173 8.17157 1.18158C8.92172 0.431437 9.93913 0.0100098 11 0.0100098L26.5 0.0100098C27.1006 0.0109765 27.6947 0.133775 28.2465 0.370974C28.7982 0.608174 29.2961 0.954844 29.71 1.39001L39.79 12.01C40.5588 12.8206 40.9912 13.8928 41 15.01V44.01C41 45.0709 40.5786 46.0883 39.8284 46.8384C39.0783 47.5886 38.0609 48.01 37 48.01H11C9.93913 48.01 8.92172 47.5886 8.17157 46.8384C7.42143 46.0883 7 45.0709 7 44.01V4.01001Z" fill="url(#paint1_radial)"/>
<path d="M11.4556 42.1021C11.9658 42.1021 12.2666 41.7905 12.2666 41.2588V39.5562H13.7168C15.3496 39.5562 16.4829 38.4927 16.4829 36.9028C16.4829 35.3076 15.3872 34.2495 13.7974 34.2495H11.4556C10.9453 34.2495 10.6445 34.561 10.6445 35.0928V41.2588C10.6445 41.7905 10.9453 42.1021 11.4556 42.1021ZM12.2666 38.2886V35.5332H13.3677C14.2969 35.5332 14.834 36.0273 14.834 36.9082C14.834 37.7944 14.2915 38.2886 13.3623 38.2886H12.2666ZM18.0354 42H21.7199C22.1657 42 22.4558 41.7476 22.4558 41.3286C22.4558 40.9097 22.1604 40.6572 21.7199 40.6572H18.8464V38.7021H21.5803C21.9885 38.7021 22.2571 38.4658 22.2571 38.0791C22.2571 37.6924 21.9831 37.4561 21.5803 37.4561H18.8464V35.5923H21.7199C22.1604 35.5923 22.4558 35.3398 22.4558 34.9209C22.4558 34.502 22.1657 34.2495 21.7199 34.2495H18.0354C17.5251 34.2495 17.2243 34.561 17.2243 35.0928V41.1514C17.2243 41.6885 17.5251 42 18.0354 42ZM26.1459 42.1289C28.0795 42.1289 29.2665 41.1729 29.2665 39.6582C29.2665 38.4819 28.5576 37.8213 26.914 37.4937L26.0976 37.3271C25.1791 37.1445 24.8085 36.8491 24.8085 36.3711C24.8085 35.8018 25.3403 35.4258 26.1406 35.4258C26.8066 35.4258 27.3061 35.6675 27.5639 36.2529C27.7465 36.5859 27.9721 36.731 28.3373 36.731C28.7509 36.731 29.0302 36.4678 29.0302 36.0811C29.0302 35.9414 29.0087 35.8286 28.9711 35.7212C28.6274 34.7114 27.5585 34.1152 26.1406 34.1152C24.4164 34.1152 23.1811 35.0552 23.1811 36.4731C23.1811 37.6279 23.9384 38.3691 25.4853 38.6753L26.3071 38.8364C27.2792 39.0352 27.6445 39.3252 27.6445 39.8354C27.6445 40.4048 27.0537 40.8237 26.1835 40.8237C25.4423 40.8237 24.8354 40.5552 24.5829 39.9644C24.3896 39.6206 24.1694 39.4917 23.8364 39.4917C23.4174 39.4917 23.122 39.7764 23.122 40.2061C23.122 40.3511 23.1542 40.5015 23.2079 40.6411C23.5195 41.4897 24.5454 42.1289 26.1459 42.1289Z" fill="white"/>
<path d="M26.5 1.01001C26.9676 1.00852 27.4306 1.10267 27.8606 1.28667C28.2905 1.47068 28.6782 1.74065 29 2.08001L39.06 12.73C39.6659 13.362 40.0028 14.2045 40 15.08V44.01C40 44.8057 39.6839 45.5687 39.1213 46.1313C38.5587 46.6939 37.7956 47.01 37 47.01H11C10.2044 47.01 9.44129 46.6939 8.87868 46.1313C8.31607 45.5687 8 44.8057 8 44.01V4.01001C8 3.21436 8.31607 2.4513 8.87868 1.88869C9.44129 1.32608 10.2044 1.01001 11 1.01001H26.5ZM26.5 0.0100098H11C9.93913 0.0100098 8.92172 0.431437 8.17157 1.18158C7.42143 1.93173 7 2.94914 7 4.01001L7 44.01C7 45.0709 7.42143 46.0883 8.17157 46.8384C8.92172 47.5886 9.93913 48.01 11 48.01H37C38.0609 48.01 39.0783 47.5886 39.8284 46.8384C40.5786 46.0883 41 45.0709 41 44.01V15.08C40.9912 13.9628 40.5588 12.8906 39.79 12.08L29.71 1.39001C29.2961 0.954844 28.7982 0.608174 28.2465 0.370974C27.6947 0.133775 27.1006 0.0109765 26.5 0.0100098V0.0100098Z" fill="url(#paint2_linear)"/>
<path fill-rule="evenodd" clip-rule="evenodd" d="M29 1.01001L32 4.01001L34 6.01001C34 6.01001 40 12.01 40 13.01C40.5437 13.549 40.895 14.2517 41 15.01C41 15.01 40.53 13.53 39.88 13.53H29.73C29.2384 13.53 28.7668 13.3354 28.4183 12.9888C28.0698 12.6421 27.8726 12.1716 27.87 11.68V1.34001C27.8755 1.01728 27.7625 0.703732 27.5524 0.458661C27.3423 0.213589 27.0498 0.0539789 26.73 0.0100098L29 1.01001Z" fill="#EBEBEB"/>
</g>
<defs>
<linearGradient id="paint0_linear" x1="24.17" y1="-1.15084e-05" x2="24.17" y2="48" gradientUnits="userSpaceOnUse">
<stop stop-color="white" stop-opacity="0.8"/>
<stop offset="1" stop-color="white" stop-opacity="0.3"/>
</linearGradient>
<radialGradient id="paint1_radial" cx="0" cy="0" r="1" gradientUnits="userSpaceOnUse" gradientTransform="translate(34.52 6.41001) scale(17.55)">
<stop offset="0.08" stop-opacity="0.3"/>
<stop offset="1" stop-opacity="0"/>
</radialGradient>
<linearGradient id="paint2_linear" x1="24" y1="0.0100098" x2="24" y2="48.01" gradientUnits="userSpaceOnUse">
<stop offset="0.28" stop-color="#EBEBEB"/>
<stop offset="1" stop-color="#EBEBEB" stop-opacity="0.3"/>
</linearGradient>
<clipPath id="clip0">
<rect width="48" height="48" fill="white"/>
</clipPath>
</defs>
</svg>
