<svg width="48" height="48" viewBox="0 0 48 48" fill="none" xmlns="http://www.w3.org/2000/svg">
<g clip-path="url(#clip0)">
<path fill-rule="evenodd" clip-rule="evenodd" d="M7.17001 4.01C7.17001 2.94914 7.59144 1.93172 8.34159 1.18158C9.09173 0.431432 10.1091 0.0100044 11.17 0.0100044H26.67C27.2719 0.00872393 27.8675 0.131491 28.4198 0.370644C28.9721 0.609798 29.4692 0.960206 29.88 1.4L40 12.01C40.7714 12.819 41.2043 13.8922 41.21 15.01V44.01C41.21 45.0709 40.7886 46.0883 40.0384 46.8384C39.2883 47.5886 38.2709 48.01 37.21 48.01H11.21C10.1491 48.01 9.13173 47.5886 8.38159 46.8384C7.63144 46.0883 7.21001 45.0709 7.21001 44.01V4.01H7.17001Z" fill="#4E5261"/>
<path d="M26.67 1.01C27.1345 1.01006 27.594 1.105 28.0205 1.28899C28.4469 1.47299 28.8313 1.74216 29.15 2.08L39.24 12.72C39.8378 13.3564 40.1704 14.1969 40.17 15.07V44.01C40.17 44.8057 39.8539 45.5687 39.2913 46.1313C38.7287 46.6939 37.9657 47.01 37.17 47.01H11.17C10.3744 47.01 9.6113 46.6939 9.04869 46.1313C8.48608 45.5687 8.17001 44.8057 8.17001 44.01V4.01C8.17001 3.21435 8.48608 2.45129 9.04869 1.88868C9.6113 1.32607 10.3744 1.01 11.17 1.01H26.67ZM26.67 0.0100038H11.17C10.1091 0.0100038 9.09173 0.431431 8.34159 1.18158C7.59144 1.93172 7.17001 2.94914 7.17001 4.01V44.01C7.17001 45.0709 7.59144 46.0883 8.34159 46.8384C9.09173 47.5886 10.1091 48.01 11.17 48.01H37.17C38.2309 48.01 39.2483 47.5886 39.9984 46.8384C40.7486 46.0883 41.17 45.0709 41.17 44.01V15.07C41.1905 13.9371 40.7712 12.8403 40 12.01L29.88 1.39C29.4683 0.952019 28.9708 0.603471 28.4186 0.366056C27.8663 0.128642 27.2711 0.00744255 26.67 0.0100038Z" fill="url(#paint0_linear)"/>
<path fill-rule="evenodd" clip-rule="evenodd" d="M7 4.01001C7 2.94914 7.42143 1.93173 8.17157 1.18158C8.92172 0.431437 9.93913 0.0100098 11 0.0100098L26.5 0.0100098C27.1006 0.0109765 27.6947 0.133775 28.2465 0.370974C28.7982 0.608174 29.2961 0.954844 29.71 1.39001L39.79 12.01C40.5588 12.8206 40.9912 13.8928 41 15.01V44.01C41 45.0709 40.5786 46.0883 39.8284 46.8384C39.0783 47.5886 38.0609 48.01 37 48.01H11C9.93913 48.01 8.92172 47.5886 8.17157 46.8384C7.42143 46.0883 7 45.0709 7 44.01V4.01001Z" fill="url(#paint1_radial)"/>
<path d="M11.4556 42.1021C11.9658 42.1021 12.2666 41.7905 12.2666 41.2588V39.5562H13.7168C15.3496 39.5562 16.4829 38.4927 16.4829 36.9028C16.4829 35.3076 15.3872 34.2495 13.7974 34.2495H11.4556C10.9453 34.2495 10.6445 34.561 10.6445 35.0928V41.2588C10.6445 41.7905 10.9453 42.1021 11.4556 42.1021ZM12.2666 38.2886V35.5332H13.3677C14.2969 35.5332 14.834 36.0273 14.834 36.9082C14.834 37.7944 14.2915 38.2886 13.3623 38.2886H12.2666ZM18.0354 42H21.5964C22.0422 42 22.3322 41.7476 22.3322 41.3286C22.3322 40.9097 22.0368 40.6572 21.5964 40.6572H18.8464V34.9907C18.8464 34.4536 18.5456 34.1421 18.0354 34.1421C17.5251 34.1421 17.2243 34.4536 17.2243 34.9907V41.1514C17.2243 41.6885 17.5251 42 18.0354 42ZM23.6323 42H27.9238C28.3427 42 28.5952 41.7368 28.5952 41.3555C28.5952 40.9634 28.3427 40.7109 27.9238 40.7109H25.0019V40.6787L26.6777 39.0674C27.9453 37.8696 28.4072 37.2788 28.4072 36.3335C28.4072 35.0015 27.3007 34.0776 25.6572 34.0776C24.1909 34.0776 23.2187 34.8779 22.9555 35.7373C22.9179 35.8501 22.8964 35.9629 22.8964 36.0864C22.8964 36.4893 23.1542 36.7471 23.5893 36.7471C23.9384 36.7471 24.1264 36.5967 24.309 36.2744C24.5883 35.6514 25.018 35.3398 25.6411 35.3398C26.3339 35.3398 26.8281 35.7964 26.8281 36.4355C26.8281 36.9941 26.581 37.3701 25.6249 38.2886L23.3154 40.4961C22.9877 40.7969 22.8696 41.001 22.8696 41.3071C22.8696 41.7153 23.122 42 23.6323 42Z" fill="white"/>
<path d="M26.5 1.01001C26.9676 1.00852 27.4306 1.10267 27.8606 1.28667C28.2905 1.47068 28.6782 1.74065 29 2.08001L39.06 12.73C39.6659 13.362 40.0028 14.2045 40 15.08V44.01C40 44.8057 39.6839 45.5687 39.1213 46.1313C38.5587 46.6939 37.7956 47.01 37 47.01H11C10.2044 47.01 9.44129 46.6939 8.87868 46.1313C8.31607 45.5687 8 44.8057 8 44.01V4.01001C8 3.21436 8.31607 2.4513 8.87868 1.88869C9.44129 1.32608 10.2044 1.01001 11 1.01001H26.5ZM26.5 0.0100098H11C9.93913 0.0100098 8.92172 0.431437 8.17157 1.18158C7.42143 1.93173 7 2.94914 7 4.01001L7 44.01C7 45.0709 7.42143 46.0883 8.17157 46.8384C8.92172 47.5886 9.93913 48.01 11 48.01H37C38.0609 48.01 39.0783 47.5886 39.8284 46.8384C40.5786 46.0883 41 45.0709 41 44.01V15.08C40.9912 13.9628 40.5588 12.8906 39.79 12.08L29.71 1.39001C29.2961 0.954844 28.7982 0.608174 28.2465 0.370974C27.6947 0.133775 27.1006 0.0109765 26.5 0.0100098V0.0100098Z" fill="url(#paint2_linear)"/>
<path fill-rule="evenodd" clip-rule="evenodd" d="M29 1.01001L32 4.01001L34 6.01001C34 6.01001 40 12.01 40 13.01C40.5437 13.549 40.895 14.2517 41 15.01C41 15.01 40.53 13.53 39.88 13.53H29.73C29.2384 13.53 28.7668 13.3354 28.4183 12.9888C28.0698 12.6421 27.8727 12.1716 27.87 11.68V1.34001C27.8755 1.01728 27.7625 0.703732 27.5524 0.458661C27.3424 0.213589 27.0498 0.0539789 26.73 0.0100098L29 1.01001Z" fill="#EBEBEB"/>
</g>
<defs>
<linearGradient id="paint0_linear" x1="24.17" y1="3.75037e-06" x2="24.17" y2="48" gradientUnits="userSpaceOnUse">
<stop stop-color="white" stop-opacity="0.8"/>
<stop offset="1" stop-color="white" stop-opacity="0.3"/>
</linearGradient>
<radialGradient id="paint1_radial" cx="0" cy="0" r="1" gradientUnits="userSpaceOnUse" gradientTransform="translate(34.52 6.41001) scale(17.55)">
<stop offset="0.08" stop-opacity="0.3"/>
<stop offset="1" stop-opacity="0"/>
</radialGradient>
<linearGradient id="paint2_linear" x1="24" y1="0.0100098" x2="24" y2="48.01" gradientUnits="userSpaceOnUse">
<stop offset="0.28" stop-color="#EBEBEB"/>
<stop offset="1" stop-color="#EBEBEB" stop-opacity="0.3"/>
</linearGradient>
<clipPath id="clip0">
<rect width="48" height="48" fill="white"/>
</clipPath>
</defs>
</svg>
