<svg width="48" height="48" viewBox="0 0 48 48" fill="none" xmlns="http://www.w3.org/2000/svg">
<g clip-path="url(#clip0)">
<path fill-rule="evenodd" clip-rule="evenodd" d="M7.17 4.00999C7.17 2.94912 7.59143 1.93171 8.34157 1.18156C9.09172 0.431417 10.1091 0.00998916 11.17 0.00998916H26.67C27.2718 0.00870867 27.8675 0.131475 28.4198 0.370629C28.9721 0.609783 29.4691 0.960191 29.88 1.39999L40 12.01C40.7714 12.819 41.2042 13.8922 41.21 15.01V44.01C41.21 45.0709 40.7886 46.0883 40.0384 46.8384C39.2883 47.5886 38.2709 48.01 37.21 48.01H11.21C10.1491 48.01 9.13172 47.5886 8.38157 46.8384C7.63143 46.0883 7.21 45.0709 7.21 44.01V4.00999H7.17Z" fill="#4E5261"/>
<path d="M26.67 1.00999C27.1345 1.01005 27.594 1.10498 28.0205 1.28898C28.4469 1.47297 28.8313 1.74215 29.15 2.07999L39.24 12.72C39.8378 13.3564 40.1704 14.1968 40.17 15.07V44.01C40.17 44.8056 39.8539 45.5687 39.2913 46.1313C38.7287 46.6939 37.9656 47.01 37.17 47.01H11.17C10.3743 47.01 9.61129 46.6939 9.04868 46.1313C8.48607 45.5687 8.17 44.8056 8.17 44.01V4.00999C8.17 3.21434 8.48607 2.45128 9.04868 1.88867C9.61129 1.32606 10.3743 1.00999 11.17 1.00999H26.67ZM26.67 0.00998849H11.17C10.1091 0.00998849 9.09172 0.431416 8.34157 1.18156C7.59143 1.93171 7.17 2.94912 7.17 4.00999V44.01C7.17 45.0709 7.59143 46.0883 8.34157 46.8384C9.09172 47.5886 10.1091 48.01 11.17 48.01H37.17C38.2309 48.01 39.2483 47.5886 39.9984 46.8384C40.7486 46.0883 41.17 45.0709 41.17 44.01V15.07C41.1905 13.937 40.7711 12.8402 40 12.01L29.88 1.38999C29.4683 0.952004 28.9708 0.603456 28.4186 0.366041C27.8663 0.128626 27.2711 0.0074273 26.67 0.00998849Z" fill="url(#paint0_linear)"/>
<path fill-rule="evenodd" clip-rule="evenodd" d="M7 4.00998C7 2.94911 7.42143 1.9317 8.17157 1.18155C8.92172 0.431407 9.93913 0.00997925 11 0.00997925L26.5 0.00997925C27.1006 0.010946 27.6947 0.133744 28.2465 0.370944C28.7982 0.608144 29.2961 0.954814 29.71 1.38998L39.79 12.01C40.5588 12.8206 40.9912 13.8928 41 15.01V44.01C41 45.0708 40.5786 46.0883 39.8284 46.8384C39.0783 47.5886 38.0609 48.01 37 48.01H11C9.93913 48.01 8.92172 47.5886 8.17157 46.8384C7.42143 46.0883 7 45.0708 7 44.01V4.00998Z" fill="url(#paint1_radial)"/>
<path d="M11.4556 42.1128C11.9658 42.1128 12.2666 41.8013 12.2666 41.2695V39.1641H13.647L14.936 41.5005C15.1992 41.9731 15.3765 42.1128 15.7632 42.1128C16.2358 42.1128 16.5796 41.8013 16.5796 41.3716C16.5796 41.1836 16.542 41.0439 16.4077 40.813L15.2905 38.8794C16.1445 38.5142 16.6226 37.687 16.6226 36.7202C16.6226 35.1895 15.6021 34.2495 13.8188 34.2495H11.4556C10.9453 34.2495 10.6445 34.561 10.6445 35.0928V41.2695C10.6445 41.8013 10.9507 42.1128 11.4556 42.1128ZM12.2666 37.9878V35.5171H13.647C14.4526 35.5171 14.9575 36.0005 14.9575 36.7524C14.9575 37.5205 14.4795 37.9878 13.6631 37.9878H12.2666ZM18.2824 42.1021C18.7927 42.1021 19.0935 41.7905 19.0935 41.2588V38.7344H22.5847V41.2588C22.5847 41.7905 22.8855 42.1021 23.3957 42.1021C23.906 42.1021 24.2068 41.7905 24.2068 41.2588V34.9907C24.2068 34.4536 23.906 34.1421 23.3957 34.1421C22.8855 34.1421 22.5847 34.4536 22.5847 34.9907V37.397H19.0935V34.9907C19.0935 34.4536 18.7927 34.1421 18.2824 34.1421C17.7722 34.1421 17.4714 34.4536 17.4714 34.9907V41.2588C17.4714 41.7905 17.7722 42.1021 18.2824 42.1021ZM26.0869 42H28.2353C30.561 42 31.9306 40.5552 31.9306 38.0952C31.9306 35.6353 30.561 34.2495 28.2353 34.2495H26.0869C25.5766 34.2495 25.2758 34.561 25.2758 35.0928V41.1514C25.2758 41.6885 25.5766 42 26.0869 42ZM26.8979 40.6572V35.5869H28.0419C29.4706 35.5869 30.2763 36.4785 30.2763 38.1006C30.2763 39.7764 29.4921 40.6572 28.0419 40.6572H26.8979Z" fill="white"/>
<path d="M26.5 1.00998C26.9676 1.00849 27.4306 1.10264 27.8606 1.28664C28.2905 1.47065 28.6782 1.74062 29 2.07998L39.06 12.73C39.6659 13.362 40.0028 14.2045 40 15.08V44.01C40 44.8056 39.6839 45.5687 39.1213 46.1313C38.5587 46.6939 37.7956 47.01 37 47.01H11C10.2044 47.01 9.44129 46.6939 8.87868 46.1313C8.31607 45.5687 8 44.8056 8 44.01V4.00998C8 3.21433 8.31607 2.45127 8.87868 1.88866C9.44129 1.32605 10.2044 1.00998 11 1.00998H26.5ZM26.5 0.00997925H11C9.93913 0.00997925 8.92172 0.431407 8.17157 1.18155C7.42143 1.9317 7 2.94911 7 4.00998L7 44.01C7 45.0708 7.42143 46.0883 8.17157 46.8384C8.92172 47.5886 9.93913 48.01 11 48.01H37C38.0609 48.01 39.0783 47.5886 39.8284 46.8384C40.5786 46.0883 41 45.0708 41 44.01V15.08C40.9912 13.9628 40.5588 12.8906 39.79 12.08L29.71 1.38998C29.2961 0.954814 28.7982 0.608144 28.2465 0.370944C27.6947 0.133744 27.1006 0.010946 26.5 0.00997925V0.00997925Z" fill="url(#paint2_linear)"/>
<path fill-rule="evenodd" clip-rule="evenodd" d="M29 1.00998L32 4.00998L34 6.00998C34 6.00998 40 12.01 40 13.01C40.5437 13.5489 40.895 14.2517 41 15.01C41 15.01 40.53 13.53 39.88 13.53H29.73C29.2384 13.53 28.7668 13.3354 28.4183 12.9887C28.0698 12.6421 27.8726 12.1715 27.87 11.68V1.33998C27.8755 1.01725 27.7625 0.703702 27.5524 0.45863C27.3423 0.213559 27.0498 0.0539484 26.73 0.00997925L29 1.00998Z" fill="#EBEBEB"/>
</g>
<defs>
<linearGradient id="paint0_linear" x1="24.17" y1="-1.15084e-05" x2="24.17" y2="48" gradientUnits="userSpaceOnUse">
<stop stop-color="white" stop-opacity="0.8"/>
<stop offset="1" stop-color="white" stop-opacity="0.3"/>
</linearGradient>
<radialGradient id="paint1_radial" cx="0" cy="0" r="1" gradientUnits="userSpaceOnUse" gradientTransform="translate(34.52 6.40998) scale(17.55)">
<stop offset="0.08" stop-opacity="0.3"/>
<stop offset="1" stop-opacity="0"/>
</radialGradient>
<linearGradient id="paint2_linear" x1="24" y1="0.00997925" x2="24" y2="48.01" gradientUnits="userSpaceOnUse">
<stop offset="0.28" stop-color="#EBEBEB"/>
<stop offset="1" stop-color="#EBEBEB" stop-opacity="0.3"/>
</linearGradient>
<clipPath id="clip0">
<rect width="48" height="48" fill="white"/>
</clipPath>
</defs>
</svg>
