<svg width="48" height="48" viewBox="0 0 48 48" fill="none" xmlns="http://www.w3.org/2000/svg">
<g clip-path="url(#clip0)">
<path fill-rule="evenodd" clip-rule="evenodd" d="M7.17001 4.01C7.17001 2.94914 7.59144 1.93172 8.34159 1.18158C9.09173 0.431432 10.1091 0.0100044 11.17 0.0100044H26.67C27.2719 0.00872393 27.8675 0.131491 28.4198 0.370644C28.9721 0.609798 29.4692 0.960206 29.88 1.4L40 12.01C40.7714 12.819 41.2043 13.8922 41.21 15.01V44.01C41.21 45.0709 40.7886 46.0883 40.0384 46.8384C39.2883 47.5886 38.2709 48.01 37.21 48.01H11.21C10.1491 48.01 9.13173 47.5886 8.38159 46.8384C7.63144 46.0883 7.21001 45.0709 7.21001 44.01V4.01H7.17001Z" fill="#4E5261"/>
<path d="M26.67 1.01C27.1345 1.01006 27.594 1.105 28.0205 1.28899C28.4469 1.47299 28.8313 1.74216 29.15 2.08L39.24 12.72C39.8378 13.3564 40.1704 14.1969 40.17 15.07V44.01C40.17 44.8057 39.8539 45.5687 39.2913 46.1313C38.7287 46.6939 37.9657 47.01 37.17 47.01H11.17C10.3744 47.01 9.6113 46.6939 9.04869 46.1313C8.48608 45.5687 8.17001 44.8057 8.17001 44.01V4.01C8.17001 3.21435 8.48608 2.45129 9.04869 1.88868C9.6113 1.32607 10.3744 1.01 11.17 1.01H26.67ZM26.67 0.0100038H11.17C10.1091 0.0100038 9.09173 0.431431 8.34159 1.18158C7.59144 1.93172 7.17001 2.94914 7.17001 4.01V44.01C7.17001 45.0709 7.59144 46.0883 8.34159 46.8384C9.09173 47.5886 10.1091 48.01 11.17 48.01H37.17C38.2309 48.01 39.2483 47.5886 39.9984 46.8384C40.7486 46.0883 41.17 45.0709 41.17 44.01V15.07C41.1905 13.9371 40.7712 12.8403 40 12.01L29.88 1.39C29.4683 0.952019 28.9708 0.603471 28.4186 0.366056C27.8663 0.128642 27.2711 0.00744255 26.67 0.0100038Z" fill="url(#paint0_linear)"/>
<path fill-rule="evenodd" clip-rule="evenodd" d="M7 4.01001C7 2.94914 7.42143 1.93173 8.17157 1.18158C8.92172 0.431437 9.93913 0.0100098 11 0.0100098L26.5 0.0100098C27.1006 0.0109765 27.6947 0.133775 28.2465 0.370974C28.7982 0.608174 29.2961 0.954844 29.71 1.39001L39.79 12.01C40.5588 12.8206 40.9912 13.8928 41 15.01V44.01C41 45.0709 40.5786 46.0883 39.8284 46.8384C39.0783 47.5886 38.0609 48.01 37 48.01H11C9.93913 48.01 8.92172 47.5886 8.17157 46.8384C7.42143 46.0883 7 45.0709 7 44.01V4.01001Z" fill="url(#paint1_radial)"/>
<path d="M13.4805 42.1289C15.4141 42.1289 16.6011 41.1729 16.6011 39.6582C16.6011 38.4819 15.8921 37.8213 14.2485 37.4937L13.4321 37.3271C12.5137 37.1445 12.1431 36.8491 12.1431 36.3711C12.1431 35.8018 12.6748 35.4258 13.4751 35.4258C14.1411 35.4258 14.6406 35.6675 14.8984 36.2529C15.0811 36.5859 15.3066 36.731 15.6719 36.731C16.0854 36.731 16.3647 36.4678 16.3647 36.0811C16.3647 35.9414 16.3433 35.8286 16.3057 35.7212C15.9619 34.7114 14.8931 34.1152 13.4751 34.1152C11.751 34.1152 10.5156 35.0552 10.5156 36.4731C10.5156 37.6279 11.2729 38.3691 12.8198 38.6753L13.6416 38.8364C14.6138 39.0352 14.979 39.3252 14.979 39.8354C14.979 40.4048 14.3882 40.8237 13.5181 40.8237C12.7769 40.8237 12.1699 40.5552 11.9175 39.9644C11.7241 39.6206 11.5039 39.4917 11.1709 39.4917C10.752 39.4917 10.4565 39.7764 10.4565 40.2061C10.4565 40.3511 10.4888 40.5015 10.5425 40.6411C10.854 41.4897 11.8799 42.1289 13.4805 42.1289ZM18.03 42H22.3215C22.7404 42 22.9929 41.7368 22.9929 41.3555C22.9929 40.9634 22.7404 40.7109 22.3215 40.7109H19.3996V40.6787L21.0754 39.0674C22.343 37.8696 22.8049 37.2788 22.8049 36.3335C22.8049 35.0015 21.6985 34.0776 20.0549 34.0776C18.5886 34.0776 17.6164 34.8779 17.3532 35.7373C17.3156 35.8501 17.2942 35.9629 17.2942 36.0864C17.2942 36.4893 17.552 36.7471 17.987 36.7471C18.3362 36.7471 18.5241 36.5967 18.7068 36.2744C18.9861 35.6514 19.4157 35.3398 20.0388 35.3398C20.7317 35.3398 21.2258 35.7964 21.2258 36.4355C21.2258 36.9941 20.9787 37.3701 20.0227 38.2886L17.7131 40.4961C17.3855 40.7969 17.2673 41.001 17.2673 41.3071C17.2673 41.7153 17.5197 42 18.03 42ZM24.6044 42.1128C25.1147 42.1128 25.4155 41.8013 25.4155 41.2695V39.1641H26.7958L28.0849 41.5005C28.3481 41.9731 28.5253 42.1128 28.9121 42.1128C29.3847 42.1128 29.7285 41.8013 29.7285 41.3716C29.7285 41.1836 29.6909 41.0439 29.5566 40.813L28.4394 38.8794C29.2934 38.5142 29.7714 37.687 29.7714 36.7202C29.7714 35.1895 28.7509 34.2495 26.9677 34.2495H24.6044C24.0942 34.2495 23.7934 34.561 23.7934 35.0928V41.2695C23.7934 41.8013 24.0996 42.1128 24.6044 42.1128ZM25.4155 37.9878V35.5171H26.7958C27.6015 35.5171 28.1064 36.0005 28.1064 36.7524C28.1064 37.5205 27.6284 37.9878 26.812 37.9878H25.4155ZM31.2809 42.1021C31.5871 42.1021 31.7589 42 31.963 41.7046L33.6657 39.2876H33.7087L35.4381 41.6992C35.6476 41.9839 35.8463 42.1021 36.1418 42.1021C36.5929 42.1021 36.9206 41.7959 36.9206 41.3716C36.9206 41.1567 36.8561 40.9741 36.7057 40.7808L34.7506 38.1436V38.106L36.7648 35.415C36.9206 35.2163 36.9796 35.0444 36.9796 34.835C36.9796 34.4482 36.6144 34.1421 36.1901 34.1421C35.8786 34.1421 35.7174 34.2603 35.5295 34.5396L33.8161 37.0425H33.7731L32.1134 34.5933C31.904 34.2764 31.6891 34.1421 31.383 34.1421C30.9103 34.1421 30.5612 34.4644 30.5612 34.9048C30.5612 35.1143 30.6203 35.2915 30.7975 35.5278L32.6667 38.0737V38.1167L30.7331 40.813C30.5773 41.0278 30.5129 41.1997 30.5129 41.3984C30.5129 41.7905 30.8512 42.1021 31.2809 42.1021Z" fill="white"/>
<path d="M26.5 1.01001C26.9676 1.00852 27.4306 1.10267 27.8606 1.28667C28.2905 1.47068 28.6782 1.74065 29 2.08001L39.06 12.73C39.6659 13.362 40.0028 14.2045 40 15.08V44.01C40 44.8057 39.6839 45.5687 39.1213 46.1313C38.5587 46.6939 37.7956 47.01 37 47.01H11C10.2044 47.01 9.44129 46.6939 8.87868 46.1313C8.31607 45.5687 8 44.8057 8 44.01V4.01001C8 3.21436 8.31607 2.4513 8.87868 1.88869C9.44129 1.32608 10.2044 1.01001 11 1.01001H26.5ZM26.5 0.0100098H11C9.93913 0.0100098 8.92172 0.431437 8.17157 1.18158C7.42143 1.93173 7 2.94914 7 4.01001L7 44.01C7 45.0709 7.42143 46.0883 8.17157 46.8384C8.92172 47.5886 9.93913 48.01 11 48.01H37C38.0609 48.01 39.0783 47.5886 39.8284 46.8384C40.5786 46.0883 41 45.0709 41 44.01V15.08C40.9912 13.9628 40.5588 12.8906 39.79 12.08L29.71 1.39001C29.2961 0.954844 28.7982 0.608174 28.2465 0.370974C27.6947 0.133775 27.1006 0.0109765 26.5 0.0100098V0.0100098Z" fill="url(#paint2_linear)"/>
<path fill-rule="evenodd" clip-rule="evenodd" d="M29 1.01001L32 4.01001L34 6.01001C34 6.01001 40 12.01 40 13.01C40.5437 13.549 40.895 14.2517 41 15.01C41 15.01 40.53 13.53 39.88 13.53H29.73C29.2384 13.53 28.7668 13.3354 28.4183 12.9888C28.0698 12.6421 27.8727 12.1716 27.87 11.68V1.34001C27.8755 1.01728 27.7625 0.703732 27.5524 0.458661C27.3424 0.213589 27.0498 0.0539789 26.73 0.0100098L29 1.01001Z" fill="#EBEBEB"/>
</g>
<defs>
<linearGradient id="paint0_linear" x1="24.17" y1="3.75037e-06" x2="24.17" y2="48" gradientUnits="userSpaceOnUse">
<stop stop-color="white" stop-opacity="0.8"/>
<stop offset="1" stop-color="white" stop-opacity="0.3"/>
</linearGradient>
<radialGradient id="paint1_radial" cx="0" cy="0" r="1" gradientUnits="userSpaceOnUse" gradientTransform="translate(34.52 6.41001) scale(17.55)">
<stop offset="0.08" stop-opacity="0.3"/>
<stop offset="1" stop-opacity="0"/>
</radialGradient>
<linearGradient id="paint2_linear" x1="24" y1="0.0100098" x2="24" y2="48.01" gradientUnits="userSpaceOnUse">
<stop offset="0.28" stop-color="#EBEBEB"/>
<stop offset="1" stop-color="#EBEBEB" stop-opacity="0.3"/>
</linearGradient>
<clipPath id="clip0">
<rect width="48" height="48" fill="white"/>
</clipPath>
</defs>
</svg>
