<svg width="48" height="48" viewBox="0 0 48 48" fill="none" xmlns="http://www.w3.org/2000/svg">
<g clip-path="url(#clip0)">
<path fill-rule="evenodd" clip-rule="evenodd" d="M7.17001 4.01C7.17001 2.94914 7.59144 1.93172 8.34159 1.18158C9.09173 0.431432 10.1091 0.0100044 11.17 0.0100044H26.67C27.2719 0.00872393 27.8675 0.131491 28.4198 0.370644C28.9721 0.609798 29.4692 0.960206 29.88 1.4L40 12.01C40.7714 12.819 41.2043 13.8922 41.21 15.01V44.01C41.21 45.0709 40.7886 46.0883 40.0384 46.8384C39.2883 47.5886 38.2709 48.01 37.21 48.01H11.21C10.1491 48.01 9.13173 47.5886 8.38159 46.8384C7.63144 46.0883 7.21001 45.0709 7.21001 44.01V4.01H7.17001Z" fill="#4E5261"/>
<path d="M26.67 1.01C27.1345 1.01006 27.594 1.105 28.0205 1.28899C28.4469 1.47299 28.8313 1.74216 29.15 2.08L39.24 12.72C39.8378 13.3564 40.1704 14.1969 40.17 15.07V44.01C40.17 44.8057 39.8539 45.5687 39.2913 46.1313C38.7287 46.6939 37.9657 47.01 37.17 47.01H11.17C10.3744 47.01 9.6113 46.6939 9.04869 46.1313C8.48608 45.5687 8.17001 44.8057 8.17001 44.01V4.01C8.17001 3.21435 8.48608 2.45129 9.04869 1.88868C9.6113 1.32607 10.3744 1.01 11.17 1.01H26.67ZM26.67 0.0100038H11.17C10.1091 0.0100038 9.09173 0.431431 8.34159 1.18158C7.59144 1.93172 7.17001 2.94914 7.17001 4.01V44.01C7.17001 45.0709 7.59144 46.0883 8.34159 46.8384C9.09173 47.5886 10.1091 48.01 11.17 48.01H37.17C38.2309 48.01 39.2483 47.5886 39.9984 46.8384C40.7486 46.0883 41.17 45.0709 41.17 44.01V15.07C41.1905 13.9371 40.7712 12.8403 40 12.01L29.88 1.39C29.4683 0.952019 28.9708 0.603471 28.4186 0.366056C27.8663 0.128642 27.2711 0.00744255 26.67 0.0100038Z" fill="url(#paint0_linear)"/>
<path fill-rule="evenodd" clip-rule="evenodd" d="M7 4.01001C7 2.94914 7.42143 1.93173 8.17157 1.18158C8.92172 0.431437 9.93913 0.0100098 11 0.0100098L26.5 0.0100098C27.1006 0.0109765 27.6947 0.133775 28.2465 0.370974C28.7982 0.608174 29.2961 0.954844 29.71 1.39001L39.79 12.01C40.5588 12.8206 40.9912 13.8928 41 15.01V44.01C41 45.0709 40.5786 46.0883 39.8284 46.8384C39.0783 47.5886 38.0609 48.01 37 48.01H11C9.93913 48.01 8.92172 47.5886 8.17157 46.8384C7.42143 46.0883 7 45.0709 7 44.01V4.01001Z" fill="url(#paint1_radial)"/>
<path d="M13.4805 42.1289C15.4141 42.1289 16.6011 41.1729 16.6011 39.6582C16.6011 38.4819 15.8921 37.8213 14.2485 37.4937L13.4321 37.3271C12.5137 37.1445 12.1431 36.8491 12.1431 36.3711C12.1431 35.8018 12.6748 35.4258 13.4751 35.4258C14.1411 35.4258 14.6406 35.6675 14.8984 36.2529C15.0811 36.5859 15.3066 36.731 15.6719 36.731C16.0854 36.731 16.3647 36.4678 16.3647 36.0811C16.3647 35.9414 16.3433 35.8286 16.3057 35.7212C15.9619 34.7114 14.8931 34.1152 13.4751 34.1152C11.751 34.1152 10.5156 35.0552 10.5156 36.4731C10.5156 37.6279 11.2729 38.3691 12.8198 38.6753L13.6416 38.8364C14.6138 39.0352 14.979 39.3252 14.979 39.8354C14.979 40.4048 14.3882 40.8237 13.5181 40.8237C12.7769 40.8237 12.1699 40.5552 11.9175 39.9644C11.7241 39.6206 11.5039 39.4917 11.1709 39.4917C10.752 39.4917 10.4565 39.7764 10.4565 40.2061C10.4565 40.3511 10.4888 40.5015 10.5425 40.6411C10.854 41.4897 11.8799 42.1289 13.4805 42.1289ZM18.0998 42.1021C18.5564 42.1021 18.8196 41.8228 18.8196 41.3447V36.7686H18.8625L20.78 41.4629C20.9143 41.7959 21.1399 41.9517 21.4836 41.9517C21.822 41.9517 22.0368 41.8013 22.1765 41.4575L24.094 36.7686H24.1369V41.3447C24.1369 41.8228 24.4001 42.1021 24.8567 42.1021C25.3132 42.1021 25.5818 41.8228 25.5818 41.3447V35.1895C25.5818 34.5288 25.195 34.1421 24.5398 34.1421C23.9704 34.1421 23.6535 34.3838 23.4172 34.98L21.4997 39.7441H21.4568L19.5339 34.98C19.2976 34.3784 18.9861 34.1421 18.4221 34.1421C17.7614 34.1421 17.3747 34.5342 17.3747 35.1895V41.3447C17.3747 41.8228 17.6433 42.1021 18.0998 42.1021ZM27.4619 42.1128C27.9721 42.1128 28.2729 41.8013 28.2729 41.2695V39.1641H29.6533L30.9423 41.5005C31.2055 41.9731 31.3828 42.1128 31.7695 42.1128C32.2421 42.1128 32.5859 41.8013 32.5859 41.3716C32.5859 41.1836 32.5483 41.0439 32.414 40.813L31.2968 38.8794C32.1508 38.5142 32.6288 37.687 32.6288 36.7202C32.6288 35.1895 31.6083 34.2495 29.8251 34.2495H27.4619C26.9516 34.2495 26.6508 34.561 26.6508 35.0928V41.2695C26.6508 41.8013 26.957 42.1128 27.4619 42.1128ZM28.2729 37.9878V35.5171H29.6533C30.4589 35.5171 30.9638 36.0005 30.9638 36.7524C30.9638 37.5205 30.4858 37.9878 29.6694 37.9878H28.2729ZM33.7121 42.0923C33.9406 42.0923 34.068 42.0176 34.2438 41.7451L35.1623 40.3652H35.1886L36.1247 41.7671C36.2697 41.9868 36.3927 42.0923 36.6432 42.0923C36.9904 42.0923 37.2541 41.8726 37.2541 41.5254C37.2541 41.3848 37.2101 41.2617 37.1134 41.1299L36.0192 39.6182L37.0959 38.1812C37.2189 38.0229 37.2672 37.8955 37.2672 37.7373C37.2672 37.4121 37.0255 37.1924 36.6652 37.1924C36.4279 37.1924 36.2917 37.2979 36.1203 37.5659L35.2589 38.8799H35.2326L34.3537 37.5571C34.1823 37.2847 34.0461 37.1924 33.7868 37.1924C33.4352 37.1924 33.1715 37.4341 33.1715 37.7549C33.1715 37.9043 33.2155 38.0317 33.3078 38.1548L34.4064 39.6533L33.3034 41.1299C33.1803 41.2925 33.132 41.4155 33.132 41.5693C33.132 41.877 33.3737 42.0923 33.7121 42.0923Z" fill="white"/>
<path d="M26.5 1.01001C26.9676 1.00852 27.4306 1.10267 27.8606 1.28667C28.2905 1.47068 28.6782 1.74065 29 2.08001L39.06 12.73C39.6659 13.362 40.0028 14.2045 40 15.08V44.01C40 44.8057 39.6839 45.5687 39.1213 46.1313C38.5587 46.6939 37.7956 47.01 37 47.01H11C10.2044 47.01 9.44129 46.6939 8.87868 46.1313C8.31607 45.5687 8 44.8057 8 44.01V4.01001C8 3.21436 8.31607 2.4513 8.87868 1.88869C9.44129 1.32608 10.2044 1.01001 11 1.01001H26.5ZM26.5 0.0100098H11C9.93913 0.0100098 8.92172 0.431437 8.17157 1.18158C7.42143 1.93173 7 2.94914 7 4.01001L7 44.01C7 45.0709 7.42143 46.0883 8.17157 46.8384C8.92172 47.5886 9.93913 48.01 11 48.01H37C38.0609 48.01 39.0783 47.5886 39.8284 46.8384C40.5786 46.0883 41 45.0709 41 44.01V15.08C40.9912 13.9628 40.5588 12.8906 39.79 12.08L29.71 1.39001C29.2961 0.954844 28.7982 0.608174 28.2465 0.370974C27.6947 0.133775 27.1006 0.0109765 26.5 0.0100098V0.0100098Z" fill="url(#paint2_linear)"/>
<path fill-rule="evenodd" clip-rule="evenodd" d="M29 1.01001L32 4.01001L34 6.01001C34 6.01001 40 12.01 40 13.01C40.5437 13.549 40.895 14.2517 41 15.01C41 15.01 40.53 13.53 39.88 13.53H29.73C29.2384 13.53 28.7668 13.3354 28.4183 12.9888C28.0698 12.6421 27.8727 12.1716 27.87 11.68V1.34001C27.8755 1.01728 27.7625 0.703732 27.5524 0.458661C27.3424 0.213589 27.0498 0.0539789 26.73 0.0100098L29 1.01001Z" fill="#EBEBEB"/>
</g>
<defs>
<linearGradient id="paint0_linear" x1="24.17" y1="3.75037e-06" x2="24.17" y2="48" gradientUnits="userSpaceOnUse">
<stop stop-color="white" stop-opacity="0.8"/>
<stop offset="1" stop-color="white" stop-opacity="0.3"/>
</linearGradient>
<radialGradient id="paint1_radial" cx="0" cy="0" r="1" gradientUnits="userSpaceOnUse" gradientTransform="translate(34.52 6.41001) scale(17.55)">
<stop offset="0.08" stop-opacity="0.3"/>
<stop offset="1" stop-opacity="0"/>
</radialGradient>
<linearGradient id="paint2_linear" x1="24" y1="0.0100098" x2="24" y2="48.01" gradientUnits="userSpaceOnUse">
<stop offset="0.28" stop-color="#EBEBEB"/>
<stop offset="1" stop-color="#EBEBEB" stop-opacity="0.3"/>
</linearGradient>
<clipPath id="clip0">
<rect width="48" height="48" fill="white"/>
</clipPath>
</defs>
</svg>
