<svg width="48" height="48" viewBox="0 0 48 48" fill="none" xmlns="http://www.w3.org/2000/svg">
<g clip-path="url(#clip0)">
<path fill-rule="evenodd" clip-rule="evenodd" d="M7.17 4.01C7.17 2.94913 7.59143 1.93172 8.34157 1.18157C9.09172 0.431424 10.1091 0.00999679 11.17 0.00999679H26.67C27.2718 0.0087163 27.8675 0.131483 28.4198 0.370637C28.9721 0.60979 29.4691 0.960198 29.88 1.4L40 12.01C40.7714 12.819 41.2042 13.8922 41.21 15.01V44.01C41.21 45.0709 40.7886 46.0883 40.0384 46.8384C39.2883 47.5886 38.2709 48.01 37.21 48.01H11.21C10.1491 48.01 9.13172 47.5886 8.38157 46.8384C7.63143 46.0883 7.21 45.0709 7.21 44.01V4.01H7.17Z" fill="#4E5261"/>
<path d="M26.67 1.01C27.1345 1.01005 27.594 1.10499 28.0205 1.28899C28.4469 1.47298 28.8313 1.74215 29.15 2.08L39.24 12.72C39.8378 13.3564 40.1704 14.1968 40.17 15.07V44.01C40.17 44.8056 39.8539 45.5687 39.2913 46.1313C38.7287 46.6939 37.9656 47.01 37.17 47.01H11.17C10.3743 47.01 9.61129 46.6939 9.04868 46.1313C8.48607 45.5687 8.17 44.8056 8.17 44.01V4.01C8.17 3.21435 8.48607 2.45128 9.04868 1.88868C9.61129 1.32607 10.3743 1.01 11.17 1.01H26.67ZM26.67 0.00999612H11.17C10.1091 0.00999612 9.09172 0.431424 8.34157 1.18157C7.59143 1.93171 7.17 2.94913 7.17 4.01V44.01C7.17 45.0709 7.59143 46.0883 8.34157 46.8384C9.09172 47.5886 10.1091 48.01 11.17 48.01H37.17C38.2309 48.01 39.2483 47.5886 39.9984 46.8384C40.7486 46.0883 41.17 45.0709 41.17 44.01V15.07C41.1905 13.9371 40.7711 12.8403 40 12.01L29.88 1.39C29.4683 0.952012 28.9708 0.603464 28.4186 0.366049C27.8663 0.128634 27.2711 0.00743492 26.67 0.00999612Z" fill="url(#paint0_linear)"/>
<path fill-rule="evenodd" clip-rule="evenodd" d="M7 4.00999C7 2.94913 7.42143 1.93171 8.17157 1.18157C8.92172 0.431422 9.93913 0.00999451 11 0.00999451L26.5 0.00999451C27.1006 0.0109612 27.6947 0.133759 28.2465 0.370959C28.7982 0.608159 29.2961 0.954829 29.71 1.38999L39.79 12.01C40.5588 12.8206 40.9912 13.8928 41 15.01V44.01C41 45.0709 40.5786 46.0883 39.8284 46.8384C39.0783 47.5886 38.0609 48.01 37 48.01H11C9.93913 48.01 8.92172 47.5886 8.17157 46.8384C7.42143 46.0883 7 45.0709 7 44.01V4.00999Z" fill="url(#paint1_radial)"/>
<path d="M13.3086 42.1021C13.8188 42.1021 14.1196 41.7905 14.1196 41.2588V35.5923H15.7256C16.1606 35.5923 16.4561 35.3398 16.4561 34.9209C16.4561 34.502 16.166 34.2495 15.7256 34.2495H10.897C10.4512 34.2495 10.1611 34.502 10.1611 34.9209C10.1611 35.3398 10.4565 35.5923 10.897 35.5923H12.4976V41.2588C12.4976 41.7905 12.7983 42.1021 13.3086 42.1021ZM17.8205 42.1021C18.3039 42.1021 18.594 41.8066 18.594 41.291V36.9243H18.6423L22.0046 41.6348C22.2517 41.9785 22.4665 42.1021 22.8156 42.1021C23.3259 42.1021 23.6106 41.8174 23.6106 41.3125V34.9585C23.6106 34.4375 23.3259 34.1421 22.8371 34.1421C22.3484 34.1421 22.0583 34.4375 22.0583 34.9585V39.2983H22.0154L18.6638 34.6147C18.4167 34.2764 18.1911 34.1421 17.8581 34.1421C17.3425 34.1421 17.0417 34.4375 17.0417 34.9531V41.291C17.0417 41.8066 17.3318 42.1021 17.8205 42.1021ZM27.3491 42.1021C27.8593 42.1021 28.1601 41.7905 28.1601 41.2588V35.5923H29.7661C30.2011 35.5923 30.4965 35.3398 30.4965 34.9209C30.4965 34.502 30.2065 34.2495 29.7661 34.2495H24.9374C24.4916 34.2495 24.2016 34.502 24.2016 34.9209C24.2016 35.3398 24.497 35.5923 24.9374 35.5923H26.538V41.2588C26.538 41.7905 26.8388 42.1021 27.3491 42.1021Z" fill="white"/>
<path d="M26.5 1.00999C26.9676 1.0085 27.4306 1.10265 27.8606 1.28666C28.2905 1.47066 28.6782 1.74064 29 2.07999L39.06 12.73C39.6659 13.362 40.0028 14.2045 40 15.08V44.01C40 44.8056 39.6839 45.5687 39.1213 46.1313C38.5587 46.6939 37.7956 47.01 37 47.01H11C10.2044 47.01 9.44129 46.6939 8.87868 46.1313C8.31607 45.5687 8 44.8056 8 44.01V4.00999C8 3.21434 8.31607 2.45128 8.87868 1.88867C9.44129 1.32607 10.2044 1.00999 11 1.00999H26.5ZM26.5 0.00999451H11C9.93913 0.00999451 8.92172 0.431422 8.17157 1.18157C7.42143 1.93171 7 2.94913 7 4.00999L7 44.01C7 45.0709 7.42143 46.0883 8.17157 46.8384C8.92172 47.5886 9.93913 48.01 11 48.01H37C38.0609 48.01 39.0783 47.5886 39.8284 46.8384C40.5786 46.0883 41 45.0709 41 44.01V15.08C40.9912 13.9628 40.5588 12.8906 39.79 12.08L29.71 1.38999C29.2961 0.954829 28.7982 0.608159 28.2465 0.370959C27.6947 0.133759 27.1006 0.0109612 26.5 0.00999451V0.00999451Z" fill="url(#paint2_linear)"/>
<path fill-rule="evenodd" clip-rule="evenodd" d="M29 1.00999L32 4.00999L34 6.00999C34 6.00999 40 12.01 40 13.01C40.5437 13.5489 40.895 14.2517 41 15.01C41 15.01 40.53 13.53 39.88 13.53H29.73C29.2384 13.53 28.7668 13.3354 28.4183 12.9888C28.0698 12.6421 27.8726 12.1716 27.87 11.68V1.33999C27.8755 1.01726 27.7625 0.703717 27.5524 0.458645C27.3423 0.213574 27.0498 0.0539636 26.73 0.00999451L29 1.00999Z" fill="#EBEBEB"/>
</g>
<defs>
<linearGradient id="paint0_linear" x1="24.17" y1="-3.87903e-06" x2="24.17" y2="48" gradientUnits="userSpaceOnUse">
<stop stop-color="white" stop-opacity="0.8"/>
<stop offset="1" stop-color="white" stop-opacity="0.3"/>
</linearGradient>
<radialGradient id="paint1_radial" cx="0" cy="0" r="1" gradientUnits="userSpaceOnUse" gradientTransform="translate(34.52 6.40999) scale(17.55)">
<stop offset="0.08" stop-opacity="0.3"/>
<stop offset="1" stop-opacity="0"/>
</radialGradient>
<linearGradient id="paint2_linear" x1="24" y1="0.00999451" x2="24" y2="48.01" gradientUnits="userSpaceOnUse">
<stop offset="0.28" stop-color="#EBEBEB"/>
<stop offset="1" stop-color="#EBEBEB" stop-opacity="0.3"/>
</linearGradient>
<clipPath id="clip0">
<rect width="48" height="48" fill="white"/>
</clipPath>
</defs>
</svg>
