<svg width="48" height="48" viewBox="0 0 48 48" fill="none" xmlns="http://www.w3.org/2000/svg">
<g clip-path="url(#clip0)">
<path fill-rule="evenodd" clip-rule="evenodd" d="M7.17001 4.00999C7.17001 2.94912 7.59144 1.93171 8.34159 1.18156C9.09173 0.431417 10.1091 0.00998916 11.17 0.00998916H26.67C27.2719 0.00870867 27.8675 0.131475 28.4198 0.370629C28.9721 0.609783 29.4692 0.960191 29.88 1.39999L40 12.01C40.7714 12.819 41.2043 13.8922 41.21 15.01V44.01C41.21 45.0709 40.7886 46.0883 40.0384 46.8384C39.2883 47.5886 38.2709 48.01 37.21 48.01H11.21C10.1491 48.01 9.13173 47.5886 8.38159 46.8384C7.63144 46.0883 7.21001 45.0709 7.21001 44.01V4.00999H7.17001Z" fill="#4E5261"/>
<path d="M26.67 1.00999C27.1345 1.01005 27.594 1.10498 28.0205 1.28898C28.4469 1.47297 28.8313 1.74215 29.15 2.07999L39.24 12.72C39.8378 13.3564 40.1704 14.1968 40.17 15.07V44.01C40.17 44.8056 39.8539 45.5687 39.2913 46.1313C38.7287 46.6939 37.9657 47.01 37.17 47.01H11.17C10.3744 47.01 9.6113 46.6939 9.04869 46.1313C8.48608 45.5687 8.17001 44.8056 8.17001 44.01V4.00999C8.17001 3.21434 8.48608 2.45128 9.04869 1.88867C9.6113 1.32606 10.3744 1.00999 11.17 1.00999H26.67ZM26.67 0.00998849H11.17C10.1091 0.00998849 9.09173 0.431416 8.34159 1.18156C7.59144 1.93171 7.17001 2.94912 7.17001 4.00999V44.01C7.17001 45.0709 7.59144 46.0883 8.34159 46.8384C9.09173 47.5886 10.1091 48.01 11.17 48.01H37.17C38.2309 48.01 39.2483 47.5886 39.9984 46.8384C40.7486 46.0883 41.17 45.0709 41.17 44.01V15.07C41.1905 13.937 40.7712 12.8402 40 12.01L29.88 1.38999C29.4683 0.952004 28.9708 0.603456 28.4186 0.366041C27.8663 0.128626 27.2711 0.0074273 26.67 0.00998849Z" fill="url(#paint0_linear)"/>
<path fill-rule="evenodd" clip-rule="evenodd" d="M7 4.00998C7 2.94911 7.42143 1.9317 8.17157 1.18155C8.92172 0.431407 9.93913 0.00997925 11 0.00997925L26.5 0.00997925C27.1006 0.010946 27.6947 0.133744 28.2465 0.370944C28.7982 0.608144 29.2961 0.954814 29.71 1.38998L39.79 12.01C40.5588 12.8206 40.9912 13.8928 41 15.01V44.01C41 45.0708 40.5786 46.0883 39.8284 46.8384C39.0783 47.5886 38.0609 48.01 37 48.01H11C9.93913 48.01 8.92172 47.5886 8.17157 46.8384C7.42143 46.0883 7 45.0708 7 44.01V4.00998Z" fill="url(#paint1_radial)"/>
<path d="M13.3887 43.0928C13.96 43.0928 14.3018 42.8389 14.5166 42.2432L16.4893 36.9307C16.5381 36.7988 16.5625 36.667 16.5625 36.5352C16.5625 36.1348 16.2549 35.8564 15.8057 35.8564C15.4199 35.8564 15.2002 36.0273 15.0781 36.4229L13.4326 41.4814H13.3984L11.748 36.4375C11.626 36.0371 11.3916 35.8564 10.9961 35.8564C10.5322 35.8564 10.2197 36.1396 10.2197 36.5547C10.2197 36.6963 10.2441 36.833 10.293 36.9697L12.2559 42.2383C12.4707 42.8389 12.8125 43.0928 13.3887 43.0928ZM17.9104 43.0928C18.3742 43.0928 18.6477 42.8096 18.6477 42.3262V40.0312H21.8215V42.3262C21.8215 42.8096 22.0949 43.0928 22.5588 43.0928C23.0227 43.0928 23.2961 42.8096 23.2961 42.3262V36.6279C23.2961 36.1396 23.0227 35.8564 22.5588 35.8564C22.0949 35.8564 21.8215 36.1396 21.8215 36.6279V38.8154H18.6477V36.6279C18.6477 36.1396 18.3742 35.8564 17.9104 35.8564C17.4465 35.8564 17.173 36.1396 17.173 36.6279V42.3262C17.173 42.8096 17.4465 43.0928 17.9104 43.0928ZM25.0053 43H26.9584C29.0727 43 30.3178 41.6865 30.3178 39.4502C30.3178 37.2139 29.0727 35.9541 26.9584 35.9541H25.0053C24.5414 35.9541 24.268 36.2373 24.268 36.7207V42.2285C24.268 42.7168 24.5414 43 25.0053 43ZM25.7426 41.7793V37.1699H26.7826C28.0814 37.1699 28.8139 37.9805 28.8139 39.4551C28.8139 40.9785 28.101 41.7793 26.7826 41.7793H25.7426ZM31.8072 43.1025C32.2711 43.1025 32.5445 42.8193 32.5445 42.3359V40.4219H33.7994L34.9713 42.5459C35.2105 42.9756 35.3717 43.1025 35.7232 43.1025C36.1529 43.1025 36.4654 42.8193 36.4654 42.4287C36.4654 42.2578 36.4312 42.1309 36.3092 41.9209L35.2936 40.1631C36.0699 39.8311 36.5045 39.0791 36.5045 38.2002C36.5045 36.8086 35.5768 35.9541 33.9557 35.9541H31.8072C31.3434 35.9541 31.0699 36.2373 31.0699 36.7207V42.3359C31.0699 42.8193 31.3482 43.1025 31.8072 43.1025ZM32.5445 39.3525V37.1064H33.7994C34.5318 37.1064 34.9908 37.5459 34.9908 38.2295C34.9908 38.9277 34.5562 39.3525 33.8141 39.3525H32.5445Z" fill="white"/>
<path d="M26.5 1.00998C26.9676 1.00849 27.4306 1.10264 27.8606 1.28664C28.2905 1.47065 28.6782 1.74062 29 2.07998L39.06 12.73C39.6659 13.362 40.0028 14.2045 40 15.08V44.01C40 44.8056 39.6839 45.5687 39.1213 46.1313C38.5587 46.6939 37.7956 47.01 37 47.01H11C10.2044 47.01 9.44129 46.6939 8.87868 46.1313C8.31607 45.5687 8 44.8056 8 44.01V4.00998C8 3.21433 8.31607 2.45127 8.87868 1.88866C9.44129 1.32605 10.2044 1.00998 11 1.00998H26.5ZM26.5 0.00997925H11C9.93913 0.00997925 8.92172 0.431407 8.17157 1.18155C7.42143 1.9317 7 2.94911 7 4.00998L7 44.01C7 45.0708 7.42143 46.0883 8.17157 46.8384C8.92172 47.5886 9.93913 48.01 11 48.01H37C38.0609 48.01 39.0783 47.5886 39.8284 46.8384C40.5786 46.0883 41 45.0708 41 44.01V15.08C40.9912 13.9628 40.5588 12.8906 39.79 12.08L29.71 1.38998C29.2961 0.954814 28.7982 0.608144 28.2465 0.370944C27.6947 0.133744 27.1006 0.010946 26.5 0.00997925V0.00997925Z" fill="url(#paint2_linear)"/>
<path fill-rule="evenodd" clip-rule="evenodd" d="M29 1.00998L32 4.00998L34 6.00998C34 6.00998 40 12.01 40 13.01C40.5437 13.5489 40.895 14.2517 41 15.01C41 15.01 40.53 13.53 39.88 13.53H29.73C29.2384 13.53 28.7668 13.3354 28.4183 12.9887C28.0698 12.6421 27.8727 12.1715 27.87 11.68V1.33998C27.8755 1.01725 27.7625 0.703702 27.5524 0.45863C27.3424 0.213559 27.0498 0.0539484 26.73 0.00997925L29 1.00998Z" fill="#EBEBEB"/>
</g>
<defs>
<linearGradient id="paint0_linear" x1="24.17" y1="-1.15084e-05" x2="24.17" y2="48" gradientUnits="userSpaceOnUse">
<stop stop-color="white" stop-opacity="0.8"/>
<stop offset="1" stop-color="white" stop-opacity="0.3"/>
</linearGradient>
<radialGradient id="paint1_radial" cx="0" cy="0" r="1" gradientUnits="userSpaceOnUse" gradientTransform="translate(34.52 6.40998) scale(17.55)">
<stop offset="0.08" stop-opacity="0.3"/>
<stop offset="1" stop-opacity="0"/>
</radialGradient>
<linearGradient id="paint2_linear" x1="24" y1="0.00997925" x2="24" y2="48.01" gradientUnits="userSpaceOnUse">
<stop offset="0.28" stop-color="#EBEBEB"/>
<stop offset="1" stop-color="#EBEBEB" stop-opacity="0.3"/>
</linearGradient>
<clipPath id="clip0">
<rect width="48" height="48" fill="white"/>
</clipPath>
</defs>
</svg>
