<svg width="48" height="48" viewBox="0 0 48 48" fill="none" xmlns="http://www.w3.org/2000/svg">
<g clip-path="url(#clip0)">
<path fill-rule="evenodd" clip-rule="evenodd" d="M7.17 4.01002C7.17 2.94915 7.59143 1.93174 8.34157 1.18159C9.09172 0.431447 10.1091 0.0100197 11.17 0.0100197H26.67C27.2718 0.00873919 27.8675 0.131506 28.4198 0.370659C28.9721 0.609813 29.4691 0.960221 29.88 1.40002L40 12.01C40.7714 12.819 41.2042 13.8923 41.21 15.01V44.01C41.21 45.0709 40.7886 46.0883 40.0384 46.8384C39.2883 47.5886 38.2709 48.01 37.21 48.01H11.21C10.1491 48.01 9.13172 47.5886 8.38157 46.8384C7.63143 46.0883 7.21 45.0709 7.21 44.01V4.01002H7.17Z" fill="#4E5261"/>
<path d="M26.67 1.00999C27.1345 1.01005 27.594 1.10498 28.0205 1.28898C28.4469 1.47297 28.8313 1.74215 29.15 2.07999L39.24 12.72C39.8378 13.3564 40.1704 14.1968 40.17 15.07V44.01C40.17 44.8056 39.8539 45.5687 39.2913 46.1313C38.7287 46.6939 37.9656 47.01 37.17 47.01H11.17C10.3743 47.01 9.61129 46.6939 9.04868 46.1313C8.48607 45.5687 8.17 44.8056 8.17 44.01V4.00999C8.17 3.21434 8.48607 2.45128 9.04868 1.88867C9.61129 1.32606 10.3743 1.00999 11.17 1.00999H26.67ZM26.67 0.00998849H11.17C10.1091 0.00998849 9.09172 0.431416 8.34157 1.18156C7.59143 1.93171 7.17 2.94912 7.17 4.00999V44.01C7.17 45.0709 7.59143 46.0883 8.34157 46.8384C9.09172 47.5886 10.1091 48.01 11.17 48.01H37.17C38.2309 48.01 39.2483 47.5886 39.9984 46.8384C40.7486 46.0883 41.17 45.0709 41.17 44.01V15.07C41.1905 13.937 40.7711 12.8402 40 12.01L29.88 1.38999C29.4683 0.952004 28.9708 0.603456 28.4186 0.366041C27.8663 0.128626 27.2711 0.0074273 26.67 0.00998849Z" fill="url(#paint0_linear)"/>
<path fill-rule="evenodd" clip-rule="evenodd" d="M7 4.01001C7 2.94914 7.42143 1.93173 8.17157 1.18158C8.92172 0.431437 9.93913 0.0100098 11 0.0100098L26.5 0.0100098C27.1006 0.0109765 27.6947 0.133775 28.2465 0.370974C28.7982 0.608174 29.2961 0.954844 29.71 1.39001L39.79 12.01C40.5588 12.8206 40.9912 13.8928 41 15.01V44.01C41 45.0709 40.5786 46.0883 39.8284 46.8384C39.0783 47.5886 38.0609 48.01 37 48.01H11C9.93913 48.01 8.92172 47.5886 8.17157 46.8384C7.42143 46.0883 7 45.0709 7 44.01V4.01001Z" fill="url(#paint1_radial)"/>
<path d="M11.3052 42.1021C11.6113 42.1021 11.7832 42 11.9873 41.7046L13.6899 39.2876H13.7329L15.4624 41.6992C15.6719 41.9839 15.8706 42.1021 16.166 42.1021C16.6172 42.1021 16.9448 41.7959 16.9448 41.3716C16.9448 41.1567 16.8804 40.9741 16.73 40.7808L14.7749 38.1436V38.106L16.7891 35.415C16.9448 35.2163 17.0039 35.0444 17.0039 34.835C17.0039 34.4482 16.6387 34.1421 16.2144 34.1421C15.9028 34.1421 15.7417 34.2603 15.5537 34.5396L13.8403 37.0425H13.7974L12.1377 34.5933C11.9282 34.2764 11.7134 34.1421 11.4072 34.1421C10.9346 34.1421 10.5854 34.4644 10.5854 34.9048C10.5854 35.1143 10.6445 35.2915 10.8218 35.5278L12.6909 38.0737V38.1167L10.7573 40.813C10.6016 41.0278 10.5371 41.1997 10.5371 41.3984C10.5371 41.7905 10.8755 42.1021 11.3052 42.1021ZM20.6404 42.1289C22.5739 42.1289 23.761 41.1729 23.761 39.6582C23.761 38.4819 23.052 37.8213 21.4084 37.4937L20.592 37.3271C19.6736 37.1445 19.3029 36.8491 19.3029 36.3711C19.3029 35.8018 19.8347 35.4258 20.635 35.4258C21.301 35.4258 21.8005 35.6675 22.0583 36.2529C22.2409 36.5859 22.4665 36.731 22.8318 36.731C23.2453 36.731 23.5246 36.4678 23.5246 36.0811C23.5246 35.9414 23.5031 35.8286 23.4655 35.7212C23.1218 34.7114 22.0529 34.1152 20.635 34.1152C18.9109 34.1152 17.6755 35.0552 17.6755 36.4731C17.6755 37.6279 18.4328 38.3691 19.9797 38.6753L20.8015 38.8364C21.7737 39.0352 22.1389 39.3252 22.1389 39.8354C22.1389 40.4048 21.5481 40.8237 20.6779 40.8237C19.9367 40.8237 19.3298 40.5552 19.0774 39.9644C18.884 39.6206 18.6638 39.4917 18.3308 39.4917C17.9118 39.4917 17.6164 39.7764 17.6164 40.2061C17.6164 40.3511 17.6487 40.5015 17.7024 40.6411C18.0139 41.4897 19.0398 42.1289 20.6404 42.1289ZM25.3456 42H28.9067C29.3525 42 29.6425 41.7476 29.6425 41.3286C29.6425 40.9097 29.3471 40.6572 28.9067 40.6572H26.1567V34.9907C26.1567 34.4536 25.8559 34.1421 25.3456 34.1421C24.8354 34.1421 24.5346 34.4536 24.5346 34.9907V41.1514C24.5346 41.6885 24.8354 42 25.3456 42Z" fill="white"/>
<path d="M26.5 1.01001C26.9676 1.00852 27.4306 1.10267 27.8606 1.28667C28.2905 1.47068 28.6782 1.74065 29 2.08001L39.06 12.73C39.6659 13.362 40.0028 14.2045 40 15.08V44.01C40 44.8057 39.6839 45.5687 39.1213 46.1313C38.5587 46.6939 37.7956 47.01 37 47.01H11C10.2044 47.01 9.44129 46.6939 8.87868 46.1313C8.31607 45.5687 8 44.8057 8 44.01V4.01001C8 3.21436 8.31607 2.4513 8.87868 1.88869C9.44129 1.32608 10.2044 1.01001 11 1.01001H26.5ZM26.5 0.0100098H11C9.93913 0.0100098 8.92172 0.431437 8.17157 1.18158C7.42143 1.93173 7 2.94914 7 4.01001L7 44.01C7 45.0709 7.42143 46.0883 8.17157 46.8384C8.92172 47.5886 9.93913 48.01 11 48.01H37C38.0609 48.01 39.0783 47.5886 39.8284 46.8384C40.5786 46.0883 41 45.0709 41 44.01V15.08C40.9912 13.9628 40.5588 12.8906 39.79 12.08L29.71 1.39001C29.2961 0.954844 28.7982 0.608174 28.2465 0.370974C27.6947 0.133775 27.1006 0.0109765 26.5 0.0100098V0.0100098Z" fill="url(#paint2_linear)"/>
<path fill-rule="evenodd" clip-rule="evenodd" d="M29 1.01001L32 4.01001L34 6.01001C34 6.01001 40 12.01 40 13.01C40.5437 13.549 40.895 14.2517 41 15.01C41 15.01 40.53 13.53 39.88 13.53H29.73C29.2384 13.53 28.7668 13.3354 28.4183 12.9888C28.0698 12.6421 27.8726 12.1716 27.87 11.68V1.34001C27.8755 1.01728 27.7625 0.703732 27.5524 0.458661C27.3423 0.213589 27.0498 0.0539789 26.73 0.0100098L29 1.01001Z" fill="#EBEBEB"/>
</g>
<defs>
<linearGradient id="paint0_linear" x1="24.17" y1="-1.15084e-05" x2="24.17" y2="48" gradientUnits="userSpaceOnUse">
<stop stop-color="white" stop-opacity="0.8"/>
<stop offset="1" stop-color="white" stop-opacity="0.3"/>
</linearGradient>
<radialGradient id="paint1_radial" cx="0" cy="0" r="1" gradientUnits="userSpaceOnUse" gradientTransform="translate(34.52 6.41001) scale(17.55)">
<stop offset="0.08" stop-opacity="0.3"/>
<stop offset="1" stop-opacity="0"/>
</radialGradient>
<linearGradient id="paint2_linear" x1="24" y1="0.0100098" x2="24" y2="48.01" gradientUnits="userSpaceOnUse">
<stop offset="0.28" stop-color="#EBEBEB"/>
<stop offset="1" stop-color="#EBEBEB" stop-opacity="0.3"/>
</linearGradient>
<clipPath id="clip0">
<rect width="48" height="48" fill="white"/>
</clipPath>
</defs>
</svg>
