<svg width="60" height="29" viewBox="0 0 60 29" fill="none" xmlns="http://www.w3.org/2000/svg">
<g clip-path="url(#clip0)">
<path d="M59.5047 19.572L37.5637 19.0577C37.3691 19.0533 37.1777 19.1077 37.0137 19.214C36.8498 19.3203 36.7207 19.4737 36.643 19.6547L36.6338 19.6761L34.5829 24.4613L30.4413 1.45069L30.4398 1.44027C30.3825 1.12641 30.2188 0.842792 29.977 0.638587C29.7351 0.434381 29.4305 0.322472 29.1158 0.322266C28.8012 0.32206 28.4964 0.43357 28.2543 0.637459C28.0122 0.841347 27.8481 1.12475 27.7904 1.43853L24.551 19.0785L0.494763 19.673C0.361627 19.6755 0.234822 19.7311 0.141744 19.8277C0.0486664 19.9243 -0.00321147 20.0542 -0.00268153 20.1893C-0.00215159 20.3243 0.0507436 20.4538 0.144576 20.5496C0.238409 20.6455 0.365646 20.7 0.498798 20.7015L25.4011 21.1147C25.6283 21.1184 25.8499 21.0425 26.0285 20.8999C26.207 20.7573 26.3318 20.5567 26.3817 20.3317L26.3902 20.293L29.0682 8.18617L33.1891 28.169L33.1929 28.1879C33.2381 28.4008 33.3487 28.5936 33.5088 28.7386C33.6689 28.8836 33.8703 28.9733 34.0839 28.9948C34.2974 29.0163 34.5122 28.9685 34.6973 28.8583C34.8824 28.7481 35.0283 28.5811 35.1139 28.3815L38.2351 21.099L59.5047 20.6004C59.6371 20.5973 59.7631 20.5418 59.8557 20.4457C59.9482 20.3496 60.0001 20.2206 60.0001 20.0862C60.0001 19.9518 59.9482 19.8228 59.8557 19.7267C59.7631 19.6306 59.6371 19.575 59.5047 19.5719V19.572Z" fill="url(#paint0_linear)"/>
<path d="M3.85254 0C6.21 0 7.65919 1.53572 7.65919 3.97102V5.41904H5.43144V3.97102C5.43144 2.85214 4.84726 2.17217 3.85254 2.17217C2.83601 2.17217 2.25217 2.85214 2.25217 3.97102C2.25217 4.56362 2.4469 5.08992 3.07396 5.70428L6.03706 8.53466C6.98856 9.45602 7.83214 10.4654 7.83214 12.1548C7.83214 14.5901 6.33964 16.1258 3.939 16.1258C1.51684 16.1259 0.0244141 14.5901 0.0244141 12.1548V10.7065H2.25214V12.1548C2.25214 13.2737 2.85776 13.9536 3.93897 13.9536C4.99872 13.9536 5.60434 13.2737 5.60434 12.1548C5.60434 11.4745 5.27992 10.8383 4.69608 10.2896L1.66801 7.41576C0.457089 6.27477 0.0244141 5.30955 0.0244141 3.90541C0.0244141 1.53572 1.47364 0 3.85254 0Z" fill="white"/>
<path d="M14.9697 10.6186V15.972H12.7419V0.153564H16.5483C18.949 0.153564 20.4629 1.68928 20.4629 4.1246V6.64761C20.4629 9.10504 18.949 10.6186 16.5483 10.6186H14.9697ZM16.5268 8.49067C17.608 8.49067 18.2354 7.83246 18.2354 6.71357V4.05896C18.2354 2.96186 17.608 2.28153 16.5268 2.28153H14.9697V8.49067H16.5268Z" fill="white"/>
<path d="M41.7873 16.4559H39.5596V0.637451H43.4742C45.8749 0.637451 47.3887 2.17317 47.3887 4.60847V6.75853C47.3887 8.27255 46.7399 9.45734 45.6801 10.1373C46.3075 12.0681 47.194 14.7009 47.7564 16.4559H45.4854L43.6038 10.7078H41.7873L41.7873 16.4559ZM43.4523 8.57951C44.5338 8.57951 45.1609 7.9213 45.1609 6.82449V4.54286C45.1609 3.44577 44.5339 2.76542 43.4523 2.76542H41.7873V8.57956L43.4523 8.57951Z" fill="white"/>
<path d="M59.9766 11.1901V12.6385C59.9766 15.0738 58.4845 16.6095 56.0838 16.6095C53.6613 16.6095 52.1692 15.0738 52.1692 12.6385V4.45466C52.1692 2.01936 53.6613 0.483643 56.0838 0.483643C58.4845 0.483643 59.9766 2.01936 59.9766 4.45466V5.90266H57.7491V4.45466C57.7491 3.33578 57.1435 2.6558 56.0837 2.6558C55.0022 2.6558 54.3966 3.33578 54.3966 4.45466V12.6385C54.3966 13.7574 55.0022 14.4374 56.0837 14.4374C57.1435 14.4374 57.7491 13.7574 57.7491 12.6385V11.1901H59.9766Z" fill="white"/>
</g>
<defs>
<linearGradient id="paint0_linear" x1="6.26906e-05" y1="14.661" x2="60.0001" y2="14.661" gradientUnits="userSpaceOnUse">
<stop stop-color="#0B00BF"/>
<stop offset="1" stop-color="#BC00FC"/>
</linearGradient>
<clipPath id="clip0">
<rect width="60" height="29" fill="white"/>
</clipPath>
</defs>
</svg>
