<svg width="16" height="16" viewBox="0 0 16 16" fill="none" xmlns="http://www.w3.org/2000/svg">
<path d="M0 8C0 3.58172 3.58172 0 8 0C12.4183 0 16 3.58172 16 8C16 12.4183 12.4183 16 8 16C3.58172 16 0 12.4183 0 8Z" fill="#2E3A59" fill-opacity="0.1"/>
<path d="M3.8547 7.6355H6.64505C7.2735 7.6355 7.64052 7.2735 7.64052 6.64505V3.92006C7.64052 3.5631 7.36903 3.30166 7.00704 3.30166C6.65008 3.30166 6.38361 3.55807 6.38361 3.92006V4.23177L6.49422 5.63952L5.45852 4.54852L4.10106 3.181C3.98039 3.06033 3.82454 3 3.65862 3C3.27149 3 3 3.26647 3 3.65359C3 3.82453 3.07039 3.98039 3.19105 4.09603L4.55354 5.45852L5.64455 6.49422L4.22172 6.38361H3.8547C3.49774 6.38361 3.2363 6.65008 3.2363 7.00704C3.2363 7.37406 3.49774 7.6355 3.8547 7.6355ZM8.94269 12.7134C9.29965 12.7134 9.56611 12.457 9.56611 12.095V11.7431L9.45551 10.3353L10.4962 11.4263L11.8738 12.814C11.9945 12.9397 12.1503 13 12.3162 13C12.7034 13 12.9749 12.7285 12.9749 12.3464C12.9749 12.1755 12.9045 12.0196 12.7838 11.8989L11.4012 10.5163L10.3052 9.48567L11.728 9.59125H12.1352C12.4922 9.59125 12.7536 9.32981 12.7536 8.96782C12.7536 8.60583 12.4922 8.33937 12.1352 8.33937H9.30468C8.67622 8.33937 8.31423 8.70639 8.31423 9.33484V12.095C8.31423 12.452 8.58069 12.7134 8.94269 12.7134Z" fill="#2E3A59" fill-opacity="0.6"/>
</svg>
